<?xml version="1.0" encoding="UTF-8" standalone="no"?>
<!DOCTYPE svg PUBLIC "-//W3C//DTD SVG 1.1//EN"
 "http://www.w3.org/Graphics/SVG/1.1/DTD/svg11.dtd">
<!-- Generated by graphviz version 2.47.0 (20210316.0004)
 -->
<!-- Title: dbml Pages: 1 -->
<svg width="1548pt" height="694pt"
 viewBox="0.00 0.00 1548.40 694.11" xmlns="http://www.w3.org/2000/svg" xmlns:xlink="http://www.w3.org/1999/xlink">
<g id="graph0" class="graph" transform="scale(1 1) rotate(0) translate(4 690.11)">
<title>dbml</title>
<g id="clust1" class="cluster">
<title>cluster_users</title>
<polygon fill="#dddddd" stroke="#dddddd" points="498.93,-270.11 498.93,-678.11 1532.4,-678.11 1532.4,-270.11 498.93,-270.11"/>
<text text-anchor="middle" x="1015.67" y="-645.31" font-family="Helvetica,sans-Serif" font-size="32.00" fill="#29235c">users</text>
</g>
<!-- users.users -->
<g id="users.users" class="node">
<title>users.users</title>
<ellipse fill="none" stroke="black" stroke-width="0" cx="770.68" cy="-451.11" rx="263.5" ry="172.57"/>
<polygon fill="#d3d3d3" stroke="transparent" points="586.68,-511.11 586.68,-571.11 955.68,-571.11 955.68,-511.11 586.68,-511.11"/>
<polygon fill="none" stroke="#29235c" points="586.68,-511.11 586.68,-571.11 955.68,-571.11 955.68,-511.11 586.68,-511.11"/>
<text text-anchor="start" x="626.26" y="-532.31" font-family="Helvetica,sans-Serif" font-weight="bold" font-size="32.00" fill="#000000"> &#160;&#160;&#160;&#160;&#160;&#160;users.users &#160;&#160;&#160;&#160;&#160;&#160;</text>
<polygon fill="#e7e2dd" stroke="transparent" points="586.68,-451.11 586.68,-511.11 955.68,-511.11 955.68,-451.11 586.68,-451.11"/>
<polygon fill="none" stroke="#29235c" points="586.68,-451.11 586.68,-511.11 955.68,-511.11 955.68,-451.11 586.68,-451.11"/>
<text text-anchor="start" x="597.68" y="-472.31" font-family="Helvetica,sans-Serif" font-weight="bold" font-size="32.00" fill="#29235c">Id</text>
<text text-anchor="start" x="624.37" y="-472.31" font-family="Helvetica,sans-Serif" font-size="32.00" fill="#29235c"> &#160;&#160;&#160;</text>
<text text-anchor="start" x="871.81" y="-472.31" font-family="Helvetica,sans-Serif" font-style="italic" font-size="32.00" fill="#29235c">int</text>
<text text-anchor="start" x="905.59" y="-472.31" font-family="Helvetica,sans-Serif" font-size="32.00" fill="#29235c"> </text>
<text text-anchor="start" x="914.49" y="-472.31" font-family="Helvetica,sans-Serif" font-weight="bold" font-size="32.00" fill="#29235c">(!)</text>
<polygon fill="#e7e2dd" stroke="transparent" points="586.68,-391.11 586.68,-451.11 955.68,-451.11 955.68,-391.11 586.68,-391.11"/>
<polygon fill="none" stroke="#29235c" points="586.68,-391.11 586.68,-451.11 955.68,-451.11 955.68,-391.11 586.68,-391.11"/>
<text text-anchor="start" x="597.23" y="-411.31" font-family="Helvetica,sans-Serif" font-size="32.00" fill="#29235c">Name &#160;&#160;&#160;</text>
<text text-anchor="start" x="717.43" y="-412.31" font-family="Helvetica,sans-Serif" font-style="italic" font-size="32.00" fill="#29235c">varchar(max)</text>
<text text-anchor="start" x="905.85" y="-412.31" font-family="Helvetica,sans-Serif" font-size="32.00" fill="#29235c"> </text>
<text text-anchor="start" x="914.74" y="-412.31" font-family="Helvetica,sans-Serif" font-weight="bold" font-size="32.00" fill="#29235c">(!)</text>
<polygon fill="#e7e2dd" stroke="transparent" points="586.68,-331.11 586.68,-391.11 955.68,-391.11 955.68,-331.11 586.68,-331.11"/>
<polygon fill="none" stroke="#29235c" points="586.68,-331.11 586.68,-391.11 955.68,-391.11 955.68,-331.11 586.68,-331.11"/>
<text text-anchor="start" x="597.68" y="-351.31" font-family="Helvetica,sans-Serif" font-size="32.00" fill="#29235c">Sex &#160;&#160;&#160;</text>
<text text-anchor="start" x="910.9" y="-352.31" font-family="Helvetica,sans-Serif" font-style="italic" font-size="32.00" fill="#29235c">int</text>
<polygon fill="none" stroke="#29235c" stroke-width="2" points="585.18,-330.11 585.18,-572.11 956.18,-572.11 956.18,-330.11 585.18,-330.11"/>
</g>
<!-- users.sexes -->
<g id="users.sexes" class="node">
<title>users.sexes</title>
<g id="a_users.sexes"><a xlink:title="users.sexes&#10;Male or female">
<ellipse fill="none" stroke="black" stroke-width="0" cx="1297.42" cy="-481.11" rx="226.96" ry="130.22"/>
<polygon fill="#200000" stroke="transparent" points="1139.42,-511.11 1139.42,-571.11 1456.42,-571.11 1456.42,-511.11 1139.42,-511.11"/>
<polygon fill="none" stroke="#29235c" points="1139.42,-511.11 1139.42,-571.11 1456.42,-571.11 1456.42,-511.11 1139.42,-511.11"/>
<text text-anchor="start" x="1150.32" y="-532.31" font-family="Helvetica,sans-Serif" font-weight="bold" font-size="32.00" fill="#ffffff"> &#160;&#160;&#160;&#160;&#160;&#160;users.sexes &#160;&#160;&#160;&#160;&#160;&#160;</text>
<polygon fill="#e7e2dd" stroke="transparent" points="1139.42,-451.11 1139.42,-511.11 1456.42,-511.11 1456.42,-451.11 1139.42,-451.11"/>
<polygon fill="none" stroke="#29235c" points="1139.42,-451.11 1139.42,-511.11 1456.42,-511.11 1456.42,-451.11 1139.42,-451.11"/>
<text text-anchor="start" x="1150.42" y="-472.31" font-family="Helvetica,sans-Serif" font-weight="bold" font-size="32.00" fill="#29235c">Id</text>
<text text-anchor="start" x="1177.1" y="-472.31" font-family="Helvetica,sans-Serif" font-size="32.00" fill="#29235c"> &#160;&#160;&#160;</text>
<text text-anchor="start" x="1372.54" y="-472.31" font-family="Helvetica,sans-Serif" font-style="italic" font-size="32.00" fill="#29235c">int</text>
<text text-anchor="start" x="1406.32" y="-472.31" font-family="Helvetica,sans-Serif" font-size="32.00" fill="#29235c"> </text>
<text text-anchor="start" x="1415.22" y="-472.31" font-family="Helvetica,sans-Serif" font-weight="bold" font-size="32.00" fill="#29235c">(!)</text>
<polygon fill="#e7e2dd" stroke="transparent" points="1139.42,-391.11 1139.42,-451.11 1456.42,-451.11 1456.42,-391.11 1139.42,-391.11"/>
<polygon fill="none" stroke="#29235c" points="1139.42,-391.11 1139.42,-451.11 1456.42,-451.11 1456.42,-391.11 1139.42,-391.11"/>
<text text-anchor="start" x="1150.42" y="-411.31" font-family="Helvetica,sans-Serif" font-size="32.00" fill="#29235c">Name &#160;&#160;&#160;</text>
<text text-anchor="start" x="1281.86" y="-412.31" font-family="Helvetica,sans-Serif" font-style="italic" font-size="32.00" fill="#29235c">varchar(10)</text>
<polygon fill="none" stroke="#29235c" stroke-width="2" points="1137.92,-390.11 1137.92,-572.11 1456.92,-572.11 1456.92,-390.11 1137.92,-390.11"/>
</a>
</g>
</g>
<!-- users.users&#45;&gt;users.sexes -->
<!-- users.users&#45;&gt;users.sexes -->
<g id="edge2" class="edge">
<title>users.users:e&#45;&gt;users.sexes:w</title>
<path fill="none" stroke="#29235c" stroke-width="3" d="M956.68,-361.11C1049.98,-361.11 1042.34,-472.59 1128.34,-480.65"/>
<polygon fill="#29235c" stroke="#29235c" stroke-width="3" points="1128.27,-484.15 1138.42,-481.11 1128.59,-477.16 1128.27,-484.15"/>
<text text-anchor="middle" x="1147.31" y="-490.71" font-family="Helvetica,sans-Serif" font-size="32.00" fill="#29235c">1</text>
<text text-anchor="middle" x="962.91" y="-370.71" font-family="Helvetica,sans-Serif" font-size="32.00" fill="#29235c">*</text>
</g>
<!-- teams -->
<g id="teams" class="node">
<title>teams</title>
<ellipse fill="none" stroke="black" stroke-width="0" cx="770.68" cy="-130.11" rx="218.49" ry="130.22"/>
<polygon fill="#1d71b8" stroke="transparent" points="618.68,-160.11 618.68,-220.11 923.68,-220.11 923.68,-160.11 618.68,-160.11"/>
<polygon fill="none" stroke="#29235c" points="618.68,-160.11 618.68,-220.11 923.68,-220.11 923.68,-160.11 618.68,-160.11"/>
<text text-anchor="start" x="665.37" y="-181.31" font-family="Helvetica,sans-Serif" font-weight="bold" font-size="32.00" fill="#ffffff"> &#160;&#160;&#160;&#160;&#160;&#160;teams &#160;&#160;&#160;&#160;&#160;&#160;</text>
<polygon fill="#e7e2dd" stroke="transparent" points="618.68,-100.11 618.68,-160.11 923.68,-160.11 923.68,-100.11 618.68,-100.11"/>
<polygon fill="none" stroke="#29235c" points="618.68,-100.11 618.68,-160.11 923.68,-160.11 923.68,-100.11 618.68,-100.11"/>
<text text-anchor="start" x="629.68" y="-121.31" font-family="Helvetica,sans-Serif" font-weight="bold" font-size="32.00" fill="#29235c">Id</text>
<text text-anchor="start" x="656.37" y="-121.31" font-family="Helvetica,sans-Serif" font-size="32.00" fill="#29235c"> &#160;&#160;&#160;</text>
<text text-anchor="start" x="878.9" y="-121.31" font-family="Helvetica,sans-Serif" font-style="italic" font-size="32.00" fill="#29235c">int</text>
<polygon fill="#e7e2dd" stroke="transparent" points="618.68,-40.11 618.68,-100.11 923.68,-100.11 923.68,-40.11 618.68,-40.11"/>
<polygon fill="none" stroke="#29235c" points="618.68,-40.11 618.68,-100.11 923.68,-100.11 923.68,-40.11 618.68,-40.11"/>
<text text-anchor="start" x="629.23" y="-60.31" font-family="Helvetica,sans-Serif" font-size="32.00" fill="#29235c">Name &#160;&#160;&#160;</text>
<text text-anchor="start" x="749.41" y="-61.31" font-family="Helvetica,sans-Serif" font-style="italic" font-size="32.00" fill="#29235c">varchar(20)</text>
<polygon fill="none" stroke="#29235c" stroke-width="2" points="617.18,-39.11 617.18,-221.11 924.18,-221.11 924.18,-39.11 617.18,-39.11"/>
</g>
<!-- teams_users -->
<g id="teams_users" class="node">
<title>teams_users</title>
<ellipse fill="none" stroke="black" stroke-width="0" cx="235.47" cy="-305.11" rx="235.43" ry="172.57"/>
<polygon fill="#1d71b8" stroke="transparent" points="71.47,-365.11 71.47,-425.11 400.47,-425.11 400.47,-365.11 71.47,-365.11"/>
<polygon fill="none" stroke="#29235c" points="71.47,-365.11 71.47,-425.11 400.47,-425.11 400.47,-365.11 71.47,-365.11"/>
<text text-anchor="start" x="82.15" y="-386.31" font-family="Helvetica,sans-Serif" font-weight="bold" font-size="32.00" fill="#ffffff"> &#160;&#160;&#160;&#160;&#160;&#160;teams_users &#160;&#160;&#160;&#160;&#160;&#160;</text>
<polygon fill="#e7e2dd" stroke="transparent" points="71.47,-305.11 71.47,-365.11 400.47,-365.11 400.47,-305.11 71.47,-305.11"/>
<polygon fill="none" stroke="#29235c" points="71.47,-305.11 71.47,-365.11 400.47,-365.11 400.47,-305.11 71.47,-305.11"/>
<text text-anchor="start" x="82.47" y="-326.31" font-family="Helvetica,sans-Serif" font-weight="bold" font-size="32.00" fill="#29235c">Id</text>
<text text-anchor="start" x="109.15" y="-326.31" font-family="Helvetica,sans-Serif" font-size="32.00" fill="#29235c"> &#160;&#160;&#160;</text>
<text text-anchor="start" x="355.68" y="-326.31" font-family="Helvetica,sans-Serif" font-style="italic" font-size="32.00" fill="#29235c">int</text>
<polygon fill="#e7e2dd" stroke="transparent" points="71.47,-245.11 71.47,-305.11 400.47,-305.11 400.47,-245.11 71.47,-245.11"/>
<polygon fill="none" stroke="#29235c" points="71.47,-245.11 71.47,-305.11 400.47,-305.11 400.47,-245.11 71.47,-245.11"/>
<text text-anchor="start" x="82.47" y="-265.31" font-family="Helvetica,sans-Serif" font-size="32.00" fill="#29235c">TeamId &#160;&#160;&#160;</text>
<text text-anchor="start" x="355.68" y="-266.31" font-family="Helvetica,sans-Serif" font-style="italic" font-size="32.00" fill="#29235c">int</text>
<polygon fill="#e7e2dd" stroke="transparent" points="71.47,-185.11 71.47,-245.11 400.47,-245.11 400.47,-185.11 71.47,-185.11"/>
<polygon fill="none" stroke="#29235c" points="71.47,-185.11 71.47,-245.11 400.47,-245.11 400.47,-185.11 71.47,-185.11"/>
<text text-anchor="start" x="82.47" y="-205.31" font-family="Helvetica,sans-Serif" font-size="32.00" fill="#29235c">UserId &#160;&#160;&#160;</text>
<text text-anchor="start" x="355.68" y="-206.31" font-family="Helvetica,sans-Serif" font-style="italic" font-size="32.00" fill="#29235c">int</text>
<polygon fill="none" stroke="#29235c" stroke-width="2" points="69.97,-184.11 69.97,-426.11 400.97,-426.11 400.97,-184.11 69.97,-184.11"/>
</g>
<!-- teams_users&#45;&gt;users.users -->
<!-- teams_users&#45;&gt;users.users -->
<g id="edge6" class="edge">
<title>teams_users:e&#45;&gt;users.users:w</title>
<path fill="none" stroke="#29235c" stroke-width="3" d="M401.47,-215.11C541.76,-215.11 446.78,-468.28 575.59,-480.64"/>
<polygon fill="#29235c" stroke="#29235c" stroke-width="3" points="575.53,-484.14 585.68,-481.11 575.86,-477.15 575.53,-484.14"/>
<text text-anchor="middle" x="576.79" y="-490.71" font-family="Helvetica,sans-Serif" font-size="32.00" fill="#29235c">1</text>
<text text-anchor="middle" x="407.69" y="-186.31" font-family="Helvetica,sans-Serif" font-size="32.00" fill="#29235c">*</text>
</g>
<!-- teams_users&#45;&gt;teams -->
<!-- teams_users&#45;&gt;teams -->
<g id="edge4" class="edge">
<title>teams_users:e&#45;&gt;teams:w</title>
<path fill="none" stroke="#29235c" stroke-width="3" d="M401.47,-275.11C513.67,-275.11 502.78,-138.75 607.53,-130.5"/>
<polygon fill="#29235c" stroke="#29235c" stroke-width="3" points="607.83,-133.99 617.68,-130.11 607.56,-126.99 607.83,-133.99"/>
<text text-anchor="middle" x="608.79" y="-101.31" font-family="Helvetica,sans-Serif" font-size="32.00" fill="#29235c">1</text>
<text text-anchor="middle" x="407.69" y="-255.91" font-family="Helvetica,sans-Serif" font-size="32.00" fill="#29235c">*</text>
</g>
</g>
</svg>
