<?xml version="1.0" encoding="UTF-8" standalone="no"?>
<!DOCTYPE svg PUBLIC "-//W3C//DTD SVG 1.1//EN"
 "http://www.w3.org/Graphics/SVG/1.1/DTD/svg11.dtd">
<!-- Generated by graphviz version 2.47.0 (20210316.0004)
 -->
<!-- Title: dbml Pages: 1 -->
<svg width="1564pt" height="848pt"
 viewBox="0.00 0.00 1564.40 848.00" xmlns="http://www.w3.org/2000/svg" xmlns:xlink="http://www.w3.org/1999/xlink">
<g id="graph0" class="graph" transform="scale(1 1) rotate(0) translate(4 844)">
<title>dbml</title>
<g id="clust2" class="cluster">
<title>cluster_teams</title>
<g id="a_clust2"><a xlink:title="teams&#10;The team tables">
<polygon fill="#fcecec" stroke="#fcecec" points="8,-424 8,-832 1013.18,-832 1013.18,-424 8,-424"/>
<text text-anchor="middle" x="510.59" y="-799.2" font-family="Helvetica,sans-Serif" font-size="32.00" fill="#29235c">teams</text>
</a>
</g>
</g>
<g id="clust1" class="cluster">
<title>cluster_users</title>
<g id="a_clust1"><a xlink:title="users&#10;User details">
<polygon fill="#dddddd" stroke="#dddddd" points="514.93,-8 514.93,-416 1548.4,-416 1548.4,-8 514.93,-8"/>
<text text-anchor="middle" x="1031.67" y="-383.2" font-family="Helvetica,sans-Serif" font-size="32.00" fill="#29235c">users</text>
</a>
</g>
</g>
<!-- users.users -->
<g id="users.users" class="node">
<title>users.users</title>
<g id="a_users.users"><a xlink:title="users.users&#10;a test note">
<ellipse fill="none" stroke="black" stroke-width="0" cx="786.68" cy="-189" rx="263.5" ry="172.57"/>
<polygon fill="#d3d3d3" stroke="transparent" points="602.68,-249 602.68,-309 971.68,-309 971.68,-249 602.68,-249"/>
<polygon fill="none" stroke="#29235c" points="602.68,-249 602.68,-309 971.68,-309 971.68,-249 602.68,-249"/>
<text text-anchor="start" x="642.26" y="-270.2" font-family="Helvetica,sans-Serif" font-weight="bold" font-size="32.00" fill="#000000"> &#160;&#160;&#160;&#160;&#160;&#160;users.users &#160;&#160;&#160;&#160;&#160;&#160;</text>
<polygon fill="#e7e2dd" stroke="transparent" points="602.68,-189 602.68,-249 971.68,-249 971.68,-189 602.68,-189"/>
<polygon fill="none" stroke="#29235c" points="602.68,-189 602.68,-249 971.68,-249 971.68,-189 602.68,-189"/>
<text text-anchor="start" x="613.68" y="-210.2" font-family="Helvetica,sans-Serif" font-weight="bold" font-size="32.00" fill="#29235c">Id</text>
<text text-anchor="start" x="640.37" y="-210.2" font-family="Helvetica,sans-Serif" font-size="32.00" fill="#29235c"> &#160;&#160;&#160;</text>
<text text-anchor="start" x="887.81" y="-210.2" font-family="Helvetica,sans-Serif" font-style="italic" font-size="32.00" fill="#29235c">int</text>
<text text-anchor="start" x="921.59" y="-210.2" font-family="Helvetica,sans-Serif" font-size="32.00" fill="#29235c"> </text>
<text text-anchor="start" x="930.49" y="-210.2" font-family="Helvetica,sans-Serif" font-weight="bold" font-size="32.00" fill="#29235c">(!)</text>
<polygon fill="#e7e2dd" stroke="transparent" points="602.68,-129 602.68,-189 971.68,-189 971.68,-129 602.68,-129"/>
<polygon fill="none" stroke="#29235c" points="602.68,-129 602.68,-189 971.68,-189 971.68,-129 602.68,-129"/>
<text text-anchor="start" x="613.23" y="-149.2" font-family="Helvetica,sans-Serif" font-size="32.00" fill="#29235c">Name &#160;&#160;&#160;</text>
<text text-anchor="start" x="733.43" y="-150.2" font-family="Helvetica,sans-Serif" font-style="italic" font-size="32.00" fill="#29235c">varchar(max)</text>
<text text-anchor="start" x="921.85" y="-150.2" font-family="Helvetica,sans-Serif" font-size="32.00" fill="#29235c"> </text>
<text text-anchor="start" x="930.74" y="-150.2" font-family="Helvetica,sans-Serif" font-weight="bold" font-size="32.00" fill="#29235c">(!)</text>
<polygon fill="#e7e2dd" stroke="transparent" points="602.68,-69 602.68,-129 971.68,-129 971.68,-69 602.68,-69"/>
<polygon fill="none" stroke="#29235c" points="602.68,-69 602.68,-129 971.68,-129 971.68,-69 602.68,-69"/>
<text text-anchor="start" x="613.68" y="-89.2" font-family="Helvetica,sans-Serif" font-size="32.00" fill="#29235c">Sex &#160;&#160;&#160;</text>
<text text-anchor="start" x="926.9" y="-90.2" font-family="Helvetica,sans-Serif" font-style="italic" font-size="32.00" fill="#29235c">int</text>
<polygon fill="none" stroke="#29235c" stroke-width="2" points="601.18,-68 601.18,-310 972.18,-310 972.18,-68 601.18,-68"/>
</a>
</g>
</g>
<!-- users.sexes -->
<g id="users.sexes" class="node">
<title>users.sexes</title>
<g id="a_users.sexes"><a xlink:title="users.sexes&#10;Male or female">
<ellipse fill="none" stroke="black" stroke-width="0" cx="1313.42" cy="-219" rx="226.96" ry="130.22"/>
<polygon fill="#200000" stroke="transparent" points="1155.42,-249 1155.42,-309 1472.42,-309 1472.42,-249 1155.42,-249"/>
<polygon fill="none" stroke="#29235c" points="1155.42,-249 1155.42,-309 1472.42,-309 1472.42,-249 1155.42,-249"/>
<text text-anchor="start" x="1166.32" y="-270.2" font-family="Helvetica,sans-Serif" font-weight="bold" font-size="32.00" fill="#ffffff"> &#160;&#160;&#160;&#160;&#160;&#160;users.sexes &#160;&#160;&#160;&#160;&#160;&#160;</text>
<polygon fill="#e7e2dd" stroke="transparent" points="1155.42,-189 1155.42,-249 1472.42,-249 1472.42,-189 1155.42,-189"/>
<polygon fill="none" stroke="#29235c" points="1155.42,-189 1155.42,-249 1472.42,-249 1472.42,-189 1155.42,-189"/>
<text text-anchor="start" x="1166.42" y="-210.2" font-family="Helvetica,sans-Serif" font-weight="bold" font-size="32.00" fill="#29235c">Id</text>
<text text-anchor="start" x="1193.1" y="-210.2" font-family="Helvetica,sans-Serif" font-size="32.00" fill="#29235c"> &#160;&#160;&#160;</text>
<text text-anchor="start" x="1388.54" y="-210.2" font-family="Helvetica,sans-Serif" font-style="italic" font-size="32.00" fill="#29235c">int</text>
<text text-anchor="start" x="1422.32" y="-210.2" font-family="Helvetica,sans-Serif" font-size="32.00" fill="#29235c"> </text>
<text text-anchor="start" x="1431.22" y="-210.2" font-family="Helvetica,sans-Serif" font-weight="bold" font-size="32.00" fill="#29235c">(!)</text>
<polygon fill="#e7e2dd" stroke="transparent" points="1155.42,-129 1155.42,-189 1472.42,-189 1472.42,-129 1155.42,-129"/>
<polygon fill="none" stroke="#29235c" points="1155.42,-129 1155.42,-189 1472.42,-189 1472.42,-129 1155.42,-129"/>
<text text-anchor="start" x="1166.42" y="-149.2" font-family="Helvetica,sans-Serif" font-size="32.00" fill="#29235c">Name &#160;&#160;&#160;</text>
<text text-anchor="start" x="1297.86" y="-150.2" font-family="Helvetica,sans-Serif" font-style="italic" font-size="32.00" fill="#29235c">varchar(10)</text>
<polygon fill="none" stroke="#29235c" stroke-width="2" points="1153.92,-128 1153.92,-310 1472.92,-310 1472.92,-128 1153.92,-128"/>
</a>
</g>
</g>
<!-- users.users&#45;&gt;users.sexes -->
<!-- users.users&#45;&gt;users.sexes -->
<g id="edge2" class="edge">
<title>users.users:e&#45;&gt;users.sexes:w</title>
<path fill="none" stroke="#29235c" stroke-width="3" d="M972.68,-99C1065.98,-99 1058.34,-210.48 1144.34,-218.54"/>
<polygon fill="#29235c" stroke="#29235c" stroke-width="3" points="1144.27,-222.04 1154.42,-219 1144.59,-215.05 1144.27,-222.04"/>
<text text-anchor="middle" x="1163.31" y="-190.2" font-family="Helvetica,sans-Serif" font-size="32.00" fill="#29235c">1</text>
<text text-anchor="middle" x="978.91" y="-70.2" font-family="Helvetica,sans-Serif" font-size="32.00" fill="#29235c">*</text>
</g>
<!-- teams -->
<g id="teams" class="node">
<title>teams</title>
<g id="a_teams"><a xlink:title="teams&#10;Another note">
<ellipse fill="none" stroke="black" stroke-width="0" cx="786.68" cy="-635" rx="218.49" ry="130.22"/>
<polygon fill="#1d71b8" stroke="transparent" points="634.68,-665 634.68,-725 939.68,-725 939.68,-665 634.68,-665"/>
<polygon fill="none" stroke="#29235c" points="634.68,-665 634.68,-725 939.68,-725 939.68,-665 634.68,-665"/>
<text text-anchor="start" x="681.37" y="-686.2" font-family="Helvetica,sans-Serif" font-weight="bold" font-size="32.00" fill="#ffffff"> &#160;&#160;&#160;&#160;&#160;&#160;teams &#160;&#160;&#160;&#160;&#160;&#160;</text>
<polygon fill="#e7e2dd" stroke="transparent" points="634.68,-605 634.68,-665 939.68,-665 939.68,-605 634.68,-605"/>
<polygon fill="none" stroke="#29235c" points="634.68,-605 634.68,-665 939.68,-665 939.68,-605 634.68,-605"/>
<text text-anchor="start" x="645.68" y="-626.2" font-family="Helvetica,sans-Serif" font-weight="bold" font-size="32.00" fill="#29235c">Id</text>
<text text-anchor="start" x="672.37" y="-626.2" font-family="Helvetica,sans-Serif" font-size="32.00" fill="#29235c"> &#160;&#160;&#160;</text>
<text text-anchor="start" x="894.9" y="-626.2" font-family="Helvetica,sans-Serif" font-style="italic" font-size="32.00" fill="#29235c">int</text>
<polygon fill="#e7e2dd" stroke="transparent" points="634.68,-545 634.68,-605 939.68,-605 939.68,-545 634.68,-545"/>
<polygon fill="none" stroke="#29235c" points="634.68,-545 634.68,-605 939.68,-605 939.68,-545 634.68,-545"/>
<text text-anchor="start" x="645.23" y="-565.2" font-family="Helvetica,sans-Serif" font-size="32.00" fill="#29235c">Name &#160;&#160;&#160;</text>
<text text-anchor="start" x="765.41" y="-566.2" font-family="Helvetica,sans-Serif" font-style="italic" font-size="32.00" fill="#29235c">varchar(20)</text>
<polygon fill="none" stroke="#29235c" stroke-width="2" points="633.18,-544 633.18,-726 940.18,-726 940.18,-544 633.18,-544"/>
</a>
</g>
</g>
<!-- teams_users -->
<g id="teams_users" class="node">
<title>teams_users</title>
<ellipse fill="none" stroke="black" stroke-width="0" cx="251.47" cy="-605" rx="235.43" ry="172.57"/>
<polygon fill="#1d71b8" stroke="transparent" points="87.47,-665 87.47,-725 416.47,-725 416.47,-665 87.47,-665"/>
<polygon fill="none" stroke="#29235c" points="87.47,-665 87.47,-725 416.47,-725 416.47,-665 87.47,-665"/>
<text text-anchor="start" x="98.15" y="-686.2" font-family="Helvetica,sans-Serif" font-weight="bold" font-size="32.00" fill="#ffffff"> &#160;&#160;&#160;&#160;&#160;&#160;teams_users &#160;&#160;&#160;&#160;&#160;&#160;</text>
<polygon fill="#e7e2dd" stroke="transparent" points="87.47,-605 87.47,-665 416.47,-665 416.47,-605 87.47,-605"/>
<polygon fill="none" stroke="#29235c" points="87.47,-605 87.47,-665 416.47,-665 416.47,-605 87.47,-605"/>
<text text-anchor="start" x="98.47" y="-626.2" font-family="Helvetica,sans-Serif" font-weight="bold" font-size="32.00" fill="#29235c">Id</text>
<text text-anchor="start" x="125.15" y="-626.2" font-family="Helvetica,sans-Serif" font-size="32.00" fill="#29235c"> &#160;&#160;&#160;</text>
<text text-anchor="start" x="371.68" y="-626.2" font-family="Helvetica,sans-Serif" font-style="italic" font-size="32.00" fill="#29235c">int</text>
<polygon fill="#e7e2dd" stroke="transparent" points="87.47,-545 87.47,-605 416.47,-605 416.47,-545 87.47,-545"/>
<polygon fill="none" stroke="#29235c" points="87.47,-545 87.47,-605 416.47,-605 416.47,-545 87.47,-545"/>
<text text-anchor="start" x="98.47" y="-565.2" font-family="Helvetica,sans-Serif" font-size="32.00" fill="#29235c">TeamId &#160;&#160;&#160;</text>
<text text-anchor="start" x="371.68" y="-566.2" font-family="Helvetica,sans-Serif" font-style="italic" font-size="32.00" fill="#29235c">int</text>
<polygon fill="#e7e2dd" stroke="transparent" points="87.47,-485 87.47,-545 416.47,-545 416.47,-485 87.47,-485"/>
<polygon fill="none" stroke="#29235c" points="87.47,-485 87.47,-545 416.47,-545 416.47,-485 87.47,-485"/>
<text text-anchor="start" x="98.47" y="-505.2" font-family="Helvetica,sans-Serif" font-size="32.00" fill="#29235c">UserId &#160;&#160;&#160;</text>
<text text-anchor="start" x="371.68" y="-506.2" font-family="Helvetica,sans-Serif" font-style="italic" font-size="32.00" fill="#29235c">int</text>
<polygon fill="none" stroke="#29235c" stroke-width="2" points="85.97,-484 85.97,-726 416.97,-726 416.97,-484 85.97,-484"/>
</g>
<!-- teams_users&#45;&gt;users.users -->
<!-- teams_users&#45;&gt;users.users -->
<g id="edge6" class="edge">
<title>teams_users:e&#45;&gt;users.users:w</title>
<path fill="none" stroke="#29235c" stroke-width="3" d="M417.47,-515C568.94,-515 452.24,-232.15 591.66,-219.44"/>
<polygon fill="#29235c" stroke="#29235c" stroke-width="3" points="591.85,-222.94 601.68,-219 591.54,-215.94 591.85,-222.94"/>
<text text-anchor="middle" x="592.79" y="-190.2" font-family="Helvetica,sans-Serif" font-size="32.00" fill="#29235c">1</text>
<text text-anchor="middle" x="423.69" y="-524.6" font-family="Helvetica,sans-Serif" font-size="32.00" fill="#29235c">*</text>
</g>
<!-- teams_users&#45;&gt;teams -->
<!-- teams_users&#45;&gt;teams -->
<g id="edge4" class="edge">
<title>teams_users:e&#45;&gt;teams:w</title>
<path fill="none" stroke="#29235c" stroke-width="3" d="M417.47,-575C513.69,-575 532.67,-630.86 623.47,-634.78"/>
<polygon fill="#29235c" stroke="#29235c" stroke-width="3" points="623.61,-638.29 633.68,-635 623.76,-631.29 623.61,-638.29"/>
<text text-anchor="middle" x="624.79" y="-644.6" font-family="Helvetica,sans-Serif" font-size="32.00" fill="#29235c">1</text>
<text text-anchor="middle" x="423.69" y="-584.6" font-family="Helvetica,sans-Serif" font-size="32.00" fill="#29235c">*</text>
</g>
</g>
</svg>
