<?xml version="1.0" encoding="UTF-8" standalone="no"?>
<!DOCTYPE svg PUBLIC "-//W3C//DTD SVG 1.1//EN"
 "http://www.w3.org/Graphics/SVG/1.1/DTD/svg11.dtd">
<!-- Generated by graphviz version 2.47.0 (20210316.0004)
 -->
<!-- Title: dbml Pages: 1 -->
<svg width="840pt" height="788pt"
 viewBox="0.00 0.00 840.36 788.07" xmlns="http://www.w3.org/2000/svg" xmlns:xlink="http://www.w3.org/1999/xlink">
<g id="graph0" class="graph" transform="scale(1 1) rotate(0) translate(4 784.07)">
<title>dbml</title>
<!-- Person -->
<g id="Person" class="node">
<title>Person</title>
<ellipse fill="none" stroke="black" stroke-width="0" cx="621.89" cy="-172.53" rx="177.47" ry="172.57"/>
<polygon fill="#1d71b8" stroke="transparent" points="498.89,-232.53 498.89,-292.53 745.89,-292.53 745.89,-232.53 498.89,-232.53"/>
<polygon fill="none" stroke="#29235c" points="498.89,-232.53 498.89,-292.53 745.89,-292.53 745.89,-232.53 498.89,-232.53"/>
<text text-anchor="start" x="509.46" y="-253.73" font-family="Helvetica,sans-Serif" font-weight="bold" font-size="32.00" fill="#ffffff"> &#160;&#160;&#160;&#160;&#160;&#160;Person &#160;&#160;&#160;&#160;&#160;&#160;</text>
<polygon fill="#e7e2dd" stroke="transparent" points="498.89,-172.53 498.89,-232.53 745.89,-232.53 745.89,-172.53 498.89,-172.53"/>
<polygon fill="none" stroke="#29235c" points="498.89,-172.53 498.89,-232.53 745.89,-232.53 745.89,-172.53 498.89,-172.53"/>
<text text-anchor="start" x="509.89" y="-192.73" font-family="Helvetica,sans-Serif" font-size="32.00" fill="#29235c">id &#160;&#160;&#160;</text>
<text text-anchor="start" x="701.11" y="-193.73" font-family="Helvetica,sans-Serif" font-style="italic" font-size="32.00" fill="#29235c">int</text>
<polygon fill="#e7e2dd" stroke="transparent" points="498.89,-112.53 498.89,-172.53 745.89,-172.53 745.89,-112.53 498.89,-112.53"/>
<polygon fill="none" stroke="#29235c" points="498.89,-112.53 498.89,-172.53 745.89,-172.53 745.89,-112.53 498.89,-112.53"/>
<text text-anchor="start" x="509.89" y="-132.73" font-family="Helvetica,sans-Serif" font-size="32.00" fill="#29235c">parent1 &#160;&#160;&#160;</text>
<text text-anchor="start" x="701.11" y="-133.73" font-family="Helvetica,sans-Serif" font-style="italic" font-size="32.00" fill="#29235c">int</text>
<polygon fill="#e7e2dd" stroke="transparent" points="498.89,-52.53 498.89,-112.53 745.89,-112.53 745.89,-52.53 498.89,-52.53"/>
<polygon fill="none" stroke="#29235c" points="498.89,-52.53 498.89,-112.53 745.89,-112.53 745.89,-52.53 498.89,-52.53"/>
<text text-anchor="start" x="509.89" y="-72.73" font-family="Helvetica,sans-Serif" font-size="32.00" fill="#29235c">parent2 &#160;&#160;&#160;</text>
<text text-anchor="start" x="701.11" y="-73.73" font-family="Helvetica,sans-Serif" font-style="italic" font-size="32.00" fill="#29235c">int</text>
<polygon fill="none" stroke="#29235c" stroke-width="2" points="497.39,-51.53 497.39,-293.53 746.39,-293.53 746.39,-51.53 497.39,-51.53"/>
</g>
<!-- Person&#45;&gt;Person -->
<!-- Person&#45;&gt;Person -->
<g id="edge2" class="edge">
<title>Person:e&#45;&gt;Person:w</title>
<path fill="none" stroke="#29235c" stroke-width="3" d="M745.89,-142.53C834.39,-206.05 834.39,-363.07 622.39,-363.07 417.01,-363.07 410.6,-272.01 490.86,-208.58"/>
<polygon fill="#29235c" stroke="#29235c" stroke-width="3" points="493.01,-211.34 498.89,-202.53 488.8,-205.75 493.01,-211.34"/>
<text text-anchor="middle" x="507.78" y="-173.73" font-family="Helvetica,sans-Serif" font-size="32.00" fill="#29235c">1</text>
<text text-anchor="middle" x="752.11" y="-113.73" font-family="Helvetica,sans-Serif" font-size="32.00" fill="#29235c">*</text>
</g>
<!-- Person&#45;&gt;Person -->
<!-- Person&#45;&gt;Person -->
<g id="edge4" class="edge">
<title>Person:e&#45;&gt;Person:w</title>
<path fill="none" stroke="#29235c" stroke-width="3" d="M745.89,-82.53C834.39,-146.05 834.39,-363.07 622.39,-363.07 417.01,-363.07 410.6,-272.01 490.86,-208.58"/>
<polygon fill="#29235c" stroke="#29235c" stroke-width="3" points="493.01,-211.34 498.89,-202.53 488.8,-205.75 493.01,-211.34"/>
<text text-anchor="middle" x="507.78" y="-212.13" font-family="Helvetica,sans-Serif" font-size="32.00" fill="#29235c">1</text>
<text text-anchor="middle" x="752.11" y="-53.73" font-family="Helvetica,sans-Serif" font-size="32.00" fill="#29235c">*</text>
</g>
<!-- dates.Day -->
<g id="dates.Day" class="node">
<title>dates.Day</title>
<ellipse fill="none" stroke="black" stroke-width="0" cx="621.89" cy="-571.53" rx="207.78" ry="172.57"/>
<polygon fill="#1d71b8" stroke="transparent" points="476.89,-631.53 476.89,-691.53 766.89,-691.53 766.89,-631.53 476.89,-631.53"/>
<polygon fill="none" stroke="#29235c" points="476.89,-631.53 476.89,-691.53 766.89,-691.53 766.89,-631.53 476.89,-631.53"/>
<text text-anchor="start" x="487.62" y="-652.73" font-family="Helvetica,sans-Serif" font-weight="bold" font-size="32.00" fill="#ffffff"> &#160;&#160;&#160;&#160;&#160;&#160;dates.Day &#160;&#160;&#160;&#160;&#160;&#160;</text>
<polygon fill="#e7e2dd" stroke="transparent" points="476.89,-571.53 476.89,-631.53 766.89,-631.53 766.89,-571.53 476.89,-571.53"/>
<polygon fill="none" stroke="#29235c" points="476.89,-571.53 476.89,-631.53 766.89,-631.53 766.89,-571.53 476.89,-571.53"/>
<text text-anchor="start" x="487.89" y="-591.73" font-family="Helvetica,sans-Serif" font-size="32.00" fill="#29235c">id &#160;&#160;&#160;</text>
<text text-anchor="start" x="722.11" y="-592.73" font-family="Helvetica,sans-Serif" font-style="italic" font-size="32.00" fill="#29235c">int</text>
<polygon fill="#e7e2dd" stroke="transparent" points="476.89,-511.53 476.89,-571.53 766.89,-571.53 766.89,-511.53 476.89,-511.53"/>
<polygon fill="none" stroke="#29235c" points="476.89,-511.53 476.89,-571.53 766.89,-571.53 766.89,-511.53 476.89,-511.53"/>
<text text-anchor="start" x="487.89" y="-531.73" font-family="Helvetica,sans-Serif" font-size="32.00" fill="#29235c">next &#160;&#160;&#160;</text>
<text text-anchor="start" x="722.11" y="-532.73" font-family="Helvetica,sans-Serif" font-style="italic" font-size="32.00" fill="#29235c">int</text>
<polygon fill="#e7e2dd" stroke="transparent" points="476.89,-451.53 476.89,-511.53 766.89,-511.53 766.89,-451.53 476.89,-451.53"/>
<polygon fill="none" stroke="#29235c" points="476.89,-451.53 476.89,-511.53 766.89,-511.53 766.89,-451.53 476.89,-451.53"/>
<text text-anchor="start" x="487.89" y="-471.73" font-family="Helvetica,sans-Serif" font-size="32.00" fill="#29235c">previous &#160;&#160;&#160;</text>
<text text-anchor="start" x="722.11" y="-472.73" font-family="Helvetica,sans-Serif" font-style="italic" font-size="32.00" fill="#29235c">int</text>
<polygon fill="none" stroke="#29235c" stroke-width="2" points="475.89,-450.53 475.89,-692.53 767.89,-692.53 767.89,-450.53 475.89,-450.53"/>
</g>
<!-- dates.Day&#45;&gt;dates.Day -->
<!-- dates.Day&#45;&gt;dates.Day -->
<g id="edge6" class="edge">
<title>dates.Day:e&#45;&gt;dates.Day:w</title>
<path fill="none" stroke="#29235c" stroke-width="3" d="M766.89,-541.53C870.39,-605.05 870.39,-762.07 621.89,-762.07 380.43,-762.07 373.59,-670.46 468.35,-607.01"/>
<polygon fill="#29235c" stroke="#29235c" stroke-width="3" points="470.36,-609.88 476.89,-601.53 466.58,-603.98 470.36,-609.88"/>
<text text-anchor="middle" x="485.78" y="-611.13" font-family="Helvetica,sans-Serif" font-size="32.00" fill="#29235c">1</text>
<text text-anchor="middle" x="773.11" y="-551.13" font-family="Helvetica,sans-Serif" font-size="32.00" fill="#29235c">*</text>
</g>
<!-- dates.Day&#45;&gt;dates.Day -->
<!-- dates.Day&#45;&gt;dates.Day -->
<g id="edge8" class="edge">
<title>dates.Day:e&#45;&gt;dates.Day:w</title>
<path fill="none" stroke="#29235c" stroke-width="3" d="M766.89,-481.53C870.39,-545.05 870.39,-762.07 621.89,-762.07 380.43,-762.07 373.59,-670.46 468.35,-607.01"/>
<polygon fill="#29235c" stroke="#29235c" stroke-width="3" points="470.36,-609.88 476.89,-601.53 466.58,-603.98 470.36,-609.88"/>
<text text-anchor="middle" x="485.78" y="-572.73" font-family="Helvetica,sans-Serif" font-size="32.00" fill="#29235c">1</text>
<text text-anchor="middle" x="773.11" y="-491.13" font-family="Helvetica,sans-Serif" font-size="32.00" fill="#29235c">*</text>
</g>
</g>
</svg>
