<?xml version="1.0" encoding="UTF-8" standalone="no"?>
<!DOCTYPE svg PUBLIC "-//W3C//DTD SVG 1.1//EN"
 "http://www.w3.org/Graphics/SVG/1.1/DTD/svg11.dtd">
<!-- Generated by graphviz version 2.47.0 (20210316.0004)
 -->
<!-- Title: dbml Pages: 1 -->
<svg width="356pt" height="268pt"
 viewBox="0.00 0.00 355.90 268.22" xmlns="http://www.w3.org/2000/svg" xmlns:xlink="http://www.w3.org/1999/xlink">
<g id="graph0" class="graph" transform="scale(1 1) rotate(0) translate(4 264.22)">
<title>dbml</title>
<!-- user -->
<g id="user" class="node">
<title>user</title>
<ellipse fill="none" stroke="black" stroke-width="0" cx="173.95" cy="-130.11" rx="173.9" ry="130.22"/>
<polygon fill="#1d71b8" stroke="transparent" points="52.95,-160.11 52.95,-220.11 294.95,-220.11 294.95,-160.11 52.95,-160.11"/>
<polygon fill="none" stroke="#29235c" points="52.95,-160.11 52.95,-220.11 294.95,-220.11 294.95,-160.11 52.95,-160.11"/>
<text text-anchor="start" x="80.58" y="-181.31" font-family="Helvetica,sans-Serif" font-weight="bold" font-size="32.00" fill="#ffffff"> &#160;&#160;&#160;&#160;&#160;&#160;user &#160;&#160;&#160;&#160;&#160;&#160;</text>
<polygon fill="#e7e2dd" stroke="transparent" points="52.95,-100.11 52.95,-160.11 294.95,-160.11 294.95,-100.11 52.95,-100.11"/>
<polygon fill="none" stroke="#29235c" points="52.95,-100.11 52.95,-160.11 294.95,-160.11 294.95,-100.11 52.95,-100.11"/>
<text text-anchor="start" x="63.95" y="-121.31" font-family="Helvetica,sans-Serif" font-weight="bold" font-size="32.00" fill="#29235c">id</text>
<text text-anchor="start" x="88.84" y="-121.31" font-family="Helvetica,sans-Serif" font-size="32.00" fill="#29235c"> &#160;&#160;&#160;</text>
<text text-anchor="start" x="186.15" y="-121.31" font-family="Helvetica,sans-Serif" font-style="italic" font-size="32.00" fill="#29235c">integer</text>
<polygon fill="#e7e2dd" stroke="transparent" points="52.95,-40.11 52.95,-100.11 294.95,-100.11 294.95,-40.11 52.95,-40.11"/>
<polygon fill="none" stroke="#29235c" points="52.95,-40.11 52.95,-100.11 294.95,-100.11 294.95,-40.11 52.95,-40.11"/>
<text text-anchor="start" x="63.93" y="-60.31" font-family="Helvetica,sans-Serif" font-size="32.00" fill="#29235c">tags &#160;&#160;&#160;</text>
<text text-anchor="start" x="159.72" y="-61.31" font-family="Helvetica,sans-Serif" font-style="italic" font-size="32.00" fill="#29235c">varchar[]</text>
<polygon fill="none" stroke="#29235c" stroke-width="2" points="51.95,-39.11 51.95,-221.11 295.95,-221.11 295.95,-39.11 51.95,-39.11"/>
</g>
</g>
</svg>
