<?xml version="1.0" encoding="UTF-8" standalone="no"?>
<!DOCTYPE svg PUBLIC "-//W3C//DTD SVG 1.1//EN"
 "http://www.w3.org/Graphics/SVG/1.1/DTD/svg11.dtd">
<!-- Generated by graphviz version 2.47.0 (20210316.0004)
 -->
<!-- Title: dbml Pages: 1 -->
<svg width="548pt" height="438pt"
 viewBox="0.00 0.00 548.23 437.92" xmlns="http://www.w3.org/2000/svg" xmlns:xlink="http://www.w3.org/1999/xlink">
<g id="graph0" class="graph" transform="scale(1 1) rotate(0) translate(4 433.92)">
<title>dbml</title>
<!-- user -->
<g id="user" class="node">
<title>user</title>
<ellipse fill="none" stroke="black" stroke-width="0" cx="270.11" cy="-214.96" rx="270.23" ry="214.92"/>
<polygon fill="#1d71b8" stroke="transparent" points="81.11,-304.96 81.11,-364.96 459.11,-364.96 459.11,-304.96 81.11,-304.96"/>
<polygon fill="none" stroke="#29235c" points="81.11,-304.96 81.11,-364.96 459.11,-364.96 459.11,-304.96 81.11,-304.96"/>
<text text-anchor="start" x="176.75" y="-326.16" font-family="Helvetica,sans-Serif" font-weight="bold" font-size="32.00" fill="#ffffff"> &#160;&#160;&#160;&#160;&#160;&#160;user &#160;&#160;&#160;&#160;&#160;&#160;</text>
<polygon fill="#e7e2dd" stroke="transparent" points="81.11,-244.96 81.11,-304.96 459.11,-304.96 459.11,-244.96 81.11,-244.96"/>
<polygon fill="none" stroke="#29235c" points="81.11,-244.96 81.11,-304.96 459.11,-304.96 459.11,-244.96 81.11,-244.96"/>
<text text-anchor="start" x="92.11" y="-266.16" font-family="Helvetica,sans-Serif" font-weight="bold" font-size="32.00" fill="#29235c">id</text>
<text text-anchor="start" x="117" y="-266.16" font-family="Helvetica,sans-Serif" font-size="32.00" fill="#29235c"> &#160;&#160;&#160;</text>
<text text-anchor="start" x="350.31" y="-266.16" font-family="Helvetica,sans-Serif" font-style="italic" font-size="32.00" fill="#29235c">integer</text>
<polygon fill="#e7e2dd" stroke="transparent" points="81.11,-184.96 81.11,-244.96 459.11,-244.96 459.11,-184.96 81.11,-184.96"/>
<polygon fill="none" stroke="#29235c" points="81.11,-184.96 81.11,-244.96 459.11,-244.96 459.11,-184.96 81.11,-184.96"/>
<text text-anchor="start" x="92.11" y="-205.16" font-family="Helvetica,sans-Serif" font-size="32.00" fill="#29235c">tags &#160;&#160;&#160;</text>
<text text-anchor="start" x="323.66" y="-206.16" font-family="Helvetica,sans-Serif" font-style="italic" font-size="32.00" fill="#29235c">varchar[]</text>
<polygon fill="#e7e2dd" stroke="transparent" points="81.11,-124.96 81.11,-184.96 459.11,-184.96 459.11,-124.96 81.11,-124.96"/>
<polygon fill="none" stroke="#29235c" points="81.11,-124.96 81.11,-184.96 459.11,-184.96 459.11,-124.96 81.11,-124.96"/>
<text text-anchor="start" x="92.11" y="-145.16" font-family="Helvetica,sans-Serif" font-size="32.00" fill="#29235c">friend_groups &#160;&#160;&#160;</text>
<text text-anchor="start" x="352.08" y="-146.16" font-family="Helvetica,sans-Serif" font-style="italic" font-size="32.00" fill="#29235c">uuid[][]</text>
<polygon fill="#e7e2dd" stroke="transparent" points="81.11,-64.96 81.11,-124.96 459.11,-124.96 459.11,-64.96 81.11,-64.96"/>
<polygon fill="none" stroke="#29235c" points="81.11,-64.96 81.11,-124.96 459.11,-124.96 459.11,-64.96 81.11,-64.96"/>
<text text-anchor="start" x="91.7" y="-85.16" font-family="Helvetica,sans-Serif" font-size="32.00" fill="#29235c">position &#160;&#160;&#160;</text>
<text text-anchor="start" x="236.83" y="-86.16" font-family="Helvetica,sans-Serif" font-style="italic" font-size="32.00" fill="#29235c">decimal(3,5)[3]</text>
<polygon fill="none" stroke="#29235c" stroke-width="2" points="80.11,-63.96 80.11,-365.96 460.11,-365.96 460.11,-63.96 80.11,-63.96"/>
</g>
</g>
</svg>
