<?xml version="1.0" encoding="UTF-8" standalone="no"?>
<!DOCTYPE svg PUBLIC "-//W3C//DTD SVG 1.1//EN"
 "http://www.w3.org/Graphics/SVG/1.1/DTD/svg11.dtd">
<!-- Generated by graphviz version 2.47.0 (20210316.0004)
 -->
<!-- Title: dbml Pages: 1 -->
<svg width="445pt" height="268pt"
 viewBox="0.00 0.00 444.99 268.22" xmlns="http://www.w3.org/2000/svg" xmlns:xlink="http://www.w3.org/1999/xlink">
<g id="graph0" class="graph" transform="scale(1 1) rotate(0) translate(4 264.22)">
<title>dbml</title>
<!-- users -->
<g id="users" class="node">
<title>users</title>
<ellipse fill="none" stroke="black" stroke-width="0" cx="218.5" cy="-130.11" rx="218.49" ry="130.22"/>
<polygon fill="#1d71b8" stroke="transparent" points="66.5,-160.11 66.5,-220.11 371.5,-220.11 371.5,-160.11 66.5,-160.11"/>
<polygon fill="none" stroke="#29235c" points="66.5,-160.11 66.5,-220.11 371.5,-220.11 371.5,-160.11 66.5,-160.11"/>
<text text-anchor="start" x="117.63" y="-181.31" font-family="Helvetica,sans-Serif" font-weight="bold" font-size="32.00" fill="#ffffff"> &#160;&#160;&#160;&#160;&#160;&#160;users &#160;&#160;&#160;&#160;&#160;&#160;</text>
<polygon fill="#e7e2dd" stroke="transparent" points="66.5,-100.11 66.5,-160.11 371.5,-160.11 371.5,-100.11 66.5,-100.11"/>
<polygon fill="none" stroke="#29235c" points="66.5,-100.11 66.5,-160.11 371.5,-160.11 371.5,-100.11 66.5,-100.11"/>
<text text-anchor="start" x="77.5" y="-120.31" font-family="Helvetica,sans-Serif" font-size="32.00" fill="#29235c">id &#160;&#160;&#160;</text>
<text text-anchor="start" x="163.13" y="-121.31" font-family="Helvetica,sans-Serif" font-style="italic" font-size="32.00" fill="#29235c">public.user_id</text>
<polygon fill="#e7e2dd" stroke="transparent" points="66.5,-40.11 66.5,-100.11 371.5,-100.11 371.5,-40.11 66.5,-40.11"/>
<polygon fill="none" stroke="#29235c" points="66.5,-40.11 66.5,-100.11 371.5,-100.11 371.5,-40.11 66.5,-40.11"/>
<text text-anchor="start" x="77.09" y="-60.31" font-family="Helvetica,sans-Serif" font-size="32.00" fill="#29235c">username &#160;&#160;&#160;</text>
<text text-anchor="start" x="254.16" y="-61.31" font-family="Helvetica,sans-Serif" font-style="italic" font-size="32.00" fill="#29235c">varchar</text>
<polygon fill="none" stroke="#29235c" stroke-width="2" points="65,-39.11 65,-221.11 372,-221.11 372,-39.11 65,-39.11"/>
</g>
</g>
</svg>
