<?xml version="1.0" encoding="UTF-8" standalone="no"?>
<!DOCTYPE svg PUBLIC "-//W3C//DTD SVG 1.1//EN"
 "http://www.w3.org/Graphics/SVG/1.1/DTD/svg11.dtd">
<!-- Generated by graphviz version 3.0.0 (20220226.1711)
 -->
<!-- Title: dbml Pages: 1 -->
<svg width="393pt" height="255pt"
 viewBox="0.00 0.00 392.67 255.49" xmlns="http://www.w3.org/2000/svg" xmlns:xlink="http://www.w3.org/1999/xlink">
<g id="graph0" class="graph" transform="scale(1 1) rotate(0) translate(4 251.49)">
<title>dbml</title>
<!-- issues -->
<g id="issues" class="node">
<title>issues</title>
<ellipse fill="none" stroke="black" stroke-width="0" cx="192.33" cy="-123.74" rx="192.17" ry="123.99"/>
<polygon fill="#1d71b8" stroke="transparent" points="58.33,-151.74 58.33,-208.74 326.33,-208.74 326.33,-151.74 58.33,-151.74"/>
<polygon fill="none" stroke="#29235c" points="58.33,-151.74 58.33,-208.74 326.33,-208.74 326.33,-151.74 58.33,-151.74"/>
<text text-anchor="start" x="78.83" y="-173.14" font-family="Helvetica,sans-Serif" font-weight="bold" font-size="32.00" fill="#ffffff"> &#160;&#160;&#160;&#160;&#160;&#160;issues &#160;&#160;&#160;&#160;&#160;&#160;</text>
<polygon fill="#e7e2dd" stroke="transparent" points="58.33,-94.74 58.33,-151.74 326.33,-151.74 326.33,-94.74 58.33,-94.74"/>
<polygon fill="none" stroke="#29235c" points="58.33,-94.74 58.33,-151.74 326.33,-151.74 326.33,-94.74 58.33,-94.74"/>
<text text-anchor="start" x="69.33" y="-116.14" font-family="Helvetica,sans-Serif" font-size="32.00" fill="#29235c">number</text>
<text text-anchor="start" x="179.33" y="-116.14" font-family="Helvetica,sans-Serif" font-size="32.00" fill="#29235c"> &#160;&#160;&#160;</text>
<text text-anchor="start" x="216.33" y="-116.14" font-family="Helvetica,sans-Serif" font-style="italic" font-size="32.00" fill="#29235c">integer</text>
<polygon fill="#e7e2dd" stroke="transparent" points="58.33,-37.74 58.33,-94.74 326.33,-94.74 326.33,-37.74 58.33,-37.74"/>
<polygon fill="none" stroke="#29235c" points="58.33,-37.74 58.33,-94.74 326.33,-94.74 326.33,-37.74 58.33,-37.74"/>
<text text-anchor="start" x="69.33" y="-59.14" font-family="Helvetica,sans-Serif" font-size="32.00" fill="#29235c">title</text>
<text text-anchor="start" x="119.33" y="-59.14" font-family="Helvetica,sans-Serif" font-size="32.00" fill="#29235c"> &#160;&#160;&#160;</text>
<text text-anchor="start" x="208.33" y="-59.14" font-family="Helvetica,sans-Serif" font-style="italic" font-size="32.00" fill="#29235c">varchar</text>
<polygon fill="none" stroke="#29235c" stroke-width="2" points="57.33,-37.24 57.33,-210.24 327.33,-210.24 327.33,-37.24 57.33,-37.24"/>
</g>
</g>
</svg>
