<?xml version="1.0" encoding="UTF-8" standalone="no"?>
<!DOCTYPE svg PUBLIC "-//W3C//DTD SVG 1.1//EN"
 "http://www.w3.org/Graphics/SVG/1.1/DTD/svg11.dtd">
<!-- Generated by graphviz version 2.47.0 (20210316.0004)
 -->
<!-- Title: dbml Pages: 1 -->
<svg width="786pt" height="353pt"
 viewBox="0.00 0.00 785.82 353.07" xmlns="http://www.w3.org/2000/svg" xmlns:xlink="http://www.w3.org/1999/xlink">
<g id="graph0" class="graph" transform="scale(1 1) rotate(0) translate(4 349.07)">
<title>dbml</title>
<!-- galleries -->
<g id="galleries" class="node">
<title>galleries</title>
<ellipse fill="none" stroke="black" stroke-width="0" cx="388.91" cy="-172.53" rx="388.82" ry="172.57"/>
<polygon fill="#1d71b8" stroke="transparent" points="115.91,-232.53 115.91,-292.53 661.91,-292.53 661.91,-232.53 115.91,-232.53"/>
<polygon fill="none" stroke="#29235c" points="115.91,-232.53 115.91,-292.53 661.91,-292.53 661.91,-232.53 115.91,-232.53"/>
<text text-anchor="start" x="267.1" y="-253.73" font-family="Helvetica,sans-Serif" font-weight="bold" font-size="32.00" fill="#ffffff"> &#160;&#160;&#160;&#160;&#160;&#160;galleries &#160;&#160;&#160;&#160;&#160;&#160;</text>
<polygon fill="#e7e2dd" stroke="transparent" points="115.91,-172.53 115.91,-232.53 661.91,-232.53 661.91,-172.53 115.91,-172.53"/>
<polygon fill="none" stroke="#29235c" points="115.91,-172.53 115.91,-232.53 661.91,-232.53 661.91,-172.53 115.91,-172.53"/>
<text text-anchor="start" x="126.67" y="-193.73" font-family="Helvetica,sans-Serif" font-weight="bold" font-size="32.00" fill="#29235c">gallery_id</text>
<text text-anchor="start" x="263.57" y="-193.73" font-family="Helvetica,sans-Serif" font-size="32.00" fill="#29235c"> &#160;&#160;&#160;</text>
<text text-anchor="start" x="298.9" y="-193.73" font-family="Helvetica,sans-Serif" font-style="italic" font-size="32.00" fill="#29235c">int(3) unsigned zerofill</text>
<text text-anchor="start" x="611.82" y="-193.73" font-family="Helvetica,sans-Serif" font-size="32.00" fill="#29235c"> </text>
<text text-anchor="start" x="620.72" y="-193.73" font-family="Helvetica,sans-Serif" font-weight="bold" font-size="32.00" fill="#29235c">(!)</text>
<polygon fill="#e7e2dd" stroke="transparent" points="115.91,-112.53 115.91,-172.53 661.91,-172.53 661.91,-112.53 115.91,-112.53"/>
<polygon fill="none" stroke="#29235c" points="115.91,-112.53 115.91,-172.53 661.91,-172.53 661.91,-112.53 115.91,-112.53"/>
<text text-anchor="start" x="126.91" y="-132.73" font-family="Helvetica,sans-Serif" font-size="32.00" fill="#29235c">title &#160;&#160;&#160;</text>
<text text-anchor="start" x="430.47" y="-133.73" font-family="Helvetica,sans-Serif" font-style="italic" font-size="32.00" fill="#29235c">varchar(255)</text>
<text text-anchor="start" x="611.82" y="-133.73" font-family="Helvetica,sans-Serif" font-size="32.00" fill="#29235c"> </text>
<text text-anchor="start" x="620.71" y="-133.73" font-family="Helvetica,sans-Serif" font-weight="bold" font-size="32.00" fill="#29235c">(!)</text>
<polygon fill="#e7e2dd" stroke="transparent" points="115.91,-52.53 115.91,-112.53 661.91,-112.53 661.91,-52.53 115.91,-52.53"/>
<polygon fill="none" stroke="#29235c" points="115.91,-52.53 115.91,-112.53 661.91,-112.53 661.91,-52.53 115.91,-52.53"/>
<text text-anchor="start" x="126.91" y="-72.73" font-family="Helvetica,sans-Serif" font-size="32.00" fill="#29235c">comment &#160;&#160;&#160;</text>
<text text-anchor="start" x="560.24" y="-73.73" font-family="Helvetica,sans-Serif" font-style="italic" font-size="32.00" fill="#29235c">text</text>
<text text-anchor="start" x="611.82" y="-73.73" font-family="Helvetica,sans-Serif" font-size="32.00" fill="#29235c"> </text>
<text text-anchor="start" x="620.71" y="-73.73" font-family="Helvetica,sans-Serif" font-weight="bold" font-size="32.00" fill="#29235c">(!)</text>
<polygon fill="none" stroke="#29235c" stroke-width="2" points="114.91,-51.53 114.91,-293.53 662.91,-293.53 662.91,-51.53 114.91,-51.53"/>
</g>
</g>
</svg>
