<?xml version="1.0" encoding="UTF-8" standalone="no"?>
<!DOCTYPE svg PUBLIC "-//W3C//DTD SVG 1.1//EN"
 "http://www.w3.org/Graphics/SVG/1.1/DTD/svg11.dtd">
<!-- Generated by graphviz version 2.47.0 (20210316.0004)
 -->
<!-- Title: dbml Pages: 1 -->
<svg width="379pt" height="353pt"
 viewBox="0.00 0.00 378.52 353.07" xmlns="http://www.w3.org/2000/svg" xmlns:xlink="http://www.w3.org/1999/xlink">
<g id="graph0" class="graph" transform="scale(1 1) rotate(0) translate(4 349.07)">
<title>dbml</title>
<!-- nazione -->
<g id="nazione" class="node">
<title>nazione</title>
<ellipse fill="none" stroke="black" stroke-width="0" cx="185.26" cy="-172.53" rx="185.02" ry="172.57"/>
<polygon fill="#1d71b8" stroke="transparent" points="56.26,-232.53 56.26,-292.53 314.26,-292.53 314.26,-232.53 56.26,-232.53"/>
<polygon fill="none" stroke="#29235c" points="56.26,-232.53 56.26,-292.53 314.26,-292.53 314.26,-232.53 56.26,-232.53"/>
<text text-anchor="start" x="66.99" y="-253.73" font-family="Helvetica,sans-Serif" font-weight="bold" font-size="32.00" fill="#ffffff"> &#160;&#160;&#160;&#160;&#160;&#160;nazione &#160;&#160;&#160;&#160;&#160;&#160;</text>
<polygon fill="#e7e2dd" stroke="transparent" points="56.26,-172.53 56.26,-232.53 314.26,-232.53 314.26,-172.53 56.26,-172.53"/>
<polygon fill="none" stroke="#29235c" points="56.26,-172.53 56.26,-232.53 314.26,-232.53 314.26,-172.53 56.26,-172.53"/>
<text text-anchor="start" x="67.26" y="-193.73" font-family="Helvetica,sans-Serif" font-weight="bold" font-size="32.00" fill="#29235c">id</text>
<text text-anchor="start" x="92.15" y="-193.73" font-family="Helvetica,sans-Serif" font-size="32.00" fill="#29235c"> &#160;&#160;&#160;</text>
<text text-anchor="start" x="269.48" y="-193.73" font-family="Helvetica,sans-Serif" font-style="italic" font-size="32.00" fill="#29235c">int</text>
<polygon fill="#e7e2dd" stroke="transparent" points="56.26,-112.53 56.26,-172.53 314.26,-172.53 314.26,-112.53 56.26,-112.53"/>
<polygon fill="none" stroke="#29235c" points="56.26,-112.53 56.26,-172.53 314.26,-172.53 314.26,-112.53 56.26,-112.53"/>
<text text-anchor="start" x="67.26" y="-132.73" font-family="Helvetica,sans-Serif" font-size="32.00" fill="#29235c">nome &#160;&#160;&#160;</text>
<text text-anchor="start" x="196.59" y="-133.73" font-family="Helvetica,sans-Serif" font-style="italic" font-size="32.00" fill="#29235c">varchar</text>
<polygon fill="#e7e2dd" stroke="transparent" points="56.26,-52.53 56.26,-112.53 314.26,-112.53 314.26,-52.53 56.26,-52.53"/>
<polygon fill="none" stroke="#29235c" points="56.26,-52.53 56.26,-112.53 314.26,-112.53 314.26,-52.53 56.26,-52.53"/>
<text text-anchor="start" x="67.26" y="-72.73" font-family="Helvetica,sans-Serif" font-size="32.00" fill="#29235c">continente &#160;&#160;&#160;</text>
<text text-anchor="start" x="269.48" y="-73.73" font-family="Helvetica,sans-Serif" font-style="italic" font-size="32.00" fill="#29235c">int</text>
<polygon fill="none" stroke="#29235c" stroke-width="2" points="55.26,-51.53 55.26,-293.53 315.26,-293.53 315.26,-51.53 55.26,-51.53"/>
</g>
</g>
</svg>
