<?xml version="1.0" encoding="UTF-8" standalone="no"?>
<!DOCTYPE svg PUBLIC "-//W3C//DTD SVG 1.1//EN"
 "http://www.w3.org/Graphics/SVG/1.1/DTD/svg11.dtd">
<!-- Generated by graphviz version 2.47.0 (20210316.0004)
 -->
<!-- Title: dbml Pages: 1 -->
<svg width="541pt" height="523pt"
 viewBox="0.00 0.00 541.16 522.77" xmlns="http://www.w3.org/2000/svg" xmlns:xlink="http://www.w3.org/1999/xlink">
<g id="graph0" class="graph" transform="scale(1 1) rotate(0) translate(4 518.77)">
<title>dbml</title>
<!-- utenti -->
<g id="utenti" class="node">
<title>utenti</title>
<ellipse fill="none" stroke="black" stroke-width="0" cx="266.58" cy="-257.39" rx="266.66" ry="257.27"/>
<polygon fill="#1d71b8" stroke="transparent" points="80.58,-377.39 80.58,-437.39 453.58,-437.39 453.58,-377.39 80.58,-377.39"/>
<polygon fill="none" stroke="#29235c" points="80.58,-377.39 80.58,-437.39 453.58,-437.39 453.58,-377.39 80.58,-377.39"/>
<text text-anchor="start" x="165.7" y="-398.59" font-family="Helvetica,sans-Serif" font-weight="bold" font-size="32.00" fill="#ffffff"> &#160;&#160;&#160;&#160;&#160;&#160;utenti &#160;&#160;&#160;&#160;&#160;&#160;</text>
<polygon fill="#e7e2dd" stroke="transparent" points="80.58,-317.39 80.58,-377.39 453.58,-377.39 453.58,-317.39 80.58,-317.39"/>
<polygon fill="none" stroke="#29235c" points="80.58,-317.39 80.58,-377.39 453.58,-377.39 453.58,-317.39 80.58,-317.39"/>
<text text-anchor="start" x="91.58" y="-338.59" font-family="Helvetica,sans-Serif" font-weight="bold" font-size="32.00" fill="#29235c">id</text>
<text text-anchor="start" x="116.47" y="-338.59" font-family="Helvetica,sans-Serif" font-size="32.00" fill="#29235c"> &#160;&#160;&#160;</text>
<text text-anchor="start" x="408.8" y="-338.59" font-family="Helvetica,sans-Serif" font-style="italic" font-size="32.00" fill="#29235c">int</text>
<polygon fill="#e7e2dd" stroke="transparent" points="80.58,-257.39 80.58,-317.39 453.58,-317.39 453.58,-257.39 80.58,-257.39"/>
<polygon fill="none" stroke="#29235c" points="80.58,-257.39 80.58,-317.39 453.58,-317.39 453.58,-257.39 80.58,-257.39"/>
<text text-anchor="start" x="91.58" y="-277.59" font-family="Helvetica,sans-Serif" font-size="32.00" fill="#29235c">nome &#160;&#160;&#160;</text>
<text text-anchor="start" x="335.91" y="-278.59" font-family="Helvetica,sans-Serif" font-style="italic" font-size="32.00" fill="#29235c">varchar</text>
<polygon fill="#e7e2dd" stroke="transparent" points="80.58,-197.39 80.58,-257.39 453.58,-257.39 453.58,-197.39 80.58,-197.39"/>
<polygon fill="none" stroke="#29235c" points="80.58,-197.39 80.58,-257.39 453.58,-257.39 453.58,-197.39 80.58,-197.39"/>
<text text-anchor="start" x="91.31" y="-217.59" font-family="Helvetica,sans-Serif" font-size="32.00" fill="#29235c">data_creato &#160;&#160;&#160;</text>
<text text-anchor="start" x="295.3" y="-218.59" font-family="Helvetica,sans-Serif" font-style="italic" font-size="32.00" fill="#29235c">timestamp</text>
<polygon fill="#e7e2dd" stroke="transparent" points="80.58,-137.39 80.58,-197.39 453.58,-197.39 453.58,-137.39 80.58,-137.39"/>
<polygon fill="none" stroke="#29235c" points="80.58,-137.39 80.58,-197.39 453.58,-197.39 453.58,-137.39 80.58,-137.39"/>
<text text-anchor="start" x="91.58" y="-157.59" font-family="Helvetica,sans-Serif" font-size="32.00" fill="#29235c">numero &#160;&#160;&#160;</text>
<text text-anchor="start" x="248.79" y="-158.59" font-family="Helvetica,sans-Serif" font-style="italic" font-size="32.00" fill="#29235c">decimal(10,2)</text>
<polygon fill="#e7e2dd" stroke="transparent" points="80.58,-77.39 80.58,-137.39 453.58,-137.39 453.58,-77.39 80.58,-77.39"/>
<polygon fill="none" stroke="#29235c" points="80.58,-77.39 80.58,-137.39 453.58,-137.39 453.58,-77.39 80.58,-77.39"/>
<text text-anchor="start" x="91.58" y="-97.59" font-family="Helvetica,sans-Serif" font-size="32.00" fill="#29235c">nazione_id &#160;&#160;&#160;</text>
<text text-anchor="start" x="408.8" y="-98.59" font-family="Helvetica,sans-Serif" font-style="italic" font-size="32.00" fill="#29235c">int</text>
<polygon fill="none" stroke="#29235c" stroke-width="2" points="79.08,-76.39 79.08,-438.39 454.08,-438.39 454.08,-76.39 79.08,-76.39"/>
</g>
</g>
</svg>
