<?xml version="1.0" encoding="UTF-8" standalone="no"?>
<!DOCTYPE svg PUBLIC "-//W3C//DTD SVG 1.1//EN"
 "http://www.w3.org/Graphics/SVG/1.1/DTD/svg11.dtd">
<!-- Generated by graphviz version 3.0.0 (20220226.1711)
 -->
<!-- Title: dbml Pages: 1 -->
<svg width="813pt" height="336pt"
 viewBox="0.00 0.00 812.69 336.10" xmlns="http://www.w3.org/2000/svg" xmlns:xlink="http://www.w3.org/1999/xlink">
<g id="graph0" class="graph" transform="scale(1 1) rotate(0) translate(4 332.1)">
<title>dbml</title>
<!-- galleries -->
<g id="galleries" class="node">
<title>galleries</title>
<ellipse fill="none" stroke="black" stroke-width="0" cx="402.34" cy="-164.05" rx="402.19" ry="164.1"/>
<polygon fill="#1d71b8" stroke="transparent" points="120.34,-221.05 120.34,-278.05 685.34,-278.05 685.34,-221.05 120.34,-221.05"/>
<polygon fill="none" stroke="#29235c" points="120.34,-221.05 120.34,-278.05 685.34,-278.05 685.34,-221.05 120.34,-221.05"/>
<text text-anchor="start" x="273.84" y="-242.45" font-family="Helvetica,sans-Serif" font-weight="bold" font-size="32.00" fill="#ffffff"> &#160;&#160;&#160;&#160;&#160;&#160;galleries &#160;&#160;&#160;&#160;&#160;&#160;</text>
<polygon fill="#e7e2dd" stroke="transparent" points="120.34,-164.05 120.34,-221.05 685.34,-221.05 685.34,-164.05 120.34,-164.05"/>
<polygon fill="none" stroke="#29235c" points="120.34,-164.05 120.34,-221.05 685.34,-221.05 685.34,-164.05 120.34,-164.05"/>
<text text-anchor="start" x="131.34" y="-185.45" font-family="Helvetica,sans-Serif" font-weight="bold" font-size="32.00" fill="#29235c">gallery_id</text>
<text text-anchor="start" x="282.34" y="-185.45" font-family="Helvetica,sans-Serif" font-size="32.00" fill="#29235c"> &#160;&#160;&#160;</text>
<text text-anchor="start" x="319.34" y="-185.45" font-family="Helvetica,sans-Serif" font-style="italic" font-size="32.00" fill="#29235c">int(3) unsigned zerofill</text>
<text text-anchor="start" x="632.34" y="-185.45" font-family="Helvetica,sans-Serif" font-size="32.00" fill="#29235c"> </text>
<text text-anchor="start" x="642.34" y="-185.45" font-family="Helvetica,sans-Serif" font-weight="bold" font-size="32.00" fill="#29235c">(!)</text>
<polygon fill="#e7e2dd" stroke="transparent" points="120.34,-107.05 120.34,-164.05 685.34,-164.05 685.34,-107.05 120.34,-107.05"/>
<polygon fill="none" stroke="#29235c" points="120.34,-107.05 120.34,-164.05 685.34,-164.05 685.34,-107.05 120.34,-107.05"/>
<text text-anchor="start" x="131.34" y="-128.45" font-family="Helvetica,sans-Serif" font-size="32.00" fill="#29235c">title</text>
<text text-anchor="start" x="181.34" y="-128.45" font-family="Helvetica,sans-Serif" font-size="32.00" fill="#29235c"> &#160;&#160;&#160;</text>
<text text-anchor="start" x="450.34" y="-128.45" font-family="Helvetica,sans-Serif" font-style="italic" font-size="32.00" fill="#29235c">varchar(255)</text>
<text text-anchor="start" x="632.34" y="-128.45" font-family="Helvetica,sans-Serif" font-size="32.00" fill="#29235c"> </text>
<text text-anchor="start" x="642.34" y="-128.45" font-family="Helvetica,sans-Serif" font-weight="bold" font-size="32.00" fill="#29235c">(!)</text>
<polygon fill="#e7e2dd" stroke="transparent" points="120.34,-50.05 120.34,-107.05 685.34,-107.05 685.34,-50.05 120.34,-50.05"/>
<polygon fill="none" stroke="#29235c" points="120.34,-50.05 120.34,-107.05 685.34,-107.05 685.34,-50.05 120.34,-50.05"/>
<text text-anchor="start" x="131.34" y="-71.45" font-family="Helvetica,sans-Serif" font-size="32.00" fill="#29235c">comment</text>
<text text-anchor="start" x="264.34" y="-71.45" font-family="Helvetica,sans-Serif" font-size="32.00" fill="#29235c"> &#160;&#160;&#160;</text>
<text text-anchor="start" x="580.34" y="-71.45" font-family="Helvetica,sans-Serif" font-style="italic" font-size="32.00" fill="#29235c">text</text>
<text text-anchor="start" x="632.34" y="-71.45" font-family="Helvetica,sans-Serif" font-size="32.00" fill="#29235c"> </text>
<text text-anchor="start" x="642.34" y="-71.45" font-family="Helvetica,sans-Serif" font-weight="bold" font-size="32.00" fill="#29235c">(!)</text>
<polygon fill="none" stroke="#29235c" stroke-width="2" points="118.84,-49.05 118.84,-279.05 685.84,-279.05 685.84,-49.05 118.84,-49.05"/>
</g>
</g>
</svg>
