<?xml version="1.0" encoding="UTF-8" standalone="no"?>
<!DOCTYPE svg PUBLIC "-//W3C//DTD SVG 1.1//EN"
 "http://www.w3.org/Graphics/SVG/1.1/DTD/svg11.dtd">
<!-- Generated by graphviz version 2.47.0 (20210316.0004)
 -->
<!-- Title: dbml Pages: 1 -->
<svg width="741pt" height="268pt"
 viewBox="0.00 0.00 741.21 268.22" xmlns="http://www.w3.org/2000/svg" xmlns:xlink="http://www.w3.org/1999/xlink">
<g id="graph0" class="graph" transform="scale(1 1) rotate(0) translate(4 264.22)">
<title>dbml</title>
<!-- Source -->
<g id="Source" class="node">
<title>Source</title>
<ellipse fill="none" stroke="black" stroke-width="0" cx="177.48" cy="-130.11" rx="177.47" ry="130.22"/>
<polygon fill="#1d71b8" stroke="transparent" points="54.48,-160.11 54.48,-220.11 301.48,-220.11 301.48,-160.11 54.48,-160.11"/>
<polygon fill="none" stroke="#29235c" points="54.48,-160.11 54.48,-220.11 301.48,-220.11 301.48,-160.11 54.48,-160.11"/>
<text text-anchor="start" x="65.05" y="-181.31" font-family="Helvetica,sans-Serif" font-weight="bold" font-size="32.00" fill="#ffffff"> &#160;&#160;&#160;&#160;&#160;&#160;Source &#160;&#160;&#160;&#160;&#160;&#160;</text>
<polygon fill="#e7e2dd" stroke="transparent" points="54.48,-100.11 54.48,-160.11 301.48,-160.11 301.48,-100.11 54.48,-100.11"/>
<polygon fill="none" stroke="#29235c" points="54.48,-100.11 54.48,-160.11 301.48,-160.11 301.48,-100.11 54.48,-100.11"/>
<text text-anchor="start" x="65.48" y="-121.31" font-family="Helvetica,sans-Serif" font-weight="bold" font-size="32.00" fill="#29235c">id</text>
<text text-anchor="start" x="90.37" y="-121.31" font-family="Helvetica,sans-Serif" font-size="32.00" fill="#29235c"> &#160;&#160;&#160;</text>
<text text-anchor="start" x="256.7" y="-121.31" font-family="Helvetica,sans-Serif" font-style="italic" font-size="32.00" fill="#29235c">int</text>
<polygon fill="#e7e2dd" stroke="transparent" points="54.48,-40.11 54.48,-100.11 301.48,-100.11 301.48,-40.11 54.48,-40.11"/>
<polygon fill="none" stroke="#29235c" points="54.48,-40.11 54.48,-100.11 301.48,-100.11 301.48,-40.11 54.48,-40.11"/>
<text text-anchor="start" x="65.48" y="-60.31" font-family="Helvetica,sans-Serif" font-size="32.00" fill="#29235c">Target &#160;&#160;&#160;</text>
<text text-anchor="start" x="256.7" y="-61.31" font-family="Helvetica,sans-Serif" font-style="italic" font-size="32.00" fill="#29235c">int</text>
<polygon fill="none" stroke="#29235c" stroke-width="2" points="52.98,-39.11 52.98,-221.11 301.98,-221.11 301.98,-39.11 52.98,-39.11"/>
</g>
<!-- Target -->
<g id="Target" class="node">
<title>Target</title>
<ellipse fill="none" stroke="black" stroke-width="0" cx="562.09" cy="-160.11" rx="171.24" ry="87.86"/>
<polygon fill="#1d71b8" stroke="transparent" points="443.09,-160.11 443.09,-220.11 681.09,-220.11 681.09,-160.11 443.09,-160.11"/>
<polygon fill="none" stroke="#29235c" points="443.09,-160.11 443.09,-220.11 681.09,-220.11 681.09,-160.11 443.09,-160.11"/>
<text text-anchor="start" x="453.61" y="-181.31" font-family="Helvetica,sans-Serif" font-weight="bold" font-size="32.00" fill="#ffffff"> &#160;&#160;&#160;&#160;&#160;&#160;Target &#160;&#160;&#160;&#160;&#160;&#160;</text>
<polygon fill="#e7e2dd" stroke="transparent" points="443.09,-100.11 443.09,-160.11 681.09,-160.11 681.09,-100.11 443.09,-100.11"/>
<polygon fill="none" stroke="#29235c" points="443.09,-100.11 443.09,-160.11 681.09,-160.11 681.09,-100.11 443.09,-100.11"/>
<text text-anchor="start" x="454.09" y="-121.31" font-family="Helvetica,sans-Serif" font-weight="bold" font-size="32.00" fill="#29235c">id</text>
<text text-anchor="start" x="478.98" y="-121.31" font-family="Helvetica,sans-Serif" font-size="32.00" fill="#29235c"> &#160;&#160;&#160;</text>
<text text-anchor="start" x="636.31" y="-121.31" font-family="Helvetica,sans-Serif" font-style="italic" font-size="32.00" fill="#29235c">int</text>
<polygon fill="none" stroke="#29235c" stroke-width="2" points="442.09,-99.11 442.09,-221.11 682.09,-221.11 682.09,-99.11 442.09,-99.11"/>
</g>
<!-- Source&#45;&gt;Target -->
<!-- Source&#45;&gt;Target -->
<g id="edge2" class="edge">
<title>Source:e&#45;&gt;Target:w</title>
<path fill="none" stroke="#29235c" stroke-width="3" d="M302.48,-70.11C366.46,-70.11 373.9,-123.95 431.91,-129.62"/>
<polygon fill="#29235c" stroke="#29235c" stroke-width="3" points="431.93,-133.13 442.09,-130.11 432.26,-126.14 431.93,-133.13"/>
<text text-anchor="middle" x="435.87" y="-101.31" font-family="Helvetica,sans-Serif" font-size="32.00" fill="#29235c">*</text>
<text text-anchor="middle" x="293.59" y="-41.31" font-family="Helvetica,sans-Serif" font-size="32.00" fill="#29235c">1</text>
</g>
</g>
</svg>
