<?xml version="1.0" encoding="UTF-8" standalone="no"?>
<!DOCTYPE svg PUBLIC "-//W3C//DTD SVG 1.1//EN"
 "http://www.w3.org/Graphics/SVG/1.1/DTD/svg11.dtd">
<!-- Generated by graphviz version 2.47.0 (20210316.0004)
 -->
<!-- Title: dbml Pages: 1 -->
<svg width="789pt" height="462pt"
 viewBox="0.00 0.00 788.65 461.79" xmlns="http://www.w3.org/2000/svg" xmlns:xlink="http://www.w3.org/1999/xlink">
<g id="graph0" class="graph" transform="scale(1 1) rotate(0) translate(4 457.79)">
<title>dbml</title>
<!-- ecommerce.products_status -->
<g id="ecommerce.products_status" class="node">
<title>ecommerce.products_status</title>
<ellipse fill="none" stroke="black" stroke-width="0" cx="390.32" cy="-130.11" rx="390.15" ry="130.22"/>
<polygon fill="#29235c" stroke="transparent" points="116.32,-160.11 116.32,-220.11 664.32,-220.11 664.32,-160.11 116.32,-160.11"/>
<polygon fill="none" stroke="#29235c" points="116.32,-160.11 116.32,-220.11 664.32,-220.11 664.32,-160.11 116.32,-160.11"/>
<text text-anchor="start" x="127.14" y="-181.31" font-family="Helvetica,sans-Serif" font-weight="bold" font-size="32.00" fill="#ffffff"> &#160;&#160;&#160;&#160;&#160;&#160;ecommerce.products_status &#160;&#160;&#160;&#160;&#160;&#160;</text>
<polygon fill="#e7e2dd" stroke="transparent" points="116.32,-100.11 116.32,-160.11 664.32,-160.11 664.32,-100.11 116.32,-100.11"/>
<polygon fill="none" stroke="#29235c" points="116.32,-100.11 116.32,-160.11 664.32,-160.11 664.32,-100.11 116.32,-100.11"/>
<text text-anchor="start" x="264.05" y="-121.31" font-family="Helvetica,sans-Serif" font-style="italic" font-size="32.00" fill="#1d71b8"> &#160;&#160;&#160;out_of_stock &#160;&#160;&#160;</text>
<polygon fill="#e7e2dd" stroke="transparent" points="116.32,-40.11 116.32,-100.11 664.32,-100.11 664.32,-40.11 116.32,-40.11"/>
<polygon fill="none" stroke="#29235c" points="116.32,-40.11 116.32,-100.11 664.32,-100.11 664.32,-40.11 116.32,-40.11"/>
<text text-anchor="start" x="296.07" y="-61.31" font-family="Helvetica,sans-Serif" font-style="italic" font-size="32.00" fill="#1d71b8"> &#160;&#160;&#160;in_stock &#160;&#160;&#160;</text>
<polygon fill="none" stroke="#29235c" stroke-width="2" points="115.32,-39.11 115.32,-221.11 665.32,-221.11 665.32,-39.11 115.32,-39.11"/>
</g>
<!-- ecommerce.foo -->
<g id="ecommerce.foo" class="node">
<title>ecommerce.foo</title>
<ellipse fill="none" stroke="black" stroke-width="0" cx="390.32" cy="-366.11" rx="261.76" ry="87.86"/>
<polygon fill="#1d71b8" stroke="transparent" points="207.32,-366.11 207.32,-426.11 573.32,-426.11 573.32,-366.11 207.32,-366.11"/>
<polygon fill="none" stroke="#29235c" points="207.32,-366.11 207.32,-426.11 573.32,-426.11 573.32,-366.11 207.32,-366.11"/>
<text text-anchor="start" x="217.83" y="-387.31" font-family="Helvetica,sans-Serif" font-weight="bold" font-size="32.00" fill="#ffffff"> &#160;&#160;&#160;&#160;&#160;&#160;ecommerce.foo &#160;&#160;&#160;&#160;&#160;&#160;</text>
<polygon fill="#e7e2dd" stroke="transparent" points="207.32,-306.11 207.32,-366.11 573.32,-366.11 573.32,-306.11 207.32,-306.11"/>
<polygon fill="none" stroke="#29235c" points="207.32,-306.11 207.32,-366.11 573.32,-366.11 573.32,-306.11 207.32,-306.11"/>
<text text-anchor="start" x="218.32" y="-326.31" font-family="Helvetica,sans-Serif" font-size="32.00" fill="#29235c">id &#160;&#160;&#160;</text>
<text text-anchor="start" x="464.52" y="-327.31" font-family="Helvetica,sans-Serif" font-style="italic" font-size="32.00" fill="#29235c">integer</text>
<polygon fill="none" stroke="#29235c" stroke-width="2" points="206.32,-305.11 206.32,-427.11 574.32,-427.11 574.32,-305.11 206.32,-305.11"/>
</g>
</g>
</svg>
