<?xml version="1.0" encoding="UTF-8" standalone="no"?>
<!DOCTYPE svg PUBLIC "-//W3C//DTD SVG 1.1//EN"
 "http://www.w3.org/Graphics/SVG/1.1/DTD/svg11.dtd">
<!-- Generated by graphviz version 3.0.0 (20220226.1711)
 -->
<!-- Title: dbml Pages: 1 -->
<svg width="585pt" height="739pt"
 viewBox="0.00 0.00 585.00 739.15" xmlns="http://www.w3.org/2000/svg" xmlns:xlink="http://www.w3.org/1999/xlink">
<g id="graph0" class="graph" transform="scale(1 1) rotate(0) translate(4 735.15)">
<title>dbml</title>
<!-- Users -->
<g id="Users" class="node">
<title>Users</title>
<ellipse fill="none" stroke="black" stroke-width="0" cx="288.5" cy="-365.57" rx="288.5" ry="365.65"/>
<polygon fill="#1d71b8" stroke="transparent" points="86.5,-564.57 86.5,-621.57 490.5,-621.57 490.5,-564.57 86.5,-564.57"/>
<polygon fill="none" stroke="#29235c" points="86.5,-564.57 86.5,-621.57 490.5,-621.57 490.5,-564.57 86.5,-564.57"/>
<text text-anchor="start" x="180" y="-585.97" font-family="Helvetica,sans-Serif" font-weight="bold" font-size="32.00" fill="#ffffff"> &#160;&#160;&#160;&#160;&#160;&#160;Users &#160;&#160;&#160;&#160;&#160;&#160;</text>
<polygon fill="#e7e2dd" stroke="transparent" points="86.5,-507.57 86.5,-564.57 490.5,-564.57 490.5,-507.57 86.5,-507.57"/>
<polygon fill="none" stroke="#29235c" points="86.5,-507.57 86.5,-564.57 490.5,-564.57 490.5,-507.57 86.5,-507.57"/>
<text text-anchor="start" x="97.5" y="-528.97" font-family="Helvetica,sans-Serif" font-size="32.00" fill="#29235c">UserKey</text>
<text text-anchor="start" x="220.5" y="-528.97" font-family="Helvetica,sans-Serif" font-size="32.00" fill="#29235c"> &#160;&#160;&#160;</text>
<text text-anchor="start" x="326.5" y="-528.97" font-family="Helvetica,sans-Serif" font-style="italic" font-size="32.00" fill="#29235c">random_id</text>
<polygon fill="#e7e2dd" stroke="transparent" points="86.5,-450.57 86.5,-507.57 490.5,-507.57 490.5,-450.57 86.5,-450.57"/>
<polygon fill="none" stroke="#29235c" points="86.5,-450.57 86.5,-507.57 490.5,-507.57 490.5,-450.57 86.5,-450.57"/>
<text text-anchor="start" x="97.5" y="-471.97" font-family="Helvetica,sans-Serif" font-size="32.00" fill="#29235c">FirstName</text>
<text text-anchor="start" x="245.5" y="-471.97" font-family="Helvetica,sans-Serif" font-size="32.00" fill="#29235c"> &#160;&#160;&#160;</text>
<text text-anchor="start" x="400.5" y="-471.97" font-family="Helvetica,sans-Serif" font-style="italic" font-size="32.00" fill="#29235c">string</text>
<polygon fill="#e7e2dd" stroke="transparent" points="86.5,-393.57 86.5,-450.57 490.5,-450.57 490.5,-393.57 86.5,-393.57"/>
<polygon fill="none" stroke="#29235c" points="86.5,-393.57 86.5,-450.57 490.5,-450.57 490.5,-393.57 86.5,-393.57"/>
<text text-anchor="start" x="97.5" y="-414.97" font-family="Helvetica,sans-Serif" font-size="32.00" fill="#29235c">LastName</text>
<text text-anchor="start" x="245.5" y="-414.97" font-family="Helvetica,sans-Serif" font-size="32.00" fill="#29235c"> &#160;&#160;&#160;</text>
<text text-anchor="start" x="400.5" y="-414.97" font-family="Helvetica,sans-Serif" font-style="italic" font-size="32.00" fill="#29235c">string</text>
<polygon fill="#e7e2dd" stroke="transparent" points="86.5,-336.57 86.5,-393.57 490.5,-393.57 490.5,-336.57 86.5,-336.57"/>
<polygon fill="none" stroke="#29235c" points="86.5,-336.57 86.5,-393.57 490.5,-393.57 490.5,-336.57 86.5,-336.57"/>
<text text-anchor="start" x="97.5" y="-357.97" font-family="Helvetica,sans-Serif" font-size="32.00" fill="#29235c">FullName</text>
<text text-anchor="start" x="235.5" y="-357.97" font-family="Helvetica,sans-Serif" font-size="32.00" fill="#29235c"> &#160;&#160;&#160;</text>
<text text-anchor="start" x="272.5" y="-357.97" font-family="Helvetica,sans-Serif" font-style="italic" font-size="32.00" fill="#29235c">formula(string)</text>
<polygon fill="#e7e2dd" stroke="transparent" points="86.5,-279.57 86.5,-336.57 490.5,-336.57 490.5,-279.57 86.5,-279.57"/>
<polygon fill="none" stroke="#29235c" points="86.5,-279.57 86.5,-336.57 490.5,-336.57 490.5,-279.57 86.5,-279.57"/>
<text text-anchor="start" x="97.5" y="-300.97" font-family="Helvetica,sans-Serif" font-size="32.00" fill="#29235c">Email</text>
<text text-anchor="start" x="177.5" y="-300.97" font-family="Helvetica,sans-Serif" font-size="32.00" fill="#29235c"> &#160;&#160;&#160;</text>
<text text-anchor="start" x="400.5" y="-300.97" font-family="Helvetica,sans-Serif" font-style="italic" font-size="32.00" fill="#29235c">string</text>
<polygon fill="#e7e2dd" stroke="transparent" points="86.5,-222.57 86.5,-279.57 490.5,-279.57 490.5,-222.57 86.5,-222.57"/>
<polygon fill="none" stroke="#29235c" points="86.5,-222.57 86.5,-279.57 490.5,-279.57 490.5,-222.57 86.5,-222.57"/>
<text text-anchor="start" x="97.5" y="-243.97" font-family="Helvetica,sans-Serif" font-size="32.00" fill="#29235c">Username</text>
<text text-anchor="start" x="246.5" y="-243.97" font-family="Helvetica,sans-Serif" font-size="32.00" fill="#29235c"> &#160;&#160;&#160;</text>
<text text-anchor="start" x="400.5" y="-243.97" font-family="Helvetica,sans-Serif" font-style="italic" font-size="32.00" fill="#29235c">string</text>
<polygon fill="#e7e2dd" stroke="transparent" points="86.5,-165.57 86.5,-222.57 490.5,-222.57 490.5,-165.57 86.5,-165.57"/>
<polygon fill="none" stroke="#29235c" points="86.5,-165.57 86.5,-222.57 490.5,-222.57 490.5,-165.57 86.5,-165.57"/>
<text text-anchor="start" x="97.5" y="-186.97" font-family="Helvetica,sans-Serif" font-size="32.00" fill="#29235c">Created</text>
<text text-anchor="start" x="212.5" y="-186.97" font-family="Helvetica,sans-Serif" font-size="32.00" fill="#29235c"> &#160;&#160;&#160;</text>
<text text-anchor="start" x="330.5" y="-186.97" font-family="Helvetica,sans-Serif" font-style="italic" font-size="32.00" fill="#29235c">timestamp</text>
<polygon fill="#e7e2dd" stroke="transparent" points="86.5,-108.57 86.5,-165.57 490.5,-165.57 490.5,-108.57 86.5,-108.57"/>
<polygon fill="none" stroke="#29235c" points="86.5,-108.57 86.5,-165.57 490.5,-165.57 490.5,-108.57 86.5,-108.57"/>
<text text-anchor="start" x="97.5" y="-129.97" font-family="Helvetica,sans-Serif" font-size="32.00" fill="#29235c">LastUpdated</text>
<text text-anchor="start" x="281.5" y="-129.97" font-family="Helvetica,sans-Serif" font-size="32.00" fill="#29235c"> &#160;&#160;&#160;</text>
<text text-anchor="start" x="330.5" y="-129.97" font-family="Helvetica,sans-Serif" font-style="italic" font-size="32.00" fill="#29235c">timestamp</text>
<polygon fill="none" stroke="#29235c" stroke-width="2" points="85.5,-108.07 85.5,-623.07 491.5,-623.07 491.5,-108.07 85.5,-108.07"/>
</g>
</g>
</svg>
