<?xml version="1.0" encoding="UTF-8" standalone="no"?>
<!DOCTYPE svg PUBLIC "-//W3C//DTD SVG 1.1//EN"
 "http://www.w3.org/Graphics/SVG/1.1/DTD/svg11.dtd">
<!-- Generated by graphviz version 2.47.0 (20210316.0004)
 -->
<!-- Title: dbml Pages: 1 -->
<svg width="540pt" height="462pt"
 viewBox="0.00 0.00 539.74 461.79" xmlns="http://www.w3.org/2000/svg" xmlns:xlink="http://www.w3.org/1999/xlink">
<g id="graph0" class="graph" transform="scale(1 1) rotate(0) translate(4 457.79)">
<title>dbml</title>
<!-- products_status -->
<g id="products_status" class="node">
<title>products_status</title>
<ellipse fill="none" stroke="black" stroke-width="0" cx="265.87" cy="-130.11" rx="265.74" ry="130.22"/>
<polygon fill="#29235c" stroke="transparent" points="79.87,-160.11 79.87,-220.11 451.87,-220.11 451.87,-160.11 79.87,-160.11"/>
<polygon fill="none" stroke="#29235c" points="79.87,-160.11 79.87,-220.11 451.87,-220.11 451.87,-160.11 79.87,-160.11"/>
<text text-anchor="start" x="90.7" y="-181.31" font-family="Helvetica,sans-Serif" font-weight="bold" font-size="32.00" fill="#ffffff"> &#160;&#160;&#160;&#160;&#160;&#160;products_status &#160;&#160;&#160;&#160;&#160;&#160;</text>
<polygon fill="#e7e2dd" stroke="transparent" points="79.87,-100.11 79.87,-160.11 451.87,-160.11 451.87,-100.11 79.87,-100.11"/>
<polygon fill="none" stroke="#29235c" points="79.87,-100.11 79.87,-160.11 451.87,-160.11 451.87,-100.11 79.87,-100.11"/>
<text text-anchor="start" x="139.6" y="-121.31" font-family="Helvetica,sans-Serif" font-style="italic" font-size="32.00" fill="#1d71b8"> &#160;&#160;&#160;out_of_stock &#160;&#160;&#160;</text>
<polygon fill="#e7e2dd" stroke="transparent" points="79.87,-40.11 79.87,-100.11 451.87,-100.11 451.87,-40.11 79.87,-40.11"/>
<polygon fill="none" stroke="#29235c" points="79.87,-40.11 79.87,-100.11 451.87,-100.11 451.87,-40.11 79.87,-40.11"/>
<text text-anchor="start" x="171.62" y="-61.31" font-family="Helvetica,sans-Serif" font-style="italic" font-size="32.00" fill="#1d71b8"> &#160;&#160;&#160;in_stock &#160;&#160;&#160;</text>
<polygon fill="none" stroke="#29235c" stroke-width="2" points="78.87,-39.11 78.87,-221.11 452.87,-221.11 452.87,-39.11 78.87,-39.11"/>
</g>
<!-- ecommerce.foo -->
<g id="ecommerce.foo" class="node">
<title>ecommerce.foo</title>
<ellipse fill="none" stroke="black" stroke-width="0" cx="265.87" cy="-366.11" rx="261.76" ry="87.86"/>
<polygon fill="#1d71b8" stroke="transparent" points="82.87,-366.11 82.87,-426.11 448.87,-426.11 448.87,-366.11 82.87,-366.11"/>
<polygon fill="none" stroke="#29235c" points="82.87,-366.11 82.87,-426.11 448.87,-426.11 448.87,-366.11 82.87,-366.11"/>
<text text-anchor="start" x="93.38" y="-387.31" font-family="Helvetica,sans-Serif" font-weight="bold" font-size="32.00" fill="#ffffff"> &#160;&#160;&#160;&#160;&#160;&#160;ecommerce.foo &#160;&#160;&#160;&#160;&#160;&#160;</text>
<polygon fill="#e7e2dd" stroke="transparent" points="82.87,-306.11 82.87,-366.11 448.87,-366.11 448.87,-306.11 82.87,-306.11"/>
<polygon fill="none" stroke="#29235c" points="82.87,-306.11 82.87,-366.11 448.87,-366.11 448.87,-306.11 82.87,-306.11"/>
<text text-anchor="start" x="93.87" y="-326.31" font-family="Helvetica,sans-Serif" font-size="32.00" fill="#29235c">id &#160;&#160;&#160;</text>
<text text-anchor="start" x="340.07" y="-327.31" font-family="Helvetica,sans-Serif" font-style="italic" font-size="32.00" fill="#29235c">integer</text>
<polygon fill="none" stroke="#29235c" stroke-width="2" points="81.87,-305.11 81.87,-427.11 449.87,-427.11 449.87,-305.11 81.87,-305.11"/>
</g>
</g>
</svg>
