<?xml version="1.0" encoding="UTF-8" standalone="no"?>
<!DOCTYPE svg PUBLIC "-//W3C//DTD SVG 1.1//EN"
 "http://www.w3.org/Graphics/SVG/1.1/DTD/svg11.dtd">
<!-- Generated by graphviz version 2.47.0 (20210316.0004)
 -->
<!-- Title: dbml Pages: 1 -->
<svg width="967pt" height="605pt"
 viewBox="0.00 0.00 967.48 605.49" xmlns="http://www.w3.org/2000/svg" xmlns:xlink="http://www.w3.org/1999/xlink">
<g id="graph0" class="graph" transform="scale(1 1) rotate(0) translate(4 601.49)">
<title>dbml</title>
<!-- order_status -->
<g id="order_status" class="node">
<title>order_status</title>
<ellipse fill="none" stroke="black" stroke-width="0" cx="726.14" cy="-257.39" rx="233.19" ry="257.27"/>
<polygon fill="#29235c" stroke="transparent" points="563.14,-377.39 563.14,-437.39 889.14,-437.39 889.14,-377.39 563.14,-377.39"/>
<polygon fill="none" stroke="#29235c" points="563.14,-377.39 563.14,-437.39 889.14,-437.39 889.14,-377.39 563.14,-377.39"/>
<text text-anchor="start" x="574.97" y="-398.59" font-family="Helvetica,sans-Serif" font-weight="bold" font-size="32.00" fill="#ffffff"> &#160;&#160;&#160;&#160;&#160;&#160;order_status &#160;&#160;&#160;&#160;&#160;&#160;</text>
<polygon fill="#e7e2dd" stroke="transparent" points="563.14,-317.39 563.14,-377.39 889.14,-377.39 889.14,-317.39 563.14,-317.39"/>
<polygon fill="none" stroke="#29235c" points="563.14,-317.39 563.14,-377.39 889.14,-377.39 889.14,-317.39 563.14,-317.39"/>
<text text-anchor="start" x="574.08" y="-338.59" font-family="Helvetica,sans-Serif" font-style="italic" font-size="32.00" fill="#1d71b8"> &#160;&#160;&#160;Abandoned Cart &#160;&#160;&#160;</text>
<polygon fill="#e7e2dd" stroke="transparent" points="563.14,-257.39 563.14,-317.39 889.14,-317.39 889.14,-257.39 563.14,-257.39"/>
<polygon fill="none" stroke="#29235c" points="563.14,-257.39 563.14,-317.39 889.14,-317.39 889.14,-257.39 563.14,-257.39"/>
<text text-anchor="start" x="618.55" y="-278.59" font-family="Helvetica,sans-Serif" font-style="italic" font-size="32.00" fill="#1d71b8"> &#160;&#160;&#160;Submitted &#160;&#160;&#160;</text>
<polygon fill="#e7e2dd" stroke="transparent" points="563.14,-197.39 563.14,-257.39 889.14,-257.39 889.14,-197.39 563.14,-197.39"/>
<polygon fill="none" stroke="#29235c" points="563.14,-197.39 563.14,-257.39 889.14,-257.39 889.14,-197.39 563.14,-197.39"/>
<text text-anchor="start" x="658.56" y="-218.59" font-family="Helvetica,sans-Serif" font-style="italic" font-size="32.00" fill="#1d71b8"> &#160;&#160;&#160;Paid &#160;&#160;&#160;</text>
<polygon fill="#e7e2dd" stroke="transparent" points="563.14,-137.39 563.14,-197.39 889.14,-197.39 889.14,-137.39 563.14,-137.39"/>
<polygon fill="none" stroke="#29235c" points="563.14,-137.39 563.14,-197.39 889.14,-197.39 889.14,-137.39 563.14,-137.39"/>
<text text-anchor="start" x="631.87" y="-158.59" font-family="Helvetica,sans-Serif" font-style="italic" font-size="32.00" fill="#1d71b8"> &#160;&#160;&#160;Shipped &#160;&#160;&#160;</text>
<polygon fill="#e7e2dd" stroke="transparent" points="563.14,-77.39 563.14,-137.39 889.14,-137.39 889.14,-77.39 563.14,-77.39"/>
<polygon fill="none" stroke="#29235c" points="563.14,-77.39 563.14,-137.39 889.14,-137.39 889.14,-77.39 563.14,-77.39"/>
<text text-anchor="start" x="623.01" y="-98.59" font-family="Helvetica,sans-Serif" font-style="italic" font-size="32.00" fill="#1d71b8"> &#160;&#160;&#160;Delivered &#160;&#160;&#160;</text>
<polygon fill="none" stroke="#29235c" stroke-width="2" points="562.14,-76.39 562.14,-438.39 890.14,-438.39 890.14,-76.39 562.14,-76.39"/>
</g>
<!-- orders -->
<g id="orders" class="node">
<title>orders</title>
<ellipse fill="none" stroke="black" stroke-width="0" cx="228.4" cy="-467.39" rx="228.29" ry="130.22"/>
<polygon fill="#1d71b8" stroke="transparent" points="69.4,-497.39 69.4,-557.39 388.4,-557.39 388.4,-497.39 69.4,-497.39"/>
<polygon fill="none" stroke="#29235c" points="69.4,-497.39 69.4,-557.39 388.4,-557.39 388.4,-497.39 69.4,-497.39"/>
<text text-anchor="start" x="121.31" y="-518.59" font-family="Helvetica,sans-Serif" font-weight="bold" font-size="32.00" fill="#ffffff"> &#160;&#160;&#160;&#160;&#160;&#160;orders &#160;&#160;&#160;&#160;&#160;&#160;</text>
<polygon fill="#e7e2dd" stroke="transparent" points="69.4,-437.39 69.4,-497.39 388.4,-497.39 388.4,-437.39 69.4,-437.39"/>
<polygon fill="none" stroke="#29235c" points="69.4,-437.39 69.4,-497.39 388.4,-497.39 388.4,-437.39 69.4,-437.39"/>
<text text-anchor="start" x="80.4" y="-458.59" font-family="Helvetica,sans-Serif" font-weight="bold" font-size="32.00" fill="#29235c">id</text>
<text text-anchor="start" x="105.29" y="-458.59" font-family="Helvetica,sans-Serif" font-size="32.00" fill="#29235c"> &#160;&#160;&#160;</text>
<text text-anchor="start" x="343.61" y="-458.59" font-family="Helvetica,sans-Serif" font-style="italic" font-size="32.00" fill="#29235c">int</text>
<polygon fill="#e7e2dd" stroke="transparent" points="69.4,-377.39 69.4,-437.39 388.4,-437.39 388.4,-377.39 69.4,-377.39"/>
<polygon fill="none" stroke="#29235c" points="69.4,-377.39 69.4,-437.39 388.4,-437.39 388.4,-377.39 69.4,-377.39"/>
<text text-anchor="start" x="79.93" y="-398.59" font-family="Helvetica,sans-Serif" font-size="32.00" fill="#29235c">status</text>
<text text-anchor="start" x="165.29" y="-398.59" font-family="Helvetica,sans-Serif" font-size="32.00" fill="#29235c"> &#160;&#160;&#160;</text>
<text text-anchor="start" x="199.98" y="-398.59" font-family="Helvetica,sans-Serif" font-style="italic" font-size="32.00" fill="#29235c">order_status</text>
<polygon fill="none" stroke="#29235c" stroke-width="2" points="67.9,-376.39 67.9,-558.39 388.9,-558.39 388.9,-376.39 67.9,-376.39"/>
</g>
<!-- orders&#45;&gt;order_status -->
<g id="edge1" class="edge">
<title>orders:e&#45;&gt;order_status:w</title>
<path fill="none" stroke="#29235c" stroke-width="3" d="M389.4,-407.39C466.17,-407.39 485.36,-407.39 562.14,-407.39"/>
</g>
</g>
</svg>
