<?xml version="1.0" encoding="UTF-8" standalone="no"?>
<!DOCTYPE svg PUBLIC "-//W3C//DTD SVG 1.1//EN"
 "http://www.w3.org/Graphics/SVG/1.1/DTD/svg11.dtd">
<!-- Generated by graphviz version 2.47.0 (20210316.0004)
 -->
<!-- Title: dbml Pages: 1 -->
<svg width="579pt" height="777pt"
 viewBox="0.00 0.00 579.34 777.33" xmlns="http://www.w3.org/2000/svg" xmlns:xlink="http://www.w3.org/1999/xlink">
<g id="graph0" class="graph" transform="scale(1 1) rotate(0) translate(4 773.33)">
<title>dbml</title>
<!-- Users -->
<g id="Users" class="node">
<title>Users</title>
<ellipse fill="none" stroke="black" stroke-width="0" cx="285.67" cy="-384.67" rx="285.84" ry="384.83"/>
<polygon fill="#1d71b8" stroke="transparent" points="85.67,-594.67 85.67,-654.67 485.67,-654.67 485.67,-594.67 85.67,-594.67"/>
<polygon fill="none" stroke="#29235c" points="85.67,-594.67 85.67,-654.67 485.67,-654.67 485.67,-594.67 85.67,-594.67"/>
<text text-anchor="start" x="181.65" y="-615.87" font-family="Helvetica,sans-Serif" font-weight="bold" font-size="32.00" fill="#ffffff"> &#160;&#160;&#160;&#160;&#160;&#160;Users &#160;&#160;&#160;&#160;&#160;&#160;</text>
<polygon fill="#e7e2dd" stroke="transparent" points="85.67,-534.67 85.67,-594.67 485.67,-594.67 485.67,-534.67 85.67,-534.67"/>
<polygon fill="none" stroke="#29235c" points="85.67,-534.67 85.67,-594.67 485.67,-594.67 485.67,-534.67 85.67,-534.67"/>
<text text-anchor="start" x="96.67" y="-554.87" font-family="Helvetica,sans-Serif" font-size="32.00" fill="#29235c">UserKey &#160;&#160;&#160;</text>
<text text-anchor="start" x="323.53" y="-555.87" font-family="Helvetica,sans-Serif" font-style="italic" font-size="32.00" fill="#29235c">random_id</text>
<polygon fill="#e7e2dd" stroke="transparent" points="85.67,-474.67 85.67,-534.67 485.67,-534.67 485.67,-474.67 85.67,-474.67"/>
<polygon fill="none" stroke="#29235c" points="85.67,-474.67 85.67,-534.67 485.67,-534.67 485.67,-474.67 85.67,-474.67"/>
<text text-anchor="start" x="96.67" y="-494.87" font-family="Helvetica,sans-Serif" font-size="32.00" fill="#29235c">FirstName &#160;&#160;&#160;</text>
<text text-anchor="start" x="396.45" y="-495.87" font-family="Helvetica,sans-Serif" font-style="italic" font-size="32.00" fill="#29235c">string</text>
<polygon fill="#e7e2dd" stroke="transparent" points="85.67,-414.67 85.67,-474.67 485.67,-474.67 485.67,-414.67 85.67,-414.67"/>
<polygon fill="none" stroke="#29235c" points="85.67,-414.67 85.67,-474.67 485.67,-474.67 485.67,-414.67 85.67,-414.67"/>
<text text-anchor="start" x="96.67" y="-434.87" font-family="Helvetica,sans-Serif" font-size="32.00" fill="#29235c">LastName &#160;&#160;&#160;</text>
<text text-anchor="start" x="396.45" y="-435.87" font-family="Helvetica,sans-Serif" font-style="italic" font-size="32.00" fill="#29235c">string</text>
<polygon fill="#e7e2dd" stroke="transparent" points="85.67,-354.67 85.67,-414.67 485.67,-414.67 485.67,-354.67 85.67,-354.67"/>
<polygon fill="none" stroke="#29235c" points="85.67,-354.67 85.67,-414.67 485.67,-414.67 485.67,-354.67 85.67,-354.67"/>
<text text-anchor="start" x="96.45" y="-374.87" font-family="Helvetica,sans-Serif" font-size="32.00" fill="#29235c">FullName &#160;&#160;&#160;</text>
<text text-anchor="start" x="268.57" y="-375.87" font-family="Helvetica,sans-Serif" font-style="italic" font-size="32.00" fill="#29235c">formula(string)</text>
<polygon fill="#e7e2dd" stroke="transparent" points="85.67,-294.67 85.67,-354.67 485.67,-354.67 485.67,-294.67 85.67,-294.67"/>
<polygon fill="none" stroke="#29235c" points="85.67,-294.67 85.67,-354.67 485.67,-354.67 485.67,-294.67 85.67,-294.67"/>
<text text-anchor="start" x="96.67" y="-314.87" font-family="Helvetica,sans-Serif" font-size="32.00" fill="#29235c">Email &#160;&#160;&#160;</text>
<text text-anchor="start" x="396.45" y="-315.87" font-family="Helvetica,sans-Serif" font-style="italic" font-size="32.00" fill="#29235c">string</text>
<polygon fill="#e7e2dd" stroke="transparent" points="85.67,-234.67 85.67,-294.67 485.67,-294.67 485.67,-234.67 85.67,-234.67"/>
<polygon fill="none" stroke="#29235c" points="85.67,-234.67 85.67,-294.67 485.67,-294.67 485.67,-234.67 85.67,-234.67"/>
<text text-anchor="start" x="96.67" y="-254.87" font-family="Helvetica,sans-Serif" font-size="32.00" fill="#29235c">Username &#160;&#160;&#160;</text>
<text text-anchor="start" x="396.45" y="-255.87" font-family="Helvetica,sans-Serif" font-style="italic" font-size="32.00" fill="#29235c">string</text>
<polygon fill="#e7e2dd" stroke="transparent" points="85.67,-174.67 85.67,-234.67 485.67,-234.67 485.67,-174.67 85.67,-174.67"/>
<polygon fill="none" stroke="#29235c" points="85.67,-174.67 85.67,-234.67 485.67,-234.67 485.67,-174.67 85.67,-174.67"/>
<text text-anchor="start" x="96.67" y="-194.87" font-family="Helvetica,sans-Serif" font-size="32.00" fill="#29235c">Created &#160;&#160;&#160;</text>
<text text-anchor="start" x="327.11" y="-195.87" font-family="Helvetica,sans-Serif" font-style="italic" font-size="32.00" fill="#29235c">timestamp</text>
<polygon fill="#e7e2dd" stroke="transparent" points="85.67,-114.67 85.67,-174.67 485.67,-174.67 485.67,-114.67 85.67,-114.67"/>
<polygon fill="none" stroke="#29235c" points="85.67,-114.67 85.67,-174.67 485.67,-174.67 485.67,-114.67 85.67,-114.67"/>
<text text-anchor="start" x="96.67" y="-134.87" font-family="Helvetica,sans-Serif" font-size="32.00" fill="#29235c">LastUpdated &#160;&#160;&#160;</text>
<text text-anchor="start" x="327.11" y="-135.87" font-family="Helvetica,sans-Serif" font-style="italic" font-size="32.00" fill="#29235c">timestamp</text>
<polygon fill="none" stroke="#29235c" stroke-width="2" points="84.67,-113.67 84.67,-655.67 486.67,-655.67 486.67,-113.67 84.67,-113.67"/>
</g>
</g>
</svg>
