<?xml version="1.0" encoding="UTF-8" standalone="no"?>
<!DOCTYPE svg PUBLIC "-//W3C//DTD SVG 1.1//EN"
 "http://www.w3.org/Graphics/SVG/1.1/DTD/svg11.dtd">
<!-- Generated by graphviz version 2.47.0 (20210316.0004)
 -->
<!-- Title: dbml Pages: 1 -->
<svg width="386pt" height="268pt"
 viewBox="0.00 0.00 385.60 268.22" xmlns="http://www.w3.org/2000/svg" xmlns:xlink="http://www.w3.org/1999/xlink">
<g id="graph0" class="graph" transform="scale(1 1) rotate(0) translate(4 264.22)">
<title>dbml</title>
<!-- issues -->
<g id="issues" class="node">
<title>issues</title>
<g id="a_issues"><a xlink:title="issues&#10;The reporter of #9 didn&#39;t give a DBML sample, but they had trouble escaping the word &quot;Farmer&#39;s&quot; in a single&#45;quoted string used as a note.">
<ellipse fill="none" stroke="black" stroke-width="0" cx="188.8" cy="-130.11" rx="188.6" ry="130.22"/>
<polygon fill="#1d71b8" stroke="transparent" points="57.8,-160.11 57.8,-220.11 320.8,-220.11 320.8,-160.11 57.8,-160.11"/>
<polygon fill="none" stroke="#29235c" points="57.8,-160.11 57.8,-220.11 320.8,-220.11 320.8,-160.11 57.8,-160.11"/>
<text text-anchor="start" x="81.71" y="-181.31" font-family="Helvetica,sans-Serif" font-weight="bold" font-size="32.00" fill="#ffffff"> &#160;&#160;&#160;&#160;&#160;&#160;issues &#160;&#160;&#160;&#160;&#160;&#160;</text>
<polygon fill="#e7e2dd" stroke="transparent" points="57.8,-100.11 57.8,-160.11 320.8,-160.11 320.8,-100.11 57.8,-100.11"/>
<polygon fill="none" stroke="#29235c" points="57.8,-100.11 57.8,-160.11 320.8,-160.11 320.8,-100.11 57.8,-100.11"/>
<text text-anchor="start" x="68.78" y="-120.31" font-family="Helvetica,sans-Serif" font-size="32.00" fill="#29235c">number &#160;&#160;&#160;</text>
<text text-anchor="start" x="212.4" y="-121.31" font-family="Helvetica,sans-Serif" font-style="italic" font-size="32.00" fill="#29235c">integer</text>
<polygon fill="#e7e2dd" stroke="transparent" points="57.8,-40.11 57.8,-100.11 320.8,-100.11 320.8,-40.11 57.8,-40.11"/>
<polygon fill="none" stroke="#29235c" points="57.8,-40.11 57.8,-100.11 320.8,-100.11 320.8,-40.11 57.8,-40.11"/>
<text text-anchor="start" x="68.8" y="-60.31" font-family="Helvetica,sans-Serif" font-size="32.00" fill="#29235c">title &#160;&#160;&#160;</text>
<text text-anchor="start" x="203.13" y="-61.31" font-family="Helvetica,sans-Serif" font-style="italic" font-size="32.00" fill="#29235c">varchar</text>
<polygon fill="none" stroke="#29235c" stroke-width="2" points="56.3,-39.11 56.3,-221.11 321.3,-221.11 321.3,-39.11 56.3,-39.11"/>
</a>
</g>
</g>
</g>
</svg>
