<?xml version="1.0" encoding="UTF-8" standalone="no"?>
<!DOCTYPE svg PUBLIC "-//W3C//DTD SVG 1.1//EN"
 "http://www.w3.org/Graphics/SVG/1.1/DTD/svg11.dtd">
<!-- Generated by graphviz version 2.47.0 (20210316.0004)
 -->
<!-- Title: dbml Pages: 1 -->
<svg width="1772pt" height="516pt"
 viewBox="0.00 0.00 1772.04 515.60" xmlns="http://www.w3.org/2000/svg" xmlns:xlink="http://www.w3.org/1999/xlink">
<g id="graph0" class="graph" transform="scale(1 1) rotate(0) translate(4 511.6)">
<title>dbml</title>
<!-- countries -->
<g id="countries" class="node">
<title>countries</title>
<ellipse fill="none" stroke="black" stroke-width="0" cx="1566.05" cy="-377.49" rx="197.98" ry="130.22"/>
<polygon fill="#1d71b8" stroke="transparent" points="1428.05,-407.49 1428.05,-467.49 1704.05,-467.49 1704.05,-407.49 1428.05,-407.49"/>
<polygon fill="none" stroke="#29235c" points="1428.05,-407.49 1428.05,-467.49 1704.05,-467.49 1704.05,-407.49 1428.05,-407.49"/>
<text text-anchor="start" x="1438.9" y="-428.69" font-family="Helvetica,sans-Serif" font-weight="bold" font-size="32.00" fill="#ffffff"> &#160;&#160;&#160;&#160;&#160;&#160;countries &#160;&#160;&#160;&#160;&#160;&#160;</text>
<polygon fill="#e7e2dd" stroke="transparent" points="1428.05,-347.49 1428.05,-407.49 1704.05,-407.49 1704.05,-347.49 1428.05,-347.49"/>
<polygon fill="none" stroke="#29235c" points="1428.05,-347.49 1428.05,-407.49 1704.05,-407.49 1704.05,-347.49 1428.05,-347.49"/>
<text text-anchor="start" x="1439.05" y="-368.69" font-family="Helvetica,sans-Serif" font-weight="bold" font-size="32.00" fill="#29235c">code</text>
<text text-anchor="start" x="1508.42" y="-368.69" font-family="Helvetica,sans-Serif" font-size="32.00" fill="#29235c"> &#160;&#160;&#160;</text>
<text text-anchor="start" x="1659.27" y="-368.69" font-family="Helvetica,sans-Serif" font-style="italic" font-size="32.00" fill="#29235c">int</text>
<polygon fill="#e7e2dd" stroke="transparent" points="1428.05,-287.49 1428.05,-347.49 1704.05,-347.49 1704.05,-287.49 1428.05,-287.49"/>
<polygon fill="none" stroke="#29235c" points="1428.05,-287.49 1428.05,-347.49 1704.05,-347.49 1704.05,-287.49 1428.05,-287.49"/>
<text text-anchor="start" x="1439.05" y="-307.69" font-family="Helvetica,sans-Serif" font-size="32.00" fill="#29235c">name &#160;&#160;&#160;</text>
<text text-anchor="start" x="1586.38" y="-308.69" font-family="Helvetica,sans-Serif" font-style="italic" font-size="32.00" fill="#29235c">varchar</text>
<polygon fill="none" stroke="#29235c" stroke-width="2" points="1427.05,-286.49 1427.05,-468.49 1705.05,-468.49 1705.05,-286.49 1427.05,-286.49"/>
</g>
<!-- users -->
<g id="users" class="node">
<title>users</title>
<ellipse fill="none" stroke="black" stroke-width="0" cx="1115.69" cy="-236.49" rx="216.25" ry="172.57"/>
<polygon fill="#1d71b8" stroke="transparent" points="964.69,-296.49 964.69,-356.49 1266.69,-356.49 1266.69,-296.49 964.69,-296.49"/>
<polygon fill="none" stroke="#29235c" points="964.69,-296.49 964.69,-356.49 1266.69,-356.49 1266.69,-296.49 964.69,-296.49"/>
<text text-anchor="start" x="1014.32" y="-317.69" font-family="Helvetica,sans-Serif" font-weight="bold" font-size="32.00" fill="#ffffff"> &#160;&#160;&#160;&#160;&#160;&#160;users &#160;&#160;&#160;&#160;&#160;&#160;</text>
<polygon fill="#e7e2dd" stroke="transparent" points="964.69,-236.49 964.69,-296.49 1266.69,-296.49 1266.69,-236.49 964.69,-236.49"/>
<polygon fill="none" stroke="#29235c" points="964.69,-236.49 964.69,-296.49 1266.69,-296.49 1266.69,-236.49 964.69,-236.49"/>
<text text-anchor="start" x="975.69" y="-257.69" font-family="Helvetica,sans-Serif" font-weight="bold" font-size="32.00" fill="#29235c">id</text>
<text text-anchor="start" x="1000.58" y="-257.69" font-family="Helvetica,sans-Serif" font-size="32.00" fill="#29235c"> &#160;&#160;&#160;</text>
<text text-anchor="start" x="1221.91" y="-257.69" font-family="Helvetica,sans-Serif" font-style="italic" font-size="32.00" fill="#29235c">int</text>
<polygon fill="#e7e2dd" stroke="transparent" points="964.69,-176.49 964.69,-236.49 1266.69,-236.49 1266.69,-176.49 964.69,-176.49"/>
<polygon fill="none" stroke="#29235c" points="964.69,-176.49 964.69,-236.49 1266.69,-236.49 1266.69,-176.49 964.69,-176.49"/>
<text text-anchor="start" x="975.56" y="-196.69" font-family="Helvetica,sans-Serif" font-size="32.00" fill="#29235c">full_name &#160;&#160;&#160;</text>
<text text-anchor="start" x="1149.35" y="-197.69" font-family="Helvetica,sans-Serif" font-style="italic" font-size="32.00" fill="#29235c">varchar</text>
<polygon fill="#e7e2dd" stroke="transparent" points="964.69,-116.49 964.69,-176.49 1266.69,-176.49 1266.69,-116.49 964.69,-116.49"/>
<polygon fill="none" stroke="#29235c" points="964.69,-116.49 964.69,-176.49 1266.69,-176.49 1266.69,-116.49 964.69,-116.49"/>
<text text-anchor="start" x="975.69" y="-136.69" font-family="Helvetica,sans-Serif" font-size="32.00" fill="#29235c">country_code &#160;&#160;&#160;</text>
<text text-anchor="start" x="1221.91" y="-137.69" font-family="Helvetica,sans-Serif" font-style="italic" font-size="32.00" fill="#29235c">int</text>
<polygon fill="none" stroke="#29235c" stroke-width="2" points="963.69,-115.49 963.69,-357.49 1267.69,-357.49 1267.69,-115.49 963.69,-115.49"/>
</g>
<!-- users&#45;&gt;countries -->
<!-- users&#45;&gt;countries -->
<g id="edge6" class="edge">
<title>users:e&#45;&gt;countries:w</title>
<path fill="none" stroke="#29235c" stroke-width="3" d="M1267.69,-146.49C1388.89,-146.49 1307.26,-364.59 1416.96,-376.94"/>
<polygon fill="#29235c" stroke="#29235c" stroke-width="3" points="1416.88,-380.44 1427.05,-377.49 1417.26,-373.45 1416.88,-380.44"/>
<text text-anchor="middle" x="1435.95" y="-387.09" font-family="Helvetica,sans-Serif" font-size="32.00" fill="#29235c">1</text>
<text text-anchor="middle" x="1261.47" y="-156.09" font-family="Helvetica,sans-Serif" font-size="32.00" fill="#29235c">*</text>
</g>
<!-- merchants -->
<g id="merchants" class="node">
<title>merchants</title>
<ellipse fill="none" stroke="black" stroke-width="0" cx="651.89" cy="-232.49" rx="211.35" ry="214.92"/>
<polygon fill="#1d71b8" stroke="transparent" points="504.89,-322.49 504.89,-382.49 799.89,-382.49 799.89,-322.49 504.89,-322.49"/>
<polygon fill="none" stroke="#29235c" points="504.89,-322.49 504.89,-382.49 799.89,-382.49 799.89,-322.49 504.89,-322.49"/>
<text text-anchor="start" x="515.46" y="-343.69" font-family="Helvetica,sans-Serif" font-weight="bold" font-size="32.00" fill="#ffffff"> &#160;&#160;&#160;&#160;&#160;&#160;merchants &#160;&#160;&#160;&#160;&#160;&#160;</text>
<polygon fill="#e7e2dd" stroke="transparent" points="504.89,-262.49 504.89,-322.49 799.89,-322.49 799.89,-262.49 504.89,-262.49"/>
<polygon fill="none" stroke="#29235c" points="504.89,-262.49 504.89,-322.49 799.89,-322.49 799.89,-262.49 504.89,-262.49"/>
<text text-anchor="start" x="515.89" y="-283.69" font-family="Helvetica,sans-Serif" font-weight="bold" font-size="32.00" fill="#29235c">id</text>
<text text-anchor="start" x="540.78" y="-283.69" font-family="Helvetica,sans-Serif" font-size="32.00" fill="#29235c"> &#160;&#160;&#160;</text>
<text text-anchor="start" x="755.11" y="-283.69" font-family="Helvetica,sans-Serif" font-style="italic" font-size="32.00" fill="#29235c">int</text>
<polygon fill="#e7e2dd" stroke="transparent" points="504.89,-202.49 504.89,-262.49 799.89,-262.49 799.89,-202.49 504.89,-202.49"/>
<polygon fill="none" stroke="#29235c" points="504.89,-202.49 504.89,-262.49 799.89,-262.49 799.89,-202.49 504.89,-202.49"/>
<text text-anchor="start" x="515.89" y="-222.69" font-family="Helvetica,sans-Serif" font-size="32.00" fill="#29235c">name &#160;&#160;&#160;</text>
<text text-anchor="start" x="682.22" y="-223.69" font-family="Helvetica,sans-Serif" font-style="italic" font-size="32.00" fill="#29235c">varchar</text>
<polygon fill="#e7e2dd" stroke="transparent" points="504.89,-142.49 504.89,-202.49 799.89,-202.49 799.89,-142.49 504.89,-142.49"/>
<polygon fill="none" stroke="#29235c" points="504.89,-142.49 504.89,-202.49 799.89,-202.49 799.89,-142.49 504.89,-142.49"/>
<text text-anchor="start" x="515.89" y="-162.69" font-family="Helvetica,sans-Serif" font-size="32.00" fill="#29235c">country_code &#160;&#160;&#160;</text>
<text text-anchor="start" x="755.11" y="-163.69" font-family="Helvetica,sans-Serif" font-style="italic" font-size="32.00" fill="#29235c">int</text>
<polygon fill="#e7e2dd" stroke="transparent" points="504.89,-82.49 504.89,-142.49 799.89,-142.49 799.89,-82.49 504.89,-82.49"/>
<polygon fill="none" stroke="#29235c" points="504.89,-82.49 504.89,-142.49 799.89,-142.49 799.89,-82.49 504.89,-82.49"/>
<text text-anchor="start" x="515.89" y="-102.69" font-family="Helvetica,sans-Serif" font-size="32.00" fill="#29235c">admin_id &#160;&#160;&#160;</text>
<text text-anchor="start" x="755.11" y="-103.69" font-family="Helvetica,sans-Serif" font-style="italic" font-size="32.00" fill="#29235c">int</text>
<polygon fill="none" stroke="#29235c" stroke-width="2" points="503.39,-81.49 503.39,-383.49 800.39,-383.49 800.39,-81.49 503.39,-81.49"/>
</g>
<!-- merchants&#45;&gt;countries -->
<!-- merchants&#45;&gt;countries -->
<g id="edge8" class="edge">
<title>merchants:e&#45;&gt;countries:w</title>
<path fill="none" stroke="#29235c" stroke-width="3" d="M800.89,-172.49C869.18,-172.49 837.46,-83.44 899.31,-54.49 986.41,-13.72 1255.07,3.12 1332.06,-54.49 1449.06,-142.04 1285.44,-366.63 1417.06,-377.11"/>
<polygon fill="#29235c" stroke="#29235c" stroke-width="3" points="1416.93,-380.61 1427.05,-377.49 1417.19,-373.61 1416.93,-380.61"/>
<text text-anchor="middle" x="1435.95" y="-348.69" font-family="Helvetica,sans-Serif" font-size="32.00" fill="#29235c">1</text>
<text text-anchor="middle" x="794.67" y="-182.09" font-family="Helvetica,sans-Serif" font-size="32.00" fill="#29235c">*</text>
</g>
<!-- merchants&#45;&gt;users -->
<!-- merchants&#45;&gt;users -->
<g id="edge10" class="edge">
<title>merchants:e&#45;&gt;users:w</title>
<path fill="none" stroke="#29235c" stroke-width="3" d="M800.89,-112.49C896.99,-112.49 866.48,-255.85 953.68,-265.93"/>
<polygon fill="#29235c" stroke="#29235c" stroke-width="3" points="953.51,-269.43 963.69,-266.49 953.9,-262.44 953.51,-269.43"/>
<text text-anchor="middle" x="954.8" y="-276.09" font-family="Helvetica,sans-Serif" font-size="32.00" fill="#29235c">1</text>
<text text-anchor="middle" x="794.67" y="-122.09" font-family="Helvetica,sans-Serif" font-size="32.00" fill="#29235c">*</text>
</g>
<!-- products -->
<g id="products" class="node">
<title>products</title>
<ellipse fill="none" stroke="black" stroke-width="0" cx="202.23" cy="-292.49" rx="202.47" ry="214.92"/>
<polygon fill="#1d71b8" stroke="transparent" points="61.23,-382.49 61.23,-442.49 343.23,-442.49 343.23,-382.49 61.23,-382.49"/>
<polygon fill="none" stroke="#29235c" points="61.23,-382.49 61.23,-442.49 343.23,-442.49 343.23,-382.49 61.23,-382.49"/>
<text text-anchor="start" x="78.63" y="-403.69" font-family="Helvetica,sans-Serif" font-weight="bold" font-size="32.00" fill="#ffffff"> &#160;&#160;&#160;&#160;&#160;&#160;products &#160;&#160;&#160;&#160;&#160;&#160;</text>
<polygon fill="#e7e2dd" stroke="transparent" points="61.23,-322.49 61.23,-382.49 343.23,-382.49 343.23,-322.49 61.23,-322.49"/>
<polygon fill="none" stroke="#29235c" points="61.23,-322.49 61.23,-382.49 343.23,-382.49 343.23,-322.49 61.23,-322.49"/>
<text text-anchor="start" x="72.23" y="-343.69" font-family="Helvetica,sans-Serif" font-weight="bold" font-size="32.00" fill="#29235c">id</text>
<text text-anchor="start" x="97.12" y="-343.69" font-family="Helvetica,sans-Serif" font-size="32.00" fill="#29235c"> &#160;&#160;&#160;</text>
<text text-anchor="start" x="298.45" y="-343.69" font-family="Helvetica,sans-Serif" font-style="italic" font-size="32.00" fill="#29235c">int</text>
<polygon fill="#e7e2dd" stroke="transparent" points="61.23,-262.49 61.23,-322.49 343.23,-322.49 343.23,-262.49 61.23,-262.49"/>
<polygon fill="none" stroke="#29235c" points="61.23,-262.49 61.23,-322.49 343.23,-322.49 343.23,-262.49 61.23,-262.49"/>
<text text-anchor="start" x="72.23" y="-282.69" font-family="Helvetica,sans-Serif" font-size="32.00" fill="#29235c">name &#160;&#160;&#160;</text>
<text text-anchor="start" x="225.56" y="-283.69" font-family="Helvetica,sans-Serif" font-style="italic" font-size="32.00" fill="#29235c">varchar</text>
<polygon fill="#e7e2dd" stroke="transparent" points="61.23,-202.49 61.23,-262.49 343.23,-262.49 343.23,-202.49 61.23,-202.49"/>
<polygon fill="none" stroke="#29235c" points="61.23,-202.49 61.23,-262.49 343.23,-262.49 343.23,-202.49 61.23,-202.49"/>
<text text-anchor="start" x="72.23" y="-222.69" font-family="Helvetica,sans-Serif" font-size="32.00" fill="#29235c">merchant_id &#160;&#160;&#160;</text>
<text text-anchor="start" x="298.45" y="-223.69" font-family="Helvetica,sans-Serif" font-style="italic" font-size="32.00" fill="#29235c">int</text>
<polygon fill="#e7e2dd" stroke="transparent" points="61.23,-142.49 61.23,-202.49 343.23,-202.49 343.23,-142.49 61.23,-142.49"/>
<polygon fill="none" stroke="#29235c" points="61.23,-142.49 61.23,-202.49 343.23,-202.49 343.23,-142.49 61.23,-142.49"/>
<text text-anchor="start" x="71.91" y="-162.69" font-family="Helvetica,sans-Serif" font-size="32.00" fill="#29235c">country_code &#160;&#160;&#160;</text>
<text text-anchor="start" x="298.84" y="-163.69" font-family="Helvetica,sans-Serif" font-style="italic" font-size="32.00" fill="#29235c">int</text>
<polygon fill="none" stroke="#29235c" stroke-width="2" points="60.23,-141.49 60.23,-443.49 344.23,-443.49 344.23,-141.49 60.23,-141.49"/>
</g>
<!-- products&#45;&gt;countries -->
<!-- products&#45;&gt;countries -->
<g id="edge4" class="edge">
<title>products:e&#45;&gt;countries:w</title>
<path fill="none" stroke="#29235c" stroke-width="3" d="M344.23,-172.49C428.74,-172.49 367.13,-50.49 440.47,-8.49 467.49,6.99 1318.96,-2.27 1332.06,-12.49 1461.4,-113.36 1268.07,-366.31 1416.76,-377.13"/>
<polygon fill="#29235c" stroke="#29235c" stroke-width="3" points="1416.94,-380.64 1427.05,-377.49 1417.18,-373.64 1416.94,-380.64"/>
<text text-anchor="middle" x="1418.16" y="-387.09" font-family="Helvetica,sans-Serif" font-size="32.00" fill="#29235c">1</text>
<text text-anchor="middle" x="350.45" y="-182.09" font-family="Helvetica,sans-Serif" font-size="32.00" fill="#29235c">*</text>
</g>
<!-- products&#45;&gt;merchants -->
<!-- products&#45;&gt;merchants -->
<g id="edge2" class="edge">
<title>products:e&#45;&gt;merchants:w</title>
<path fill="none" stroke="#29235c" stroke-width="3" d="M344.23,-232.49C416.48,-232.49 427.18,-287 493.66,-292.11"/>
<polygon fill="#29235c" stroke="#29235c" stroke-width="3" points="493.77,-295.61 503.89,-292.49 494.03,-288.62 493.77,-295.61"/>
<text text-anchor="middle" x="495" y="-302.09" font-family="Helvetica,sans-Serif" font-size="32.00" fill="#29235c">1</text>
<text text-anchor="middle" x="350.45" y="-242.09" font-family="Helvetica,sans-Serif" font-size="32.00" fill="#29235c">*</text>
</g>
</g>
</svg>
