<?xml version="1.0" encoding="UTF-8" standalone="no"?>
<!DOCTYPE svg PUBLIC "-//W3C//DTD SVG 1.1//EN"
 "http://www.w3.org/Graphics/SVG/1.1/DTD/svg11.dtd">
<!-- Generated by graphviz version 2.47.0 (20210316.0004)
 -->
<!-- Title: dbml Pages: 1 -->
<svg width="473pt" height="438pt"
 viewBox="0.00 0.00 473.28 437.92" xmlns="http://www.w3.org/2000/svg" xmlns:xlink="http://www.w3.org/1999/xlink">
<g id="graph0" class="graph" transform="scale(1 1) rotate(0) translate(4 433.92)">
<title>dbml</title>
<!-- accounts -->
<g id="accounts" class="node">
<title>accounts</title>
<ellipse fill="none" stroke="black" stroke-width="0" cx="232.64" cy="-214.96" rx="232.78" ry="214.92"/>
<polygon fill="#1d71b8" stroke="transparent" points="70.64,-304.96 70.64,-364.96 395.64,-364.96 395.64,-304.96 70.64,-304.96"/>
<polygon fill="none" stroke="#29235c" points="70.64,-304.96 70.64,-364.96 395.64,-364.96 395.64,-304.96 70.64,-304.96"/>
<text text-anchor="start" x="106.86" y="-326.16" font-family="Helvetica,sans-Serif" font-weight="bold" font-size="32.00" fill="#ffffff"> &#160;&#160;&#160;&#160;&#160;&#160;accounts &#160;&#160;&#160;&#160;&#160;&#160;</text>
<polygon fill="#e7e2dd" stroke="transparent" points="70.64,-244.96 70.64,-304.96 395.64,-304.96 395.64,-244.96 70.64,-244.96"/>
<polygon fill="none" stroke="#29235c" points="70.64,-244.96 70.64,-304.96 395.64,-304.96 395.64,-244.96 70.64,-244.96"/>
<text text-anchor="start" x="81.64" y="-266.16" font-family="Helvetica,sans-Serif" font-weight="bold" font-size="32.00" fill="#29235c">id</text>
<text text-anchor="start" x="106.53" y="-266.16" font-family="Helvetica,sans-Serif" font-size="32.00" fill="#29235c"> &#160;&#160;&#160;</text>
<text text-anchor="start" x="265.53" y="-266.16" font-family="Helvetica,sans-Serif" font-style="italic" font-size="32.00" fill="#29235c">bigserial</text>
<polygon fill="#e7e2dd" stroke="transparent" points="70.64,-184.96 70.64,-244.96 395.64,-244.96 395.64,-184.96 70.64,-184.96"/>
<polygon fill="none" stroke="#29235c" points="70.64,-184.96 70.64,-244.96 395.64,-244.96 395.64,-184.96 70.64,-184.96"/>
<text text-anchor="start" x="81.64" y="-205.16" font-family="Helvetica,sans-Serif" font-size="32.00" fill="#29235c">owner &#160;&#160;&#160;</text>
<text text-anchor="start" x="238.87" y="-206.16" font-family="Helvetica,sans-Serif" font-style="italic" font-size="32.00" fill="#29235c">varchar</text>
<text text-anchor="start" x="345.55" y="-206.16" font-family="Helvetica,sans-Serif" font-size="32.00" fill="#29235c"> </text>
<text text-anchor="start" x="354.44" y="-206.16" font-family="Helvetica,sans-Serif" font-weight="bold" font-size="32.00" fill="#29235c">(!)</text>
<polygon fill="#e7e2dd" stroke="transparent" points="70.64,-124.96 70.64,-184.96 395.64,-184.96 395.64,-124.96 70.64,-124.96"/>
<polygon fill="none" stroke="#29235c" points="70.64,-124.96 70.64,-184.96 395.64,-184.96 395.64,-124.96 70.64,-124.96"/>
<text text-anchor="start" x="81.64" y="-145.16" font-family="Helvetica,sans-Serif" font-size="32.00" fill="#29235c">balance &#160;&#160;&#160;</text>
<text text-anchor="start" x="269.09" y="-146.16" font-family="Helvetica,sans-Serif" font-style="italic" font-size="32.00" fill="#29235c">bigint</text>
<text text-anchor="start" x="345.55" y="-146.16" font-family="Helvetica,sans-Serif" font-size="32.00" fill="#29235c"> </text>
<text text-anchor="start" x="354.44" y="-146.16" font-family="Helvetica,sans-Serif" font-weight="bold" font-size="32.00" fill="#29235c">(!)</text>
<polygon fill="#e7e2dd" stroke="transparent" points="70.64,-64.96 70.64,-124.96 395.64,-124.96 395.64,-64.96 70.64,-64.96"/>
<polygon fill="none" stroke="#29235c" points="70.64,-64.96 70.64,-124.96 395.64,-124.96 395.64,-64.96 70.64,-64.96"/>
<text text-anchor="start" x="81.52" y="-85.16" font-family="Helvetica,sans-Serif" font-size="32.00" fill="#29235c">currency &#160;&#160;&#160;</text>
<text text-anchor="start" x="239.26" y="-86.16" font-family="Helvetica,sans-Serif" font-style="italic" font-size="32.00" fill="#29235c">varchar</text>
<text text-anchor="start" x="345.93" y="-86.16" font-family="Helvetica,sans-Serif" font-size="32.00" fill="#29235c"> </text>
<text text-anchor="start" x="354.82" y="-86.16" font-family="Helvetica,sans-Serif" font-weight="bold" font-size="32.00" fill="#29235c">(!)</text>
<polygon fill="none" stroke="#29235c" stroke-width="2" points="69.14,-63.96 69.14,-365.96 396.14,-365.96 396.14,-63.96 69.14,-63.96"/>
</g>
</g>
</svg>
