<?xml version="1.0" encoding="UTF-8" standalone="no"?>
<!DOCTYPE svg PUBLIC "-//W3C//DTD SVG 1.1//EN"
 "http://www.w3.org/Graphics/SVG/1.1/DTD/svg11.dtd">
<!-- Generated by graphviz version 3.0.0 (20220226.1711)
 -->
<!-- Title: dbml Pages: 1 -->
<svg width="1000pt" height="577pt"
 viewBox="0.00 0.00 1000.01 577.40" xmlns="http://www.w3.org/2000/svg" xmlns:xlink="http://www.w3.org/1999/xlink">
<g id="graph0" class="graph" transform="scale(1 1) rotate(0) translate(4 573.4)">
<title>dbml</title>
<!-- order_status -->
<g id="order_status" class="node">
<title>order_status</title>
<ellipse fill="none" stroke="black" stroke-width="0" cx="745.94" cy="-244.66" rx="246.15" ry="244.82"/>
<polygon fill="#29235c" stroke="transparent" points="573.94,-358.66 573.94,-415.66 917.94,-415.66 917.94,-358.66 573.94,-358.66"/>
<polygon fill="none" stroke="#29235c" points="573.94,-358.66 573.94,-415.66 917.94,-415.66 917.94,-358.66 573.94,-358.66"/>
<text text-anchor="start" x="584.94" y="-380.06" font-family="Helvetica,sans-Serif" font-weight="bold" font-size="32.00" fill="#ffffff"> &#160;&#160;&#160;&#160;&#160;&#160;order_status &#160;&#160;&#160;&#160;&#160;&#160;</text>
<polygon fill="#e7e2dd" stroke="transparent" points="573.94,-301.66 573.94,-358.66 917.94,-358.66 917.94,-301.66 573.94,-301.66"/>
<polygon fill="none" stroke="#29235c" points="573.94,-301.66 573.94,-358.66 917.94,-358.66 917.94,-301.66 573.94,-301.66"/>
<text text-anchor="start" x="592.44" y="-323.06" font-family="Helvetica,sans-Serif" font-style="italic" font-size="32.00" fill="#1d71b8"> &#160;&#160;&#160;Abandoned Cart &#160;&#160;&#160;</text>
<polygon fill="#e7e2dd" stroke="transparent" points="573.94,-244.66 573.94,-301.66 917.94,-301.66 917.94,-244.66 573.94,-244.66"/>
<polygon fill="none" stroke="#29235c" points="573.94,-244.66 573.94,-301.66 917.94,-301.66 917.94,-244.66 573.94,-244.66"/>
<text text-anchor="start" x="637.44" y="-266.06" font-family="Helvetica,sans-Serif" font-style="italic" font-size="32.00" fill="#1d71b8"> &#160;&#160;&#160;Submitted &#160;&#160;&#160;</text>
<polygon fill="#e7e2dd" stroke="transparent" points="573.94,-187.66 573.94,-244.66 917.94,-244.66 917.94,-187.66 573.94,-187.66"/>
<polygon fill="none" stroke="#29235c" points="573.94,-187.66 573.94,-244.66 917.94,-244.66 917.94,-187.66 573.94,-187.66"/>
<text text-anchor="start" x="677.94" y="-209.06" font-family="Helvetica,sans-Serif" font-style="italic" font-size="32.00" fill="#1d71b8"> &#160;&#160;&#160;Paid &#160;&#160;&#160;</text>
<polygon fill="#e7e2dd" stroke="transparent" points="573.94,-130.66 573.94,-187.66 917.94,-187.66 917.94,-130.66 573.94,-130.66"/>
<polygon fill="none" stroke="#29235c" points="573.94,-130.66 573.94,-187.66 917.94,-187.66 917.94,-130.66 573.94,-130.66"/>
<text text-anchor="start" x="650.94" y="-152.06" font-family="Helvetica,sans-Serif" font-style="italic" font-size="32.00" fill="#1d71b8"> &#160;&#160;&#160;Shipped &#160;&#160;&#160;</text>
<polygon fill="#e7e2dd" stroke="transparent" points="573.94,-73.66 573.94,-130.66 917.94,-130.66 917.94,-73.66 573.94,-73.66"/>
<polygon fill="none" stroke="#29235c" points="573.94,-73.66 573.94,-130.66 917.94,-130.66 917.94,-73.66 573.94,-73.66"/>
<text text-anchor="start" x="641.94" y="-95.06" font-family="Helvetica,sans-Serif" font-style="italic" font-size="32.00" fill="#1d71b8"> &#160;&#160;&#160;Delivered &#160;&#160;&#160;</text>
<polygon fill="none" stroke="#29235c" stroke-width="2" points="572.94,-72.66 572.94,-416.66 918.94,-416.66 918.94,-72.66 572.94,-72.66"/>
</g>
<!-- orders -->
<g id="orders" class="node">
<title>orders</title>
<ellipse fill="none" stroke="black" stroke-width="0" cx="231.93" cy="-445.66" rx="231.86" ry="123.99"/>
<polygon fill="#1d71b8" stroke="transparent" points="69.93,-473.66 69.93,-530.66 393.93,-530.66 393.93,-473.66 69.93,-473.66"/>
<polygon fill="none" stroke="#29235c" points="69.93,-473.66 69.93,-530.66 393.93,-530.66 393.93,-473.66 69.93,-473.66"/>
<text text-anchor="start" x="118.43" y="-495.06" font-family="Helvetica,sans-Serif" font-weight="bold" font-size="32.00" fill="#ffffff"> &#160;&#160;&#160;&#160;&#160;&#160;orders &#160;&#160;&#160;&#160;&#160;&#160;</text>
<polygon fill="#e7e2dd" stroke="transparent" points="69.93,-416.66 69.93,-473.66 393.93,-473.66 393.93,-416.66 69.93,-416.66"/>
<polygon fill="none" stroke="#29235c" points="69.93,-416.66 69.93,-473.66 393.93,-473.66 393.93,-416.66 69.93,-416.66"/>
<text text-anchor="start" x="80.93" y="-438.06" font-family="Helvetica,sans-Serif" font-weight="bold" font-size="32.00" fill="#29235c">id</text>
<text text-anchor="start" x="109.93" y="-438.06" font-family="Helvetica,sans-Serif" font-size="32.00" fill="#29235c"> &#160;&#160;&#160;</text>
<text text-anchor="start" x="348.93" y="-438.06" font-family="Helvetica,sans-Serif" font-style="italic" font-size="32.00" fill="#29235c">int</text>
<polygon fill="#e7e2dd" stroke="transparent" points="69.93,-359.66 69.93,-416.66 393.93,-416.66 393.93,-359.66 69.93,-359.66"/>
<polygon fill="none" stroke="#29235c" points="69.93,-359.66 69.93,-416.66 393.93,-416.66 393.93,-359.66 69.93,-359.66"/>
<text text-anchor="start" x="80.93" y="-381.06" font-family="Helvetica,sans-Serif" font-size="32.00" fill="#29235c">status</text>
<text text-anchor="start" x="166.93" y="-381.06" font-family="Helvetica,sans-Serif" font-size="32.00" fill="#29235c"> &#160;&#160;&#160;</text>
<text text-anchor="start" x="203.93" y="-381.06" font-family="Helvetica,sans-Serif" font-style="italic" font-size="32.00" fill="#29235c">order_status</text>
<polygon fill="none" stroke="#29235c" stroke-width="2" points="68.93,-359.16 68.93,-532.16 394.93,-532.16 394.93,-359.16 68.93,-359.16"/>
</g>
<!-- orders&#45;&gt;order_status -->
<g id="edge1" class="edge">
<title>orders:e&#45;&gt;order_status:w</title>
<path fill="none" stroke="#29235c" stroke-width="3" d="M394.93,-387.66C474.04,-387.66 493.82,-387.66 572.94,-387.66"/>
</g>
</g>
</svg>
