<?xml version="1.0" encoding="UTF-8" standalone="no"?>
<!DOCTYPE svg PUBLIC "-//W3C//DTD SVG 1.1//EN"
 "http://www.w3.org/Graphics/SVG/1.1/DTD/svg11.dtd">
<!-- Generated by graphviz version 2.47.0 (20210316.0004)
 -->
<!-- Title: dbml Pages: 1 -->
<svg width="972pt" height="268pt"
 viewBox="0.00 0.00 971.72 268.22" xmlns="http://www.w3.org/2000/svg" xmlns:xlink="http://www.w3.org/1999/xlink">
<g id="graph0" class="graph" transform="scale(1 1) rotate(0) translate(4 264.22)">
<title>dbml</title>
<!-- users -->
<g id="users" class="node">
<title>users</title>
<ellipse fill="none" stroke="black" stroke-width="0" cx="218.5" cy="-130.11" rx="218.49" ry="130.22"/>
<polygon fill="#1d71b8" stroke="transparent" points="66.5,-160.11 66.5,-220.11 371.5,-220.11 371.5,-160.11 66.5,-160.11"/>
<polygon fill="none" stroke="#29235c" points="66.5,-160.11 66.5,-220.11 371.5,-220.11 371.5,-160.11 66.5,-160.11"/>
<text text-anchor="start" x="117.63" y="-181.31" font-family="Helvetica,sans-Serif" font-weight="bold" font-size="32.00" fill="#ffffff"> &#160;&#160;&#160;&#160;&#160;&#160;users &#160;&#160;&#160;&#160;&#160;&#160;</text>
<polygon fill="#e7e2dd" stroke="transparent" points="66.5,-100.11 66.5,-160.11 371.5,-160.11 371.5,-100.11 66.5,-100.11"/>
<polygon fill="none" stroke="#29235c" points="66.5,-100.11 66.5,-160.11 371.5,-160.11 371.5,-100.11 66.5,-100.11"/>
<text text-anchor="start" x="77.5" y="-120.31" font-family="Helvetica,sans-Serif" font-size="32.00" fill="#29235c">id &#160;&#160;&#160;</text>
<text text-anchor="start" x="262.69" y="-121.31" font-family="Helvetica,sans-Serif" font-style="italic" font-size="32.00" fill="#29235c">integer</text>
<polygon fill="#e7e2dd" stroke="transparent" points="66.5,-40.11 66.5,-100.11 371.5,-100.11 371.5,-40.11 66.5,-40.11"/>
<polygon fill="none" stroke="#29235c" points="66.5,-40.11 66.5,-100.11 371.5,-100.11 371.5,-40.11 66.5,-40.11"/>
<text text-anchor="start" x="77.09" y="-60.31" font-family="Helvetica,sans-Serif" font-size="32.00" fill="#29235c">username &#160;&#160;&#160;</text>
<text text-anchor="start" x="254.16" y="-61.31" font-family="Helvetica,sans-Serif" font-style="italic" font-size="32.00" fill="#29235c">varchar</text>
<polygon fill="none" stroke="#29235c" stroke-width="2" points="65,-39.11 65,-221.11 372,-221.11 372,-39.11 65,-39.11"/>
</g>
<!-- conversations -->
<g id="conversations" class="node">
<title>conversations</title>
<ellipse fill="none" stroke="black" stroke-width="0" cx="718.36" cy="-130.11" rx="245.23" ry="130.22"/>
<polygon fill="#1d71b8" stroke="transparent" points="547.36,-160.11 547.36,-220.11 890.36,-220.11 890.36,-160.11 547.36,-160.11"/>
<polygon fill="none" stroke="#29235c" points="547.36,-160.11 547.36,-220.11 890.36,-220.11 890.36,-160.11 547.36,-160.11"/>
<text text-anchor="start" x="557.92" y="-181.31" font-family="Helvetica,sans-Serif" font-weight="bold" font-size="32.00" fill="#ffffff"> &#160;&#160;&#160;&#160;&#160;&#160;conversations &#160;&#160;&#160;&#160;&#160;&#160;</text>
<polygon fill="#e7e2dd" stroke="transparent" points="547.36,-100.11 547.36,-160.11 890.36,-160.11 890.36,-100.11 547.36,-100.11"/>
<polygon fill="none" stroke="#29235c" points="547.36,-100.11 547.36,-160.11 890.36,-160.11 890.36,-100.11 547.36,-100.11"/>
<text text-anchor="start" x="558.36" y="-121.31" font-family="Helvetica,sans-Serif" font-weight="bold" font-size="32.00" fill="#29235c">id</text>
<text text-anchor="start" x="583.25" y="-121.31" font-family="Helvetica,sans-Serif" font-size="32.00" fill="#29235c"> &#160;&#160;&#160;</text>
<text text-anchor="start" x="781.56" y="-121.31" font-family="Helvetica,sans-Serif" font-style="italic" font-size="32.00" fill="#29235c">integer</text>
<polygon fill="#e7e2dd" stroke="transparent" points="547.36,-40.11 547.36,-100.11 890.36,-100.11 890.36,-40.11 547.36,-40.11"/>
<polygon fill="none" stroke="#29235c" points="547.36,-40.11 547.36,-100.11 890.36,-100.11 890.36,-40.11 547.36,-40.11"/>
<text text-anchor="start" x="558.36" y="-60.31" font-family="Helvetica,sans-Serif" font-size="32.00" fill="#29235c">title &#160;&#160;&#160;</text>
<text text-anchor="start" x="772.69" y="-61.31" font-family="Helvetica,sans-Serif" font-style="italic" font-size="32.00" fill="#29235c">varchar</text>
<polygon fill="none" stroke="#29235c" stroke-width="2" points="545.86,-39.11 545.86,-221.11 890.86,-221.11 890.86,-39.11 545.86,-39.11"/>
</g>
<!-- users&#45;&gt;conversations -->
<!-- users&#45;&gt;conversations -->
<g id="edge2" class="edge">
<title>users:e&#45;&gt;conversations:w</title>
<path fill="none" stroke="#29235c" stroke-width="3" d="M382.57,-130.11C448.38,-130.11 470.49,-130.11 536.32,-130.11"/>
<polygon fill="#29235c" stroke="#29235c" stroke-width="3" points="382.5,-126.61 372.5,-130.11 382.5,-133.61 382.5,-126.61"/>
<polygon fill="#29235c" stroke="#29235c" stroke-width="3" points="536.36,-133.61 546.36,-130.11 536.36,-126.61 536.36,-133.61"/>
<text text-anchor="middle" x="540.14" y="-101.31" font-family="Helvetica,sans-Serif" font-size="32.00" fill="#29235c">*</text>
<text text-anchor="middle" x="366.27" y="-101.31" font-family="Helvetica,sans-Serif" font-size="32.00" fill="#29235c">*</text>
</g>
</g>
</svg>
