<?xml version="1.0" encoding="UTF-8" standalone="no"?>
<!DOCTYPE svg PUBLIC "-//W3C//DTD SVG 1.1//EN"
 "http://www.w3.org/Graphics/SVG/1.1/DTD/svg11.dtd">
<!-- Generated by graphviz version 2.44.1 (20200629.0846)
 -->
<!-- Title: dbml Pages: 1 -->
<svg width="2326pt" height="1734pt"
 viewBox="0.00 0.00 2325.65 1733.96" xmlns="http://www.w3.org/2000/svg" xmlns:xlink="http://www.w3.org/1999/xlink">
<g id="graph0" class="graph" transform="scale(1 1) rotate(0) translate(4 1729.96)">
<title>dbml</title>
<g id="clust1" class="cluster">
<title>cluster_merchants</title>
<polygon fill="#dddddd" stroke="#dddddd" points="479.13,-8 479.13,-670 1535.23,-670 1535.23,-8 479.13,-8"/>
<text text-anchor="middle" x="1007.18" y="-637.2" font-family="Helvetica,sans-Serif" font-size="32.00" fill="#29235c">merchants</text>
</g>
<!-- merchants -->
<g id="merchants" class="node">
<title>merchants</title>
<ellipse fill="none" stroke="black" stroke-width="0" cx="1315.8" cy="-316" rx="211.35" ry="299.63"/>
<polygon fill="#1d71b8" stroke="transparent" points="1168.8,-466 1168.8,-526 1463.8,-526 1463.8,-466 1168.8,-466"/>
<polygon fill="none" stroke="#29235c" points="1168.8,-466 1168.8,-526 1463.8,-526 1463.8,-466 1168.8,-466"/>
<text text-anchor="start" x="1179.37" y="-487.2" font-family="Helvetica,sans-Serif" font-weight="bold" font-size="32.00" fill="#ffffff"> &#160;&#160;&#160;&#160;&#160;&#160;merchants &#160;&#160;&#160;&#160;&#160;&#160;</text>
<polygon fill="#e7e2dd" stroke="transparent" points="1168.8,-406 1168.8,-466 1463.8,-466 1463.8,-406 1168.8,-406"/>
<polygon fill="none" stroke="#29235c" points="1168.8,-406 1168.8,-466 1463.8,-466 1463.8,-406 1168.8,-406"/>
<text text-anchor="start" x="1303.86" y="-426.2" font-family="Helvetica,sans-Serif" font-size="32.00" fill="#29235c">id</text>
<polygon fill="#e7e2dd" stroke="transparent" points="1168.8,-346 1168.8,-406 1463.8,-406 1463.8,-346 1168.8,-346"/>
<polygon fill="none" stroke="#29235c" points="1168.8,-346 1168.8,-406 1463.8,-406 1463.8,-346 1168.8,-346"/>
<text text-anchor="start" x="1220.27" y="-366.2" font-family="Helvetica,sans-Serif" font-size="32.00" fill="#29235c">country_code</text>
<polygon fill="#e7e2dd" stroke="transparent" points="1168.8,-286 1168.8,-346 1463.8,-346 1463.8,-286 1168.8,-286"/>
<polygon fill="none" stroke="#29235c" points="1168.8,-286 1168.8,-346 1463.8,-346 1463.8,-286 1168.8,-286"/>
<text text-anchor="start" x="1200.72" y="-306.2" font-family="Helvetica,sans-Serif" font-size="32.00" fill="#29235c">merchant_name</text>
<polygon fill="#e7e2dd" stroke="transparent" points="1168.8,-226 1168.8,-286 1463.8,-286 1463.8,-226 1168.8,-226"/>
<polygon fill="none" stroke="#29235c" points="1168.8,-226 1168.8,-286 1463.8,-286 1463.8,-226 1168.8,-226"/>
<text text-anchor="start" x="1245.16" y="-246.2" font-family="Helvetica,sans-Serif" font-size="32.00" fill="#29235c">created at</text>
<polygon fill="#e7e2dd" stroke="transparent" points="1168.8,-166 1168.8,-226 1463.8,-226 1463.8,-166 1168.8,-166"/>
<polygon fill="none" stroke="#29235c" points="1168.8,-166 1168.8,-226 1463.8,-226 1463.8,-166 1168.8,-166"/>
<text text-anchor="start" x="1251.4" y="-186.2" font-family="Helvetica,sans-Serif" font-size="32.00" fill="#29235c">admin_id</text>
<polygon fill="#e7e2dd" stroke="transparent" points="1168.8,-106 1168.8,-166 1463.8,-166 1463.8,-106 1168.8,-106"/>
<polygon fill="none" stroke="#29235c" points="1168.8,-106 1168.8,-166 1463.8,-166 1463.8,-106 1168.8,-106"/>
<text text-anchor="start" x="1198.93" y="-127.2" font-family="Helvetica,sans-Serif" font-style="italic" font-size="32.00" fill="#1d71b8">country_code, id</text>
<polygon fill="none" stroke="#29235c" stroke-width="2" points="1167.3,-105 1167.3,-527 1464.3,-527 1464.3,-105 1167.3,-105"/>
</g>
<!-- users -->
<g id="users" class="node">
<title>users</title>
<ellipse fill="none" stroke="black" stroke-width="0" cx="1724.45" cy="-314" rx="161.44" ry="214.92"/>
<polygon fill="#1d71b8" stroke="transparent" points="1612.45,-404 1612.45,-464 1836.45,-464 1836.45,-404 1612.45,-404"/>
<polygon fill="none" stroke="#29235c" points="1612.45,-404 1612.45,-464 1836.45,-464 1836.45,-404 1612.45,-404"/>
<text text-anchor="start" x="1623.08" y="-425.2" font-family="Helvetica,sans-Serif" font-weight="bold" font-size="32.00" fill="#ffffff"> &#160;&#160;&#160;&#160;&#160;&#160;users &#160;&#160;&#160;&#160;&#160;&#160;</text>
<polygon fill="#e7e2dd" stroke="transparent" points="1612.45,-344 1612.45,-404 1836.45,-404 1836.45,-344 1612.45,-344"/>
<polygon fill="none" stroke="#29235c" points="1612.45,-344 1612.45,-404 1836.45,-404 1836.45,-344 1612.45,-344"/>
<text text-anchor="start" x="1712" y="-365.2" font-family="Helvetica,sans-Serif" font-weight="bold" font-size="32.00" fill="#29235c">id</text>
<polygon fill="#e7e2dd" stroke="transparent" points="1612.45,-284 1612.45,-344 1836.45,-344 1836.45,-284 1612.45,-284"/>
<polygon fill="none" stroke="#29235c" points="1612.45,-284 1612.45,-344 1836.45,-344 1836.45,-284 1612.45,-284"/>
<text text-anchor="start" x="1655.1" y="-304.2" font-family="Helvetica,sans-Serif" font-size="32.00" fill="#29235c">full_name</text>
<polygon fill="#e7e2dd" stroke="transparent" points="1612.45,-224 1612.45,-284 1836.45,-284 1836.45,-224 1612.45,-224"/>
<polygon fill="none" stroke="#29235c" points="1612.45,-224 1612.45,-284 1836.45,-284 1836.45,-224 1612.45,-224"/>
<text text-anchor="start" x="1648.86" y="-244.2" font-family="Helvetica,sans-Serif" font-size="32.00" fill="#29235c">created_at</text>
<polygon fill="#e7e2dd" stroke="transparent" points="1612.45,-164 1612.45,-224 1836.45,-224 1836.45,-164 1612.45,-164"/>
<polygon fill="none" stroke="#29235c" points="1612.45,-164 1612.45,-224 1836.45,-224 1836.45,-164 1612.45,-164"/>
<text text-anchor="start" x="1628.41" y="-184.2" font-family="Helvetica,sans-Serif" font-size="32.00" fill="#29235c">country_code</text>
<polygon fill="none" stroke="#29235c" stroke-width="2" points="1611.45,-163 1611.45,-465 1837.45,-465 1837.45,-163 1611.45,-163"/>
</g>
<!-- merchants&#45;&gt;users -->
<!-- merchants&#45;&gt;users -->
<g id="edge14" class="edge">
<title>merchants:e&#45;&gt;users:w</title>
<path fill="none" stroke="#29235c" stroke-width="3" d="M1464.8,-196C1563.7,-196 1512.85,-361.7 1601.22,-373.36"/>
<polygon fill="#29235c" stroke="#29235c" stroke-width="3" points="1601.25,-376.86 1611.45,-374 1601.69,-369.88 1601.25,-376.86"/>
<text text-anchor="middle" x="1602.55" y="-345.2" font-family="Helvetica,sans-Serif" font-size="32.00" fill="#29235c">1</text>
<text text-anchor="middle" x="1471.02" y="-167.2" font-family="Helvetica,sans-Serif" font-size="32.00" fill="#29235c">*</text>
</g>
<!-- countries -->
<g id="countries" class="node">
<title>countries</title>
<ellipse fill="none" stroke="black" stroke-width="0" cx="2119.66" cy="-344" rx="197.98" ry="172.57"/>
<polygon fill="#1d71b8" stroke="transparent" points="1981.66,-404 1981.66,-464 2257.66,-464 2257.66,-404 1981.66,-404"/>
<polygon fill="none" stroke="#29235c" points="1981.66,-404 1981.66,-464 2257.66,-464 2257.66,-404 1981.66,-404"/>
<text text-anchor="start" x="1992.51" y="-425.2" font-family="Helvetica,sans-Serif" font-weight="bold" font-size="32.00" fill="#ffffff"> &#160;&#160;&#160;&#160;&#160;&#160;countries &#160;&#160;&#160;&#160;&#160;&#160;</text>
<polygon fill="#e7e2dd" stroke="transparent" points="1981.66,-344 1981.66,-404 2257.66,-404 2257.66,-344 1981.66,-344"/>
<polygon fill="none" stroke="#29235c" points="1981.66,-344 1981.66,-404 2257.66,-404 2257.66,-344 1981.66,-344"/>
<text text-anchor="start" x="2084.97" y="-365.2" font-family="Helvetica,sans-Serif" font-weight="bold" font-size="32.00" fill="#29235c">code</text>
<polygon fill="#e7e2dd" stroke="transparent" points="1981.66,-284 1981.66,-344 2257.66,-344 2257.66,-284 1981.66,-284"/>
<polygon fill="none" stroke="#29235c" points="1981.66,-284 1981.66,-344 2257.66,-344 2257.66,-284 1981.66,-284"/>
<text text-anchor="start" x="2079.65" y="-304.2" font-family="Helvetica,sans-Serif" font-size="32.00" fill="#29235c">name</text>
<polygon fill="#e7e2dd" stroke="transparent" points="1981.66,-224 1981.66,-284 2257.66,-284 2257.66,-224 1981.66,-224"/>
<polygon fill="none" stroke="#29235c" points="1981.66,-224 1981.66,-284 2257.66,-284 2257.66,-224 1981.66,-224"/>
<text text-anchor="start" x="2005.84" y="-244.2" font-family="Helvetica,sans-Serif" font-size="32.00" fill="#29235c">continent_name</text>
<polygon fill="none" stroke="#29235c" stroke-width="2" points="1980.66,-223 1980.66,-465 2258.66,-465 2258.66,-223 1980.66,-223"/>
</g>
<!-- merchants&#45;&gt;countries -->
<!-- merchants&#45;&gt;countries -->
<g id="edge4" class="edge">
<title>merchants:e&#45;&gt;countries:w</title>
<path fill="none" stroke="#29235c" stroke-width="3" d="M1464.8,-376C1599.23,-376 1453.79,-168.07 1563.23,-90 1679.89,-6.77 1769.37,-6.27 1885.67,-90 1990.73,-165.64 1855.36,-362.82 1970.35,-373.54"/>
<polygon fill="#29235c" stroke="#29235c" stroke-width="3" points="1970.51,-377.05 1980.66,-374 1970.82,-370.06 1970.51,-377.05"/>
<text text-anchor="middle" x="1989.55" y="-345.2" font-family="Helvetica,sans-Serif" font-size="32.00" fill="#29235c">1</text>
<text text-anchor="middle" x="1471.02" y="-347.2" font-family="Helvetica,sans-Serif" font-size="32.00" fill="#29235c">*</text>
</g>
<!-- merchant_periods -->
<g id="merchant_periods" class="node">
<title>merchant_periods</title>
<ellipse fill="none" stroke="black" stroke-width="0" cx="777.76" cy="-316" rx="290.74" ry="299.63"/>
<polygon fill="#1d71b8" stroke="transparent" points="574.76,-466 574.76,-526 981.76,-526 981.76,-466 574.76,-466"/>
<polygon fill="none" stroke="#29235c" points="574.76,-466 574.76,-526 981.76,-526 981.76,-466 574.76,-466"/>
<text text-anchor="start" x="587.98" y="-487.2" font-family="Helvetica,sans-Serif" font-weight="bold" font-size="32.00" fill="#ffffff"> &#160;&#160;&#160;&#160;&#160;&#160;merchant_periods &#160;&#160;&#160;&#160;&#160;&#160;</text>
<polygon fill="#e7e2dd" stroke="transparent" points="574.76,-406 574.76,-466 981.76,-466 981.76,-406 574.76,-406"/>
<polygon fill="none" stroke="#29235c" points="574.76,-406 574.76,-466 981.76,-466 981.76,-406 574.76,-406"/>
<text text-anchor="start" x="765.81" y="-427.2" font-family="Helvetica,sans-Serif" font-weight="bold" font-size="32.00" fill="#29235c">id</text>
<polygon fill="#e7e2dd" stroke="transparent" points="574.76,-346 574.76,-406 981.76,-406 981.76,-346 574.76,-346"/>
<polygon fill="none" stroke="#29235c" points="574.76,-346 574.76,-406 981.76,-406 981.76,-346 574.76,-346"/>
<text text-anchor="start" x="690.24" y="-366.2" font-family="Helvetica,sans-Serif" font-size="32.00" fill="#29235c">merchant_id</text>
<polygon fill="#e7e2dd" stroke="transparent" points="574.76,-286 574.76,-346 981.76,-346 981.76,-286 574.76,-286"/>
<polygon fill="none" stroke="#29235c" points="574.76,-286 574.76,-346 981.76,-346 981.76,-286 574.76,-286"/>
<text text-anchor="start" x="682.22" y="-306.2" font-family="Helvetica,sans-Serif" font-size="32.00" fill="#29235c">country_code</text>
<polygon fill="#e7e2dd" stroke="transparent" points="574.76,-226 574.76,-286 981.76,-286 981.76,-226 574.76,-226"/>
<polygon fill="none" stroke="#29235c" points="574.76,-226 574.76,-286 981.76,-286 981.76,-226 574.76,-226"/>
<text text-anchor="start" x="707.12" y="-246.2" font-family="Helvetica,sans-Serif" font-size="32.00" fill="#29235c">start_date</text>
<polygon fill="#e7e2dd" stroke="transparent" points="574.76,-166 574.76,-226 981.76,-226 981.76,-166 574.76,-166"/>
<polygon fill="none" stroke="#29235c" points="574.76,-166 574.76,-226 981.76,-226 981.76,-166 574.76,-166"/>
<text text-anchor="start" x="711.55" y="-186.2" font-family="Helvetica,sans-Serif" font-size="32.00" fill="#29235c">end_date</text>
<polygon fill="#e7e2dd" stroke="transparent" points="574.76,-106 574.76,-166 981.76,-166 981.76,-106 574.76,-106"/>
<polygon fill="none" stroke="#29235c" points="574.76,-106 574.76,-166 981.76,-166 981.76,-106 574.76,-106"/>
<text text-anchor="start" x="585.31" y="-127.2" font-family="Helvetica,sans-Serif" font-style="italic" font-size="32.00" fill="#1d71b8">country_code, merchant_id</text>
<polygon fill="none" stroke="#29235c" stroke-width="2" points="573.26,-105 573.26,-527 982.26,-527 982.26,-105 573.26,-105"/>
</g>
<!-- merchant_periods&#45;&gt;merchants -->
<!-- merchant_periods&#45;&gt;merchants -->
<g id="edge10" class="edge">
<title>merchant_periods:e&#45;&gt;merchants:w</title>
<path fill="none" stroke="#29235c" stroke-width="3" d="M982.76,-136C1061.46,-136 1083.68,-136 1157.53,-136"/>
<polygon fill="#29235c" stroke="#29235c" stroke-width="3" points="1157.8,-139.5 1167.8,-136 1157.8,-132.5 1157.8,-139.5"/>
<text text-anchor="middle" x="1176.7" y="-107.2" font-family="Helvetica,sans-Serif" font-size="32.00" fill="#29235c">1</text>
<text text-anchor="middle" x="988.98" y="-107.2" font-family="Helvetica,sans-Serif" font-size="32.00" fill="#29235c">*</text>
</g>
<!-- users&#45;&gt;countries -->
<!-- users&#45;&gt;countries -->
<g id="edge2" class="edge">
<title>users:e&#45;&gt;countries:w</title>
<path fill="none" stroke="#29235c" stroke-width="3" d="M1837.45,-194C1936.08,-194 1882.53,-361.57 1970.47,-373.35"/>
<polygon fill="#29235c" stroke="#29235c" stroke-width="3" points="1970.45,-376.85 1980.66,-374 1970.9,-369.87 1970.45,-376.85"/>
<text text-anchor="middle" x="1989.55" y="-383.6" font-family="Helvetica,sans-Serif" font-size="32.00" fill="#29235c">1</text>
<text text-anchor="middle" x="1831.22" y="-165.2" font-family="Helvetica,sans-Serif" font-size="32.00" fill="#29235c">*</text>
</g>
<!-- order_items -->
<g id="order_items" class="node">
<title>order_items</title>
<ellipse fill="none" stroke="black" stroke-width="0" cx="225.57" cy="-1334" rx="225.63" ry="172.57"/>
<polygon fill="#1d71b8" stroke="transparent" points="68.57,-1394 68.57,-1454 383.57,-1454 383.57,-1394 68.57,-1394"/>
<polygon fill="none" stroke="#29235c" points="68.57,-1394 68.57,-1454 383.57,-1454 383.57,-1394 68.57,-1394"/>
<text text-anchor="start" x="79.37" y="-1415.2" font-family="Helvetica,sans-Serif" font-weight="bold" font-size="32.00" fill="#ffffff"> &#160;&#160;&#160;&#160;&#160;&#160;order_items &#160;&#160;&#160;&#160;&#160;&#160;</text>
<polygon fill="#e7e2dd" stroke="transparent" points="68.57,-1334 68.57,-1394 383.57,-1394 383.57,-1334 68.57,-1334"/>
<polygon fill="none" stroke="#29235c" points="68.57,-1334 68.57,-1394 383.57,-1394 383.57,-1334 68.57,-1334"/>
<text text-anchor="start" x="167.39" y="-1354.2" font-family="Helvetica,sans-Serif" font-size="32.00" fill="#29235c">order_id</text>
<polygon fill="#e7e2dd" stroke="transparent" points="68.57,-1274 68.57,-1334 383.57,-1334 383.57,-1274 68.57,-1274"/>
<polygon fill="none" stroke="#29235c" points="68.57,-1274 68.57,-1334 383.57,-1334 383.57,-1274 68.57,-1274"/>
<text text-anchor="start" x="151.38" y="-1294.2" font-family="Helvetica,sans-Serif" font-size="32.00" fill="#29235c">product_id</text>
<polygon fill="#e7e2dd" stroke="transparent" points="68.57,-1214 68.57,-1274 383.57,-1274 383.57,-1214 68.57,-1214"/>
<polygon fill="none" stroke="#29235c" points="68.57,-1214 68.57,-1274 383.57,-1274 383.57,-1214 68.57,-1214"/>
<text text-anchor="start" x="170.05" y="-1234.2" font-family="Helvetica,sans-Serif" font-size="32.00" fill="#29235c">quantity</text>
<polygon fill="none" stroke="#29235c" stroke-width="2" points="67.07,-1213 67.07,-1455 384.07,-1455 384.07,-1213 67.07,-1213"/>
</g>
<!-- orders -->
<g id="orders" class="node">
<title>orders</title>
<ellipse fill="none" stroke="black" stroke-width="0" cx="777.76" cy="-1511" rx="210.94" ry="214.92"/>
<polygon fill="#1d71b8" stroke="transparent" points="630.76,-1601 630.76,-1661 924.76,-1661 924.76,-1601 630.76,-1601"/>
<polygon fill="none" stroke="#29235c" points="630.76,-1601 630.76,-1661 924.76,-1661 924.76,-1601 630.76,-1601"/>
<text text-anchor="start" x="670.17" y="-1622.2" font-family="Helvetica,sans-Serif" font-weight="bold" font-size="32.00" fill="#ffffff"> &#160;&#160;&#160;&#160;&#160;&#160;orders &#160;&#160;&#160;&#160;&#160;&#160;</text>
<polygon fill="#e7e2dd" stroke="transparent" points="630.76,-1541 630.76,-1601 924.76,-1601 924.76,-1541 630.76,-1541"/>
<polygon fill="none" stroke="#29235c" points="630.76,-1541 630.76,-1601 924.76,-1601 924.76,-1541 630.76,-1541"/>
<text text-anchor="start" x="765.31" y="-1562.2" font-family="Helvetica,sans-Serif" font-weight="bold" font-size="32.00" fill="#29235c">id</text>
<polygon fill="#e7e2dd" stroke="transparent" points="630.76,-1481 630.76,-1541 924.76,-1541 924.76,-1481 630.76,-1481"/>
<polygon fill="none" stroke="#29235c" points="630.76,-1481 630.76,-1541 924.76,-1541 924.76,-1481 630.76,-1481"/>
<text text-anchor="start" x="641.75" y="-1502.2" font-family="Helvetica,sans-Serif" font-size="32.00" fill="#29235c">user_id </text>
<text text-anchor="start" x="755.55" y="-1502.2" font-family="Helvetica,sans-Serif" font-style="italic" font-size="32.00" fill="#29235c">NOT NULL</text>
<polygon fill="#e7e2dd" stroke="transparent" points="630.76,-1421 630.76,-1481 924.76,-1481 924.76,-1421 630.76,-1421"/>
<polygon fill="none" stroke="#29235c" points="630.76,-1421 630.76,-1481 924.76,-1481 924.76,-1421 630.76,-1421"/>
<text text-anchor="start" x="735.07" y="-1441.2" font-family="Helvetica,sans-Serif" font-size="32.00" fill="#29235c">status</text>
<polygon fill="#e7e2dd" stroke="transparent" points="630.76,-1361 630.76,-1421 924.76,-1421 924.76,-1361 630.76,-1361"/>
<polygon fill="none" stroke="#29235c" points="630.76,-1361 630.76,-1421 924.76,-1421 924.76,-1361 630.76,-1361"/>
<text text-anchor="start" x="702.17" y="-1381.2" font-family="Helvetica,sans-Serif" font-size="32.00" fill="#29235c">created_at</text>
<polygon fill="none" stroke="#29235c" stroke-width="2" points="629.76,-1360 629.76,-1662 925.76,-1662 925.76,-1360 629.76,-1360"/>
</g>
<!-- order_items&#45;&gt;orders -->
<!-- order_items&#45;&gt;orders -->
<g id="edge12" class="edge">
<title>order_items:e&#45;&gt;orders:w</title>
<path fill="none" stroke="#29235c" stroke-width="3" d="M384.57,-1364C523.7,-1364 488.99,-1561.02 619.63,-1570.64"/>
<polygon fill="#29235c" stroke="#29235c" stroke-width="3" points="619.64,-1574.14 629.76,-1571 619.89,-1567.14 619.64,-1574.14"/>
<text text-anchor="middle" x="638.65" y="-1580.6" font-family="Helvetica,sans-Serif" font-size="32.00" fill="#29235c">1</text>
<text text-anchor="middle" x="378.34" y="-1373.6" font-family="Helvetica,sans-Serif" font-size="32.00" fill="#29235c">*</text>
</g>
<!-- products -->
<g id="products" class="node">
<title>products</title>
<ellipse fill="none" stroke="black" stroke-width="0" cx="777.76" cy="-978" rx="260.84" ry="299.63"/>
<polygon fill="#1d71b8" stroke="transparent" points="595.76,-1128 595.76,-1188 960.76,-1188 960.76,-1128 595.76,-1128"/>
<polygon fill="none" stroke="#29235c" points="595.76,-1128 595.76,-1188 960.76,-1188 960.76,-1128 595.76,-1128"/>
<text text-anchor="start" x="654.66" y="-1149.2" font-family="Helvetica,sans-Serif" font-weight="bold" font-size="32.00" fill="#ffffff"> &#160;&#160;&#160;&#160;&#160;&#160;products &#160;&#160;&#160;&#160;&#160;&#160;</text>
<polygon fill="#e7e2dd" stroke="transparent" points="595.76,-1068 595.76,-1128 960.76,-1128 960.76,-1068 595.76,-1068"/>
<polygon fill="none" stroke="#29235c" points="595.76,-1068 595.76,-1128 960.76,-1128 960.76,-1068 595.76,-1068"/>
<text text-anchor="start" x="765.81" y="-1089.2" font-family="Helvetica,sans-Serif" font-weight="bold" font-size="32.00" fill="#29235c">id</text>
<polygon fill="#e7e2dd" stroke="transparent" points="595.76,-1008 595.76,-1068 960.76,-1068 960.76,-1008 595.76,-1008"/>
<polygon fill="none" stroke="#29235c" points="595.76,-1008 595.76,-1068 960.76,-1068 960.76,-1008 595.76,-1008"/>
<text text-anchor="start" x="738.25" y="-1028.2" font-family="Helvetica,sans-Serif" font-size="32.00" fill="#29235c">name</text>
<polygon fill="#e7e2dd" stroke="transparent" points="595.76,-948 595.76,-1008 960.76,-1008 960.76,-948 595.76,-948"/>
<polygon fill="none" stroke="#29235c" points="595.76,-948 595.76,-1008 960.76,-1008 960.76,-948 595.76,-948"/>
<text text-anchor="start" x="606.69" y="-969.2" font-family="Helvetica,sans-Serif" font-size="32.00" fill="#29235c">merchant_id </text>
<text text-anchor="start" x="791.61" y="-969.2" font-family="Helvetica,sans-Serif" font-style="italic" font-size="32.00" fill="#29235c">NOT NULL</text>
<polygon fill="#e7e2dd" stroke="transparent" points="595.76,-888 595.76,-948 960.76,-948 960.76,-888 595.76,-888"/>
<polygon fill="none" stroke="#29235c" points="595.76,-888 595.76,-948 960.76,-948 960.76,-888 595.76,-888"/>
<text text-anchor="start" x="743.59" y="-908.2" font-family="Helvetica,sans-Serif" font-size="32.00" fill="#29235c">price</text>
<polygon fill="#e7e2dd" stroke="transparent" points="595.76,-828 595.76,-888 960.76,-888 960.76,-828 595.76,-828"/>
<polygon fill="none" stroke="#29235c" points="595.76,-828 595.76,-888 960.76,-888 960.76,-828 595.76,-828"/>
<text text-anchor="start" x="735.57" y="-848.2" font-family="Helvetica,sans-Serif" font-size="32.00" fill="#29235c">status</text>
<polygon fill="#e7e2dd" stroke="transparent" points="595.76,-768 595.76,-828 960.76,-828 960.76,-768 595.76,-768"/>
<polygon fill="none" stroke="#29235c" points="595.76,-768 595.76,-828 960.76,-828 960.76,-768 595.76,-768"/>
<text text-anchor="start" x="702.67" y="-788.2" font-family="Helvetica,sans-Serif" font-size="32.00" fill="#29235c">created_at</text>
<polygon fill="none" stroke="#29235c" stroke-width="2" points="594.26,-767 594.26,-1189 961.26,-1189 961.26,-767 594.26,-767"/>
</g>
<!-- order_items&#45;&gt;products -->
<!-- order_items&#45;&gt;products -->
<g id="edge6" class="edge">
<title>order_items:e&#45;&gt;products:w</title>
<path fill="none" stroke="#29235c" stroke-width="3" d="M384.57,-1304C511.79,-1304 466.63,-1109.11 584.43,-1098.45"/>
<polygon fill="#29235c" stroke="#29235c" stroke-width="3" points="584.92,-1101.94 594.76,-1098 584.61,-1094.94 584.92,-1101.94"/>
<text text-anchor="middle" x="603.65" y="-1107.6" font-family="Helvetica,sans-Serif" font-size="32.00" fill="#29235c">1</text>
<text text-anchor="middle" x="378.34" y="-1313.6" font-family="Helvetica,sans-Serif" font-size="32.00" fill="#29235c">*</text>
</g>
<!-- products&#45;&gt;merchants -->
<!-- products&#45;&gt;merchants -->
<g id="edge8" class="edge">
<title>products:e&#45;&gt;merchants:w</title>
<path fill="none" stroke="#29235c" stroke-width="3" d="M961.76,-978C1087.09,-978 1041.64,-465.24 1157.63,-437.19"/>
<polygon fill="#29235c" stroke="#29235c" stroke-width="3" points="1158.28,-440.64 1167.8,-436 1157.46,-433.69 1158.28,-440.64"/>
<text text-anchor="middle" x="1176.7" y="-407.2" font-family="Helvetica,sans-Serif" font-size="32.00" fill="#29235c">1</text>
<text text-anchor="middle" x="967.98" y="-987.6" font-family="Helvetica,sans-Serif" font-size="32.00" fill="#29235c">*</text>
</g>
</g>
</svg>
