<?xml version="1.0" encoding="UTF-8" standalone="no"?>
<!DOCTYPE svg PUBLIC "-//W3C//DTD SVG 1.1//EN"
 "http://www.w3.org/Graphics/SVG/1.1/DTD/svg11.dtd">
<!-- Generated by graphviz version 2.44.1 (20200629.0846)
 -->
<!-- Title: dbml Pages: 1 -->
<svg width="2290pt" height="1718pt"
 viewBox="0.00 0.00 2290.29 1717.98" xmlns="http://www.w3.org/2000/svg" xmlns:xlink="http://www.w3.org/1999/xlink">
<g id="graph0" class="graph" transform="scale(1 1) rotate(0) translate(4 1713.98)">
<title>dbml</title>
<g id="clust1" class="cluster">
<title>cluster_merchants</title>
<polygon fill="#dddddd" stroke="#dddddd" points="473.48,-1045.98 473.48,-1701.98 1511.18,-1701.98 1511.18,-1045.98 473.48,-1045.98"/>
<text text-anchor="middle" x="992.33" y="-1669.18" font-family="Helvetica,sans-Serif" font-size="32.00" fill="#29235c">merchants</text>
</g>
<!-- merchants -->
<g id="merchants" class="node">
<title>merchants</title>
<ellipse fill="none" stroke="black" stroke-width="0" cx="1294.59" cy="-1350.98" rx="208.69" ry="296.97"/>
<polygon fill="#1d71b8" stroke="transparent" points="1147.59,-1500.98 1147.59,-1560.98 1442.59,-1560.98 1442.59,-1500.98 1147.59,-1500.98"/>
<polygon fill="none" stroke="black" points="1147.59,-1500.98 1147.59,-1560.98 1442.59,-1560.98 1442.59,-1500.98 1147.59,-1500.98"/>
<text text-anchor="start" x="1158.16" y="-1522.18" font-family="Helvetica,sans-Serif" font-weight="bold" font-size="32.00" fill="#ffffff"> &#160;&#160;&#160;&#160;&#160;&#160;merchants &#160;&#160;&#160;&#160;&#160;&#160;</text>
<polygon fill="#e7e2dd" stroke="transparent" points="1147.59,-1440.98 1147.59,-1500.98 1442.59,-1500.98 1442.59,-1440.98 1147.59,-1440.98"/>
<polygon fill="none" stroke="black" points="1147.59,-1440.98 1147.59,-1500.98 1442.59,-1500.98 1442.59,-1440.98 1147.59,-1440.98"/>
<text text-anchor="start" x="1282.64" y="-1461.18" font-family="Helvetica,sans-Serif" font-size="32.00" fill="#29235c">id</text>
<polygon fill="#e7e2dd" stroke="transparent" points="1147.59,-1380.98 1147.59,-1440.98 1442.59,-1440.98 1442.59,-1380.98 1147.59,-1380.98"/>
<polygon fill="none" stroke="black" points="1147.59,-1380.98 1147.59,-1440.98 1442.59,-1440.98 1442.59,-1380.98 1147.59,-1380.98"/>
<text text-anchor="start" x="1199.05" y="-1401.18" font-family="Helvetica,sans-Serif" font-size="32.00" fill="#29235c">country_code</text>
<polygon fill="#e7e2dd" stroke="transparent" points="1147.59,-1320.98 1147.59,-1380.98 1442.59,-1380.98 1442.59,-1320.98 1147.59,-1320.98"/>
<polygon fill="none" stroke="black" points="1147.59,-1320.98 1147.59,-1380.98 1442.59,-1380.98 1442.59,-1320.98 1147.59,-1320.98"/>
<text text-anchor="start" x="1179.51" y="-1341.18" font-family="Helvetica,sans-Serif" font-size="32.00" fill="#29235c">merchant_name</text>
<polygon fill="#e7e2dd" stroke="transparent" points="1147.59,-1260.98 1147.59,-1320.98 1442.59,-1320.98 1442.59,-1260.98 1147.59,-1260.98"/>
<polygon fill="none" stroke="black" points="1147.59,-1260.98 1147.59,-1320.98 1442.59,-1320.98 1442.59,-1260.98 1147.59,-1260.98"/>
<text text-anchor="start" x="1223.95" y="-1281.18" font-family="Helvetica,sans-Serif" font-size="32.00" fill="#29235c">created at</text>
<polygon fill="#e7e2dd" stroke="transparent" points="1147.59,-1200.98 1147.59,-1260.98 1442.59,-1260.98 1442.59,-1200.98 1147.59,-1200.98"/>
<polygon fill="none" stroke="black" points="1147.59,-1200.98 1147.59,-1260.98 1442.59,-1260.98 1442.59,-1200.98 1147.59,-1200.98"/>
<text text-anchor="start" x="1230.19" y="-1221.18" font-family="Helvetica,sans-Serif" font-size="32.00" fill="#29235c">admin_id</text>
<polygon fill="#e7e2dd" stroke="transparent" points="1147.59,-1140.98 1147.59,-1200.98 1442.59,-1200.98 1442.59,-1140.98 1147.59,-1140.98"/>
<polygon fill="none" stroke="black" points="1147.59,-1140.98 1147.59,-1200.98 1442.59,-1200.98 1442.59,-1140.98 1147.59,-1140.98"/>
<text text-anchor="start" x="1182.16" y="-1162.18" font-family="Helvetica,sans-Serif" font-style="italic" font-size="32.00" fill="#1d71b8">country_code,id</text>
</g>
<!-- users -->
<g id="users" class="node">
<title>users</title>
<ellipse fill="none" stroke="black" stroke-width="0" cx="1697.58" cy="-1170.98" rx="158.28" ry="212.26"/>
<polygon fill="#1d71b8" stroke="transparent" points="1585.58,-1260.98 1585.58,-1320.98 1809.58,-1320.98 1809.58,-1260.98 1585.58,-1260.98"/>
<polygon fill="none" stroke="black" points="1585.58,-1260.98 1585.58,-1320.98 1809.58,-1320.98 1809.58,-1260.98 1585.58,-1260.98"/>
<text text-anchor="start" x="1596.21" y="-1282.18" font-family="Helvetica,sans-Serif" font-weight="bold" font-size="32.00" fill="#ffffff"> &#160;&#160;&#160;&#160;&#160;&#160;users &#160;&#160;&#160;&#160;&#160;&#160;</text>
<polygon fill="#e7e2dd" stroke="transparent" points="1585.58,-1200.98 1585.58,-1260.98 1809.58,-1260.98 1809.58,-1200.98 1585.58,-1200.98"/>
<polygon fill="none" stroke="black" points="1585.58,-1200.98 1585.58,-1260.98 1809.58,-1260.98 1809.58,-1200.98 1585.58,-1200.98"/>
<text text-anchor="start" x="1685.13" y="-1222.18" font-family="Helvetica,sans-Serif" font-weight="bold" font-size="32.00" fill="#29235c">id</text>
<polygon fill="#e7e2dd" stroke="transparent" points="1585.58,-1140.98 1585.58,-1200.98 1809.58,-1200.98 1809.58,-1140.98 1585.58,-1140.98"/>
<polygon fill="none" stroke="black" points="1585.58,-1140.98 1585.58,-1200.98 1809.58,-1200.98 1809.58,-1140.98 1585.58,-1140.98"/>
<text text-anchor="start" x="1628.23" y="-1161.18" font-family="Helvetica,sans-Serif" font-size="32.00" fill="#29235c">full_name</text>
<polygon fill="#e7e2dd" stroke="transparent" points="1585.58,-1080.98 1585.58,-1140.98 1809.58,-1140.98 1809.58,-1080.98 1585.58,-1080.98"/>
<polygon fill="none" stroke="black" points="1585.58,-1080.98 1585.58,-1140.98 1809.58,-1140.98 1809.58,-1080.98 1585.58,-1080.98"/>
<text text-anchor="start" x="1621.99" y="-1101.18" font-family="Helvetica,sans-Serif" font-size="32.00" fill="#29235c">created_at</text>
<polygon fill="#e7e2dd" stroke="transparent" points="1585.58,-1020.98 1585.58,-1080.98 1809.58,-1080.98 1809.58,-1020.98 1585.58,-1020.98"/>
<polygon fill="none" stroke="black" points="1585.58,-1020.98 1585.58,-1080.98 1809.58,-1080.98 1809.58,-1020.98 1585.58,-1020.98"/>
<text text-anchor="start" x="1601.54" y="-1041.18" font-family="Helvetica,sans-Serif" font-size="32.00" fill="#29235c">country_code</text>
</g>
<!-- merchants&#45;&gt;users -->
<g id="edge7" class="edge">
<title>merchants:e&#45;&gt;users:w</title>
<path fill="none" stroke="#29235c" d="M1443.59,-1230.98C1502.7,-1230.98 1519.99,-1230.98 1574.36,-1230.98"/>
<polygon fill="#29235c" stroke="#29235c" points="1574.58,-1234.48 1584.58,-1230.98 1574.58,-1227.48 1574.58,-1234.48"/>
<text text-anchor="middle" x="1575.68" y="-1240.58" font-family="Helvetica,sans-Serif" font-size="32.00" fill="#29235c">1</text>
<text text-anchor="middle" x="1449.81" y="-1240.58" font-family="Helvetica,sans-Serif" font-size="32.00" fill="#29235c">*</text>
</g>
<!-- countries -->
<g id="countries" class="node">
<title>countries</title>
<ellipse fill="none" stroke="black" stroke-width="0" cx="2087.13" cy="-1200.98" rx="195.32" ry="169.91"/>
<polygon fill="#1d71b8" stroke="transparent" points="1949.13,-1260.98 1949.13,-1320.98 2225.13,-1320.98 2225.13,-1260.98 1949.13,-1260.98"/>
<polygon fill="none" stroke="black" points="1949.13,-1260.98 1949.13,-1320.98 2225.13,-1320.98 2225.13,-1260.98 1949.13,-1260.98"/>
<text text-anchor="start" x="1959.98" y="-1282.18" font-family="Helvetica,sans-Serif" font-weight="bold" font-size="32.00" fill="#ffffff"> &#160;&#160;&#160;&#160;&#160;&#160;countries &#160;&#160;&#160;&#160;&#160;&#160;</text>
<polygon fill="#e7e2dd" stroke="transparent" points="1949.13,-1200.98 1949.13,-1260.98 2225.13,-1260.98 2225.13,-1200.98 1949.13,-1200.98"/>
<polygon fill="none" stroke="black" points="1949.13,-1200.98 1949.13,-1260.98 2225.13,-1260.98 2225.13,-1200.98 1949.13,-1200.98"/>
<text text-anchor="start" x="2052.45" y="-1222.18" font-family="Helvetica,sans-Serif" font-weight="bold" font-size="32.00" fill="#29235c">code</text>
<polygon fill="#e7e2dd" stroke="transparent" points="1949.13,-1140.98 1949.13,-1200.98 2225.13,-1200.98 2225.13,-1140.98 1949.13,-1140.98"/>
<polygon fill="none" stroke="black" points="1949.13,-1140.98 1949.13,-1200.98 2225.13,-1200.98 2225.13,-1140.98 1949.13,-1140.98"/>
<text text-anchor="start" x="2047.12" y="-1161.18" font-family="Helvetica,sans-Serif" font-size="32.00" fill="#29235c">name</text>
<polygon fill="#e7e2dd" stroke="transparent" points="1949.13,-1080.98 1949.13,-1140.98 2225.13,-1140.98 2225.13,-1080.98 1949.13,-1080.98"/>
<polygon fill="none" stroke="black" points="1949.13,-1080.98 1949.13,-1140.98 2225.13,-1140.98 2225.13,-1080.98 1949.13,-1080.98"/>
<text text-anchor="start" x="1973.31" y="-1101.18" font-family="Helvetica,sans-Serif" font-size="32.00" fill="#29235c">continent_name</text>
</g>
<!-- merchants&#45;&gt;countries -->
<g id="edge2" class="edge">
<title>merchants:e&#45;&gt;countries:w</title>
<path fill="none" stroke="#29235c" d="M1443.59,-1410.98C1627.06,-1410.98 1699.4,-1487.64 1855.97,-1391.98 1923.16,-1350.93 1870.86,-1241.44 1937.86,-1231.68"/>
<polygon fill="#29235c" stroke="#29235c" points="1938.39,-1235.15 1948.13,-1230.98 1937.92,-1228.17 1938.39,-1235.15"/>
<text text-anchor="middle" x="1939.24" y="-1240.58" font-family="Helvetica,sans-Serif" font-size="32.00" fill="#29235c">1</text>
<text text-anchor="middle" x="1449.81" y="-1420.58" font-family="Helvetica,sans-Serif" font-size="32.00" fill="#29235c">*</text>
</g>
<!-- merchant_periods -->
<g id="merchant_periods" class="node">
<title>merchant_periods</title>
<ellipse fill="none" stroke="black" stroke-width="0" cx="765.73" cy="-1350.98" rx="284.01" ry="296.97"/>
<polygon fill="#1d71b8" stroke="transparent" points="564.73,-1500.98 564.73,-1560.98 966.73,-1560.98 966.73,-1500.98 564.73,-1500.98"/>
<polygon fill="none" stroke="black" points="564.73,-1500.98 564.73,-1560.98 966.73,-1560.98 966.73,-1500.98 564.73,-1500.98"/>
<text text-anchor="start" x="575.46" y="-1522.18" font-family="Helvetica,sans-Serif" font-weight="bold" font-size="32.00" fill="#ffffff"> &#160;&#160;&#160;&#160;&#160;&#160;merchant_periods &#160;&#160;&#160;&#160;&#160;&#160;</text>
<polygon fill="#e7e2dd" stroke="transparent" points="564.73,-1440.98 564.73,-1500.98 966.73,-1500.98 966.73,-1440.98 564.73,-1440.98"/>
<polygon fill="none" stroke="black" points="564.73,-1440.98 564.73,-1500.98 966.73,-1500.98 966.73,-1440.98 564.73,-1440.98"/>
<text text-anchor="start" x="753.29" y="-1462.18" font-family="Helvetica,sans-Serif" font-weight="bold" font-size="32.00" fill="#29235c">id</text>
<polygon fill="#e7e2dd" stroke="transparent" points="564.73,-1380.98 564.73,-1440.98 966.73,-1440.98 966.73,-1380.98 564.73,-1380.98"/>
<polygon fill="none" stroke="black" points="564.73,-1380.98 564.73,-1440.98 966.73,-1440.98 966.73,-1380.98 564.73,-1380.98"/>
<text text-anchor="start" x="677.72" y="-1401.18" font-family="Helvetica,sans-Serif" font-size="32.00" fill="#29235c">merchant_id</text>
<polygon fill="#e7e2dd" stroke="transparent" points="564.73,-1320.98 564.73,-1380.98 966.73,-1380.98 966.73,-1320.98 564.73,-1320.98"/>
<polygon fill="none" stroke="black" points="564.73,-1320.98 564.73,-1380.98 966.73,-1380.98 966.73,-1320.98 564.73,-1320.98"/>
<text text-anchor="start" x="669.7" y="-1341.18" font-family="Helvetica,sans-Serif" font-size="32.00" fill="#29235c">country_code</text>
<polygon fill="#e7e2dd" stroke="transparent" points="564.73,-1260.98 564.73,-1320.98 966.73,-1320.98 966.73,-1260.98 564.73,-1260.98"/>
<polygon fill="none" stroke="black" points="564.73,-1260.98 564.73,-1320.98 966.73,-1320.98 966.73,-1260.98 564.73,-1260.98"/>
<text text-anchor="start" x="694.6" y="-1281.18" font-family="Helvetica,sans-Serif" font-size="32.00" fill="#29235c">start_date</text>
<polygon fill="#e7e2dd" stroke="transparent" points="564.73,-1200.98 564.73,-1260.98 966.73,-1260.98 966.73,-1200.98 564.73,-1200.98"/>
<polygon fill="none" stroke="black" points="564.73,-1200.98 564.73,-1260.98 966.73,-1260.98 966.73,-1200.98 564.73,-1200.98"/>
<text text-anchor="start" x="699.03" y="-1221.18" font-family="Helvetica,sans-Serif" font-size="32.00" fill="#29235c">end_date</text>
<polygon fill="#e7e2dd" stroke="transparent" points="564.73,-1140.98 564.73,-1200.98 966.73,-1200.98 966.73,-1140.98 564.73,-1140.98"/>
<polygon fill="none" stroke="black" points="564.73,-1140.98 564.73,-1200.98 966.73,-1200.98 966.73,-1140.98 564.73,-1140.98"/>
<text text-anchor="start" x="577.24" y="-1162.18" font-family="Helvetica,sans-Serif" font-style="italic" font-size="32.00" fill="#1d71b8">country_code,merchant_id</text>
</g>
<!-- merchant_periods&#45;&gt;merchants -->
<g id="edge5" class="edge">
<title>merchant_periods:e&#45;&gt;merchants:w</title>
<path fill="none" stroke="#29235c" d="M967.73,-1170.98C1043.65,-1170.98 1065.19,-1170.98 1136.23,-1170.98"/>
<polygon fill="#29235c" stroke="#29235c" points="1136.59,-1174.48 1146.59,-1170.98 1136.59,-1167.48 1136.59,-1174.48"/>
<text text-anchor="middle" x="1137.69" y="-1180.58" font-family="Helvetica,sans-Serif" font-size="32.00" fill="#29235c">1</text>
<text text-anchor="middle" x="973.96" y="-1180.58" font-family="Helvetica,sans-Serif" font-size="32.00" fill="#29235c">*</text>
</g>
<!-- users&#45;&gt;countries -->
<g id="edge1" class="edge">
<title>users:e&#45;&gt;countries:w</title>
<path fill="none" stroke="#29235c" d="M1810.58,-1050.98C1907.72,-1050.98 1851.73,-1218.55 1938.11,-1230.33"/>
<polygon fill="#29235c" stroke="#29235c" points="1937.92,-1233.83 1948.13,-1230.98 1938.38,-1226.84 1937.92,-1233.83"/>
<text text-anchor="middle" x="1939.24" y="-1202.18" font-family="Helvetica,sans-Serif" font-size="32.00" fill="#29235c">1</text>
<text text-anchor="middle" x="1816.8" y="-1031.78" font-family="Helvetica,sans-Serif" font-size="32.00" fill="#29235c">*</text>
</g>
<!-- order_items -->
<g id="order_items" class="node">
<title>order_items</title>
<ellipse fill="none" stroke="black" stroke-width="0" cx="222.74" cy="-649.98" rx="222.98" ry="169.91"/>
<polygon fill="#1d71b8" stroke="transparent" points="65.74,-709.98 65.74,-769.98 380.74,-769.98 380.74,-709.98 65.74,-709.98"/>
<polygon fill="none" stroke="black" points="65.74,-709.98 65.74,-769.98 380.74,-769.98 380.74,-709.98 65.74,-709.98"/>
<text text-anchor="start" x="76.54" y="-731.18" font-family="Helvetica,sans-Serif" font-weight="bold" font-size="32.00" fill="#ffffff"> &#160;&#160;&#160;&#160;&#160;&#160;order_items &#160;&#160;&#160;&#160;&#160;&#160;</text>
<polygon fill="#e7e2dd" stroke="transparent" points="65.74,-649.98 65.74,-709.98 380.74,-709.98 380.74,-649.98 65.74,-649.98"/>
<polygon fill="none" stroke="black" points="65.74,-649.98 65.74,-709.98 380.74,-709.98 380.74,-649.98 65.74,-649.98"/>
<text text-anchor="start" x="164.56" y="-670.18" font-family="Helvetica,sans-Serif" font-size="32.00" fill="#29235c">order_id</text>
<polygon fill="#e7e2dd" stroke="transparent" points="65.74,-589.98 65.74,-649.98 380.74,-649.98 380.74,-589.98 65.74,-589.98"/>
<polygon fill="none" stroke="black" points="65.74,-589.98 65.74,-649.98 380.74,-649.98 380.74,-589.98 65.74,-589.98"/>
<text text-anchor="start" x="148.55" y="-610.18" font-family="Helvetica,sans-Serif" font-size="32.00" fill="#29235c">product_id</text>
<polygon fill="#e7e2dd" stroke="transparent" points="65.74,-529.98 65.74,-589.98 380.74,-589.98 380.74,-529.98 65.74,-529.98"/>
<polygon fill="none" stroke="black" points="65.74,-529.98 65.74,-589.98 380.74,-589.98 380.74,-529.98 65.74,-529.98"/>
<text text-anchor="start" x="167.22" y="-550.18" font-family="Helvetica,sans-Serif" font-size="32.00" fill="#29235c">quantity</text>
</g>
<!-- orders -->
<g id="orders" class="node">
<title>orders</title>
<ellipse fill="none" stroke="black" stroke-width="0" cx="765.73" cy="-823.98" rx="207.78" ry="212.26"/>
<polygon fill="#1d71b8" stroke="transparent" points="618.73,-913.98 618.73,-973.98 912.73,-973.98 912.73,-913.98 618.73,-913.98"/>
<polygon fill="none" stroke="black" points="618.73,-913.98 618.73,-973.98 912.73,-973.98 912.73,-913.98 618.73,-913.98"/>
<text text-anchor="start" x="658.15" y="-935.18" font-family="Helvetica,sans-Serif" font-weight="bold" font-size="32.00" fill="#ffffff"> &#160;&#160;&#160;&#160;&#160;&#160;orders &#160;&#160;&#160;&#160;&#160;&#160;</text>
<polygon fill="#e7e2dd" stroke="transparent" points="618.73,-853.98 618.73,-913.98 912.73,-913.98 912.73,-853.98 618.73,-853.98"/>
<polygon fill="none" stroke="black" points="618.73,-853.98 618.73,-913.98 912.73,-913.98 912.73,-853.98 618.73,-853.98"/>
<text text-anchor="start" x="753.29" y="-875.18" font-family="Helvetica,sans-Serif" font-weight="bold" font-size="32.00" fill="#29235c">id</text>
<polygon fill="#e7e2dd" stroke="transparent" points="618.73,-793.98 618.73,-853.98 912.73,-853.98 912.73,-793.98 618.73,-793.98"/>
<polygon fill="none" stroke="black" points="618.73,-793.98 618.73,-853.98 912.73,-853.98 912.73,-793.98 618.73,-793.98"/>
<text text-anchor="start" x="629.73" y="-815.18" font-family="Helvetica,sans-Serif" font-size="32.00" fill="#29235c">user_id </text>
<text text-anchor="start" x="743.53" y="-815.18" font-family="Helvetica,sans-Serif" font-style="italic" font-size="32.00" fill="#29235c">NOT NULL</text>
<polygon fill="#e7e2dd" stroke="transparent" points="618.73,-733.98 618.73,-793.98 912.73,-793.98 912.73,-733.98 618.73,-733.98"/>
<polygon fill="none" stroke="black" points="618.73,-733.98 618.73,-793.98 912.73,-793.98 912.73,-733.98 618.73,-733.98"/>
<text text-anchor="start" x="723.05" y="-754.18" font-family="Helvetica,sans-Serif" font-size="32.00" fill="#29235c">status</text>
<polygon fill="#e7e2dd" stroke="transparent" points="618.73,-673.98 618.73,-733.98 912.73,-733.98 912.73,-673.98 618.73,-673.98"/>
<polygon fill="none" stroke="black" points="618.73,-673.98 618.73,-733.98 912.73,-733.98 912.73,-673.98 618.73,-673.98"/>
<text text-anchor="start" x="690.15" y="-694.18" font-family="Helvetica,sans-Serif" font-size="32.00" fill="#29235c">created_at</text>
</g>
<!-- order_items&#45;&gt;orders -->
<g id="edge6" class="edge">
<title>order_items:e&#45;&gt;orders:w</title>
<path fill="none" stroke="#29235c" d="M381.74,-679.98C516.86,-679.98 481.07,-873.76 607.52,-883.6"/>
<polygon fill="#29235c" stroke="#29235c" points="607.61,-887.1 617.73,-883.98 607.87,-880.11 607.61,-887.1"/>
<text text-anchor="middle" x="608.84" y="-855.18" font-family="Helvetica,sans-Serif" font-size="32.00" fill="#29235c">1</text>
<text text-anchor="middle" x="375.52" y="-651.18" font-family="Helvetica,sans-Serif" font-size="32.00" fill="#29235c">*</text>
</g>
<!-- products -->
<g id="products" class="node">
<title>products</title>
<ellipse fill="none" stroke="black" stroke-width="0" cx="765.73" cy="-296.98" rx="258.19" ry="296.97"/>
<polygon fill="#1d71b8" stroke="transparent" points="583.73,-446.98 583.73,-506.98 948.73,-506.98 948.73,-446.98 583.73,-446.98"/>
<polygon fill="none" stroke="black" points="583.73,-446.98 583.73,-506.98 948.73,-506.98 948.73,-446.98 583.73,-446.98"/>
<text text-anchor="start" x="642.63" y="-468.18" font-family="Helvetica,sans-Serif" font-weight="bold" font-size="32.00" fill="#ffffff"> &#160;&#160;&#160;&#160;&#160;&#160;products &#160;&#160;&#160;&#160;&#160;&#160;</text>
<polygon fill="#e7e2dd" stroke="transparent" points="583.73,-386.98 583.73,-446.98 948.73,-446.98 948.73,-386.98 583.73,-386.98"/>
<polygon fill="none" stroke="black" points="583.73,-386.98 583.73,-446.98 948.73,-446.98 948.73,-386.98 583.73,-386.98"/>
<text text-anchor="start" x="753.79" y="-408.18" font-family="Helvetica,sans-Serif" font-weight="bold" font-size="32.00" fill="#29235c">id</text>
<polygon fill="#e7e2dd" stroke="transparent" points="583.73,-326.98 583.73,-386.98 948.73,-386.98 948.73,-326.98 583.73,-326.98"/>
<polygon fill="none" stroke="black" points="583.73,-326.98 583.73,-386.98 948.73,-386.98 948.73,-326.98 583.73,-326.98"/>
<text text-anchor="start" x="726.22" y="-347.18" font-family="Helvetica,sans-Serif" font-size="32.00" fill="#29235c">name</text>
<polygon fill="#e7e2dd" stroke="transparent" points="583.73,-266.98 583.73,-326.98 948.73,-326.98 948.73,-266.98 583.73,-266.98"/>
<polygon fill="none" stroke="black" points="583.73,-266.98 583.73,-326.98 948.73,-326.98 948.73,-266.98 583.73,-266.98"/>
<text text-anchor="start" x="594.66" y="-288.18" font-family="Helvetica,sans-Serif" font-size="32.00" fill="#29235c">merchant_id </text>
<text text-anchor="start" x="779.59" y="-288.18" font-family="Helvetica,sans-Serif" font-style="italic" font-size="32.00" fill="#29235c">NOT NULL</text>
<polygon fill="#e7e2dd" stroke="transparent" points="583.73,-206.98 583.73,-266.98 948.73,-266.98 948.73,-206.98 583.73,-206.98"/>
<polygon fill="none" stroke="black" points="583.73,-206.98 583.73,-266.98 948.73,-266.98 948.73,-206.98 583.73,-206.98"/>
<text text-anchor="start" x="731.57" y="-227.18" font-family="Helvetica,sans-Serif" font-size="32.00" fill="#29235c">price</text>
<polygon fill="#e7e2dd" stroke="transparent" points="583.73,-146.98 583.73,-206.98 948.73,-206.98 948.73,-146.98 583.73,-146.98"/>
<polygon fill="none" stroke="black" points="583.73,-146.98 583.73,-206.98 948.73,-206.98 948.73,-146.98 583.73,-146.98"/>
<text text-anchor="start" x="723.55" y="-167.18" font-family="Helvetica,sans-Serif" font-size="32.00" fill="#29235c">status</text>
<polygon fill="#e7e2dd" stroke="transparent" points="583.73,-86.98 583.73,-146.98 948.73,-146.98 948.73,-86.98 583.73,-86.98"/>
<polygon fill="none" stroke="black" points="583.73,-86.98 583.73,-146.98 948.73,-146.98 948.73,-86.98 583.73,-86.98"/>
<text text-anchor="start" x="690.65" y="-107.18" font-family="Helvetica,sans-Serif" font-size="32.00" fill="#29235c">created_at</text>
</g>
<!-- order_items&#45;&gt;products -->
<g id="edge3" class="edge">
<title>order_items:e&#45;&gt;products:w</title>
<path fill="none" stroke="#29235c" d="M381.74,-619.98C505.23,-619.98 458.53,-427.93 572.72,-417.43"/>
<polygon fill="#29235c" stroke="#29235c" points="572.9,-420.93 582.73,-416.98 572.59,-413.93 572.9,-420.93"/>
<text text-anchor="middle" x="573.84" y="-388.18" font-family="Helvetica,sans-Serif" font-size="32.00" fill="#29235c">1</text>
<text text-anchor="middle" x="375.52" y="-591.18" font-family="Helvetica,sans-Serif" font-size="32.00" fill="#29235c">*</text>
</g>
<!-- products&#45;&gt;merchants -->
<g id="edge4" class="edge">
<title>products:e&#45;&gt;merchants:w</title>
<path fill="none" stroke="#29235c" d="M949.73,-296.98C1092.85,-296.98 1019.64,-463.13 1049.99,-602.98 1069.85,-694.48 1050.97,-1417.46 1136.78,-1468.18"/>
<polygon fill="#29235c" stroke="#29235c" points="1136.01,-1471.6 1146.59,-1470.98 1137.94,-1464.87 1136.01,-1471.6"/>
<text text-anchor="middle" x="1137.69" y="-1480.58" font-family="Helvetica,sans-Serif" font-size="32.00" fill="#29235c">1</text>
<text text-anchor="middle" x="955.96" y="-268.18" font-family="Helvetica,sans-Serif" font-size="32.00" fill="#29235c">*</text>
</g>
</g>
</svg>
