<?xml version="1.0" encoding="UTF-8" standalone="no"?>
<!DOCTYPE svg PUBLIC "-//W3C//DTD SVG 1.1//EN"
 "http://www.w3.org/Graphics/SVG/1.1/DTD/svg11.dtd">
<!-- Generated by graphviz version 2.44.1 (20200629.0846)
 -->
<!-- Title: dbml Pages: 1 -->
<svg width="2319pt" height="1734pt"
 viewBox="0.00 0.00 2318.58 1733.96" xmlns="http://www.w3.org/2000/svg" xmlns:xlink="http://www.w3.org/1999/xlink">
<g id="graph0" class="graph" transform="scale(1 1) rotate(0) translate(4 1729.96)">
<title>dbml</title>
<g id="clust1" class="cluster">
<title>cluster_merchants</title>
<polygon fill="#dddddd" stroke="#dddddd" points="479.13,-8 479.13,-670 1528.15,-670 1528.15,-8 479.13,-8"/>
<text text-anchor="middle" x="1003.64" y="-637.2" font-family="Helvetica,sans-Serif" font-size="32.00" fill="#29235c">merchants</text>
</g>
<!-- merchants -->
<g id="merchants" class="node">
<title>merchants</title>
<ellipse fill="none" stroke="black" stroke-width="0" cx="1308.73" cy="-316" rx="211.35" ry="299.63"/>
<polygon fill="#1d71b8" stroke="transparent" points="1161.73,-466 1161.73,-526 1456.73,-526 1456.73,-466 1161.73,-466"/>
<polygon fill="none" stroke="#29235c" points="1161.73,-466 1161.73,-526 1456.73,-526 1456.73,-466 1161.73,-466"/>
<text text-anchor="start" x="1172.3" y="-487.2" font-family="Helvetica,sans-Serif" font-weight="bold" font-size="32.00" fill="#ffffff"> &#160;&#160;&#160;&#160;&#160;&#160;merchants &#160;&#160;&#160;&#160;&#160;&#160;</text>
<polygon fill="#e7e2dd" stroke="transparent" points="1161.73,-406 1161.73,-466 1456.73,-466 1456.73,-406 1161.73,-406"/>
<polygon fill="none" stroke="#29235c" points="1161.73,-406 1161.73,-466 1456.73,-466 1456.73,-406 1161.73,-406"/>
<text text-anchor="start" x="1296.78" y="-426.2" font-family="Helvetica,sans-Serif" font-size="32.00" fill="#29235c">id</text>
<polygon fill="#e7e2dd" stroke="transparent" points="1161.73,-346 1161.73,-406 1456.73,-406 1456.73,-346 1161.73,-346"/>
<polygon fill="none" stroke="#29235c" points="1161.73,-346 1161.73,-406 1456.73,-406 1456.73,-346 1161.73,-346"/>
<text text-anchor="start" x="1213.2" y="-366.2" font-family="Helvetica,sans-Serif" font-size="32.00" fill="#29235c">country_code</text>
<polygon fill="#e7e2dd" stroke="transparent" points="1161.73,-286 1161.73,-346 1456.73,-346 1456.73,-286 1161.73,-286"/>
<polygon fill="none" stroke="#29235c" points="1161.73,-286 1161.73,-346 1456.73,-346 1456.73,-286 1161.73,-286"/>
<text text-anchor="start" x="1193.65" y="-306.2" font-family="Helvetica,sans-Serif" font-size="32.00" fill="#29235c">merchant_name</text>
<polygon fill="#e7e2dd" stroke="transparent" points="1161.73,-226 1161.73,-286 1456.73,-286 1456.73,-226 1161.73,-226"/>
<polygon fill="none" stroke="#29235c" points="1161.73,-226 1161.73,-286 1456.73,-286 1456.73,-226 1161.73,-226"/>
<text text-anchor="start" x="1238.09" y="-246.2" font-family="Helvetica,sans-Serif" font-size="32.00" fill="#29235c">created at</text>
<polygon fill="#e7e2dd" stroke="transparent" points="1161.73,-166 1161.73,-226 1456.73,-226 1456.73,-166 1161.73,-166"/>
<polygon fill="none" stroke="#29235c" points="1161.73,-166 1161.73,-226 1456.73,-226 1456.73,-166 1161.73,-166"/>
<text text-anchor="start" x="1244.33" y="-186.2" font-family="Helvetica,sans-Serif" font-size="32.00" fill="#29235c">admin_id</text>
<polygon fill="#e7e2dd" stroke="transparent" points="1161.73,-106 1161.73,-166 1456.73,-166 1456.73,-106 1161.73,-106"/>
<polygon fill="none" stroke="#29235c" points="1161.73,-106 1161.73,-166 1456.73,-166 1456.73,-106 1161.73,-106"/>
<text text-anchor="start" x="1196.3" y="-127.2" font-family="Helvetica,sans-Serif" font-style="italic" font-size="32.00" fill="#1d71b8">country_code,id</text>
<polygon fill="none" stroke="#29235c" stroke-width="2" points="1160.23,-105 1160.23,-527 1457.23,-527 1457.23,-105 1160.23,-105"/>
</g>
<!-- users -->
<g id="users" class="node">
<title>users</title>
<ellipse fill="none" stroke="black" stroke-width="0" cx="1717.38" cy="-314" rx="161.44" ry="214.92"/>
<polygon fill="#1d71b8" stroke="transparent" points="1605.38,-404 1605.38,-464 1829.38,-464 1829.38,-404 1605.38,-404"/>
<polygon fill="none" stroke="#29235c" points="1605.38,-404 1605.38,-464 1829.38,-464 1829.38,-404 1605.38,-404"/>
<text text-anchor="start" x="1616.01" y="-425.2" font-family="Helvetica,sans-Serif" font-weight="bold" font-size="32.00" fill="#ffffff"> &#160;&#160;&#160;&#160;&#160;&#160;users &#160;&#160;&#160;&#160;&#160;&#160;</text>
<polygon fill="#e7e2dd" stroke="transparent" points="1605.38,-344 1605.38,-404 1829.38,-404 1829.38,-344 1605.38,-344"/>
<polygon fill="none" stroke="#29235c" points="1605.38,-344 1605.38,-404 1829.38,-404 1829.38,-344 1605.38,-344"/>
<text text-anchor="start" x="1704.93" y="-365.2" font-family="Helvetica,sans-Serif" font-weight="bold" font-size="32.00" fill="#29235c">id</text>
<polygon fill="#e7e2dd" stroke="transparent" points="1605.38,-284 1605.38,-344 1829.38,-344 1829.38,-284 1605.38,-284"/>
<polygon fill="none" stroke="#29235c" points="1605.38,-284 1605.38,-344 1829.38,-344 1829.38,-284 1605.38,-284"/>
<text text-anchor="start" x="1648.03" y="-304.2" font-family="Helvetica,sans-Serif" font-size="32.00" fill="#29235c">full_name</text>
<polygon fill="#e7e2dd" stroke="transparent" points="1605.38,-224 1605.38,-284 1829.38,-284 1829.38,-224 1605.38,-224"/>
<polygon fill="none" stroke="#29235c" points="1605.38,-224 1605.38,-284 1829.38,-284 1829.38,-224 1605.38,-224"/>
<text text-anchor="start" x="1641.79" y="-244.2" font-family="Helvetica,sans-Serif" font-size="32.00" fill="#29235c">created_at</text>
<polygon fill="#e7e2dd" stroke="transparent" points="1605.38,-164 1605.38,-224 1829.38,-224 1829.38,-164 1605.38,-164"/>
<polygon fill="none" stroke="#29235c" points="1605.38,-164 1605.38,-224 1829.38,-224 1829.38,-164 1605.38,-164"/>
<text text-anchor="start" x="1621.34" y="-184.2" font-family="Helvetica,sans-Serif" font-size="32.00" fill="#29235c">country_code</text>
<polygon fill="none" stroke="#29235c" stroke-width="2" points="1604.38,-163 1604.38,-465 1830.38,-465 1830.38,-163 1604.38,-163"/>
</g>
<!-- merchants&#45;&gt;users -->
<!-- merchants&#45;&gt;users -->
<g id="edge14" class="edge">
<title>merchants:e&#45;&gt;users:w</title>
<path fill="none" stroke="#29235c" stroke-width="3" d="M1457.73,-196C1556.63,-196 1505.78,-361.7 1594.15,-373.36"/>
<polygon fill="#29235c" stroke="#29235c" stroke-width="3" points="1594.17,-376.86 1604.38,-374 1594.61,-369.88 1594.17,-376.86"/>
<text text-anchor="middle" x="1595.48" y="-345.2" font-family="Helvetica,sans-Serif" font-size="32.00" fill="#29235c">1</text>
<text text-anchor="middle" x="1463.95" y="-167.2" font-family="Helvetica,sans-Serif" font-size="32.00" fill="#29235c">*</text>
</g>
<!-- countries -->
<g id="countries" class="node">
<title>countries</title>
<ellipse fill="none" stroke="black" stroke-width="0" cx="2112.59" cy="-344" rx="197.98" ry="172.57"/>
<polygon fill="#1d71b8" stroke="transparent" points="1974.59,-404 1974.59,-464 2250.59,-464 2250.59,-404 1974.59,-404"/>
<polygon fill="none" stroke="#29235c" points="1974.59,-404 1974.59,-464 2250.59,-464 2250.59,-404 1974.59,-404"/>
<text text-anchor="start" x="1985.43" y="-425.2" font-family="Helvetica,sans-Serif" font-weight="bold" font-size="32.00" fill="#ffffff"> &#160;&#160;&#160;&#160;&#160;&#160;countries &#160;&#160;&#160;&#160;&#160;&#160;</text>
<polygon fill="#e7e2dd" stroke="transparent" points="1974.59,-344 1974.59,-404 2250.59,-404 2250.59,-344 1974.59,-344"/>
<polygon fill="none" stroke="#29235c" points="1974.59,-344 1974.59,-404 2250.59,-404 2250.59,-344 1974.59,-344"/>
<text text-anchor="start" x="2077.9" y="-365.2" font-family="Helvetica,sans-Serif" font-weight="bold" font-size="32.00" fill="#29235c">code</text>
<polygon fill="#e7e2dd" stroke="transparent" points="1974.59,-284 1974.59,-344 2250.59,-344 2250.59,-284 1974.59,-284"/>
<polygon fill="none" stroke="#29235c" points="1974.59,-284 1974.59,-344 2250.59,-344 2250.59,-284 1974.59,-284"/>
<text text-anchor="start" x="2072.58" y="-304.2" font-family="Helvetica,sans-Serif" font-size="32.00" fill="#29235c">name</text>
<polygon fill="#e7e2dd" stroke="transparent" points="1974.59,-224 1974.59,-284 2250.59,-284 2250.59,-224 1974.59,-224"/>
<polygon fill="none" stroke="#29235c" points="1974.59,-224 1974.59,-284 2250.59,-284 2250.59,-224 1974.59,-224"/>
<text text-anchor="start" x="1998.77" y="-244.2" font-family="Helvetica,sans-Serif" font-size="32.00" fill="#29235c">continent_name</text>
<polygon fill="none" stroke="#29235c" stroke-width="2" points="1973.59,-223 1973.59,-465 2251.59,-465 2251.59,-223 1973.59,-223"/>
</g>
<!-- merchants&#45;&gt;countries -->
<!-- merchants&#45;&gt;countries -->
<g id="edge4" class="edge">
<title>merchants:e&#45;&gt;countries:w</title>
<path fill="none" stroke="#29235c" stroke-width="3" d="M1457.73,-376C1592.16,-376 1446.72,-168.07 1556.15,-90 1672.82,-6.77 1762.3,-6.27 1878.6,-90 1983.65,-165.64 1848.29,-362.82 1963.28,-373.54"/>
<polygon fill="#29235c" stroke="#29235c" stroke-width="3" points="1963.44,-377.05 1973.59,-374 1963.75,-370.06 1963.44,-377.05"/>
<text text-anchor="middle" x="1982.48" y="-345.2" font-family="Helvetica,sans-Serif" font-size="32.00" fill="#29235c">1</text>
<text text-anchor="middle" x="1463.95" y="-347.2" font-family="Helvetica,sans-Serif" font-size="32.00" fill="#29235c">*</text>
</g>
<!-- merchant_periods -->
<g id="merchant_periods" class="node">
<title>merchant_periods</title>
<ellipse fill="none" stroke="black" stroke-width="0" cx="774.22" cy="-316" rx="287.17" ry="299.63"/>
<polygon fill="#1d71b8" stroke="transparent" points="573.22,-466 573.22,-526 975.22,-526 975.22,-466 573.22,-466"/>
<polygon fill="none" stroke="#29235c" points="573.22,-466 573.22,-526 975.22,-526 975.22,-466 573.22,-466"/>
<text text-anchor="start" x="583.94" y="-487.2" font-family="Helvetica,sans-Serif" font-weight="bold" font-size="32.00" fill="#ffffff"> &#160;&#160;&#160;&#160;&#160;&#160;merchant_periods &#160;&#160;&#160;&#160;&#160;&#160;</text>
<polygon fill="#e7e2dd" stroke="transparent" points="573.22,-406 573.22,-466 975.22,-466 975.22,-406 573.22,-406"/>
<polygon fill="none" stroke="#29235c" points="573.22,-406 573.22,-466 975.22,-466 975.22,-406 573.22,-406"/>
<text text-anchor="start" x="761.77" y="-427.2" font-family="Helvetica,sans-Serif" font-weight="bold" font-size="32.00" fill="#29235c">id</text>
<polygon fill="#e7e2dd" stroke="transparent" points="573.22,-346 573.22,-406 975.22,-406 975.22,-346 573.22,-346"/>
<polygon fill="none" stroke="#29235c" points="573.22,-346 573.22,-406 975.22,-406 975.22,-346 573.22,-346"/>
<text text-anchor="start" x="686.2" y="-366.2" font-family="Helvetica,sans-Serif" font-size="32.00" fill="#29235c">merchant_id</text>
<polygon fill="#e7e2dd" stroke="transparent" points="573.22,-286 573.22,-346 975.22,-346 975.22,-286 573.22,-286"/>
<polygon fill="none" stroke="#29235c" points="573.22,-286 573.22,-346 975.22,-346 975.22,-286 573.22,-286"/>
<text text-anchor="start" x="678.19" y="-306.2" font-family="Helvetica,sans-Serif" font-size="32.00" fill="#29235c">country_code</text>
<polygon fill="#e7e2dd" stroke="transparent" points="573.22,-226 573.22,-286 975.22,-286 975.22,-226 573.22,-226"/>
<polygon fill="none" stroke="#29235c" points="573.22,-226 573.22,-286 975.22,-286 975.22,-226 573.22,-226"/>
<text text-anchor="start" x="703.08" y="-246.2" font-family="Helvetica,sans-Serif" font-size="32.00" fill="#29235c">start_date</text>
<polygon fill="#e7e2dd" stroke="transparent" points="573.22,-166 573.22,-226 975.22,-226 975.22,-166 573.22,-166"/>
<polygon fill="none" stroke="#29235c" points="573.22,-166 573.22,-226 975.22,-226 975.22,-166 573.22,-166"/>
<text text-anchor="start" x="707.51" y="-186.2" font-family="Helvetica,sans-Serif" font-size="32.00" fill="#29235c">end_date</text>
<polygon fill="#e7e2dd" stroke="transparent" points="573.22,-106 573.22,-166 975.22,-166 975.22,-106 573.22,-106"/>
<polygon fill="none" stroke="#29235c" points="573.22,-106 573.22,-166 975.22,-166 975.22,-106 573.22,-106"/>
<text text-anchor="start" x="585.72" y="-127.2" font-family="Helvetica,sans-Serif" font-style="italic" font-size="32.00" fill="#1d71b8">country_code,merchant_id</text>
<polygon fill="none" stroke="#29235c" stroke-width="2" points="572.22,-105 572.22,-527 976.22,-527 976.22,-105 572.22,-105"/>
</g>
<!-- merchant_periods&#45;&gt;merchants -->
<!-- merchant_periods&#45;&gt;merchants -->
<g id="edge10" class="edge">
<title>merchant_periods:e&#45;&gt;merchants:w</title>
<path fill="none" stroke="#29235c" stroke-width="3" d="M976.22,-136C1054.7,-136 1076.85,-136 1150.49,-136"/>
<polygon fill="#29235c" stroke="#29235c" stroke-width="3" points="1150.73,-139.5 1160.73,-136 1150.73,-132.5 1150.73,-139.5"/>
<text text-anchor="middle" x="1169.62" y="-107.2" font-family="Helvetica,sans-Serif" font-size="32.00" fill="#29235c">1</text>
<text text-anchor="middle" x="970" y="-107.2" font-family="Helvetica,sans-Serif" font-size="32.00" fill="#29235c">*</text>
</g>
<!-- users&#45;&gt;countries -->
<!-- users&#45;&gt;countries -->
<g id="edge2" class="edge">
<title>users:e&#45;&gt;countries:w</title>
<path fill="none" stroke="#29235c" stroke-width="3" d="M1830.38,-194C1929.01,-194 1875.46,-361.57 1963.4,-373.35"/>
<polygon fill="#29235c" stroke="#29235c" stroke-width="3" points="1963.38,-376.85 1973.59,-374 1963.83,-369.87 1963.38,-376.85"/>
<text text-anchor="middle" x="1982.48" y="-383.6" font-family="Helvetica,sans-Serif" font-size="32.00" fill="#29235c">1</text>
<text text-anchor="middle" x="1824.15" y="-165.2" font-family="Helvetica,sans-Serif" font-size="32.00" fill="#29235c">*</text>
</g>
<!-- order_items -->
<g id="order_items" class="node">
<title>order_items</title>
<ellipse fill="none" stroke="black" stroke-width="0" cx="225.57" cy="-1334" rx="225.63" ry="172.57"/>
<polygon fill="#1d71b8" stroke="transparent" points="68.57,-1394 68.57,-1454 383.57,-1454 383.57,-1394 68.57,-1394"/>
<polygon fill="none" stroke="#29235c" points="68.57,-1394 68.57,-1454 383.57,-1454 383.57,-1394 68.57,-1394"/>
<text text-anchor="start" x="79.37" y="-1415.2" font-family="Helvetica,sans-Serif" font-weight="bold" font-size="32.00" fill="#ffffff"> &#160;&#160;&#160;&#160;&#160;&#160;order_items &#160;&#160;&#160;&#160;&#160;&#160;</text>
<polygon fill="#e7e2dd" stroke="transparent" points="68.57,-1334 68.57,-1394 383.57,-1394 383.57,-1334 68.57,-1334"/>
<polygon fill="none" stroke="#29235c" points="68.57,-1334 68.57,-1394 383.57,-1394 383.57,-1334 68.57,-1334"/>
<text text-anchor="start" x="167.39" y="-1354.2" font-family="Helvetica,sans-Serif" font-size="32.00" fill="#29235c">order_id</text>
<polygon fill="#e7e2dd" stroke="transparent" points="68.57,-1274 68.57,-1334 383.57,-1334 383.57,-1274 68.57,-1274"/>
<polygon fill="none" stroke="#29235c" points="68.57,-1274 68.57,-1334 383.57,-1334 383.57,-1274 68.57,-1274"/>
<text text-anchor="start" x="151.38" y="-1294.2" font-family="Helvetica,sans-Serif" font-size="32.00" fill="#29235c">product_id</text>
<polygon fill="#e7e2dd" stroke="transparent" points="68.57,-1214 68.57,-1274 383.57,-1274 383.57,-1214 68.57,-1214"/>
<polygon fill="none" stroke="#29235c" points="68.57,-1214 68.57,-1274 383.57,-1274 383.57,-1214 68.57,-1214"/>
<text text-anchor="start" x="170.05" y="-1234.2" font-family="Helvetica,sans-Serif" font-size="32.00" fill="#29235c">quantity</text>
<polygon fill="none" stroke="#29235c" stroke-width="2" points="67.07,-1213 67.07,-1455 384.07,-1455 384.07,-1213 67.07,-1213"/>
</g>
<!-- orders -->
<g id="orders" class="node">
<title>orders</title>
<ellipse fill="none" stroke="black" stroke-width="0" cx="774.22" cy="-1511" rx="210.94" ry="214.92"/>
<polygon fill="#1d71b8" stroke="transparent" points="627.22,-1601 627.22,-1661 921.22,-1661 921.22,-1601 627.22,-1601"/>
<polygon fill="none" stroke="#29235c" points="627.22,-1601 627.22,-1661 921.22,-1661 921.22,-1601 627.22,-1601"/>
<text text-anchor="start" x="666.63" y="-1622.2" font-family="Helvetica,sans-Serif" font-weight="bold" font-size="32.00" fill="#ffffff"> &#160;&#160;&#160;&#160;&#160;&#160;orders &#160;&#160;&#160;&#160;&#160;&#160;</text>
<polygon fill="#e7e2dd" stroke="transparent" points="627.22,-1541 627.22,-1601 921.22,-1601 921.22,-1541 627.22,-1541"/>
<polygon fill="none" stroke="#29235c" points="627.22,-1541 627.22,-1601 921.22,-1601 921.22,-1541 627.22,-1541"/>
<text text-anchor="start" x="761.77" y="-1562.2" font-family="Helvetica,sans-Serif" font-weight="bold" font-size="32.00" fill="#29235c">id</text>
<polygon fill="#e7e2dd" stroke="transparent" points="627.22,-1481 627.22,-1541 921.22,-1541 921.22,-1481 627.22,-1481"/>
<polygon fill="none" stroke="#29235c" points="627.22,-1481 627.22,-1541 921.22,-1541 921.22,-1481 627.22,-1481"/>
<text text-anchor="start" x="638.21" y="-1502.2" font-family="Helvetica,sans-Serif" font-size="32.00" fill="#29235c">user_id </text>
<text text-anchor="start" x="752.01" y="-1502.2" font-family="Helvetica,sans-Serif" font-style="italic" font-size="32.00" fill="#29235c">NOT NULL</text>
<polygon fill="#e7e2dd" stroke="transparent" points="627.22,-1421 627.22,-1481 921.22,-1481 921.22,-1421 627.22,-1421"/>
<polygon fill="none" stroke="#29235c" points="627.22,-1421 627.22,-1481 921.22,-1481 921.22,-1421 627.22,-1421"/>
<text text-anchor="start" x="731.54" y="-1441.2" font-family="Helvetica,sans-Serif" font-size="32.00" fill="#29235c">status</text>
<polygon fill="#e7e2dd" stroke="transparent" points="627.22,-1361 627.22,-1421 921.22,-1421 921.22,-1361 627.22,-1361"/>
<polygon fill="none" stroke="#29235c" points="627.22,-1361 627.22,-1421 921.22,-1421 921.22,-1361 627.22,-1361"/>
<text text-anchor="start" x="698.63" y="-1381.2" font-family="Helvetica,sans-Serif" font-size="32.00" fill="#29235c">created_at</text>
<polygon fill="none" stroke="#29235c" stroke-width="2" points="626.22,-1360 626.22,-1662 922.22,-1662 922.22,-1360 626.22,-1360"/>
</g>
<!-- order_items&#45;&gt;orders -->
<!-- order_items&#45;&gt;orders -->
<g id="edge12" class="edge">
<title>order_items:e&#45;&gt;orders:w</title>
<path fill="none" stroke="#29235c" stroke-width="3" d="M384.57,-1364C522.53,-1364 486.7,-1561.02 616.18,-1570.64"/>
<polygon fill="#29235c" stroke="#29235c" stroke-width="3" points="616.1,-1574.14 626.22,-1571 616.35,-1567.14 616.1,-1574.14"/>
<text text-anchor="middle" x="617.33" y="-1580.6" font-family="Helvetica,sans-Serif" font-size="32.00" fill="#29235c">1</text>
<text text-anchor="middle" x="378.34" y="-1373.6" font-family="Helvetica,sans-Serif" font-size="32.00" fill="#29235c">*</text>
</g>
<!-- products -->
<g id="products" class="node">
<title>products</title>
<ellipse fill="none" stroke="black" stroke-width="0" cx="774.22" cy="-978" rx="260.84" ry="299.63"/>
<polygon fill="#1d71b8" stroke="transparent" points="592.22,-1128 592.22,-1188 957.22,-1188 957.22,-1128 592.22,-1128"/>
<polygon fill="none" stroke="#29235c" points="592.22,-1128 592.22,-1188 957.22,-1188 957.22,-1128 592.22,-1128"/>
<text text-anchor="start" x="651.12" y="-1149.2" font-family="Helvetica,sans-Serif" font-weight="bold" font-size="32.00" fill="#ffffff"> &#160;&#160;&#160;&#160;&#160;&#160;products &#160;&#160;&#160;&#160;&#160;&#160;</text>
<polygon fill="#e7e2dd" stroke="transparent" points="592.22,-1068 592.22,-1128 957.22,-1128 957.22,-1068 592.22,-1068"/>
<polygon fill="none" stroke="#29235c" points="592.22,-1068 592.22,-1128 957.22,-1128 957.22,-1068 592.22,-1068"/>
<text text-anchor="start" x="762.27" y="-1089.2" font-family="Helvetica,sans-Serif" font-weight="bold" font-size="32.00" fill="#29235c">id</text>
<polygon fill="#e7e2dd" stroke="transparent" points="592.22,-1008 592.22,-1068 957.22,-1068 957.22,-1008 592.22,-1008"/>
<polygon fill="none" stroke="#29235c" points="592.22,-1008 592.22,-1068 957.22,-1068 957.22,-1008 592.22,-1008"/>
<text text-anchor="start" x="734.71" y="-1028.2" font-family="Helvetica,sans-Serif" font-size="32.00" fill="#29235c">name</text>
<polygon fill="#e7e2dd" stroke="transparent" points="592.22,-948 592.22,-1008 957.22,-1008 957.22,-948 592.22,-948"/>
<polygon fill="none" stroke="#29235c" points="592.22,-948 592.22,-1008 957.22,-1008 957.22,-948 592.22,-948"/>
<text text-anchor="start" x="603.15" y="-969.2" font-family="Helvetica,sans-Serif" font-size="32.00" fill="#29235c">merchant_id </text>
<text text-anchor="start" x="788.07" y="-969.2" font-family="Helvetica,sans-Serif" font-style="italic" font-size="32.00" fill="#29235c">NOT NULL</text>
<polygon fill="#e7e2dd" stroke="transparent" points="592.22,-888 592.22,-948 957.22,-948 957.22,-888 592.22,-888"/>
<polygon fill="none" stroke="#29235c" points="592.22,-888 592.22,-948 957.22,-948 957.22,-888 592.22,-888"/>
<text text-anchor="start" x="740.05" y="-908.2" font-family="Helvetica,sans-Serif" font-size="32.00" fill="#29235c">price</text>
<polygon fill="#e7e2dd" stroke="transparent" points="592.22,-828 592.22,-888 957.22,-888 957.22,-828 592.22,-828"/>
<polygon fill="none" stroke="#29235c" points="592.22,-828 592.22,-888 957.22,-888 957.22,-828 592.22,-828"/>
<text text-anchor="start" x="732.04" y="-848.2" font-family="Helvetica,sans-Serif" font-size="32.00" fill="#29235c">status</text>
<polygon fill="#e7e2dd" stroke="transparent" points="592.22,-768 592.22,-828 957.22,-828 957.22,-768 592.22,-768"/>
<polygon fill="none" stroke="#29235c" points="592.22,-768 592.22,-828 957.22,-828 957.22,-768 592.22,-768"/>
<text text-anchor="start" x="699.13" y="-788.2" font-family="Helvetica,sans-Serif" font-size="32.00" fill="#29235c">created_at</text>
<polygon fill="none" stroke="#29235c" stroke-width="2" points="590.72,-767 590.72,-1189 957.72,-1189 957.72,-767 590.72,-767"/>
</g>
<!-- order_items&#45;&gt;products -->
<!-- order_items&#45;&gt;products -->
<g id="edge6" class="edge">
<title>order_items:e&#45;&gt;products:w</title>
<path fill="none" stroke="#29235c" stroke-width="3" d="M384.57,-1304C510.71,-1304 464.28,-1109.11 580.98,-1098.45"/>
<polygon fill="#29235c" stroke="#29235c" stroke-width="3" points="581.38,-1101.94 591.22,-1098 581.07,-1094.95 581.38,-1101.94"/>
<text text-anchor="middle" x="582.33" y="-1107.6" font-family="Helvetica,sans-Serif" font-size="32.00" fill="#29235c">1</text>
<text text-anchor="middle" x="378.34" y="-1313.6" font-family="Helvetica,sans-Serif" font-size="32.00" fill="#29235c">*</text>
</g>
<!-- products&#45;&gt;merchants -->
<!-- products&#45;&gt;merchants -->
<g id="edge8" class="edge">
<title>products:e&#45;&gt;merchants:w</title>
<path fill="none" stroke="#29235c" stroke-width="3" d="M958.22,-978C1083.28,-978 1035,-465.24 1150.59,-437.19"/>
<polygon fill="#29235c" stroke="#29235c" stroke-width="3" points="1151.21,-440.64 1160.73,-436 1150.39,-433.69 1151.21,-440.64"/>
<text text-anchor="middle" x="1169.62" y="-407.2" font-family="Helvetica,sans-Serif" font-size="32.00" fill="#29235c">1</text>
<text text-anchor="middle" x="952" y="-987.6" font-family="Helvetica,sans-Serif" font-size="32.00" fill="#29235c">*</text>
</g>
</g>
</svg>
