<?xml version="1.0" encoding="UTF-8" standalone="no"?>
<!DOCTYPE svg PUBLIC "-//W3C//DTD SVG 1.1//EN"
 "http://www.w3.org/Graphics/SVG/1.1/DTD/svg11.dtd">
<!-- Generated by graphviz version 2.44.1 (20200629.0846)
 -->
<!-- Title: dbml Pages: 1 -->
<svg width="2319pt" height="1736pt"
 viewBox="0.00 0.00 2318.58 1735.81" xmlns="http://www.w3.org/2000/svg" xmlns:xlink="http://www.w3.org/1999/xlink">
<g id="graph0" class="graph" transform="scale(1 1) rotate(0) translate(4 1731.81)">
<title>dbml</title>
<g id="clust1" class="cluster">
<title>cluster_merchants</title>
<polygon fill="#dddddd" stroke="#dddddd" points="479.13,-1057.81 479.13,-1719.81 1528.15,-1719.81 1528.15,-1057.81 479.13,-1057.81"/>
<text text-anchor="middle" x="1003.64" y="-1687.01" font-family="Helvetica,sans-Serif" font-size="32.00" fill="#29235c">merchants</text>
</g>
<!-- merchants -->
<g id="merchants" class="node">
<title>merchants</title>
<ellipse fill="none" stroke="black" stroke-width="0" cx="1308.73" cy="-1365.81" rx="211.35" ry="299.63"/>
<polygon fill="#1d71b8" stroke="transparent" points="1161.73,-1515.81 1161.73,-1575.81 1456.73,-1575.81 1456.73,-1515.81 1161.73,-1515.81"/>
<polygon fill="none" stroke="#29235c" points="1161.73,-1515.81 1161.73,-1575.81 1456.73,-1575.81 1456.73,-1515.81 1161.73,-1515.81"/>
<text text-anchor="start" x="1172.3" y="-1537.01" font-family="Helvetica,sans-Serif" font-weight="bold" font-size="32.00" fill="#ffffff"> &#160;&#160;&#160;&#160;&#160;&#160;merchants &#160;&#160;&#160;&#160;&#160;&#160;</text>
<polygon fill="#e7e2dd" stroke="transparent" points="1161.73,-1455.81 1161.73,-1515.81 1456.73,-1515.81 1456.73,-1455.81 1161.73,-1455.81"/>
<polygon fill="none" stroke="#29235c" points="1161.73,-1455.81 1161.73,-1515.81 1456.73,-1515.81 1456.73,-1455.81 1161.73,-1455.81"/>
<text text-anchor="start" x="1296.78" y="-1476.01" font-family="Helvetica,sans-Serif" font-size="32.00" fill="#29235c">id</text>
<polygon fill="#e7e2dd" stroke="transparent" points="1161.73,-1395.81 1161.73,-1455.81 1456.73,-1455.81 1456.73,-1395.81 1161.73,-1395.81"/>
<polygon fill="none" stroke="#29235c" points="1161.73,-1395.81 1161.73,-1455.81 1456.73,-1455.81 1456.73,-1395.81 1161.73,-1395.81"/>
<text text-anchor="start" x="1213.2" y="-1416.01" font-family="Helvetica,sans-Serif" font-size="32.00" fill="#29235c">country_code</text>
<polygon fill="#e7e2dd" stroke="transparent" points="1161.73,-1335.81 1161.73,-1395.81 1456.73,-1395.81 1456.73,-1335.81 1161.73,-1335.81"/>
<polygon fill="none" stroke="#29235c" points="1161.73,-1335.81 1161.73,-1395.81 1456.73,-1395.81 1456.73,-1335.81 1161.73,-1335.81"/>
<text text-anchor="start" x="1193.65" y="-1356.01" font-family="Helvetica,sans-Serif" font-size="32.00" fill="#29235c">merchant_name</text>
<polygon fill="#e7e2dd" stroke="transparent" points="1161.73,-1275.81 1161.73,-1335.81 1456.73,-1335.81 1456.73,-1275.81 1161.73,-1275.81"/>
<polygon fill="none" stroke="#29235c" points="1161.73,-1275.81 1161.73,-1335.81 1456.73,-1335.81 1456.73,-1275.81 1161.73,-1275.81"/>
<text text-anchor="start" x="1238.09" y="-1296.01" font-family="Helvetica,sans-Serif" font-size="32.00" fill="#29235c">created at</text>
<polygon fill="#e7e2dd" stroke="transparent" points="1161.73,-1215.81 1161.73,-1275.81 1456.73,-1275.81 1456.73,-1215.81 1161.73,-1215.81"/>
<polygon fill="none" stroke="#29235c" points="1161.73,-1215.81 1161.73,-1275.81 1456.73,-1275.81 1456.73,-1215.81 1161.73,-1215.81"/>
<text text-anchor="start" x="1244.33" y="-1236.01" font-family="Helvetica,sans-Serif" font-size="32.00" fill="#29235c">admin_id</text>
<polygon fill="#e7e2dd" stroke="transparent" points="1161.73,-1155.81 1161.73,-1215.81 1456.73,-1215.81 1456.73,-1155.81 1161.73,-1155.81"/>
<polygon fill="none" stroke="#29235c" points="1161.73,-1155.81 1161.73,-1215.81 1456.73,-1215.81 1456.73,-1155.81 1161.73,-1155.81"/>
<text text-anchor="start" x="1196.3" y="-1177.01" font-family="Helvetica,sans-Serif" font-style="italic" font-size="32.00" fill="#1d71b8">country_code,id</text>
<polygon fill="none" stroke="#29235c" stroke-width="2" points="1160.23,-1154.81 1160.23,-1576.81 1457.23,-1576.81 1457.23,-1154.81 1160.23,-1154.81"/>
</g>
<!-- users -->
<g id="users" class="node">
<title>users</title>
<ellipse fill="none" stroke="black" stroke-width="0" cx="1717.38" cy="-1164.81" rx="161.44" ry="214.92"/>
<polygon fill="#1d71b8" stroke="transparent" points="1605.38,-1254.81 1605.38,-1314.81 1829.38,-1314.81 1829.38,-1254.81 1605.38,-1254.81"/>
<polygon fill="none" stroke="#29235c" points="1605.38,-1254.81 1605.38,-1314.81 1829.38,-1314.81 1829.38,-1254.81 1605.38,-1254.81"/>
<text text-anchor="start" x="1616.01" y="-1276.01" font-family="Helvetica,sans-Serif" font-weight="bold" font-size="32.00" fill="#ffffff"> &#160;&#160;&#160;&#160;&#160;&#160;users &#160;&#160;&#160;&#160;&#160;&#160;</text>
<polygon fill="#e7e2dd" stroke="transparent" points="1605.38,-1194.81 1605.38,-1254.81 1829.38,-1254.81 1829.38,-1194.81 1605.38,-1194.81"/>
<polygon fill="none" stroke="#29235c" points="1605.38,-1194.81 1605.38,-1254.81 1829.38,-1254.81 1829.38,-1194.81 1605.38,-1194.81"/>
<text text-anchor="start" x="1704.93" y="-1216.01" font-family="Helvetica,sans-Serif" font-weight="bold" font-size="32.00" fill="#29235c">id</text>
<polygon fill="#e7e2dd" stroke="transparent" points="1605.38,-1134.81 1605.38,-1194.81 1829.38,-1194.81 1829.38,-1134.81 1605.38,-1134.81"/>
<polygon fill="none" stroke="#29235c" points="1605.38,-1134.81 1605.38,-1194.81 1829.38,-1194.81 1829.38,-1134.81 1605.38,-1134.81"/>
<text text-anchor="start" x="1648.03" y="-1155.01" font-family="Helvetica,sans-Serif" font-size="32.00" fill="#29235c">full_name</text>
<polygon fill="#e7e2dd" stroke="transparent" points="1605.38,-1074.81 1605.38,-1134.81 1829.38,-1134.81 1829.38,-1074.81 1605.38,-1074.81"/>
<polygon fill="none" stroke="#29235c" points="1605.38,-1074.81 1605.38,-1134.81 1829.38,-1134.81 1829.38,-1074.81 1605.38,-1074.81"/>
<text text-anchor="start" x="1641.79" y="-1095.01" font-family="Helvetica,sans-Serif" font-size="32.00" fill="#29235c">created_at</text>
<polygon fill="#e7e2dd" stroke="transparent" points="1605.38,-1014.81 1605.38,-1074.81 1829.38,-1074.81 1829.38,-1014.81 1605.38,-1014.81"/>
<polygon fill="none" stroke="#29235c" points="1605.38,-1014.81 1605.38,-1074.81 1829.38,-1074.81 1829.38,-1014.81 1605.38,-1014.81"/>
<text text-anchor="start" x="1621.34" y="-1035.01" font-family="Helvetica,sans-Serif" font-size="32.00" fill="#29235c">country_code</text>
<polygon fill="none" stroke="#29235c" stroke-width="2" points="1604.38,-1013.81 1604.38,-1315.81 1830.38,-1315.81 1830.38,-1013.81 1604.38,-1013.81"/>
</g>
<!-- merchants&#45;&gt;users -->
<!-- merchants&#45;&gt;users -->
<g id="edge14" class="edge">
<title>merchants:e&#45;&gt;users:w</title>
<path fill="none" stroke="#29235c" stroke-width="3" d="M1457.73,-1245.81C1520.1,-1245.81 1536.81,-1226.97 1594.37,-1224.98"/>
<polygon fill="#29235c" stroke="#29235c" stroke-width="3" points="1594.44,-1228.48 1604.38,-1224.81 1594.32,-1221.48 1594.44,-1228.48"/>
<text text-anchor="middle" x="1595.48" y="-1234.41" font-family="Helvetica,sans-Serif" font-size="32.00" fill="#29235c">1</text>
<text text-anchor="middle" x="1463.95" y="-1255.41" font-family="Helvetica,sans-Serif" font-size="32.00" fill="#29235c">*</text>
</g>
<!-- countries -->
<g id="countries" class="node">
<title>countries</title>
<ellipse fill="none" stroke="black" stroke-width="0" cx="2112.59" cy="-1285.81" rx="197.98" ry="172.57"/>
<polygon fill="#1d71b8" stroke="transparent" points="1974.59,-1345.81 1974.59,-1405.81 2250.59,-1405.81 2250.59,-1345.81 1974.59,-1345.81"/>
<polygon fill="none" stroke="#29235c" points="1974.59,-1345.81 1974.59,-1405.81 2250.59,-1405.81 2250.59,-1345.81 1974.59,-1345.81"/>
<text text-anchor="start" x="1985.43" y="-1367.01" font-family="Helvetica,sans-Serif" font-weight="bold" font-size="32.00" fill="#ffffff"> &#160;&#160;&#160;&#160;&#160;&#160;countries &#160;&#160;&#160;&#160;&#160;&#160;</text>
<polygon fill="#e7e2dd" stroke="transparent" points="1974.59,-1285.81 1974.59,-1345.81 2250.59,-1345.81 2250.59,-1285.81 1974.59,-1285.81"/>
<polygon fill="none" stroke="#29235c" points="1974.59,-1285.81 1974.59,-1345.81 2250.59,-1345.81 2250.59,-1285.81 1974.59,-1285.81"/>
<text text-anchor="start" x="2077.9" y="-1307.01" font-family="Helvetica,sans-Serif" font-weight="bold" font-size="32.00" fill="#29235c">code</text>
<polygon fill="#e7e2dd" stroke="transparent" points="1974.59,-1225.81 1974.59,-1285.81 2250.59,-1285.81 2250.59,-1225.81 1974.59,-1225.81"/>
<polygon fill="none" stroke="#29235c" points="1974.59,-1225.81 1974.59,-1285.81 2250.59,-1285.81 2250.59,-1225.81 1974.59,-1225.81"/>
<text text-anchor="start" x="2072.58" y="-1246.01" font-family="Helvetica,sans-Serif" font-size="32.00" fill="#29235c">name</text>
<polygon fill="#e7e2dd" stroke="transparent" points="1974.59,-1165.81 1974.59,-1225.81 2250.59,-1225.81 2250.59,-1165.81 1974.59,-1165.81"/>
<polygon fill="none" stroke="#29235c" points="1974.59,-1165.81 1974.59,-1225.81 2250.59,-1225.81 2250.59,-1165.81 1974.59,-1165.81"/>
<text text-anchor="start" x="1998.77" y="-1186.01" font-family="Helvetica,sans-Serif" font-size="32.00" fill="#29235c">continent_name</text>
<polygon fill="none" stroke="#29235c" stroke-width="2" points="1973.59,-1164.81 1973.59,-1406.81 2251.59,-1406.81 2251.59,-1164.81 1973.59,-1164.81"/>
</g>
<!-- merchants&#45;&gt;countries -->
<!-- merchants&#45;&gt;countries -->
<g id="edge4" class="edge">
<title>merchants:e&#45;&gt;countries:w</title>
<path fill="none" stroke="#29235c" stroke-width="3" d="M1457.73,-1425.81C1644.88,-1425.81 1707.1,-1486.75 1878.6,-1411.81 1930.27,-1389.23 1915.71,-1324.35 1963.53,-1316.58"/>
<polygon fill="#29235c" stroke="#29235c" stroke-width="3" points="1963.88,-1320.06 1973.59,-1315.81 1963.35,-1313.08 1963.88,-1320.06"/>
<text text-anchor="middle" x="1982.48" y="-1325.41" font-family="Helvetica,sans-Serif" font-size="32.00" fill="#29235c">1</text>
<text text-anchor="middle" x="1463.95" y="-1435.41" font-family="Helvetica,sans-Serif" font-size="32.00" fill="#29235c">*</text>
</g>
<!-- merchant_periods -->
<g id="merchant_periods" class="node">
<title>merchant_periods</title>
<ellipse fill="none" stroke="black" stroke-width="0" cx="774.22" cy="-1365.81" rx="287.17" ry="299.63"/>
<polygon fill="#1d71b8" stroke="transparent" points="573.22,-1515.81 573.22,-1575.81 975.22,-1575.81 975.22,-1515.81 573.22,-1515.81"/>
<polygon fill="none" stroke="#29235c" points="573.22,-1515.81 573.22,-1575.81 975.22,-1575.81 975.22,-1515.81 573.22,-1515.81"/>
<text text-anchor="start" x="583.94" y="-1537.01" font-family="Helvetica,sans-Serif" font-weight="bold" font-size="32.00" fill="#ffffff"> &#160;&#160;&#160;&#160;&#160;&#160;merchant_periods &#160;&#160;&#160;&#160;&#160;&#160;</text>
<polygon fill="#e7e2dd" stroke="transparent" points="573.22,-1455.81 573.22,-1515.81 975.22,-1515.81 975.22,-1455.81 573.22,-1455.81"/>
<polygon fill="none" stroke="#29235c" points="573.22,-1455.81 573.22,-1515.81 975.22,-1515.81 975.22,-1455.81 573.22,-1455.81"/>
<text text-anchor="start" x="761.77" y="-1477.01" font-family="Helvetica,sans-Serif" font-weight="bold" font-size="32.00" fill="#29235c">id</text>
<polygon fill="#e7e2dd" stroke="transparent" points="573.22,-1395.81 573.22,-1455.81 975.22,-1455.81 975.22,-1395.81 573.22,-1395.81"/>
<polygon fill="none" stroke="#29235c" points="573.22,-1395.81 573.22,-1455.81 975.22,-1455.81 975.22,-1395.81 573.22,-1395.81"/>
<text text-anchor="start" x="686.2" y="-1416.01" font-family="Helvetica,sans-Serif" font-size="32.00" fill="#29235c">merchant_id</text>
<polygon fill="#e7e2dd" stroke="transparent" points="573.22,-1335.81 573.22,-1395.81 975.22,-1395.81 975.22,-1335.81 573.22,-1335.81"/>
<polygon fill="none" stroke="#29235c" points="573.22,-1335.81 573.22,-1395.81 975.22,-1395.81 975.22,-1335.81 573.22,-1335.81"/>
<text text-anchor="start" x="678.19" y="-1356.01" font-family="Helvetica,sans-Serif" font-size="32.00" fill="#29235c">country_code</text>
<polygon fill="#e7e2dd" stroke="transparent" points="573.22,-1275.81 573.22,-1335.81 975.22,-1335.81 975.22,-1275.81 573.22,-1275.81"/>
<polygon fill="none" stroke="#29235c" points="573.22,-1275.81 573.22,-1335.81 975.22,-1335.81 975.22,-1275.81 573.22,-1275.81"/>
<text text-anchor="start" x="703.08" y="-1296.01" font-family="Helvetica,sans-Serif" font-size="32.00" fill="#29235c">start_date</text>
<polygon fill="#e7e2dd" stroke="transparent" points="573.22,-1215.81 573.22,-1275.81 975.22,-1275.81 975.22,-1215.81 573.22,-1215.81"/>
<polygon fill="none" stroke="#29235c" points="573.22,-1215.81 573.22,-1275.81 975.22,-1275.81 975.22,-1215.81 573.22,-1215.81"/>
<text text-anchor="start" x="707.51" y="-1236.01" font-family="Helvetica,sans-Serif" font-size="32.00" fill="#29235c">end_date</text>
<polygon fill="#e7e2dd" stroke="transparent" points="573.22,-1155.81 573.22,-1215.81 975.22,-1215.81 975.22,-1155.81 573.22,-1155.81"/>
<polygon fill="none" stroke="#29235c" points="573.22,-1155.81 573.22,-1215.81 975.22,-1215.81 975.22,-1155.81 573.22,-1155.81"/>
<text text-anchor="start" x="585.72" y="-1177.01" font-family="Helvetica,sans-Serif" font-style="italic" font-size="32.00" fill="#1d71b8">country_code,merchant_id</text>
<polygon fill="none" stroke="#29235c" stroke-width="2" points="572.22,-1154.81 572.22,-1576.81 976.22,-1576.81 976.22,-1154.81 572.22,-1154.81"/>
</g>
<!-- merchant_periods&#45;&gt;merchants -->
<!-- merchant_periods&#45;&gt;merchants -->
<g id="edge10" class="edge">
<title>merchant_periods:e&#45;&gt;merchants:w</title>
<path fill="none" stroke="#29235c" stroke-width="3" d="M976.22,-1185.81C1054.7,-1185.81 1076.85,-1185.81 1150.49,-1185.81"/>
<polygon fill="#29235c" stroke="#29235c" stroke-width="3" points="1150.73,-1189.31 1160.73,-1185.81 1150.73,-1182.31 1150.73,-1189.31"/>
<text text-anchor="middle" x="1169.62" y="-1195.41" font-family="Helvetica,sans-Serif" font-size="32.00" fill="#29235c">1</text>
<text text-anchor="middle" x="970" y="-1195.41" font-family="Helvetica,sans-Serif" font-size="32.00" fill="#29235c">*</text>
</g>
<!-- users&#45;&gt;countries -->
<!-- users&#45;&gt;countries -->
<g id="edge2" class="edge">
<title>users:e&#45;&gt;countries:w</title>
<path fill="none" stroke="#29235c" stroke-width="3" d="M1830.38,-1044.81C1963.01,-1044.81 1843.99,-1301.71 1963.35,-1315.26"/>
<polygon fill="#29235c" stroke="#29235c" stroke-width="3" points="1963.41,-1318.77 1973.59,-1315.81 1963.79,-1311.78 1963.41,-1318.77"/>
<text text-anchor="middle" x="1982.48" y="-1287.01" font-family="Helvetica,sans-Serif" font-size="32.00" fill="#29235c">1</text>
<text text-anchor="middle" x="1824.15" y="-1016.01" font-family="Helvetica,sans-Serif" font-size="32.00" fill="#29235c">*</text>
</g>
<!-- order_items -->
<g id="order_items" class="node">
<title>order_items</title>
<ellipse fill="none" stroke="black" stroke-width="0" cx="225.57" cy="-640.81" rx="225.63" ry="172.57"/>
<polygon fill="#1d71b8" stroke="transparent" points="68.57,-700.81 68.57,-760.81 383.57,-760.81 383.57,-700.81 68.57,-700.81"/>
<polygon fill="none" stroke="#29235c" points="68.57,-700.81 68.57,-760.81 383.57,-760.81 383.57,-700.81 68.57,-700.81"/>
<text text-anchor="start" x="79.37" y="-722.01" font-family="Helvetica,sans-Serif" font-weight="bold" font-size="32.00" fill="#ffffff"> &#160;&#160;&#160;&#160;&#160;&#160;order_items &#160;&#160;&#160;&#160;&#160;&#160;</text>
<polygon fill="#e7e2dd" stroke="transparent" points="68.57,-640.81 68.57,-700.81 383.57,-700.81 383.57,-640.81 68.57,-640.81"/>
<polygon fill="none" stroke="#29235c" points="68.57,-640.81 68.57,-700.81 383.57,-700.81 383.57,-640.81 68.57,-640.81"/>
<text text-anchor="start" x="167.39" y="-661.01" font-family="Helvetica,sans-Serif" font-size="32.00" fill="#29235c">order_id</text>
<polygon fill="#e7e2dd" stroke="transparent" points="68.57,-580.81 68.57,-640.81 383.57,-640.81 383.57,-580.81 68.57,-580.81"/>
<polygon fill="none" stroke="#29235c" points="68.57,-580.81 68.57,-640.81 383.57,-640.81 383.57,-580.81 68.57,-580.81"/>
<text text-anchor="start" x="151.38" y="-601.01" font-family="Helvetica,sans-Serif" font-size="32.00" fill="#29235c">product_id</text>
<polygon fill="#e7e2dd" stroke="transparent" points="68.57,-520.81 68.57,-580.81 383.57,-580.81 383.57,-520.81 68.57,-520.81"/>
<polygon fill="none" stroke="#29235c" points="68.57,-520.81 68.57,-580.81 383.57,-580.81 383.57,-520.81 68.57,-520.81"/>
<text text-anchor="start" x="170.05" y="-541.01" font-family="Helvetica,sans-Serif" font-size="32.00" fill="#29235c">quantity</text>
<polygon fill="none" stroke="#29235c" stroke-width="2" points="67.07,-519.81 67.07,-761.81 384.07,-761.81 384.07,-519.81 67.07,-519.81"/>
</g>
<!-- orders -->
<g id="orders" class="node">
<title>orders</title>
<ellipse fill="none" stroke="black" stroke-width="0" cx="774.22" cy="-832.81" rx="210.94" ry="214.92"/>
<polygon fill="#1d71b8" stroke="transparent" points="627.22,-922.81 627.22,-982.81 921.22,-982.81 921.22,-922.81 627.22,-922.81"/>
<polygon fill="none" stroke="#29235c" points="627.22,-922.81 627.22,-982.81 921.22,-982.81 921.22,-922.81 627.22,-922.81"/>
<text text-anchor="start" x="666.63" y="-944.01" font-family="Helvetica,sans-Serif" font-weight="bold" font-size="32.00" fill="#ffffff"> &#160;&#160;&#160;&#160;&#160;&#160;orders &#160;&#160;&#160;&#160;&#160;&#160;</text>
<polygon fill="#e7e2dd" stroke="transparent" points="627.22,-862.81 627.22,-922.81 921.22,-922.81 921.22,-862.81 627.22,-862.81"/>
<polygon fill="none" stroke="#29235c" points="627.22,-862.81 627.22,-922.81 921.22,-922.81 921.22,-862.81 627.22,-862.81"/>
<text text-anchor="start" x="761.77" y="-884.01" font-family="Helvetica,sans-Serif" font-weight="bold" font-size="32.00" fill="#29235c">id</text>
<polygon fill="#e7e2dd" stroke="transparent" points="627.22,-802.81 627.22,-862.81 921.22,-862.81 921.22,-802.81 627.22,-802.81"/>
<polygon fill="none" stroke="#29235c" points="627.22,-802.81 627.22,-862.81 921.22,-862.81 921.22,-802.81 627.22,-802.81"/>
<text text-anchor="start" x="638.21" y="-824.01" font-family="Helvetica,sans-Serif" font-size="32.00" fill="#29235c">user_id </text>
<text text-anchor="start" x="752.01" y="-824.01" font-family="Helvetica,sans-Serif" font-style="italic" font-size="32.00" fill="#29235c">NOT NULL</text>
<polygon fill="#e7e2dd" stroke="transparent" points="627.22,-742.81 627.22,-802.81 921.22,-802.81 921.22,-742.81 627.22,-742.81"/>
<polygon fill="none" stroke="#29235c" points="627.22,-742.81 627.22,-802.81 921.22,-802.81 921.22,-742.81 627.22,-742.81"/>
<text text-anchor="start" x="731.54" y="-763.01" font-family="Helvetica,sans-Serif" font-size="32.00" fill="#29235c">status</text>
<polygon fill="#e7e2dd" stroke="transparent" points="627.22,-682.81 627.22,-742.81 921.22,-742.81 921.22,-682.81 627.22,-682.81"/>
<polygon fill="none" stroke="#29235c" points="627.22,-682.81 627.22,-742.81 921.22,-742.81 921.22,-682.81 627.22,-682.81"/>
<text text-anchor="start" x="698.63" y="-703.01" font-family="Helvetica,sans-Serif" font-size="32.00" fill="#29235c">created_at</text>
<polygon fill="none" stroke="#29235c" stroke-width="2" points="626.22,-681.81 626.22,-983.81 922.22,-983.81 922.22,-681.81 626.22,-681.81"/>
</g>
<!-- order_items&#45;&gt;orders -->
<!-- order_items&#45;&gt;orders -->
<g id="edge12" class="edge">
<title>order_items:e&#45;&gt;orders:w</title>
<path fill="none" stroke="#29235c" stroke-width="3" d="M384.57,-670.81C526.85,-670.81 482.7,-882.11 615.88,-892.42"/>
<polygon fill="#29235c" stroke="#29235c" stroke-width="3" points="616.09,-895.93 626.22,-892.81 616.36,-888.94 616.09,-895.93"/>
<text text-anchor="middle" x="617.33" y="-864.01" font-family="Helvetica,sans-Serif" font-size="32.00" fill="#29235c">1</text>
<text text-anchor="middle" x="378.34" y="-642.01" font-family="Helvetica,sans-Serif" font-size="32.00" fill="#29235c">*</text>
</g>
<!-- products -->
<g id="products" class="node">
<title>products</title>
<ellipse fill="none" stroke="black" stroke-width="0" cx="774.22" cy="-299.81" rx="260.84" ry="299.63"/>
<polygon fill="#1d71b8" stroke="transparent" points="592.22,-449.81 592.22,-509.81 957.22,-509.81 957.22,-449.81 592.22,-449.81"/>
<polygon fill="none" stroke="#29235c" points="592.22,-449.81 592.22,-509.81 957.22,-509.81 957.22,-449.81 592.22,-449.81"/>
<text text-anchor="start" x="651.12" y="-471.01" font-family="Helvetica,sans-Serif" font-weight="bold" font-size="32.00" fill="#ffffff"> &#160;&#160;&#160;&#160;&#160;&#160;products &#160;&#160;&#160;&#160;&#160;&#160;</text>
<polygon fill="#e7e2dd" stroke="transparent" points="592.22,-389.81 592.22,-449.81 957.22,-449.81 957.22,-389.81 592.22,-389.81"/>
<polygon fill="none" stroke="#29235c" points="592.22,-389.81 592.22,-449.81 957.22,-449.81 957.22,-389.81 592.22,-389.81"/>
<text text-anchor="start" x="762.27" y="-411.01" font-family="Helvetica,sans-Serif" font-weight="bold" font-size="32.00" fill="#29235c">id</text>
<polygon fill="#e7e2dd" stroke="transparent" points="592.22,-329.81 592.22,-389.81 957.22,-389.81 957.22,-329.81 592.22,-329.81"/>
<polygon fill="none" stroke="#29235c" points="592.22,-329.81 592.22,-389.81 957.22,-389.81 957.22,-329.81 592.22,-329.81"/>
<text text-anchor="start" x="734.71" y="-350.01" font-family="Helvetica,sans-Serif" font-size="32.00" fill="#29235c">name</text>
<polygon fill="#e7e2dd" stroke="transparent" points="592.22,-269.81 592.22,-329.81 957.22,-329.81 957.22,-269.81 592.22,-269.81"/>
<polygon fill="none" stroke="#29235c" points="592.22,-269.81 592.22,-329.81 957.22,-329.81 957.22,-269.81 592.22,-269.81"/>
<text text-anchor="start" x="603.15" y="-291.01" font-family="Helvetica,sans-Serif" font-size="32.00" fill="#29235c">merchant_id </text>
<text text-anchor="start" x="788.07" y="-291.01" font-family="Helvetica,sans-Serif" font-style="italic" font-size="32.00" fill="#29235c">NOT NULL</text>
<polygon fill="#e7e2dd" stroke="transparent" points="592.22,-209.81 592.22,-269.81 957.22,-269.81 957.22,-209.81 592.22,-209.81"/>
<polygon fill="none" stroke="#29235c" points="592.22,-209.81 592.22,-269.81 957.22,-269.81 957.22,-209.81 592.22,-209.81"/>
<text text-anchor="start" x="740.05" y="-230.01" font-family="Helvetica,sans-Serif" font-size="32.00" fill="#29235c">price</text>
<polygon fill="#e7e2dd" stroke="transparent" points="592.22,-149.81 592.22,-209.81 957.22,-209.81 957.22,-149.81 592.22,-149.81"/>
<polygon fill="none" stroke="#29235c" points="592.22,-149.81 592.22,-209.81 957.22,-209.81 957.22,-149.81 592.22,-149.81"/>
<text text-anchor="start" x="732.04" y="-170.01" font-family="Helvetica,sans-Serif" font-size="32.00" fill="#29235c">status</text>
<polygon fill="#e7e2dd" stroke="transparent" points="592.22,-89.81 592.22,-149.81 957.22,-149.81 957.22,-89.81 592.22,-89.81"/>
<polygon fill="none" stroke="#29235c" points="592.22,-89.81 592.22,-149.81 957.22,-149.81 957.22,-89.81 592.22,-89.81"/>
<text text-anchor="start" x="699.13" y="-110.01" font-family="Helvetica,sans-Serif" font-size="32.00" fill="#29235c">created_at</text>
<polygon fill="none" stroke="#29235c" stroke-width="2" points="590.72,-88.81 590.72,-510.81 957.72,-510.81 957.72,-88.81 590.72,-88.81"/>
</g>
<!-- order_items&#45;&gt;products -->
<!-- order_items&#45;&gt;products -->
<g id="edge6" class="edge">
<title>order_items:e&#45;&gt;products:w</title>
<path fill="none" stroke="#29235c" stroke-width="3" d="M384.57,-610.81C506.09,-610.81 468.48,-430.48 580.99,-420.26"/>
<polygon fill="#29235c" stroke="#29235c" stroke-width="3" points="581.38,-423.75 591.22,-419.81 581.08,-416.76 581.38,-423.75"/>
<text text-anchor="middle" x="582.33" y="-391.01" font-family="Helvetica,sans-Serif" font-size="32.00" fill="#29235c">1</text>
<text text-anchor="middle" x="378.34" y="-582.01" font-family="Helvetica,sans-Serif" font-size="32.00" fill="#29235c">*</text>
</g>
<!-- products&#45;&gt;merchants -->
<!-- products&#45;&gt;merchants -->
<g id="edge8" class="edge">
<title>products:e&#45;&gt;merchants:w</title>
<path fill="none" stroke="#29235c" stroke-width="3" d="M958.22,-299.81C1102.99,-299.81 1030.07,-467.45 1061.3,-608.81 1081.74,-701.3 1063.97,-1433.21 1151.08,-1483.13"/>
<polygon fill="#29235c" stroke="#29235c" stroke-width="3" points="1150.16,-1486.51 1160.73,-1485.81 1152.03,-1479.77 1150.16,-1486.51"/>
<text text-anchor="middle" x="1169.62" y="-1495.41" font-family="Helvetica,sans-Serif" font-size="32.00" fill="#29235c">1</text>
<text text-anchor="middle" x="952" y="-271.01" font-family="Helvetica,sans-Serif" font-size="32.00" fill="#29235c">*</text>
</g>
</g>
</svg>
