<?xml version="1.0" encoding="UTF-8" standalone="no"?>
<!DOCTYPE svg PUBLIC "-//W3C//DTD SVG 1.1//EN"
 "http://www.w3.org/Graphics/SVG/1.1/DTD/svg11.dtd">
<!-- Generated by graphviz version 2.44.1 (20200629.0846)
 -->
<!-- Title: dbml Pages: 1 -->
<svg width="2915pt" height="1738pt"
 viewBox="0.00 0.00 2915.37 1737.71" xmlns="http://www.w3.org/2000/svg" xmlns:xlink="http://www.w3.org/1999/xlink">
<g id="graph0" class="graph" transform="scale(1 1) rotate(0) translate(4 1733.71)">
<title>dbml</title>
<g id="clust1" class="cluster">
<title>cluster_merchants</title>
<polygon fill="#dddddd" stroke="#dddddd" points="479.13,-11.75 479.13,-673.75 1777.06,-673.75 1777.06,-11.75 479.13,-11.75"/>
<text text-anchor="middle" x="1128.1" y="-640.95" font-family="Helvetica,sans-Serif" font-size="32.00" fill="#29235c">merchants</text>
</g>
<!-- merchants -->
<g id="merchants" class="node">
<title>merchants</title>
<ellipse fill="none" stroke="black" stroke-width="0" cx="1487.63" cy="-319.75" rx="281.36" ry="299.63"/>
<polygon fill="#1d71b8" stroke="transparent" points="1290.63,-469.75 1290.63,-529.75 1684.63,-529.75 1684.63,-469.75 1290.63,-469.75"/>
<polygon fill="none" stroke="#29235c" points="1290.63,-469.75 1290.63,-529.75 1684.63,-529.75 1684.63,-469.75 1290.63,-469.75"/>
<text text-anchor="start" x="1350.7" y="-490.95" font-family="Helvetica,sans-Serif" font-weight="bold" font-size="32.00" fill="#ffffff"> &#160;&#160;&#160;&#160;&#160;&#160;merchants &#160;&#160;&#160;&#160;&#160;&#160;</text>
<polygon fill="#e7e2dd" stroke="transparent" points="1290.63,-409.75 1290.63,-469.75 1684.63,-469.75 1684.63,-409.75 1290.63,-409.75"/>
<polygon fill="none" stroke="#29235c" points="1290.63,-409.75 1290.63,-469.75 1684.63,-469.75 1684.63,-409.75 1290.63,-409.75"/>
<text text-anchor="start" x="1301.63" y="-430.95" font-family="Helvetica,sans-Serif" font-size="32.00" fill="#29235c">id</text>
<text text-anchor="start" x="1326.52" y="-430.95" font-family="Helvetica,sans-Serif" font-size="32.00" fill="#29235c"> &#160;&#160;&#160;</text>
<text text-anchor="start" x="1639.85" y="-430.95" font-family="Helvetica,sans-Serif" font-style="italic" font-size="32.00" fill="#29235c">int</text>
<polygon fill="#e7e2dd" stroke="transparent" points="1290.63,-349.75 1290.63,-409.75 1684.63,-409.75 1684.63,-349.75 1290.63,-349.75"/>
<polygon fill="none" stroke="#29235c" points="1290.63,-349.75 1290.63,-409.75 1684.63,-409.75 1684.63,-349.75 1290.63,-349.75"/>
<text text-anchor="start" x="1301.63" y="-370.95" font-family="Helvetica,sans-Serif" font-size="32.00" fill="#29235c">country_code</text>
<text text-anchor="start" x="1493.69" y="-370.95" font-family="Helvetica,sans-Serif" font-size="32.00" fill="#29235c"> &#160;&#160;&#160;</text>
<text text-anchor="start" x="1639.85" y="-370.95" font-family="Helvetica,sans-Serif" font-style="italic" font-size="32.00" fill="#29235c">int</text>
<polygon fill="#e7e2dd" stroke="transparent" points="1290.63,-289.75 1290.63,-349.75 1684.63,-349.75 1684.63,-289.75 1290.63,-289.75"/>
<polygon fill="none" stroke="#29235c" points="1290.63,-289.75 1290.63,-349.75 1684.63,-349.75 1684.63,-289.75 1290.63,-289.75"/>
<text text-anchor="start" x="1301.26" y="-310.95" font-family="Helvetica,sans-Serif" font-size="32.00" fill="#29235c">merchant_name</text>
<text text-anchor="start" x="1532.42" y="-310.95" font-family="Helvetica,sans-Serif" font-size="32.00" fill="#29235c"> &#160;&#160;&#160;</text>
<text text-anchor="start" x="1567.29" y="-310.95" font-family="Helvetica,sans-Serif" font-style="italic" font-size="32.00" fill="#29235c">varchar</text>
<polygon fill="#e7e2dd" stroke="transparent" points="1290.63,-229.75 1290.63,-289.75 1684.63,-289.75 1684.63,-229.75 1290.63,-229.75"/>
<polygon fill="none" stroke="#29235c" points="1290.63,-229.75 1290.63,-289.75 1684.63,-289.75 1684.63,-229.75 1290.63,-229.75"/>
<text text-anchor="start" x="1301.63" y="-250.95" font-family="Helvetica,sans-Serif" font-size="32.00" fill="#29235c">created at</text>
<text text-anchor="start" x="1443.9" y="-250.95" font-family="Helvetica,sans-Serif" font-size="32.00" fill="#29235c"> &#160;&#160;&#160;</text>
<text text-anchor="start" x="1566.96" y="-250.95" font-family="Helvetica,sans-Serif" font-style="italic" font-size="32.00" fill="#29235c">varchar</text>
<polygon fill="#e7e2dd" stroke="transparent" points="1290.63,-169.75 1290.63,-229.75 1684.63,-229.75 1684.63,-169.75 1290.63,-169.75"/>
<polygon fill="none" stroke="#29235c" points="1290.63,-169.75 1290.63,-229.75 1684.63,-229.75 1684.63,-169.75 1290.63,-169.75"/>
<text text-anchor="start" x="1301.63" y="-190.95" font-family="Helvetica,sans-Serif" font-size="32.00" fill="#29235c">admin_id</text>
<text text-anchor="start" x="1431.43" y="-190.95" font-family="Helvetica,sans-Serif" font-size="32.00" fill="#29235c"> &#160;&#160;&#160;</text>
<text text-anchor="start" x="1639.85" y="-190.95" font-family="Helvetica,sans-Serif" font-style="italic" font-size="32.00" fill="#29235c">int</text>
<polygon fill="#e7e2dd" stroke="transparent" points="1290.63,-109.75 1290.63,-169.75 1684.63,-169.75 1684.63,-109.75 1290.63,-109.75"/>
<polygon fill="none" stroke="#29235c" points="1290.63,-109.75 1290.63,-169.75 1684.63,-169.75 1684.63,-109.75 1290.63,-109.75"/>
<text text-anchor="start" x="1334.69" y="-130.95" font-family="Helvetica,sans-Serif" font-style="italic" font-size="32.00" fill="#1d71b8"> &#160;&#160;&#160;country_code, id &#160;&#160;&#160;</text>
<polygon fill="none" stroke="#29235c" stroke-width="2" points="1289.63,-108.75 1289.63,-530.75 1685.63,-530.75 1685.63,-108.75 1289.63,-108.75"/>
</g>
<!-- users -->
<g id="users" class="node">
<title>users</title>
<ellipse fill="none" stroke="black" stroke-width="0" cx="2058.91" cy="-317.75" rx="253.7" ry="214.92"/>
<polygon fill="#1d71b8" stroke="transparent" points="1881.91,-407.75 1881.91,-467.75 2236.91,-467.75 2236.91,-407.75 1881.91,-407.75"/>
<polygon fill="none" stroke="#29235c" points="1881.91,-407.75 1881.91,-467.75 2236.91,-467.75 2236.91,-407.75 1881.91,-407.75"/>
<text text-anchor="start" x="1958.04" y="-428.95" font-family="Helvetica,sans-Serif" font-weight="bold" font-size="32.00" fill="#ffffff"> &#160;&#160;&#160;&#160;&#160;&#160;users &#160;&#160;&#160;&#160;&#160;&#160;</text>
<polygon fill="#e7e2dd" stroke="transparent" points="1881.91,-347.75 1881.91,-407.75 2236.91,-407.75 2236.91,-347.75 1881.91,-347.75"/>
<polygon fill="none" stroke="#29235c" points="1881.91,-347.75 1881.91,-407.75 2236.91,-407.75 2236.91,-347.75 1881.91,-347.75"/>
<text text-anchor="start" x="1892.91" y="-368.95" font-family="Helvetica,sans-Serif" font-weight="bold" font-size="32.00" fill="#29235c">id</text>
<text text-anchor="start" x="1917.8" y="-368.95" font-family="Helvetica,sans-Serif" font-size="32.00" fill="#29235c"> &#160;&#160;&#160;</text>
<text text-anchor="start" x="2192.13" y="-368.95" font-family="Helvetica,sans-Serif" font-style="italic" font-size="32.00" fill="#29235c">int</text>
<polygon fill="#e7e2dd" stroke="transparent" points="1881.91,-287.75 1881.91,-347.75 2236.91,-347.75 2236.91,-287.75 1881.91,-287.75"/>
<polygon fill="none" stroke="#29235c" points="1881.91,-287.75 1881.91,-347.75 2236.91,-347.75 2236.91,-287.75 1881.91,-287.75"/>
<text text-anchor="start" x="1892.91" y="-308.95" font-family="Helvetica,sans-Serif" font-size="32.00" fill="#29235c">full_name</text>
<text text-anchor="start" x="2031.6" y="-308.95" font-family="Helvetica,sans-Serif" font-size="32.00" fill="#29235c"> &#160;&#160;&#160;</text>
<text text-anchor="start" x="2119.24" y="-308.95" font-family="Helvetica,sans-Serif" font-style="italic" font-size="32.00" fill="#29235c">varchar</text>
<polygon fill="#e7e2dd" stroke="transparent" points="1881.91,-227.75 1881.91,-287.75 2236.91,-287.75 2236.91,-227.75 1881.91,-227.75"/>
<polygon fill="none" stroke="#29235c" points="1881.91,-227.75 1881.91,-287.75 2236.91,-287.75 2236.91,-227.75 1881.91,-227.75"/>
<text text-anchor="start" x="1892.54" y="-248.95" font-family="Helvetica,sans-Serif" font-size="32.00" fill="#29235c">created_at</text>
<text text-anchor="start" x="2043.71" y="-248.95" font-family="Helvetica,sans-Serif" font-size="32.00" fill="#29235c"> &#160;&#160;&#160;</text>
<text text-anchor="start" x="2078.63" y="-248.95" font-family="Helvetica,sans-Serif" font-style="italic" font-size="32.00" fill="#29235c">timestamp</text>
<polygon fill="#e7e2dd" stroke="transparent" points="1881.91,-167.75 1881.91,-227.75 2236.91,-227.75 2236.91,-167.75 1881.91,-167.75"/>
<polygon fill="none" stroke="#29235c" points="1881.91,-167.75 1881.91,-227.75 2236.91,-227.75 2236.91,-167.75 1881.91,-167.75"/>
<text text-anchor="start" x="1892.91" y="-188.95" font-family="Helvetica,sans-Serif" font-size="32.00" fill="#29235c">country_code</text>
<text text-anchor="start" x="2084.97" y="-188.95" font-family="Helvetica,sans-Serif" font-size="32.00" fill="#29235c"> &#160;&#160;&#160;</text>
<text text-anchor="start" x="2192.13" y="-188.95" font-family="Helvetica,sans-Serif" font-style="italic" font-size="32.00" fill="#29235c">int</text>
<polygon fill="none" stroke="#29235c" stroke-width="2" points="1880.41,-166.75 1880.41,-468.75 2237.41,-468.75 2237.41,-166.75 1880.41,-166.75"/>
</g>
<!-- merchants&#45;&gt;users -->
<!-- merchants&#45;&gt;users -->
<g id="edge14" class="edge">
<title>merchants:e&#45;&gt;users:w</title>
<path fill="none" stroke="#29235c" stroke-width="3" d="M1685.63,-199.75C1799.51,-199.75 1765.72,-367.14 1870.67,-377.27"/>
<polygon fill="#29235c" stroke="#29235c" stroke-width="3" points="1870.75,-380.78 1880.91,-377.75 1871.08,-373.79 1870.75,-380.78"/>
<text text-anchor="middle" x="1872.01" y="-348.95" font-family="Helvetica,sans-Serif" font-size="32.00" fill="#29235c">1</text>
<text text-anchor="middle" x="1691.85" y="-170.95" font-family="Helvetica,sans-Serif" font-size="32.00" fill="#29235c">*</text>
</g>
<!-- countries -->
<g id="countries" class="node">
<title>countries</title>
<ellipse fill="none" stroke="black" stroke-width="0" cx="2628.07" cy="-347.75" rx="279.11" ry="172.57"/>
<polygon fill="#1d71b8" stroke="transparent" points="2433.07,-407.75 2433.07,-467.75 2824.07,-467.75 2824.07,-407.75 2433.07,-407.75"/>
<polygon fill="none" stroke="#29235c" points="2433.07,-407.75 2433.07,-467.75 2824.07,-467.75 2824.07,-407.75 2433.07,-407.75"/>
<text text-anchor="start" x="2501.42" y="-428.95" font-family="Helvetica,sans-Serif" font-weight="bold" font-size="32.00" fill="#ffffff"> &#160;&#160;&#160;&#160;&#160;&#160;countries &#160;&#160;&#160;&#160;&#160;&#160;</text>
<polygon fill="#e7e2dd" stroke="transparent" points="2433.07,-347.75 2433.07,-407.75 2824.07,-407.75 2824.07,-347.75 2433.07,-347.75"/>
<polygon fill="none" stroke="#29235c" points="2433.07,-347.75 2433.07,-407.75 2824.07,-407.75 2824.07,-347.75 2433.07,-347.75"/>
<text text-anchor="start" x="2444.07" y="-368.95" font-family="Helvetica,sans-Serif" font-weight="bold" font-size="32.00" fill="#29235c">code</text>
<text text-anchor="start" x="2513.43" y="-368.95" font-family="Helvetica,sans-Serif" font-size="32.00" fill="#29235c"> &#160;&#160;&#160;</text>
<text text-anchor="start" x="2779.28" y="-368.95" font-family="Helvetica,sans-Serif" font-style="italic" font-size="32.00" fill="#29235c">int</text>
<polygon fill="#e7e2dd" stroke="transparent" points="2433.07,-287.75 2433.07,-347.75 2824.07,-347.75 2824.07,-287.75 2433.07,-287.75"/>
<polygon fill="none" stroke="#29235c" points="2433.07,-287.75 2433.07,-347.75 2824.07,-347.75 2824.07,-287.75 2433.07,-287.75"/>
<text text-anchor="start" x="2444.07" y="-308.95" font-family="Helvetica,sans-Serif" font-size="32.00" fill="#29235c">name</text>
<text text-anchor="start" x="2524.09" y="-308.95" font-family="Helvetica,sans-Serif" font-size="32.00" fill="#29235c"> &#160;&#160;&#160;</text>
<text text-anchor="start" x="2706.39" y="-308.95" font-family="Helvetica,sans-Serif" font-style="italic" font-size="32.00" fill="#29235c">varchar</text>
<polygon fill="#e7e2dd" stroke="transparent" points="2433.07,-227.75 2433.07,-287.75 2824.07,-287.75 2824.07,-227.75 2433.07,-227.75"/>
<polygon fill="none" stroke="#29235c" points="2433.07,-227.75 2433.07,-287.75 2824.07,-287.75 2824.07,-227.75 2433.07,-227.75"/>
<text text-anchor="start" x="2443.96" y="-248.95" font-family="Helvetica,sans-Serif" font-size="32.00" fill="#29235c">continent_name</text>
<text text-anchor="start" x="2671.6" y="-248.95" font-family="Helvetica,sans-Serif" font-size="32.00" fill="#29235c"> &#160;&#160;&#160;</text>
<text text-anchor="start" x="2706.73" y="-248.95" font-family="Helvetica,sans-Serif" font-style="italic" font-size="32.00" fill="#29235c">varchar</text>
<polygon fill="none" stroke="#29235c" stroke-width="2" points="2431.57,-226.75 2431.57,-468.75 2824.57,-468.75 2824.57,-226.75 2431.57,-226.75"/>
</g>
<!-- merchants&#45;&gt;countries -->
<!-- merchants&#45;&gt;countries -->
<g id="edge4" class="edge">
<title>merchants:e&#45;&gt;countries:w</title>
<path fill="none" stroke="#29235c" stroke-width="3" d="M1685.63,-379.75C1823.38,-379.75 1690.41,-170.11 1805.06,-93.75 1992.85,31.34 2124.83,31.14 2312.76,-93.75 2423.78,-167.53 2301.93,-366.86 2421.79,-377.32"/>
<polygon fill="#29235c" stroke="#29235c" stroke-width="3" points="2421.93,-380.83 2432.07,-377.75 2422.22,-373.84 2421.93,-380.83"/>
<text text-anchor="middle" x="2423.17" y="-348.95" font-family="Helvetica,sans-Serif" font-size="32.00" fill="#29235c">1</text>
<text text-anchor="middle" x="1691.85" y="-350.95" font-family="Helvetica,sans-Serif" font-size="32.00" fill="#29235c">*</text>
</g>
<!-- merchant_periods -->
<g id="merchant_periods" class="node">
<title>merchant_periods</title>
<ellipse fill="none" stroke="black" stroke-width="0" cx="828.67" cy="-319.75" rx="341.57" ry="299.63"/>
<polygon fill="#1d71b8" stroke="transparent" points="589.67,-469.75 589.67,-529.75 1068.67,-529.75 1068.67,-469.75 589.67,-469.75"/>
<polygon fill="none" stroke="#29235c" points="589.67,-469.75 589.67,-529.75 1068.67,-529.75 1068.67,-469.75 589.67,-469.75"/>
<text text-anchor="start" x="638.89" y="-490.95" font-family="Helvetica,sans-Serif" font-weight="bold" font-size="32.00" fill="#ffffff"> &#160;&#160;&#160;&#160;&#160;&#160;merchant_periods &#160;&#160;&#160;&#160;&#160;&#160;</text>
<polygon fill="#e7e2dd" stroke="transparent" points="589.67,-409.75 589.67,-469.75 1068.67,-469.75 1068.67,-409.75 589.67,-409.75"/>
<polygon fill="none" stroke="#29235c" points="589.67,-409.75 589.67,-469.75 1068.67,-469.75 1068.67,-409.75 589.67,-409.75"/>
<text text-anchor="start" x="600.67" y="-430.95" font-family="Helvetica,sans-Serif" font-weight="bold" font-size="32.00" fill="#29235c">id</text>
<text text-anchor="start" x="625.56" y="-430.95" font-family="Helvetica,sans-Serif" font-size="32.00" fill="#29235c"> &#160;&#160;&#160;</text>
<text text-anchor="start" x="1023.88" y="-430.95" font-family="Helvetica,sans-Serif" font-style="italic" font-size="32.00" fill="#29235c">int</text>
<polygon fill="#e7e2dd" stroke="transparent" points="589.67,-349.75 589.67,-409.75 1068.67,-409.75 1068.67,-349.75 589.67,-349.75"/>
<polygon fill="none" stroke="#29235c" points="589.67,-349.75 589.67,-409.75 1068.67,-409.75 1068.67,-349.75 589.67,-349.75"/>
<text text-anchor="start" x="600.67" y="-370.95" font-family="Helvetica,sans-Serif" font-size="32.00" fill="#29235c">merchant_id</text>
<text text-anchor="start" x="776.7" y="-370.95" font-family="Helvetica,sans-Serif" font-size="32.00" fill="#29235c"> &#160;&#160;&#160;</text>
<text text-anchor="start" x="1023.88" y="-370.95" font-family="Helvetica,sans-Serif" font-style="italic" font-size="32.00" fill="#29235c">int</text>
<polygon fill="#e7e2dd" stroke="transparent" points="589.67,-289.75 589.67,-349.75 1068.67,-349.75 1068.67,-289.75 589.67,-289.75"/>
<polygon fill="none" stroke="#29235c" points="589.67,-289.75 589.67,-349.75 1068.67,-349.75 1068.67,-289.75 589.67,-289.75"/>
<text text-anchor="start" x="600.67" y="-310.95" font-family="Helvetica,sans-Serif" font-size="32.00" fill="#29235c">country_code</text>
<text text-anchor="start" x="792.73" y="-310.95" font-family="Helvetica,sans-Serif" font-size="32.00" fill="#29235c"> &#160;&#160;&#160;</text>
<text text-anchor="start" x="1023.88" y="-310.95" font-family="Helvetica,sans-Serif" font-style="italic" font-size="32.00" fill="#29235c">int</text>
<polygon fill="#e7e2dd" stroke="transparent" points="589.67,-229.75 589.67,-289.75 1068.67,-289.75 1068.67,-229.75 589.67,-229.75"/>
<polygon fill="none" stroke="#29235c" points="589.67,-229.75 589.67,-289.75 1068.67,-289.75 1068.67,-229.75 589.67,-229.75"/>
<text text-anchor="start" x="600.67" y="-250.95" font-family="Helvetica,sans-Serif" font-size="32.00" fill="#29235c">start_date</text>
<text text-anchor="start" x="742.94" y="-250.95" font-family="Helvetica,sans-Serif" font-size="32.00" fill="#29235c"> &#160;&#160;&#160;</text>
<text text-anchor="start" x="934.97" y="-250.95" font-family="Helvetica,sans-Serif" font-style="italic" font-size="32.00" fill="#29235c">datetime</text>
<polygon fill="#e7e2dd" stroke="transparent" points="589.67,-169.75 589.67,-229.75 1068.67,-229.75 1068.67,-169.75 589.67,-169.75"/>
<polygon fill="none" stroke="#29235c" points="589.67,-169.75 589.67,-229.75 1068.67,-229.75 1068.67,-169.75 589.67,-169.75"/>
<text text-anchor="start" x="600.67" y="-190.95" font-family="Helvetica,sans-Serif" font-size="32.00" fill="#29235c">end_date</text>
<text text-anchor="start" x="734.08" y="-190.95" font-family="Helvetica,sans-Serif" font-size="32.00" fill="#29235c"> &#160;&#160;&#160;</text>
<text text-anchor="start" x="934.97" y="-190.95" font-family="Helvetica,sans-Serif" font-style="italic" font-size="32.00" fill="#29235c">datetime</text>
<polygon fill="#e7e2dd" stroke="transparent" points="589.67,-109.75 589.67,-169.75 1068.67,-169.75 1068.67,-109.75 589.67,-109.75"/>
<polygon fill="none" stroke="#29235c" points="589.67,-109.75 589.67,-169.75 1068.67,-169.75 1068.67,-109.75 589.67,-109.75"/>
<text text-anchor="start" x="600.65" y="-130.95" font-family="Helvetica,sans-Serif" font-style="italic" font-size="32.00" fill="#1d71b8"> &#160;&#160;&#160;country_code, merchant_id &#160;&#160;&#160;</text>
<polygon fill="none" stroke="#29235c" stroke-width="2" points="588.17,-108.75 588.17,-530.75 1069.17,-530.75 1069.17,-108.75 588.17,-108.75"/>
</g>
<!-- merchant_periods&#45;&gt;merchants -->
<!-- merchant_periods&#45;&gt;merchants -->
<g id="edge10" class="edge">
<title>merchant_periods:e&#45;&gt;merchants:w</title>
<path fill="none" stroke="#29235c" stroke-width="3" d="M1069.67,-139.75C1163.99,-139.75 1190.06,-139.75 1279.58,-139.75"/>
<polygon fill="#29235c" stroke="#29235c" stroke-width="3" points="1279.63,-143.25 1289.63,-139.75 1279.63,-136.25 1279.63,-143.25"/>
<text text-anchor="middle" x="1280.73" y="-110.95" font-family="Helvetica,sans-Serif" font-size="32.00" fill="#29235c">1</text>
<text text-anchor="middle" x="1075.89" y="-110.95" font-family="Helvetica,sans-Serif" font-size="32.00" fill="#29235c">*</text>
</g>
<!-- users&#45;&gt;countries -->
<!-- users&#45;&gt;countries -->
<g id="edge2" class="edge">
<title>users:e&#45;&gt;countries:w</title>
<path fill="none" stroke="#29235c" stroke-width="3" d="M2237.91,-197.75C2352.02,-197.75 2316.74,-367.02 2421.81,-377.27"/>
<polygon fill="#29235c" stroke="#29235c" stroke-width="3" points="2421.91,-380.77 2432.07,-377.75 2422.24,-373.78 2421.91,-380.77"/>
<text text-anchor="middle" x="2440.96" y="-348.95" font-family="Helvetica,sans-Serif" font-size="32.00" fill="#29235c">1</text>
<text text-anchor="middle" x="2231.69" y="-168.95" font-family="Helvetica,sans-Serif" font-size="32.00" fill="#29235c">*</text>
</g>
<!-- order_items -->
<g id="order_items" class="node">
<title>order_items</title>
<ellipse fill="none" stroke="black" stroke-width="0" cx="225.57" cy="-1337.75" rx="225.63" ry="172.57"/>
<polygon fill="#1d71b8" stroke="transparent" points="68.57,-1397.75 68.57,-1457.75 383.57,-1457.75 383.57,-1397.75 68.57,-1397.75"/>
<polygon fill="none" stroke="#29235c" points="68.57,-1397.75 68.57,-1457.75 383.57,-1457.75 383.57,-1397.75 68.57,-1397.75"/>
<text text-anchor="start" x="79.37" y="-1418.95" font-family="Helvetica,sans-Serif" font-weight="bold" font-size="32.00" fill="#ffffff"> &#160;&#160;&#160;&#160;&#160;&#160;order_items &#160;&#160;&#160;&#160;&#160;&#160;</text>
<polygon fill="#e7e2dd" stroke="transparent" points="68.57,-1337.75 68.57,-1397.75 383.57,-1397.75 383.57,-1337.75 68.57,-1337.75"/>
<polygon fill="none" stroke="#29235c" points="68.57,-1337.75 68.57,-1397.75 383.57,-1397.75 383.57,-1337.75 68.57,-1337.75"/>
<text text-anchor="start" x="79.57" y="-1358.95" font-family="Helvetica,sans-Serif" font-size="32.00" fill="#29235c">order_id</text>
<text text-anchor="start" x="196.92" y="-1358.95" font-family="Helvetica,sans-Serif" font-size="32.00" fill="#29235c"> &#160;&#160;&#160;</text>
<text text-anchor="start" x="338.78" y="-1358.95" font-family="Helvetica,sans-Serif" font-style="italic" font-size="32.00" fill="#29235c">int</text>
<polygon fill="#e7e2dd" stroke="transparent" points="68.57,-1277.75 68.57,-1337.75 383.57,-1337.75 383.57,-1277.75 68.57,-1277.75"/>
<polygon fill="none" stroke="#29235c" points="68.57,-1277.75 68.57,-1337.75 383.57,-1337.75 383.57,-1277.75 68.57,-1277.75"/>
<text text-anchor="start" x="79.57" y="-1298.95" font-family="Helvetica,sans-Serif" font-size="32.00" fill="#29235c">product_id</text>
<text text-anchor="start" x="228.95" y="-1298.95" font-family="Helvetica,sans-Serif" font-size="32.00" fill="#29235c"> &#160;&#160;&#160;</text>
<text text-anchor="start" x="338.78" y="-1298.95" font-family="Helvetica,sans-Serif" font-style="italic" font-size="32.00" fill="#29235c">int</text>
<polygon fill="#e7e2dd" stroke="transparent" points="68.57,-1217.75 68.57,-1277.75 383.57,-1277.75 383.57,-1217.75 68.57,-1217.75"/>
<polygon fill="none" stroke="#29235c" points="68.57,-1217.75 68.57,-1277.75 383.57,-1277.75 383.57,-1217.75 68.57,-1217.75"/>
<text text-anchor="start" x="79.57" y="-1238.95" font-family="Helvetica,sans-Serif" font-size="32.00" fill="#29235c">quantity</text>
<text text-anchor="start" x="191.61" y="-1238.95" font-family="Helvetica,sans-Serif" font-size="32.00" fill="#29235c"> &#160;&#160;&#160;</text>
<text text-anchor="start" x="338.78" y="-1238.95" font-family="Helvetica,sans-Serif" font-style="italic" font-size="32.00" fill="#29235c">int</text>
<polygon fill="none" stroke="#29235c" stroke-width="2" points="67.07,-1216.75 67.07,-1458.75 384.07,-1458.75 384.07,-1216.75 67.07,-1216.75"/>
</g>
<!-- orders -->
<g id="orders" class="node">
<title>orders</title>
<ellipse fill="none" stroke="black" stroke-width="0" cx="828.67" cy="-1514.75" rx="224.72" ry="214.92"/>
<polygon fill="#1d71b8" stroke="transparent" points="671.67,-1604.75 671.67,-1664.75 985.67,-1664.75 985.67,-1604.75 671.67,-1604.75"/>
<polygon fill="none" stroke="#29235c" points="671.67,-1604.75 671.67,-1664.75 985.67,-1664.75 985.67,-1604.75 671.67,-1604.75"/>
<text text-anchor="start" x="721.08" y="-1625.95" font-family="Helvetica,sans-Serif" font-weight="bold" font-size="32.00" fill="#ffffff"> &#160;&#160;&#160;&#160;&#160;&#160;orders &#160;&#160;&#160;&#160;&#160;&#160;</text>
<polygon fill="#e7e2dd" stroke="transparent" points="671.67,-1544.75 671.67,-1604.75 985.67,-1604.75 985.67,-1544.75 671.67,-1544.75"/>
<polygon fill="none" stroke="#29235c" points="671.67,-1544.75 671.67,-1604.75 985.67,-1604.75 985.67,-1544.75 671.67,-1544.75"/>
<text text-anchor="start" x="682.67" y="-1565.95" font-family="Helvetica,sans-Serif" font-weight="bold" font-size="32.00" fill="#29235c">id</text>
<text text-anchor="start" x="707.56" y="-1565.95" font-family="Helvetica,sans-Serif" font-size="32.00" fill="#29235c"> &#160;&#160;&#160;</text>
<text text-anchor="start" x="940.88" y="-1565.95" font-family="Helvetica,sans-Serif" font-style="italic" font-size="32.00" fill="#29235c">int</text>
<polygon fill="#e7e2dd" stroke="transparent" points="671.67,-1484.75 671.67,-1544.75 985.67,-1544.75 985.67,-1484.75 671.67,-1484.75"/>
<polygon fill="none" stroke="#29235c" points="671.67,-1484.75 671.67,-1544.75 985.67,-1544.75 985.67,-1484.75 671.67,-1484.75"/>
<text text-anchor="start" x="682.67" y="-1505.95" font-family="Helvetica,sans-Serif" font-size="32.00" fill="#29235c">user_id</text>
<text text-anchor="start" x="787.58" y="-1505.95" font-family="Helvetica,sans-Serif" font-size="32.00" fill="#29235c"> &#160;&#160;&#160;</text>
<text text-anchor="start" x="901.79" y="-1505.95" font-family="Helvetica,sans-Serif" font-style="italic" font-size="32.00" fill="#29235c">int</text>
<text text-anchor="start" x="935.58" y="-1505.95" font-family="Helvetica,sans-Serif" font-size="32.00" fill="#29235c"> </text>
<text text-anchor="start" x="944.47" y="-1505.95" font-family="Helvetica,sans-Serif" font-weight="bold" font-size="32.00" fill="#29235c">(!)</text>
<polygon fill="#e7e2dd" stroke="transparent" points="671.67,-1424.75 671.67,-1484.75 985.67,-1484.75 985.67,-1424.75 671.67,-1424.75"/>
<polygon fill="none" stroke="#29235c" points="671.67,-1424.75 671.67,-1484.75 985.67,-1484.75 985.67,-1424.75 671.67,-1424.75"/>
<text text-anchor="start" x="682.67" y="-1445.95" font-family="Helvetica,sans-Serif" font-size="32.00" fill="#29235c">status</text>
<text text-anchor="start" x="768.03" y="-1445.95" font-family="Helvetica,sans-Serif" font-size="32.00" fill="#29235c"> &#160;&#160;&#160;</text>
<text text-anchor="start" x="867.99" y="-1445.95" font-family="Helvetica,sans-Serif" font-style="italic" font-size="32.00" fill="#29235c">varchar</text>
<polygon fill="#e7e2dd" stroke="transparent" points="671.67,-1364.75 671.67,-1424.75 985.67,-1424.75 985.67,-1364.75 671.67,-1364.75"/>
<polygon fill="none" stroke="#29235c" points="671.67,-1364.75 671.67,-1424.75 985.67,-1424.75 985.67,-1364.75 671.67,-1364.75"/>
<text text-anchor="start" x="682.3" y="-1385.95" font-family="Helvetica,sans-Serif" font-size="32.00" fill="#29235c">created_at</text>
<text text-anchor="start" x="833.47" y="-1385.95" font-family="Helvetica,sans-Serif" font-size="32.00" fill="#29235c"> &#160;&#160;&#160;</text>
<text text-anchor="start" x="868.33" y="-1385.95" font-family="Helvetica,sans-Serif" font-style="italic" font-size="32.00" fill="#29235c">varchar</text>
<polygon fill="none" stroke="#29235c" stroke-width="2" points="670.67,-1363.75 670.67,-1665.75 986.67,-1665.75 986.67,-1363.75 670.67,-1363.75"/>
</g>
<!-- order_items&#45;&gt;orders -->
<!-- order_items&#45;&gt;orders -->
<g id="edge12" class="edge">
<title>order_items:e&#45;&gt;orders:w</title>
<path fill="none" stroke="#29235c" stroke-width="3" d="M384.57,-1367.75C537.99,-1367.75 514.87,-1565.56 660.37,-1574.44"/>
<polygon fill="#29235c" stroke="#29235c" stroke-width="3" points="660.57,-1577.95 670.67,-1574.75 660.78,-1570.95 660.57,-1577.95"/>
<text text-anchor="middle" x="661.77" y="-1584.35" font-family="Helvetica,sans-Serif" font-size="32.00" fill="#29235c">1</text>
<text text-anchor="middle" x="390.79" y="-1377.35" font-family="Helvetica,sans-Serif" font-size="32.00" fill="#29235c">*</text>
</g>
<!-- products -->
<g id="products" class="node">
<title>products</title>
<ellipse fill="none" stroke="black" stroke-width="0" cx="828.67" cy="-981.75" rx="262.17" ry="299.63"/>
<polygon fill="#1d71b8" stroke="transparent" points="645.67,-1131.75 645.67,-1191.75 1012.67,-1191.75 1012.67,-1131.75 645.67,-1131.75"/>
<polygon fill="none" stroke="#29235c" points="645.67,-1131.75 645.67,-1191.75 1012.67,-1191.75 1012.67,-1131.75 645.67,-1131.75"/>
<text text-anchor="start" x="705.57" y="-1152.95" font-family="Helvetica,sans-Serif" font-weight="bold" font-size="32.00" fill="#ffffff"> &#160;&#160;&#160;&#160;&#160;&#160;products &#160;&#160;&#160;&#160;&#160;&#160;</text>
<polygon fill="#e7e2dd" stroke="transparent" points="645.67,-1071.75 645.67,-1131.75 1012.67,-1131.75 1012.67,-1071.75 645.67,-1071.75"/>
<polygon fill="none" stroke="#29235c" points="645.67,-1071.75 645.67,-1131.75 1012.67,-1131.75 1012.67,-1071.75 645.67,-1071.75"/>
<text text-anchor="start" x="656.67" y="-1092.95" font-family="Helvetica,sans-Serif" font-weight="bold" font-size="32.00" fill="#29235c">id</text>
<text text-anchor="start" x="681.56" y="-1092.95" font-family="Helvetica,sans-Serif" font-size="32.00" fill="#29235c"> &#160;&#160;&#160;</text>
<text text-anchor="start" x="967.88" y="-1092.95" font-family="Helvetica,sans-Serif" font-style="italic" font-size="32.00" fill="#29235c">int</text>
<polygon fill="#e7e2dd" stroke="transparent" points="645.67,-1011.75 645.67,-1071.75 1012.67,-1071.75 1012.67,-1011.75 645.67,-1011.75"/>
<polygon fill="none" stroke="#29235c" points="645.67,-1011.75 645.67,-1071.75 1012.67,-1071.75 1012.67,-1011.75 645.67,-1011.75"/>
<text text-anchor="start" x="656.67" y="-1032.95" font-family="Helvetica,sans-Serif" font-size="32.00" fill="#29235c">name</text>
<text text-anchor="start" x="736.69" y="-1032.95" font-family="Helvetica,sans-Serif" font-size="32.00" fill="#29235c"> &#160;&#160;&#160;</text>
<text text-anchor="start" x="894.99" y="-1032.95" font-family="Helvetica,sans-Serif" font-style="italic" font-size="32.00" fill="#29235c">varchar</text>
<polygon fill="#e7e2dd" stroke="transparent" points="645.67,-951.75 645.67,-1011.75 1012.67,-1011.75 1012.67,-951.75 645.67,-951.75"/>
<polygon fill="none" stroke="#29235c" points="645.67,-951.75 645.67,-1011.75 1012.67,-1011.75 1012.67,-951.75 645.67,-951.75"/>
<text text-anchor="start" x="656.67" y="-972.95" font-family="Helvetica,sans-Serif" font-size="32.00" fill="#29235c">merchant_id</text>
<text text-anchor="start" x="832.7" y="-972.95" font-family="Helvetica,sans-Serif" font-size="32.00" fill="#29235c"> &#160;&#160;&#160;</text>
<text text-anchor="start" x="928.79" y="-972.95" font-family="Helvetica,sans-Serif" font-style="italic" font-size="32.00" fill="#29235c">int</text>
<text text-anchor="start" x="962.58" y="-972.95" font-family="Helvetica,sans-Serif" font-size="32.00" fill="#29235c"> </text>
<text text-anchor="start" x="971.47" y="-972.95" font-family="Helvetica,sans-Serif" font-weight="bold" font-size="32.00" fill="#29235c">(!)</text>
<polygon fill="#e7e2dd" stroke="transparent" points="645.67,-891.75 645.67,-951.75 1012.67,-951.75 1012.67,-891.75 645.67,-891.75"/>
<polygon fill="none" stroke="#29235c" points="645.67,-891.75 645.67,-951.75 1012.67,-951.75 1012.67,-891.75 645.67,-891.75"/>
<text text-anchor="start" x="656.67" y="-912.95" font-family="Helvetica,sans-Serif" font-size="32.00" fill="#29235c">price</text>
<text text-anchor="start" x="726" y="-912.95" font-family="Helvetica,sans-Serif" font-size="32.00" fill="#29235c"> &#160;&#160;&#160;</text>
<text text-anchor="start" x="967.88" y="-912.95" font-family="Helvetica,sans-Serif" font-style="italic" font-size="32.00" fill="#29235c">int</text>
<polygon fill="#e7e2dd" stroke="transparent" points="645.67,-831.75 645.67,-891.75 1012.67,-891.75 1012.67,-831.75 645.67,-831.75"/>
<polygon fill="none" stroke="#29235c" points="645.67,-831.75 645.67,-891.75 1012.67,-891.75 1012.67,-831.75 645.67,-831.75"/>
<text text-anchor="start" x="656.2" y="-852.95" font-family="Helvetica,sans-Serif" font-size="32.00" fill="#29235c">status</text>
<text text-anchor="start" x="741.56" y="-852.95" font-family="Helvetica,sans-Serif" font-size="32.00" fill="#29235c"> &#160;&#160;&#160;</text>
<text text-anchor="start" x="776.24" y="-852.95" font-family="Helvetica,sans-Serif" font-style="italic" font-size="32.00" fill="#29235c">products_status</text>
<polygon fill="#e7e2dd" stroke="transparent" points="645.67,-771.75 645.67,-831.75 1012.67,-831.75 1012.67,-771.75 645.67,-771.75"/>
<polygon fill="none" stroke="#29235c" points="645.67,-771.75 645.67,-831.75 1012.67,-831.75 1012.67,-771.75 645.67,-771.75"/>
<text text-anchor="start" x="656.67" y="-792.95" font-family="Helvetica,sans-Serif" font-size="32.00" fill="#29235c">created_at</text>
<text text-anchor="start" x="807.84" y="-792.95" font-family="Helvetica,sans-Serif" font-size="32.00" fill="#29235c"> &#160;&#160;&#160;</text>
<text text-anchor="start" x="878.97" y="-792.95" font-family="Helvetica,sans-Serif" font-style="italic" font-size="32.00" fill="#29235c">datetime</text>
<polygon fill="none" stroke="#29235c" stroke-width="2" points="644.17,-770.75 644.17,-1192.75 1013.17,-1192.75 1013.17,-770.75 644.17,-770.75"/>
</g>
<!-- order_items&#45;&gt;products -->
<!-- order_items&#45;&gt;products -->
<g id="edge6" class="edge">
<title>order_items:e&#45;&gt;products:w</title>
<path fill="none" stroke="#29235c" stroke-width="3" d="M384.57,-1307.75C528.58,-1307.75 498.73,-1111.29 634.59,-1102.08"/>
<polygon fill="#29235c" stroke="#29235c" stroke-width="3" points="634.79,-1105.58 644.67,-1101.75 634.56,-1098.58 634.79,-1105.58"/>
<text text-anchor="middle" x="635.77" y="-1111.35" font-family="Helvetica,sans-Serif" font-size="32.00" fill="#29235c">1</text>
<text text-anchor="middle" x="390.79" y="-1317.35" font-family="Helvetica,sans-Serif" font-size="32.00" fill="#29235c">*</text>
</g>
<!-- products&#45;&gt;merchants -->
<!-- products&#45;&gt;merchants -->
<g id="edge8" class="edge">
<title>products:e&#45;&gt;merchants:w</title>
<path fill="none" stroke="#29235c" stroke-width="3" d="M1013.67,-981.75C1165.64,-981.75 1101.33,-813.22 1170.2,-677.75 1222.21,-575.44 1174.36,-447.75 1279.34,-440.11"/>
<polygon fill="#29235c" stroke="#29235c" stroke-width="3" points="1279.76,-443.6 1289.63,-439.75 1279.51,-436.6 1279.76,-443.6"/>
<text text-anchor="middle" x="1280.73" y="-410.95" font-family="Helvetica,sans-Serif" font-size="32.00" fill="#29235c">1</text>
<text text-anchor="middle" x="1019.89" y="-991.35" font-family="Helvetica,sans-Serif" font-size="32.00" fill="#29235c">*</text>
</g>
</g>
</svg>
