<?xml version="1.0" encoding="UTF-8" standalone="no"?>
<!DOCTYPE svg PUBLIC "-//W3C//DTD SVG 1.1//EN"
 "http://www.w3.org/Graphics/SVG/1.1/DTD/svg11.dtd">
<!-- Generated by graphviz version 2.47.0 (20210316.0004)
 -->
<!-- Title: dbml Pages: 1 -->
<svg width="732pt" height="353pt"
 viewBox="0.00 0.00 732.08 353.07" xmlns="http://www.w3.org/2000/svg" xmlns:xlink="http://www.w3.org/1999/xlink">
<g id="graph0" class="graph" transform="scale(1 1) rotate(0) translate(4 349.07)">
<title>dbml</title>
<!-- my_table -->
<g id="my_table" class="node">
<title>my_table</title>
<ellipse fill="none" stroke="black" stroke-width="0" cx="362.04" cy="-172.53" rx="362.08" ry="172.57"/>
<polygon fill="#1d71b8" stroke="transparent" points="108.04,-232.53 108.04,-292.53 616.04,-292.53 616.04,-232.53 108.04,-232.53"/>
<polygon fill="none" stroke="#29235c" points="108.04,-232.53 108.04,-292.53 616.04,-292.53 616.04,-232.53 108.04,-232.53"/>
<text text-anchor="start" x="234.89" y="-253.73" font-family="Helvetica,sans-Serif" font-weight="bold" font-size="32.00" fill="#ffffff"> &#160;&#160;&#160;&#160;&#160;&#160;my_table &#160;&#160;&#160;&#160;&#160;&#160;</text>
<polygon fill="#e7e2dd" stroke="transparent" points="108.04,-172.53 108.04,-232.53 616.04,-232.53 616.04,-172.53 108.04,-172.53"/>
<polygon fill="none" stroke="#29235c" points="108.04,-172.53 108.04,-232.53 616.04,-232.53 616.04,-172.53 108.04,-172.53"/>
<text text-anchor="start" x="119.04" y="-192.73" font-family="Helvetica,sans-Serif" font-size="32.00" fill="#29235c">delete_timestamp &#160;&#160;&#160;</text>
<text text-anchor="start" x="457.48" y="-193.73" font-family="Helvetica,sans-Serif" font-style="italic" font-size="32.00" fill="#29235c">timestamp</text>
<polygon fill="#e7e2dd" stroke="transparent" points="108.04,-112.53 108.04,-172.53 616.04,-172.53 616.04,-112.53 108.04,-112.53"/>
<polygon fill="none" stroke="#29235c" points="108.04,-112.53 108.04,-172.53 616.04,-172.53 616.04,-112.53 108.04,-112.53"/>
<text text-anchor="start" x="119.04" y="-132.73" font-family="Helvetica,sans-Serif" font-size="32.00" fill="#29235c">buyer_code_id &#160;&#160;&#160;</text>
<text text-anchor="start" x="489.49" y="-133.73" font-family="Helvetica,sans-Serif" font-style="italic" font-size="32.00" fill="#29235c">bigint</text>
<text text-anchor="start" x="565.95" y="-133.73" font-family="Helvetica,sans-Serif" font-size="32.00" fill="#29235c"> </text>
<text text-anchor="start" x="574.84" y="-133.73" font-family="Helvetica,sans-Serif" font-weight="bold" font-size="32.00" fill="#29235c">(!)</text>
<polygon fill="#e7e2dd" stroke="transparent" points="108.04,-52.53 108.04,-112.53 616.04,-112.53 616.04,-52.53 108.04,-52.53"/>
<polygon fill="none" stroke="#29235c" points="108.04,-52.53 108.04,-112.53 616.04,-112.53 616.04,-52.53 108.04,-52.53"/>
<text text-anchor="start" x="118.67" y="-72.73" font-family="Helvetica,sans-Serif" font-size="32.00" fill="#29235c">buyer_code &#160;&#160;&#160;</text>
<text text-anchor="start" x="320.81" y="-73.73" font-family="Helvetica,sans-Serif" font-style="italic" font-size="32.00" fill="#29235c">character varying</text>
<text text-anchor="start" x="566.18" y="-73.73" font-family="Helvetica,sans-Serif" font-size="32.00" fill="#29235c"> </text>
<text text-anchor="start" x="575.07" y="-73.73" font-family="Helvetica,sans-Serif" font-weight="bold" font-size="32.00" fill="#29235c">(!)</text>
<polygon fill="none" stroke="#29235c" stroke-width="2" points="107.04,-51.53 107.04,-293.53 617.04,-293.53 617.04,-51.53 107.04,-51.53"/>
</g>
</g>
</svg>
