<?xml version="1.0" encoding="UTF-8" standalone="no"?>
<!DOCTYPE svg PUBLIC "-//W3C//DTD SVG 1.1//EN"
 "http://www.w3.org/Graphics/SVG/1.1/DTD/svg11.dtd">
<!-- Generated by graphviz version 2.44.1 (20200629.0846)
 -->
<!-- Title: dbml Pages: 1 -->
<svg width="2229pt" height="4036pt"
 viewBox="0.00 0.00 2228.84 4036.33" xmlns="http://www.w3.org/2000/svg" xmlns:xlink="http://www.w3.org/1999/xlink">
<g id="graph0" class="graph" transform="scale(1 1) rotate(0) translate(4 4032.33)">
<title>dbml</title>
<!-- user -->
<g id="user" class="node">
<title>user</title>
<ellipse fill="none" stroke="black" stroke-width="0" cx="1983.95" cy="-2074.24" rx="236.76" ry="342.48"/>
<polygon fill="#1d71b8" stroke="transparent" points="1818.95,-2254.24 1818.95,-2314.24 2149.95,-2314.24 2149.95,-2254.24 1818.95,-2254.24"/>
<polygon fill="none" stroke="#29235c" points="1818.95,-2254.24 1818.95,-2314.24 2149.95,-2314.24 2149.95,-2254.24 1818.95,-2254.24"/>
<text text-anchor="start" x="1891.09" y="-2275.44" font-family="Helvetica,sans-Serif" font-weight="bold" font-size="32.00" fill="#ffffff"> &#160;&#160;&#160;&#160;&#160;&#160;user &#160;&#160;&#160;&#160;&#160;&#160;</text>
<polygon fill="#e7e2dd" stroke="transparent" points="1818.95,-2194.24 1818.95,-2254.24 2149.95,-2254.24 2149.95,-2194.24 1818.95,-2194.24"/>
<polygon fill="none" stroke="#29235c" points="1818.95,-2194.24 1818.95,-2254.24 2149.95,-2254.24 2149.95,-2194.24 1818.95,-2194.24"/>
<text text-anchor="start" x="1972.01" y="-2214.44" font-family="Helvetica,sans-Serif" font-size="32.00" fill="#29235c">id</text>
<polygon fill="#e7e2dd" stroke="transparent" points="1818.95,-2134.24 1818.95,-2194.24 2149.95,-2194.24 2149.95,-2134.24 1818.95,-2134.24"/>
<polygon fill="none" stroke="#29235c" points="1818.95,-2134.24 1818.95,-2194.24 2149.95,-2194.24 2149.95,-2134.24 1818.95,-2134.24"/>
<text text-anchor="start" x="1829.78" y="-2155.44" font-family="Helvetica,sans-Serif" font-size="32.00" fill="#29235c">username </text>
<text text-anchor="start" x="1980.92" y="-2155.44" font-family="Helvetica,sans-Serif" font-style="italic" font-size="32.00" fill="#29235c">NOT NULL</text>
<polygon fill="#e7e2dd" stroke="transparent" points="1818.95,-2074.24 1818.95,-2134.24 2149.95,-2134.24 2149.95,-2074.24 1818.95,-2074.24"/>
<polygon fill="none" stroke="#29235c" points="1818.95,-2074.24 1818.95,-2134.24 2149.95,-2134.24 2149.95,-2074.24 1818.95,-2074.24"/>
<text text-anchor="start" x="1862.68" y="-2095.44" font-family="Helvetica,sans-Serif" font-size="32.00" fill="#29235c">email </text>
<text text-anchor="start" x="1948.01" y="-2095.44" font-family="Helvetica,sans-Serif" font-style="italic" font-size="32.00" fill="#29235c">NOT NULL</text>
<polygon fill="#e7e2dd" stroke="transparent" points="1818.95,-2014.24 1818.95,-2074.24 2149.95,-2074.24 2149.95,-2014.24 1818.95,-2014.24"/>
<polygon fill="none" stroke="#29235c" points="1818.95,-2014.24 1818.95,-2074.24 2149.95,-2074.24 2149.95,-2014.24 1818.95,-2014.24"/>
<text text-anchor="start" x="1864.43" y="-2034.44" font-family="Helvetica,sans-Serif" font-size="32.00" fill="#29235c">password_digest</text>
<polygon fill="#e7e2dd" stroke="transparent" points="1818.95,-1954.24 1818.95,-2014.24 2149.95,-2014.24 2149.95,-1954.24 1818.95,-1954.24"/>
<polygon fill="none" stroke="#29235c" points="1818.95,-1954.24 1818.95,-2014.24 2149.95,-2014.24 2149.95,-1954.24 1818.95,-1954.24"/>
<text text-anchor="start" x="1874.24" y="-1975.44" font-family="Helvetica,sans-Serif" font-size="32.00" fill="#29235c">role </text>
<text text-anchor="start" x="1936.46" y="-1975.44" font-family="Helvetica,sans-Serif" font-style="italic" font-size="32.00" fill="#29235c">NOT NULL</text>
<polygon fill="#e7e2dd" stroke="transparent" points="1818.95,-1894.24 1818.95,-1954.24 2149.95,-1954.24 2149.95,-1894.24 1818.95,-1894.24"/>
<polygon fill="none" stroke="#29235c" points="1818.95,-1894.24 1818.95,-1954.24 2149.95,-1954.24 2149.95,-1894.24 1818.95,-1894.24"/>
<text text-anchor="start" x="1908.87" y="-1914.44" font-family="Helvetica,sans-Serif" font-size="32.00" fill="#29235c">created_at</text>
<polygon fill="#e7e2dd" stroke="transparent" points="1818.95,-1834.24 1818.95,-1894.24 2149.95,-1894.24 2149.95,-1834.24 1818.95,-1834.24"/>
<polygon fill="none" stroke="#29235c" points="1818.95,-1834.24 1818.95,-1894.24 2149.95,-1894.24 2149.95,-1834.24 1818.95,-1834.24"/>
<text text-anchor="start" x="1904.41" y="-1854.44" font-family="Helvetica,sans-Serif" font-size="32.00" fill="#29235c">updated_at</text>
<polygon fill="none" stroke="#29235c" stroke-width="2" points="1817.45,-1833.24 1817.45,-2315.24 2150.45,-2315.24 2150.45,-1833.24 1817.45,-1833.24"/>
</g>
<!-- profile -->
<g id="profile" class="node">
<title>profile</title>
<ellipse fill="none" stroke="black" stroke-width="0" cx="900.79" cy="-2111.24" rx="210.94" ry="172.57"/>
<polygon fill="#1d71b8" stroke="transparent" points="753.79,-2171.24 753.79,-2231.24 1047.79,-2231.24 1047.79,-2171.24 753.79,-2171.24"/>
<polygon fill="none" stroke="#29235c" points="753.79,-2171.24 753.79,-2231.24 1047.79,-2231.24 1047.79,-2171.24 753.79,-2171.24"/>
<text text-anchor="start" x="794.99" y="-2192.44" font-family="Helvetica,sans-Serif" font-weight="bold" font-size="32.00" fill="#ffffff"> &#160;&#160;&#160;&#160;&#160;&#160;profile &#160;&#160;&#160;&#160;&#160;&#160;</text>
<polygon fill="#e7e2dd" stroke="transparent" points="753.79,-2111.24 753.79,-2171.24 1047.79,-2171.24 1047.79,-2111.24 753.79,-2111.24"/>
<polygon fill="none" stroke="#29235c" points="753.79,-2111.24 753.79,-2171.24 1047.79,-2171.24 1047.79,-2111.24 753.79,-2111.24"/>
<text text-anchor="start" x="888.35" y="-2131.44" font-family="Helvetica,sans-Serif" font-size="32.00" fill="#29235c">id</text>
<polygon fill="#e7e2dd" stroke="transparent" points="753.79,-2051.24 753.79,-2111.24 1047.79,-2111.24 1047.79,-2051.24 753.79,-2051.24"/>
<polygon fill="none" stroke="#29235c" points="753.79,-2051.24 753.79,-2111.24 1047.79,-2111.24 1047.79,-2051.24 753.79,-2051.24"/>
<text text-anchor="start" x="764.78" y="-2072.44" font-family="Helvetica,sans-Serif" font-size="32.00" fill="#29235c">user_id </text>
<text text-anchor="start" x="878.59" y="-2072.44" font-family="Helvetica,sans-Serif" font-style="italic" font-size="32.00" fill="#29235c">NOT NULL</text>
<polygon fill="#e7e2dd" stroke="transparent" points="753.79,-1991.24 753.79,-2051.24 1047.79,-2051.24 1047.79,-1991.24 753.79,-1991.24"/>
<polygon fill="none" stroke="#29235c" points="753.79,-1991.24 753.79,-2051.24 1047.79,-2051.24 1047.79,-1991.24 753.79,-1991.24"/>
<text text-anchor="start" x="825.21" y="-2011.44" font-family="Helvetica,sans-Serif" font-size="32.00" fill="#29235c">created_at</text>
<polygon fill="none" stroke="#29235c" stroke-width="2" points="752.79,-1990.24 752.79,-2232.24 1048.79,-2232.24 1048.79,-1990.24 752.79,-1990.24"/>
</g>
<!-- profile&#45;&gt;user -->
<!-- profile&#45;&gt;user -->
<g id="edge2" class="edge">
<title>profile:e&#45;&gt;user:w</title>
<path fill="none" stroke="#29235c" stroke-width="3" d="M1048.79,-2081.24C1348.09,-2081.24 1417.05,-2147.28 1711.07,-2203.24 1755.1,-2211.62 1767.72,-2222.48 1807.76,-2224.05"/>
<polygon fill="#29235c" stroke="#29235c" stroke-width="3" points="1807.89,-2227.55 1817.95,-2224.24 1808.02,-2220.55 1807.89,-2227.55"/>
<text text-anchor="middle" x="1826.85" y="-2195.44" font-family="Helvetica,sans-Serif" font-size="32.00" fill="#29235c">1</text>
<text text-anchor="middle" x="1039.9" y="-2052.44" font-family="Helvetica,sans-Serif" font-size="32.00" fill="#29235c">1</text>
</g>
<!-- basic_profile -->
<g id="basic_profile" class="node">
<title>basic_profile</title>
<ellipse fill="none" stroke="black" stroke-width="0" cx="303.35" cy="-1172.24" rx="233.19" ry="469.54"/>
<polygon fill="#1d71b8" stroke="transparent" points="140.35,-1442.24 140.35,-1502.24 466.35,-1502.24 466.35,-1442.24 140.35,-1442.24"/>
<polygon fill="none" stroke="#29235c" points="140.35,-1442.24 140.35,-1502.24 466.35,-1502.24 466.35,-1442.24 140.35,-1442.24"/>
<text text-anchor="start" x="151.31" y="-1463.44" font-family="Helvetica,sans-Serif" font-weight="bold" font-size="32.00" fill="#ffffff"> &#160;&#160;&#160;&#160;&#160;&#160;basic_profile &#160;&#160;&#160;&#160;&#160;&#160;</text>
<polygon fill="#e7e2dd" stroke="transparent" points="140.35,-1382.24 140.35,-1442.24 466.35,-1442.24 466.35,-1382.24 140.35,-1382.24"/>
<polygon fill="none" stroke="#29235c" points="140.35,-1382.24 140.35,-1442.24 466.35,-1442.24 466.35,-1382.24 140.35,-1382.24"/>
<text text-anchor="start" x="290.9" y="-1402.44" font-family="Helvetica,sans-Serif" font-size="32.00" fill="#29235c">id</text>
<polygon fill="#e7e2dd" stroke="transparent" points="140.35,-1322.24 140.35,-1382.24 466.35,-1382.24 466.35,-1322.24 140.35,-1322.24"/>
<polygon fill="none" stroke="#29235c" points="140.35,-1322.24 140.35,-1382.24 466.35,-1382.24 466.35,-1322.24 140.35,-1322.24"/>
<text text-anchor="start" x="154.9" y="-1343.44" font-family="Helvetica,sans-Serif" font-size="32.00" fill="#29235c">profile_id </text>
<text text-anchor="start" x="293.58" y="-1343.44" font-family="Helvetica,sans-Serif" font-style="italic" font-size="32.00" fill="#29235c">NOT NULL</text>
<polygon fill="#e7e2dd" stroke="transparent" points="140.35,-1262.24 140.35,-1322.24 466.35,-1322.24 466.35,-1262.24 140.35,-1262.24"/>
<polygon fill="none" stroke="#29235c" points="140.35,-1262.24 140.35,-1322.24 466.35,-1322.24 466.35,-1262.24 140.35,-1262.24"/>
<text text-anchor="start" x="258.89" y="-1282.44" font-family="Helvetica,sans-Serif" font-size="32.00" fill="#29235c">avatar</text>
<polygon fill="#e7e2dd" stroke="transparent" points="140.35,-1202.24 140.35,-1262.24 466.35,-1262.24 466.35,-1202.24 140.35,-1202.24"/>
<polygon fill="none" stroke="#29235c" points="140.35,-1202.24 140.35,-1262.24 466.35,-1262.24 466.35,-1202.24 140.35,-1202.24"/>
<text text-anchor="start" x="179.79" y="-1223.44" font-family="Helvetica,sans-Serif" font-size="32.00" fill="#29235c">name </text>
<text text-anchor="start" x="268.7" y="-1223.44" font-family="Helvetica,sans-Serif" font-style="italic" font-size="32.00" fill="#29235c">NOT NULL</text>
<polygon fill="#e7e2dd" stroke="transparent" points="140.35,-1142.24 140.35,-1202.24 466.35,-1202.24 466.35,-1142.24 140.35,-1142.24"/>
<polygon fill="none" stroke="#29235c" points="140.35,-1142.24 140.35,-1202.24 466.35,-1202.24 466.35,-1142.24 140.35,-1142.24"/>
<text text-anchor="start" x="188.68" y="-1163.44" font-family="Helvetica,sans-Serif" font-size="32.00" fill="#29235c">birth </text>
<text text-anchor="start" x="259.8" y="-1163.44" font-family="Helvetica,sans-Serif" font-style="italic" font-size="32.00" fill="#29235c">NOT NULL</text>
<polygon fill="#e7e2dd" stroke="transparent" points="140.35,-1082.24 140.35,-1142.24 466.35,-1142.24 466.35,-1082.24 140.35,-1082.24"/>
<polygon fill="none" stroke="#29235c" points="140.35,-1082.24 140.35,-1142.24 466.35,-1142.24 466.35,-1082.24 140.35,-1082.24"/>
<text text-anchor="start" x="279.35" y="-1102.44" font-family="Helvetica,sans-Serif" font-size="32.00" fill="#29235c">city</text>
<polygon fill="#e7e2dd" stroke="transparent" points="140.35,-1022.24 140.35,-1082.24 466.35,-1082.24 466.35,-1022.24 140.35,-1022.24"/>
<polygon fill="none" stroke="#29235c" points="140.35,-1022.24 140.35,-1082.24 466.35,-1082.24 466.35,-1022.24 140.35,-1022.24"/>
<text text-anchor="start" x="268.67" y="-1042.44" font-family="Helvetica,sans-Serif" font-size="32.00" fill="#29235c">state</text>
<polygon fill="#e7e2dd" stroke="transparent" points="140.35,-962.24 140.35,-1022.24 466.35,-1022.24 466.35,-962.24 140.35,-962.24"/>
<polygon fill="none" stroke="#29235c" points="140.35,-962.24 140.35,-1022.24 466.35,-1022.24 466.35,-962.24 140.35,-962.24"/>
<text text-anchor="start" x="250.89" y="-982.44" font-family="Helvetica,sans-Serif" font-size="32.00" fill="#29235c">country</text>
<polygon fill="#e7e2dd" stroke="transparent" points="140.35,-902.24 140.35,-962.24 466.35,-962.24 466.35,-902.24 140.35,-902.24"/>
<polygon fill="none" stroke="#29235c" points="140.35,-902.24 140.35,-962.24 466.35,-962.24 466.35,-902.24 140.35,-902.24"/>
<text text-anchor="start" x="255.36" y="-922.44" font-family="Helvetica,sans-Serif" font-size="32.00" fill="#29235c">skillset</text>
<polygon fill="#e7e2dd" stroke="transparent" points="140.35,-842.24 140.35,-902.24 466.35,-902.24 466.35,-842.24 140.35,-842.24"/>
<polygon fill="none" stroke="#29235c" points="140.35,-842.24 140.35,-902.24 466.35,-902.24 466.35,-842.24 140.35,-842.24"/>
<text text-anchor="start" x="185.99" y="-862.44" font-family="Helvetica,sans-Serif" font-size="32.00" fill="#29235c">career_objective</text>
<polygon fill="none" stroke="#29235c" stroke-width="2" points="139.35,-841.24 139.35,-1503.24 467.35,-1503.24 467.35,-841.24 139.35,-841.24"/>
</g>
<!-- basic_profile&#45;&gt;profile -->
<!-- basic_profile&#45;&gt;profile -->
<g id="edge4" class="edge">
<title>basic_profile:e&#45;&gt;profile:w</title>
<path fill="none" stroke="#29235c" stroke-width="3" d="M467.35,-1352.24C613.56,-1352.24 554.74,-1513.57 606.7,-1650.24 686.38,-1859.83 529.98,-2132.83 742.72,-2141.05"/>
<polygon fill="#29235c" stroke="#29235c" stroke-width="3" points="742.73,-2144.55 752.79,-2141.24 742.86,-2137.55 742.73,-2144.55"/>
<text text-anchor="middle" x="743.9" y="-2112.44" font-family="Helvetica,sans-Serif" font-size="32.00" fill="#29235c">1</text>
<text text-anchor="middle" x="458.45" y="-1323.44" font-family="Helvetica,sans-Serif" font-size="32.00" fill="#29235c">1</text>
</g>
<!-- education_profile -->
<g id="education_profile" class="node">
<title>education_profile</title>
<ellipse fill="none" stroke="black" stroke-width="0" cx="303.35" cy="-342.24" rx="278.7" ry="342.48"/>
<polygon fill="#1d71b8" stroke="transparent" points="108.35,-522.24 108.35,-582.24 498.35,-582.24 498.35,-522.24 108.35,-522.24"/>
<polygon fill="none" stroke="#29235c" points="108.35,-522.24 108.35,-582.24 498.35,-582.24 498.35,-522.24 108.35,-522.24"/>
<text text-anchor="start" x="119.28" y="-543.44" font-family="Helvetica,sans-Serif" font-weight="bold" font-size="32.00" fill="#ffffff"> &#160;&#160;&#160;&#160;&#160;&#160;education_profile &#160;&#160;&#160;&#160;&#160;&#160;</text>
<polygon fill="#e7e2dd" stroke="transparent" points="108.35,-462.24 108.35,-522.24 498.35,-522.24 498.35,-462.24 108.35,-462.24"/>
<polygon fill="none" stroke="#29235c" points="108.35,-462.24 108.35,-522.24 498.35,-522.24 498.35,-462.24 108.35,-462.24"/>
<text text-anchor="start" x="290.9" y="-482.44" font-family="Helvetica,sans-Serif" font-size="32.00" fill="#29235c">id</text>
<polygon fill="#e7e2dd" stroke="transparent" points="108.35,-402.24 108.35,-462.24 498.35,-462.24 498.35,-402.24 108.35,-402.24"/>
<polygon fill="none" stroke="#29235c" points="108.35,-402.24 108.35,-462.24 498.35,-462.24 498.35,-402.24 108.35,-402.24"/>
<text text-anchor="start" x="154.9" y="-423.44" font-family="Helvetica,sans-Serif" font-size="32.00" fill="#29235c">profile_id </text>
<text text-anchor="start" x="293.58" y="-423.44" font-family="Helvetica,sans-Serif" font-style="italic" font-size="32.00" fill="#29235c">NOT NULL</text>
<polygon fill="#e7e2dd" stroke="transparent" points="108.35,-342.24 108.35,-402.24 498.35,-402.24 498.35,-342.24 108.35,-342.24"/>
<polygon fill="none" stroke="#29235c" points="108.35,-342.24 108.35,-402.24 498.35,-402.24 498.35,-342.24 108.35,-342.24"/>
<text text-anchor="start" x="203.77" y="-362.44" font-family="Helvetica,sans-Serif" font-size="32.00" fill="#29235c">college_name</text>
<polygon fill="#e7e2dd" stroke="transparent" points="108.35,-282.24 108.35,-342.24 498.35,-342.24 498.35,-282.24 108.35,-282.24"/>
<polygon fill="none" stroke="#29235c" points="108.35,-282.24 108.35,-342.24 498.35,-342.24 498.35,-282.24 108.35,-282.24"/>
<text text-anchor="start" x="248.22" y="-302.44" font-family="Helvetica,sans-Serif" font-size="32.00" fill="#29235c">location</text>
<polygon fill="#e7e2dd" stroke="transparent" points="108.35,-222.24 108.35,-282.24 498.35,-282.24 498.35,-222.24 108.35,-222.24"/>
<polygon fill="none" stroke="#29235c" points="108.35,-222.24 108.35,-282.24 498.35,-282.24 498.35,-222.24 108.35,-222.24"/>
<text text-anchor="start" x="253.55" y="-242.44" font-family="Helvetica,sans-Serif" font-size="32.00" fill="#29235c">degree</text>
<polygon fill="#e7e2dd" stroke="transparent" points="108.35,-162.24 108.35,-222.24 498.35,-222.24 498.35,-162.24 108.35,-162.24"/>
<polygon fill="none" stroke="#29235c" points="108.35,-162.24 108.35,-222.24 498.35,-222.24 498.35,-162.24 108.35,-162.24"/>
<text text-anchor="start" x="263.36" y="-182.44" font-family="Helvetica,sans-Serif" font-size="32.00" fill="#29235c">major</text>
<polygon fill="#e7e2dd" stroke="transparent" points="108.35,-102.24 108.35,-162.24 498.35,-162.24 498.35,-102.24 108.35,-102.24"/>
<polygon fill="none" stroke="#29235c" points="108.35,-102.24 108.35,-162.24 498.35,-162.24 498.35,-102.24 108.35,-102.24"/>
<text text-anchor="start" x="185.98" y="-122.44" font-family="Helvetica,sans-Serif" font-size="32.00" fill="#29235c">year_of_passing</text>
<polygon fill="none" stroke="#29235c" stroke-width="2" points="107.35,-101.24 107.35,-583.24 499.35,-583.24 499.35,-101.24 107.35,-101.24"/>
</g>
<!-- education_profile&#45;&gt;profile -->
<!-- education_profile&#45;&gt;profile -->
<g id="edge6" class="edge">
<title>education_profile:e&#45;&gt;profile:w</title>
<path fill="none" stroke="#29235c" stroke-width="3" d="M499.35,-432.24C624.78,-432.24 576.23,-571.57 606.7,-693.24 645.14,-846.73 593.4,-2086.28 742.67,-2139.48"/>
<polygon fill="#29235c" stroke="#29235c" stroke-width="3" points="742.34,-2142.97 752.79,-2141.24 743.54,-2136.08 742.34,-2142.97"/>
<text text-anchor="middle" x="743.9" y="-2150.84" font-family="Helvetica,sans-Serif" font-size="32.00" fill="#29235c">1</text>
<text text-anchor="middle" x="493.13" y="-403.44" font-family="Helvetica,sans-Serif" font-size="32.00" fill="#29235c">*</text>
</g>
<!-- experience_profile -->
<g id="experience_profile" class="node">
<title>experience_profile</title>
<ellipse fill="none" stroke="black" stroke-width="0" cx="303.35" cy="-2044.24" rx="290.74" ry="384.83"/>
<polygon fill="#1d71b8" stroke="transparent" points="100.35,-2254.24 100.35,-2314.24 507.35,-2314.24 507.35,-2254.24 100.35,-2254.24"/>
<polygon fill="none" stroke="#29235c" points="100.35,-2254.24 100.35,-2314.24 507.35,-2314.24 507.35,-2254.24 100.35,-2254.24"/>
<text text-anchor="start" x="110.9" y="-2275.44" font-family="Helvetica,sans-Serif" font-weight="bold" font-size="32.00" fill="#ffffff"> &#160;&#160;&#160;&#160;&#160;&#160;experience_profile &#160;&#160;&#160;&#160;&#160;&#160;</text>
<polygon fill="#e7e2dd" stroke="transparent" points="100.35,-2194.24 100.35,-2254.24 507.35,-2254.24 507.35,-2194.24 100.35,-2194.24"/>
<polygon fill="none" stroke="#29235c" points="100.35,-2194.24 100.35,-2254.24 507.35,-2254.24 507.35,-2194.24 100.35,-2194.24"/>
<text text-anchor="start" x="291.4" y="-2214.44" font-family="Helvetica,sans-Serif" font-size="32.00" fill="#29235c">id</text>
<polygon fill="#e7e2dd" stroke="transparent" points="100.35,-2134.24 100.35,-2194.24 507.35,-2194.24 507.35,-2134.24 100.35,-2134.24"/>
<polygon fill="none" stroke="#29235c" points="100.35,-2134.24 100.35,-2194.24 507.35,-2194.24 507.35,-2134.24 100.35,-2134.24"/>
<text text-anchor="start" x="155.4" y="-2155.44" font-family="Helvetica,sans-Serif" font-size="32.00" fill="#29235c">profile_id </text>
<text text-anchor="start" x="294.08" y="-2155.44" font-family="Helvetica,sans-Serif" font-style="italic" font-size="32.00" fill="#29235c">NOT NULL</text>
<polygon fill="#e7e2dd" stroke="transparent" points="100.35,-2074.24 100.35,-2134.24 507.35,-2134.24 507.35,-2074.24 100.35,-2074.24"/>
<polygon fill="none" stroke="#29235c" points="100.35,-2074.24 100.35,-2134.24 507.35,-2134.24 507.35,-2074.24 100.35,-2074.24"/>
<text text-anchor="start" x="190.04" y="-2094.44" font-family="Helvetica,sans-Serif" font-size="32.00" fill="#29235c">company_name</text>
<polygon fill="#e7e2dd" stroke="transparent" points="100.35,-2014.24 100.35,-2074.24 507.35,-2074.24 507.35,-2014.24 100.35,-2014.24"/>
<polygon fill="none" stroke="#29235c" points="100.35,-2014.24 100.35,-2074.24 507.35,-2074.24 507.35,-2014.24 100.35,-2014.24"/>
<text text-anchor="start" x="278.96" y="-2034.44" font-family="Helvetica,sans-Serif" font-size="32.00" fill="#29235c">title</text>
<polygon fill="#e7e2dd" stroke="transparent" points="100.35,-1954.24 100.35,-2014.24 507.35,-2014.24 507.35,-1954.24 100.35,-1954.24"/>
<polygon fill="none" stroke="#29235c" points="100.35,-1954.24 100.35,-2014.24 507.35,-2014.24 507.35,-1954.24 100.35,-1954.24"/>
<text text-anchor="start" x="248.72" y="-1974.44" font-family="Helvetica,sans-Serif" font-size="32.00" fill="#29235c">location</text>
<polygon fill="#e7e2dd" stroke="transparent" points="100.35,-1894.24 100.35,-1954.24 507.35,-1954.24 507.35,-1894.24 100.35,-1894.24"/>
<polygon fill="none" stroke="#29235c" points="100.35,-1894.24 100.35,-1954.24 507.35,-1954.24 507.35,-1894.24 100.35,-1894.24"/>
<text text-anchor="start" x="232.71" y="-1914.44" font-family="Helvetica,sans-Serif" font-size="32.00" fill="#29235c">start_date</text>
<polygon fill="#e7e2dd" stroke="transparent" points="100.35,-1834.24 100.35,-1894.24 507.35,-1894.24 507.35,-1834.24 100.35,-1834.24"/>
<polygon fill="none" stroke="#29235c" points="100.35,-1834.24 100.35,-1894.24 507.35,-1894.24 507.35,-1834.24 100.35,-1834.24"/>
<text text-anchor="start" x="237.14" y="-1854.44" font-family="Helvetica,sans-Serif" font-size="32.00" fill="#29235c">end_date</text>
<polygon fill="#e7e2dd" stroke="transparent" points="100.35,-1774.24 100.35,-1834.24 507.35,-1834.24 507.35,-1774.24 100.35,-1774.24"/>
<polygon fill="none" stroke="#29235c" points="100.35,-1774.24 100.35,-1834.24 507.35,-1834.24 507.35,-1774.24 100.35,-1774.24"/>
<text text-anchor="start" x="183.84" y="-1794.44" font-family="Helvetica,sans-Serif" font-size="32.00" fill="#29235c">work_description</text>
<polygon fill="none" stroke="#29235c" stroke-width="2" points="98.85,-1773.24 98.85,-2315.24 507.85,-2315.24 507.85,-1773.24 98.85,-1773.24"/>
</g>
<!-- experience_profile&#45;&gt;profile -->
<!-- experience_profile&#45;&gt;profile -->
<g id="edge8" class="edge">
<title>experience_profile:e&#45;&gt;profile:w</title>
<path fill="none" stroke="#29235c" stroke-width="3" d="M508.35,-2164.24C613.95,-2164.24 641.9,-2142.7 742.49,-2141.31"/>
<polygon fill="#29235c" stroke="#29235c" stroke-width="3" points="742.82,-2144.81 752.79,-2141.24 742.77,-2137.81 742.82,-2144.81"/>
<text text-anchor="middle" x="761.69" y="-2112.44" font-family="Helvetica,sans-Serif" font-size="32.00" fill="#29235c">1</text>
<text text-anchor="middle" x="502.13" y="-2135.44" font-family="Helvetica,sans-Serif" font-size="32.00" fill="#29235c">*</text>
</g>
<!-- company -->
<g id="company" class="node">
<title>company</title>
<ellipse fill="none" stroke="black" stroke-width="0" cx="1452.98" cy="-2759.24" rx="258.19" ry="384.83"/>
<polygon fill="#1d71b8" stroke="transparent" points="1272.98,-2969.24 1272.98,-3029.24 1633.98,-3029.24 1633.98,-2969.24 1272.98,-2969.24"/>
<polygon fill="none" stroke="#29235c" points="1272.98,-2969.24 1272.98,-3029.24 1633.98,-3029.24 1633.98,-2969.24 1272.98,-2969.24"/>
<text text-anchor="start" x="1326.33" y="-2990.44" font-family="Helvetica,sans-Serif" font-weight="bold" font-size="32.00" fill="#ffffff"> &#160;&#160;&#160;&#160;&#160;&#160;company &#160;&#160;&#160;&#160;&#160;&#160;</text>
<polygon fill="#e7e2dd" stroke="transparent" points="1272.98,-2909.24 1272.98,-2969.24 1633.98,-2969.24 1633.98,-2909.24 1272.98,-2909.24"/>
<polygon fill="none" stroke="#29235c" points="1272.98,-2909.24 1272.98,-2969.24 1633.98,-2969.24 1633.98,-2909.24 1272.98,-2909.24"/>
<text text-anchor="start" x="1441.03" y="-2929.44" font-family="Helvetica,sans-Serif" font-size="32.00" fill="#29235c">id</text>
<polygon fill="#e7e2dd" stroke="transparent" points="1272.98,-2849.24 1272.98,-2909.24 1633.98,-2909.24 1633.98,-2849.24 1272.98,-2849.24"/>
<polygon fill="none" stroke="#29235c" points="1272.98,-2849.24 1272.98,-2909.24 1633.98,-2909.24 1633.98,-2849.24 1272.98,-2849.24"/>
<text text-anchor="start" x="1283.68" y="-2870.44" font-family="Helvetica,sans-Serif" font-size="32.00" fill="#29235c">company_id </text>
<text text-anchor="start" x="1465.06" y="-2870.44" font-family="Helvetica,sans-Serif" font-style="italic" font-size="32.00" fill="#29235c">NOT NULL</text>
<polygon fill="#e7e2dd" stroke="transparent" points="1272.98,-2789.24 1272.98,-2849.24 1633.98,-2849.24 1633.98,-2789.24 1272.98,-2789.24"/>
<polygon fill="none" stroke="#29235c" points="1272.98,-2789.24 1272.98,-2849.24 1633.98,-2849.24 1633.98,-2789.24 1272.98,-2789.24"/>
<text text-anchor="start" x="1409.02" y="-2809.44" font-family="Helvetica,sans-Serif" font-size="32.00" fill="#29235c">avatar</text>
<polygon fill="#e7e2dd" stroke="transparent" points="1272.98,-2729.24 1272.98,-2789.24 1633.98,-2789.24 1633.98,-2729.24 1272.98,-2729.24"/>
<polygon fill="none" stroke="#29235c" points="1272.98,-2729.24 1272.98,-2789.24 1633.98,-2789.24 1633.98,-2729.24 1272.98,-2729.24"/>
<text text-anchor="start" x="1413.47" y="-2749.44" font-family="Helvetica,sans-Serif" font-size="32.00" fill="#29235c">name</text>
<polygon fill="#e7e2dd" stroke="transparent" points="1272.98,-2669.24 1272.98,-2729.24 1633.98,-2729.24 1633.98,-2669.24 1272.98,-2669.24"/>
<polygon fill="none" stroke="#29235c" points="1272.98,-2669.24 1272.98,-2729.24 1633.98,-2729.24 1633.98,-2669.24 1272.98,-2669.24"/>
<text text-anchor="start" x="1398.35" y="-2689.44" font-family="Helvetica,sans-Serif" font-size="32.00" fill="#29235c">location</text>
<polygon fill="#e7e2dd" stroke="transparent" points="1272.98,-2609.24 1272.98,-2669.24 1633.98,-2669.24 1633.98,-2609.24 1272.98,-2609.24"/>
<polygon fill="none" stroke="#29235c" points="1272.98,-2609.24 1272.98,-2669.24 1633.98,-2669.24 1633.98,-2609.24 1272.98,-2609.24"/>
<text text-anchor="start" x="1376.13" y="-2629.44" font-family="Helvetica,sans-Serif" font-size="32.00" fill="#29235c">description</text>
<polygon fill="#e7e2dd" stroke="transparent" points="1272.98,-2549.24 1272.98,-2609.24 1633.98,-2609.24 1633.98,-2549.24 1272.98,-2549.24"/>
<polygon fill="none" stroke="#29235c" points="1272.98,-2549.24 1272.98,-2609.24 1633.98,-2609.24 1633.98,-2549.24 1272.98,-2549.24"/>
<text text-anchor="start" x="1349.47" y="-2569.44" font-family="Helvetica,sans-Serif" font-size="32.00" fill="#29235c">contract_email</text>
<polygon fill="#e7e2dd" stroke="transparent" points="1272.98,-2489.24 1272.98,-2549.24 1633.98,-2549.24 1633.98,-2489.24 1272.98,-2489.24"/>
<polygon fill="none" stroke="#29235c" points="1272.98,-2489.24 1272.98,-2549.24 1633.98,-2549.24 1633.98,-2489.24 1272.98,-2489.24"/>
<text text-anchor="start" x="1343.21" y="-2509.44" font-family="Helvetica,sans-Serif" font-size="32.00" fill="#29235c">contract_phone</text>
<polygon fill="none" stroke="#29235c" stroke-width="2" points="1271.48,-2488.24 1271.48,-3030.24 1634.48,-3030.24 1634.48,-2488.24 1271.48,-2488.24"/>
</g>
<!-- company&#45;&gt;user -->
<!-- company&#45;&gt;user -->
<g id="edge10" class="edge">
<title>company:e&#45;&gt;user:w</title>
<path fill="none" stroke="#29235c" stroke-width="3" d="M1634.98,-2879.24C1933.69,-2879.24 1525.48,-2239.5 1807.62,-2224.51"/>
<polygon fill="#29235c" stroke="#29235c" stroke-width="3" points="1808.05,-2228 1817.95,-2224.24 1807.87,-2221 1808.05,-2228"/>
<text text-anchor="middle" x="1826.85" y="-2233.84" font-family="Helvetica,sans-Serif" font-size="32.00" fill="#29235c">1</text>
<text text-anchor="middle" x="1643.87" y="-2850.44" font-family="Helvetica,sans-Serif" font-size="32.00" fill="#29235c">1</text>
</g>
<!-- job -->
<g id="job" class="node">
<title>job</title>
<ellipse fill="none" stroke="black" stroke-width="0" cx="900.79" cy="-2729.24" rx="258.19" ry="427.19"/>
<polygon fill="#1d71b8" stroke="transparent" points="720.79,-2969.24 720.79,-3029.24 1081.79,-3029.24 1081.79,-2969.24 720.79,-2969.24"/>
<polygon fill="none" stroke="#29235c" points="720.79,-2969.24 720.79,-3029.24 1081.79,-3029.24 1081.79,-2969.24 720.79,-2969.24"/>
<text text-anchor="start" x="817.7" y="-2990.44" font-family="Helvetica,sans-Serif" font-weight="bold" font-size="32.00" fill="#ffffff"> &#160;&#160;&#160;&#160;&#160;&#160;job &#160;&#160;&#160;&#160;&#160;&#160;</text>
<polygon fill="#e7e2dd" stroke="transparent" points="720.79,-2909.24 720.79,-2969.24 1081.79,-2969.24 1081.79,-2909.24 720.79,-2909.24"/>
<polygon fill="none" stroke="#29235c" points="720.79,-2909.24 720.79,-2969.24 1081.79,-2969.24 1081.79,-2909.24 720.79,-2909.24"/>
<text text-anchor="start" x="888.85" y="-2929.44" font-family="Helvetica,sans-Serif" font-size="32.00" fill="#29235c">id</text>
<polygon fill="#e7e2dd" stroke="transparent" points="720.79,-2849.24 720.79,-2909.24 1081.79,-2909.24 1081.79,-2849.24 720.79,-2849.24"/>
<polygon fill="none" stroke="#29235c" points="720.79,-2849.24 720.79,-2909.24 1081.79,-2909.24 1081.79,-2849.24 720.79,-2849.24"/>
<text text-anchor="start" x="731.49" y="-2870.44" font-family="Helvetica,sans-Serif" font-size="32.00" fill="#29235c">company_id </text>
<text text-anchor="start" x="912.87" y="-2870.44" font-family="Helvetica,sans-Serif" font-style="italic" font-size="32.00" fill="#29235c">NOT NULL</text>
<polygon fill="#e7e2dd" stroke="transparent" points="720.79,-2789.24 720.79,-2849.24 1081.79,-2849.24 1081.79,-2789.24 720.79,-2789.24"/>
<polygon fill="none" stroke="#29235c" points="720.79,-2789.24 720.79,-2849.24 1081.79,-2849.24 1081.79,-2789.24 720.79,-2789.24"/>
<text text-anchor="start" x="876.4" y="-2809.44" font-family="Helvetica,sans-Serif" font-size="32.00" fill="#29235c">title</text>
<polygon fill="#e7e2dd" stroke="transparent" points="720.79,-2729.24 720.79,-2789.24 1081.79,-2789.24 1081.79,-2729.24 720.79,-2729.24"/>
<polygon fill="none" stroke="#29235c" points="720.79,-2729.24 720.79,-2789.24 1081.79,-2789.24 1081.79,-2729.24 720.79,-2729.24"/>
<text text-anchor="start" x="825.71" y="-2749.44" font-family="Helvetica,sans-Serif" font-size="32.00" fill="#29235c">created_at</text>
<polygon fill="#e7e2dd" stroke="transparent" points="720.79,-2669.24 720.79,-2729.24 1081.79,-2729.24 1081.79,-2669.24 720.79,-2669.24"/>
<polygon fill="none" stroke="#29235c" points="720.79,-2669.24 720.79,-2729.24 1081.79,-2729.24 1081.79,-2669.24 720.79,-2669.24"/>
<text text-anchor="start" x="755.47" y="-2689.44" font-family="Helvetica,sans-Serif" font-size="32.00" fill="#29235c">application_deadline</text>
<polygon fill="#e7e2dd" stroke="transparent" points="720.79,-2609.24 720.79,-2669.24 1081.79,-2669.24 1081.79,-2609.24 720.79,-2609.24"/>
<polygon fill="none" stroke="#29235c" points="720.79,-2609.24 720.79,-2669.24 1081.79,-2669.24 1081.79,-2609.24 720.79,-2609.24"/>
<text text-anchor="start" x="846.17" y="-2629.44" font-family="Helvetica,sans-Serif" font-size="32.00" fill="#29235c">location</text>
<polygon fill="#e7e2dd" stroke="transparent" points="720.79,-2549.24 720.79,-2609.24 1081.79,-2609.24 1081.79,-2549.24 720.79,-2549.24"/>
<polygon fill="none" stroke="#29235c" points="720.79,-2549.24 720.79,-2609.24 1081.79,-2609.24 1081.79,-2549.24 720.79,-2549.24"/>
<text text-anchor="start" x="858.63" y="-2569.44" font-family="Helvetica,sans-Serif" font-size="32.00" fill="#29235c">salary</text>
<polygon fill="#e7e2dd" stroke="transparent" points="720.79,-2489.24 720.79,-2549.24 1081.79,-2549.24 1081.79,-2489.24 720.79,-2489.24"/>
<polygon fill="none" stroke="#29235c" points="720.79,-2489.24 720.79,-2549.24 1081.79,-2549.24 1081.79,-2489.24 720.79,-2489.24"/>
<text text-anchor="start" x="867.5" y="-2509.44" font-family="Helvetica,sans-Serif" font-size="32.00" fill="#29235c">desc</text>
<polygon fill="#e7e2dd" stroke="transparent" points="720.79,-2429.24 720.79,-2489.24 1081.79,-2489.24 1081.79,-2429.24 720.79,-2429.24"/>
<polygon fill="none" stroke="#29235c" points="720.79,-2429.24 720.79,-2489.24 1081.79,-2489.24 1081.79,-2429.24 720.79,-2429.24"/>
<text text-anchor="start" x="839.94" y="-2449.44" font-family="Helvetica,sans-Serif" font-size="32.00" fill="#29235c">category</text>
<polygon fill="none" stroke="#29235c" stroke-width="2" points="719.29,-2428.24 719.29,-3030.24 1082.29,-3030.24 1082.29,-2428.24 719.29,-2428.24"/>
</g>
<!-- job&#45;&gt;company -->
<!-- job&#45;&gt;company -->
<g id="edge12" class="edge">
<title>job:e&#45;&gt;company:w</title>
<path fill="none" stroke="#29235c" stroke-width="3" d="M1082.79,-2879.24C1167.56,-2879.24 1182.66,-2934.64 1261.98,-2938.97"/>
<polygon fill="#29235c" stroke="#29235c" stroke-width="3" points="1261.89,-2942.47 1271.98,-2939.24 1262.08,-2935.47 1261.89,-2942.47"/>
<text text-anchor="middle" x="1280.87" y="-2910.44" font-family="Helvetica,sans-Serif" font-size="32.00" fill="#29235c">1</text>
<text text-anchor="middle" x="1076.57" y="-2850.44" font-family="Helvetica,sans-Serif" font-size="32.00" fill="#29235c">*</text>
</g>
<!-- job_application -->
<g id="job_application" class="node">
<title>job_application</title>
<ellipse fill="none" stroke="black" stroke-width="0" cx="303.35" cy="-2789.24" rx="256.86" ry="342.48"/>
<polygon fill="#1d71b8" stroke="transparent" points="124.35,-2969.24 124.35,-3029.24 483.35,-3029.24 483.35,-2969.24 124.35,-2969.24"/>
<polygon fill="none" stroke="#29235c" points="124.35,-2969.24 124.35,-3029.24 483.35,-3029.24 483.35,-2969.24 124.35,-2969.24"/>
<text text-anchor="start" x="134.9" y="-2990.44" font-family="Helvetica,sans-Serif" font-weight="bold" font-size="32.00" fill="#ffffff"> &#160;&#160;&#160;&#160;&#160;&#160;job_application &#160;&#160;&#160;&#160;&#160;&#160;</text>
<polygon fill="#e7e2dd" stroke="transparent" points="124.35,-2909.24 124.35,-2969.24 483.35,-2969.24 483.35,-2909.24 124.35,-2909.24"/>
<polygon fill="none" stroke="#29235c" points="124.35,-2909.24 124.35,-2969.24 483.35,-2969.24 483.35,-2909.24 124.35,-2909.24"/>
<text text-anchor="start" x="291.4" y="-2929.44" font-family="Helvetica,sans-Serif" font-size="32.00" fill="#29235c">id</text>
<polygon fill="#e7e2dd" stroke="transparent" points="124.35,-2849.24 124.35,-2909.24 483.35,-2909.24 483.35,-2849.24 124.35,-2849.24"/>
<polygon fill="none" stroke="#29235c" points="124.35,-2849.24 124.35,-2909.24 483.35,-2909.24 483.35,-2849.24 124.35,-2849.24"/>
<text text-anchor="start" x="177.62" y="-2870.44" font-family="Helvetica,sans-Serif" font-size="32.00" fill="#29235c">job_id </text>
<text text-anchor="start" x="271.87" y="-2870.44" font-family="Helvetica,sans-Serif" font-style="italic" font-size="32.00" fill="#29235c">NOT NULL</text>
<polygon fill="#e7e2dd" stroke="transparent" points="124.35,-2789.24 124.35,-2849.24 483.35,-2849.24 483.35,-2789.24 124.35,-2789.24"/>
<polygon fill="none" stroke="#29235c" points="124.35,-2789.24 124.35,-2849.24 483.35,-2849.24 483.35,-2789.24 124.35,-2789.24"/>
<text text-anchor="start" x="134.94" y="-2810.44" font-family="Helvetica,sans-Serif" font-size="32.00" fill="#29235c">applicant_id </text>
<text text-anchor="start" x="314.55" y="-2810.44" font-family="Helvetica,sans-Serif" font-style="italic" font-size="32.00" fill="#29235c">NOT NULL</text>
<polygon fill="#e7e2dd" stroke="transparent" points="124.35,-2729.24 124.35,-2789.24 483.35,-2789.24 483.35,-2729.24 124.35,-2729.24"/>
<polygon fill="none" stroke="#29235c" points="124.35,-2729.24 124.35,-2789.24 483.35,-2789.24 483.35,-2729.24 124.35,-2729.24"/>
<text text-anchor="start" x="250.51" y="-2749.44" font-family="Helvetica,sans-Serif" font-size="32.00" fill="#29235c">resume</text>
<polygon fill="#e7e2dd" stroke="transparent" points="124.35,-2669.24 124.35,-2729.24 483.35,-2729.24 483.35,-2669.24 124.35,-2669.24"/>
<polygon fill="none" stroke="#29235c" points="124.35,-2669.24 124.35,-2729.24 483.35,-2729.24 483.35,-2669.24 124.35,-2669.24"/>
<text text-anchor="start" x="261.17" y="-2689.44" font-family="Helvetica,sans-Serif" font-size="32.00" fill="#29235c">status</text>
<polygon fill="#e7e2dd" stroke="transparent" points="124.35,-2609.24 124.35,-2669.24 483.35,-2669.24 483.35,-2609.24 124.35,-2609.24"/>
<polygon fill="none" stroke="#29235c" points="124.35,-2609.24 124.35,-2669.24 483.35,-2669.24 483.35,-2609.24 124.35,-2609.24"/>
<text text-anchor="start" x="228.26" y="-2629.44" font-family="Helvetica,sans-Serif" font-size="32.00" fill="#29235c">created_at</text>
<polygon fill="#e7e2dd" stroke="transparent" points="124.35,-2549.24 124.35,-2609.24 483.35,-2609.24 483.35,-2549.24 124.35,-2549.24"/>
<polygon fill="none" stroke="#29235c" points="124.35,-2549.24 124.35,-2609.24 483.35,-2609.24 483.35,-2549.24 124.35,-2549.24"/>
<text text-anchor="start" x="223.8" y="-2569.44" font-family="Helvetica,sans-Serif" font-size="32.00" fill="#29235c">updated_at</text>
<polygon fill="none" stroke="#29235c" stroke-width="2" points="122.85,-2548.24 122.85,-3030.24 483.85,-3030.24 483.85,-2548.24 122.85,-2548.24"/>
</g>
<!-- job_application&#45;&gt;profile -->
<!-- job_application&#45;&gt;profile -->
<g id="edge16" class="edge">
<title>job_application:e&#45;&gt;profile:w</title>
<path fill="none" stroke="#29235c" stroke-width="3" d="M484.35,-2819.24C804.96,-2819.24 436.78,-2155.73 742.59,-2141.47"/>
<polygon fill="#29235c" stroke="#29235c" stroke-width="3" points="742.87,-2144.97 752.79,-2141.24 742.71,-2137.97 742.87,-2144.97"/>
<text text-anchor="middle" x="761.69" y="-2150.84" font-family="Helvetica,sans-Serif" font-size="32.00" fill="#29235c">1</text>
<text text-anchor="middle" x="478.13" y="-2790.44" font-family="Helvetica,sans-Serif" font-size="32.00" fill="#29235c">*</text>
</g>
<!-- job_application&#45;&gt;job -->
<!-- job_application&#45;&gt;job -->
<g id="edge14" class="edge">
<title>job_application:e&#45;&gt;job:w</title>
<path fill="none" stroke="#29235c" stroke-width="3" d="M484.35,-2879.24C588.85,-2879.24 610.46,-2935.43 709.62,-2939.06"/>
<polygon fill="#29235c" stroke="#29235c" stroke-width="3" points="709.73,-2942.56 719.79,-2939.24 709.86,-2935.56 709.73,-2942.56"/>
<text text-anchor="middle" x="710.9" y="-2910.44" font-family="Helvetica,sans-Serif" font-size="32.00" fill="#29235c">1</text>
<text text-anchor="middle" x="478.13" y="-2850.44" font-family="Helvetica,sans-Serif" font-size="32.00" fill="#29235c">*</text>
</g>
<!-- event -->
<g id="event" class="node">
<title>event</title>
<ellipse fill="none" stroke="black" stroke-width="0" cx="900.79" cy="-3601.24" rx="258.19" ry="427.19"/>
<polygon fill="#1d71b8" stroke="transparent" points="720.79,-3841.24 720.79,-3901.24 1081.79,-3901.24 1081.79,-3841.24 720.79,-3841.24"/>
<polygon fill="none" stroke="#29235c" points="720.79,-3841.24 720.79,-3901.24 1081.79,-3901.24 1081.79,-3841.24 720.79,-3841.24"/>
<text text-anchor="start" x="799.91" y="-3862.44" font-family="Helvetica,sans-Serif" font-weight="bold" font-size="32.00" fill="#ffffff"> &#160;&#160;&#160;&#160;&#160;&#160;event &#160;&#160;&#160;&#160;&#160;&#160;</text>
<polygon fill="#e7e2dd" stroke="transparent" points="720.79,-3781.24 720.79,-3841.24 1081.79,-3841.24 1081.79,-3781.24 720.79,-3781.24"/>
<polygon fill="none" stroke="#29235c" points="720.79,-3781.24 720.79,-3841.24 1081.79,-3841.24 1081.79,-3781.24 720.79,-3781.24"/>
<text text-anchor="start" x="888.85" y="-3801.44" font-family="Helvetica,sans-Serif" font-size="32.00" fill="#29235c">id</text>
<polygon fill="#e7e2dd" stroke="transparent" points="720.79,-3721.24 720.79,-3781.24 1081.79,-3781.24 1081.79,-3721.24 720.79,-3721.24"/>
<polygon fill="none" stroke="#29235c" points="720.79,-3721.24 720.79,-3781.24 1081.79,-3781.24 1081.79,-3721.24 720.79,-3721.24"/>
<text text-anchor="start" x="731.49" y="-3742.44" font-family="Helvetica,sans-Serif" font-size="32.00" fill="#29235c">company_id </text>
<text text-anchor="start" x="912.87" y="-3742.44" font-family="Helvetica,sans-Serif" font-style="italic" font-size="32.00" fill="#29235c">NOT NULL</text>
<polygon fill="#e7e2dd" stroke="transparent" points="720.79,-3661.24 720.79,-3721.24 1081.79,-3721.24 1081.79,-3661.24 720.79,-3661.24"/>
<polygon fill="none" stroke="#29235c" points="720.79,-3661.24 720.79,-3721.24 1081.79,-3721.24 1081.79,-3661.24 720.79,-3661.24"/>
<text text-anchor="start" x="861.28" y="-3681.44" font-family="Helvetica,sans-Serif" font-size="32.00" fill="#29235c">name</text>
<polygon fill="#e7e2dd" stroke="transparent" points="720.79,-3601.24 720.79,-3661.24 1081.79,-3661.24 1081.79,-3601.24 720.79,-3601.24"/>
<polygon fill="none" stroke="#29235c" points="720.79,-3601.24 720.79,-3661.24 1081.79,-3661.24 1081.79,-3601.24 720.79,-3601.24"/>
<text text-anchor="start" x="823.95" y="-3621.44" font-family="Helvetica,sans-Serif" font-size="32.00" fill="#29235c">description</text>
<polygon fill="#e7e2dd" stroke="transparent" points="720.79,-3541.24 720.79,-3601.24 1081.79,-3601.24 1081.79,-3541.24 720.79,-3541.24"/>
<polygon fill="none" stroke="#29235c" points="720.79,-3541.24 720.79,-3601.24 1081.79,-3601.24 1081.79,-3541.24 720.79,-3541.24"/>
<text text-anchor="start" x="871.07" y="-3561.44" font-family="Helvetica,sans-Serif" font-size="32.00" fill="#29235c">time</text>
<polygon fill="#e7e2dd" stroke="transparent" points="720.79,-3481.24 720.79,-3541.24 1081.79,-3541.24 1081.79,-3481.24 720.79,-3481.24"/>
<polygon fill="none" stroke="#29235c" points="720.79,-3481.24 720.79,-3541.24 1081.79,-3541.24 1081.79,-3481.24 720.79,-3481.24"/>
<text text-anchor="start" x="846.17" y="-3501.44" font-family="Helvetica,sans-Serif" font-size="32.00" fill="#29235c">location</text>
<polygon fill="#e7e2dd" stroke="transparent" points="720.79,-3421.24 720.79,-3481.24 1081.79,-3481.24 1081.79,-3421.24 720.79,-3421.24"/>
<polygon fill="none" stroke="#29235c" points="720.79,-3421.24 720.79,-3481.24 1081.79,-3481.24 1081.79,-3421.24 720.79,-3421.24"/>
<text text-anchor="start" x="840.86" y="-3441.44" font-family="Helvetica,sans-Serif" font-size="32.00" fill="#29235c">eligibility</text>
<polygon fill="#e7e2dd" stroke="transparent" points="720.79,-3361.24 720.79,-3421.24 1081.79,-3421.24 1081.79,-3361.24 720.79,-3361.24"/>
<polygon fill="none" stroke="#29235c" points="720.79,-3361.24 720.79,-3421.24 1081.79,-3421.24 1081.79,-3361.24 720.79,-3361.24"/>
<text text-anchor="start" x="825.71" y="-3381.44" font-family="Helvetica,sans-Serif" font-size="32.00" fill="#29235c">created_at</text>
<polygon fill="#e7e2dd" stroke="transparent" points="720.79,-3301.24 720.79,-3361.24 1081.79,-3361.24 1081.79,-3301.24 720.79,-3301.24"/>
<polygon fill="none" stroke="#29235c" points="720.79,-3301.24 720.79,-3361.24 1081.79,-3361.24 1081.79,-3301.24 720.79,-3301.24"/>
<text text-anchor="start" x="821.24" y="-3321.44" font-family="Helvetica,sans-Serif" font-size="32.00" fill="#29235c">updated_at</text>
<polygon fill="none" stroke="#29235c" stroke-width="2" points="719.29,-3300.24 719.29,-3902.24 1082.29,-3902.24 1082.29,-3300.24 719.29,-3300.24"/>
</g>
<!-- event&#45;&gt;company -->
<!-- event&#45;&gt;company -->
<g id="edge18" class="edge">
<title>event:e&#45;&gt;company:w</title>
<path fill="none" stroke="#29235c" stroke-width="3" d="M1082.79,-3751.24C1264.54,-3751.24 1093.48,-2969.87 1261.79,-2940.11"/>
<polygon fill="#29235c" stroke="#29235c" stroke-width="3" points="1262.31,-2943.58 1271.98,-2939.24 1261.72,-2936.61 1262.31,-2943.58"/>
<text text-anchor="middle" x="1280.87" y="-2948.84" font-family="Helvetica,sans-Serif" font-size="32.00" fill="#29235c">1</text>
<text text-anchor="middle" x="1076.57" y="-3760.84" font-family="Helvetica,sans-Serif" font-size="32.00" fill="#29235c">*</text>
</g>
<!-- event_regisiteration -->
<g id="event_regisiteration" class="node">
<title>event_regisiteration</title>
<ellipse fill="none" stroke="black" stroke-width="0" cx="303.35" cy="-3558.24" rx="303.2" ry="214.92"/>
<polygon fill="#1d71b8" stroke="transparent" points="91.35,-3648.24 91.35,-3708.24 516.35,-3708.24 516.35,-3648.24 91.35,-3648.24"/>
<polygon fill="none" stroke="#29235c" points="91.35,-3648.24 91.35,-3708.24 516.35,-3708.24 516.35,-3648.24 91.35,-3648.24"/>
<text text-anchor="start" x="102.01" y="-3669.44" font-family="Helvetica,sans-Serif" font-weight="bold" font-size="32.00" fill="#ffffff"> &#160;&#160;&#160;&#160;&#160;&#160;event_regisiteration &#160;&#160;&#160;&#160;&#160;&#160;</text>
<polygon fill="#e7e2dd" stroke="transparent" points="91.35,-3588.24 91.35,-3648.24 516.35,-3648.24 516.35,-3588.24 91.35,-3588.24"/>
<polygon fill="none" stroke="#29235c" points="91.35,-3588.24 91.35,-3648.24 516.35,-3648.24 516.35,-3588.24 91.35,-3588.24"/>
<text text-anchor="start" x="291.4" y="-3608.44" font-family="Helvetica,sans-Serif" font-size="32.00" fill="#29235c">id</text>
<polygon fill="#e7e2dd" stroke="transparent" points="91.35,-3528.24 91.35,-3588.24 516.35,-3588.24 516.35,-3528.24 91.35,-3528.24"/>
<polygon fill="none" stroke="#29235c" points="91.35,-3528.24 91.35,-3588.24 516.35,-3588.24 516.35,-3528.24 91.35,-3528.24"/>
<text text-anchor="start" x="159.83" y="-3549.44" font-family="Helvetica,sans-Serif" font-size="32.00" fill="#29235c">event_id </text>
<text text-anchor="start" x="289.66" y="-3549.44" font-family="Helvetica,sans-Serif" font-style="italic" font-size="32.00" fill="#29235c">NOT NULL</text>
<polygon fill="#e7e2dd" stroke="transparent" points="91.35,-3468.24 91.35,-3528.24 516.35,-3528.24 516.35,-3468.24 91.35,-3468.24"/>
<polygon fill="none" stroke="#29235c" points="91.35,-3468.24 91.35,-3528.24 516.35,-3528.24 516.35,-3468.24 91.35,-3468.24"/>
<text text-anchor="start" x="134.94" y="-3489.44" font-family="Helvetica,sans-Serif" font-size="32.00" fill="#29235c">applicant_id </text>
<text text-anchor="start" x="314.55" y="-3489.44" font-family="Helvetica,sans-Serif" font-style="italic" font-size="32.00" fill="#29235c">NOT NULL</text>
<polygon fill="#e7e2dd" stroke="transparent" points="91.35,-3408.24 91.35,-3468.24 516.35,-3468.24 516.35,-3408.24 91.35,-3408.24"/>
<polygon fill="none" stroke="#29235c" points="91.35,-3408.24 91.35,-3468.24 516.35,-3468.24 516.35,-3408.24 91.35,-3408.24"/>
<text text-anchor="start" x="206.94" y="-3428.44" font-family="Helvetica,sans-Serif" font-size="32.00" fill="#29235c">regisitered_at</text>
<polygon fill="none" stroke="#29235c" stroke-width="2" points="89.85,-3407.24 89.85,-3709.24 516.85,-3709.24 516.85,-3407.24 89.85,-3407.24"/>
</g>
<!-- event_regisiteration&#45;&gt;profile -->
<!-- event_regisiteration&#45;&gt;profile -->
<g id="edge22" class="edge">
<title>event_regisiteration:e&#45;&gt;profile:w</title>
<path fill="none" stroke="#29235c" stroke-width="3" d="M517.35,-3498.24C681.34,-3498.24 583.24,-3302.55 606.7,-3140.24 638.29,-2921.65 531.84,-2165.38 742.52,-2141.8"/>
<polygon fill="#29235c" stroke="#29235c" stroke-width="3" points="743,-2145.28 752.79,-2141.24 742.61,-2138.29 743,-2145.28"/>
<text text-anchor="middle" x="743.9" y="-2112.44" font-family="Helvetica,sans-Serif" font-size="32.00" fill="#29235c">1</text>
<text text-anchor="middle" x="511.13" y="-3507.84" font-family="Helvetica,sans-Serif" font-size="32.00" fill="#29235c">*</text>
</g>
<!-- event_regisiteration&#45;&gt;event -->
<!-- event_regisiteration&#45;&gt;event -->
<g id="edge20" class="edge">
<title>event_regisiteration:e&#45;&gt;event:w</title>
<path fill="none" stroke="#29235c" stroke-width="3" d="M517.35,-3558.24C657.84,-3558.24 579.82,-3799.04 709.65,-3810.79"/>
<polygon fill="#29235c" stroke="#29235c" stroke-width="3" points="709.65,-3814.3 719.79,-3811.24 709.95,-3807.3 709.65,-3814.3"/>
<text text-anchor="middle" x="710.9" y="-3820.84" font-family="Helvetica,sans-Serif" font-size="32.00" fill="#29235c">1</text>
<text text-anchor="middle" x="511.13" y="-3567.84" font-family="Helvetica,sans-Serif" font-size="32.00" fill="#29235c">*</text>
</g>
</g>
</svg>
