<?xml version="1.0" encoding="UTF-8" standalone="no"?>
<!DOCTYPE svg PUBLIC "-//W3C//DTD SVG 1.1//EN"
 "http://www.w3.org/Graphics/SVG/1.1/DTD/svg11.dtd">
<!-- Generated by graphviz version 2.44.1 (20200629.0846)
 -->
<!-- Title: dbml Pages: 1 -->
<svg width="2229pt" height="3969pt"
 viewBox="0.00 0.00 2228.84 3969.33" xmlns="http://www.w3.org/2000/svg" xmlns:xlink="http://www.w3.org/1999/xlink">
<g id="graph0" class="graph" transform="scale(1 1) rotate(0) translate(4 3965.33)">
<title>dbml</title>
<!-- user -->
<g id="user" class="node">
<title>user</title>
<ellipse fill="none" stroke="black" stroke-width="0" cx="1983.95" cy="-2342.24" rx="236.76" ry="342.48"/>
<polygon fill="#1d71b8" stroke="transparent" points="1818.95,-2522.24 1818.95,-2582.24 2149.95,-2582.24 2149.95,-2522.24 1818.95,-2522.24"/>
<polygon fill="none" stroke="#29235c" points="1818.95,-2522.24 1818.95,-2582.24 2149.95,-2582.24 2149.95,-2522.24 1818.95,-2522.24"/>
<text text-anchor="start" x="1891.09" y="-2543.44" font-family="Helvetica,sans-Serif" font-weight="bold" font-size="32.00" fill="#ffffff"> &#160;&#160;&#160;&#160;&#160;&#160;user &#160;&#160;&#160;&#160;&#160;&#160;</text>
<polygon fill="#e7e2dd" stroke="transparent" points="1818.95,-2462.24 1818.95,-2522.24 2149.95,-2522.24 2149.95,-2462.24 1818.95,-2462.24"/>
<polygon fill="none" stroke="#29235c" points="1818.95,-2462.24 1818.95,-2522.24 2149.95,-2522.24 2149.95,-2462.24 1818.95,-2462.24"/>
<text text-anchor="start" x="1972.01" y="-2482.44" font-family="Helvetica,sans-Serif" font-size="32.00" fill="#29235c">id</text>
<polygon fill="#e7e2dd" stroke="transparent" points="1818.95,-2402.24 1818.95,-2462.24 2149.95,-2462.24 2149.95,-2402.24 1818.95,-2402.24"/>
<polygon fill="none" stroke="#29235c" points="1818.95,-2402.24 1818.95,-2462.24 2149.95,-2462.24 2149.95,-2402.24 1818.95,-2402.24"/>
<text text-anchor="start" x="1829.78" y="-2423.44" font-family="Helvetica,sans-Serif" font-size="32.00" fill="#29235c">username </text>
<text text-anchor="start" x="1980.92" y="-2423.44" font-family="Helvetica,sans-Serif" font-style="italic" font-size="32.00" fill="#29235c">NOT NULL</text>
<polygon fill="#e7e2dd" stroke="transparent" points="1818.95,-2342.24 1818.95,-2402.24 2149.95,-2402.24 2149.95,-2342.24 1818.95,-2342.24"/>
<polygon fill="none" stroke="#29235c" points="1818.95,-2342.24 1818.95,-2402.24 2149.95,-2402.24 2149.95,-2342.24 1818.95,-2342.24"/>
<text text-anchor="start" x="1862.68" y="-2363.44" font-family="Helvetica,sans-Serif" font-size="32.00" fill="#29235c">email </text>
<text text-anchor="start" x="1948.01" y="-2363.44" font-family="Helvetica,sans-Serif" font-style="italic" font-size="32.00" fill="#29235c">NOT NULL</text>
<polygon fill="#e7e2dd" stroke="transparent" points="1818.95,-2282.24 1818.95,-2342.24 2149.95,-2342.24 2149.95,-2282.24 1818.95,-2282.24"/>
<polygon fill="none" stroke="#29235c" points="1818.95,-2282.24 1818.95,-2342.24 2149.95,-2342.24 2149.95,-2282.24 1818.95,-2282.24"/>
<text text-anchor="start" x="1864.43" y="-2302.44" font-family="Helvetica,sans-Serif" font-size="32.00" fill="#29235c">password_digest</text>
<polygon fill="#e7e2dd" stroke="transparent" points="1818.95,-2222.24 1818.95,-2282.24 2149.95,-2282.24 2149.95,-2222.24 1818.95,-2222.24"/>
<polygon fill="none" stroke="#29235c" points="1818.95,-2222.24 1818.95,-2282.24 2149.95,-2282.24 2149.95,-2222.24 1818.95,-2222.24"/>
<text text-anchor="start" x="1874.24" y="-2243.44" font-family="Helvetica,sans-Serif" font-size="32.00" fill="#29235c">role </text>
<text text-anchor="start" x="1936.46" y="-2243.44" font-family="Helvetica,sans-Serif" font-style="italic" font-size="32.00" fill="#29235c">NOT NULL</text>
<polygon fill="#e7e2dd" stroke="transparent" points="1818.95,-2162.24 1818.95,-2222.24 2149.95,-2222.24 2149.95,-2162.24 1818.95,-2162.24"/>
<polygon fill="none" stroke="#29235c" points="1818.95,-2162.24 1818.95,-2222.24 2149.95,-2222.24 2149.95,-2162.24 1818.95,-2162.24"/>
<text text-anchor="start" x="1908.87" y="-2182.44" font-family="Helvetica,sans-Serif" font-size="32.00" fill="#29235c">created_at</text>
<polygon fill="#e7e2dd" stroke="transparent" points="1818.95,-2102.24 1818.95,-2162.24 2149.95,-2162.24 2149.95,-2102.24 1818.95,-2102.24"/>
<polygon fill="none" stroke="#29235c" points="1818.95,-2102.24 1818.95,-2162.24 2149.95,-2162.24 2149.95,-2102.24 1818.95,-2102.24"/>
<text text-anchor="start" x="1904.41" y="-2122.44" font-family="Helvetica,sans-Serif" font-size="32.00" fill="#29235c">updated_at</text>
<polygon fill="none" stroke="#29235c" stroke-width="2" points="1817.45,-2101.24 1817.45,-2583.24 2150.45,-2583.24 2150.45,-2101.24 1817.45,-2101.24"/>
</g>
<!-- profile -->
<g id="profile" class="node">
<title>profile</title>
<ellipse fill="none" stroke="black" stroke-width="0" cx="900.79" cy="-2044.24" rx="210.94" ry="172.57"/>
<polygon fill="#1d71b8" stroke="transparent" points="753.79,-2104.24 753.79,-2164.24 1047.79,-2164.24 1047.79,-2104.24 753.79,-2104.24"/>
<polygon fill="none" stroke="#29235c" points="753.79,-2104.24 753.79,-2164.24 1047.79,-2164.24 1047.79,-2104.24 753.79,-2104.24"/>
<text text-anchor="start" x="794.99" y="-2125.44" font-family="Helvetica,sans-Serif" font-weight="bold" font-size="32.00" fill="#ffffff"> &#160;&#160;&#160;&#160;&#160;&#160;profile &#160;&#160;&#160;&#160;&#160;&#160;</text>
<polygon fill="#e7e2dd" stroke="transparent" points="753.79,-2044.24 753.79,-2104.24 1047.79,-2104.24 1047.79,-2044.24 753.79,-2044.24"/>
<polygon fill="none" stroke="#29235c" points="753.79,-2044.24 753.79,-2104.24 1047.79,-2104.24 1047.79,-2044.24 753.79,-2044.24"/>
<text text-anchor="start" x="888.35" y="-2064.44" font-family="Helvetica,sans-Serif" font-size="32.00" fill="#29235c">id</text>
<polygon fill="#e7e2dd" stroke="transparent" points="753.79,-1984.24 753.79,-2044.24 1047.79,-2044.24 1047.79,-1984.24 753.79,-1984.24"/>
<polygon fill="none" stroke="#29235c" points="753.79,-1984.24 753.79,-2044.24 1047.79,-2044.24 1047.79,-1984.24 753.79,-1984.24"/>
<text text-anchor="start" x="764.78" y="-2005.44" font-family="Helvetica,sans-Serif" font-size="32.00" fill="#29235c">user_id </text>
<text text-anchor="start" x="878.59" y="-2005.44" font-family="Helvetica,sans-Serif" font-style="italic" font-size="32.00" fill="#29235c">NOT NULL</text>
<polygon fill="#e7e2dd" stroke="transparent" points="753.79,-1924.24 753.79,-1984.24 1047.79,-1984.24 1047.79,-1924.24 753.79,-1924.24"/>
<polygon fill="none" stroke="#29235c" points="753.79,-1924.24 753.79,-1984.24 1047.79,-1984.24 1047.79,-1924.24 753.79,-1924.24"/>
<text text-anchor="start" x="825.21" y="-1944.44" font-family="Helvetica,sans-Serif" font-size="32.00" fill="#29235c">created_at</text>
<polygon fill="none" stroke="#29235c" stroke-width="2" points="752.79,-1923.24 752.79,-2165.24 1048.79,-2165.24 1048.79,-1923.24 752.79,-1923.24"/>
</g>
<!-- profile&#45;&gt;user -->
<!-- profile&#45;&gt;user -->
<g id="edge2" class="edge">
<title>profile:e&#45;&gt;user:w</title>
<path fill="none" stroke="#29235c" stroke-width="3" d="M1048.79,-2014.24C1347.54,-2014.24 1488.09,-1930.41 1711.07,-2129.24 1833.9,-2238.76 1657.66,-2481.52 1807.6,-2491.9"/>
<polygon fill="#29235c" stroke="#29235c" stroke-width="3" points="1807.84,-2495.41 1817.95,-2492.24 1808.08,-2488.41 1807.84,-2495.41"/>
<text text-anchor="middle" x="1826.85" y="-2463.44" font-family="Helvetica,sans-Serif" font-size="32.00" fill="#29235c">1</text>
<text text-anchor="middle" x="1039.9" y="-1985.44" font-family="Helvetica,sans-Serif" font-size="32.00" fill="#29235c">1</text>
</g>
<!-- basic_profile -->
<g id="basic_profile" class="node">
<title>basic_profile</title>
<ellipse fill="none" stroke="black" stroke-width="0" cx="303.35" cy="-1172.24" rx="233.19" ry="469.54"/>
<polygon fill="#1d71b8" stroke="transparent" points="140.35,-1442.24 140.35,-1502.24 466.35,-1502.24 466.35,-1442.24 140.35,-1442.24"/>
<polygon fill="none" stroke="#29235c" points="140.35,-1442.24 140.35,-1502.24 466.35,-1502.24 466.35,-1442.24 140.35,-1442.24"/>
<text text-anchor="start" x="151.31" y="-1463.44" font-family="Helvetica,sans-Serif" font-weight="bold" font-size="32.00" fill="#ffffff"> &#160;&#160;&#160;&#160;&#160;&#160;basic_profile &#160;&#160;&#160;&#160;&#160;&#160;</text>
<polygon fill="#e7e2dd" stroke="transparent" points="140.35,-1382.24 140.35,-1442.24 466.35,-1442.24 466.35,-1382.24 140.35,-1382.24"/>
<polygon fill="none" stroke="#29235c" points="140.35,-1382.24 140.35,-1442.24 466.35,-1442.24 466.35,-1382.24 140.35,-1382.24"/>
<text text-anchor="start" x="290.9" y="-1402.44" font-family="Helvetica,sans-Serif" font-size="32.00" fill="#29235c">id</text>
<polygon fill="#e7e2dd" stroke="transparent" points="140.35,-1322.24 140.35,-1382.24 466.35,-1382.24 466.35,-1322.24 140.35,-1322.24"/>
<polygon fill="none" stroke="#29235c" points="140.35,-1322.24 140.35,-1382.24 466.35,-1382.24 466.35,-1322.24 140.35,-1322.24"/>
<text text-anchor="start" x="154.9" y="-1343.44" font-family="Helvetica,sans-Serif" font-size="32.00" fill="#29235c">profile_id </text>
<text text-anchor="start" x="293.58" y="-1343.44" font-family="Helvetica,sans-Serif" font-style="italic" font-size="32.00" fill="#29235c">NOT NULL</text>
<polygon fill="#e7e2dd" stroke="transparent" points="140.35,-1262.24 140.35,-1322.24 466.35,-1322.24 466.35,-1262.24 140.35,-1262.24"/>
<polygon fill="none" stroke="#29235c" points="140.35,-1262.24 140.35,-1322.24 466.35,-1322.24 466.35,-1262.24 140.35,-1262.24"/>
<text text-anchor="start" x="258.89" y="-1282.44" font-family="Helvetica,sans-Serif" font-size="32.00" fill="#29235c">avatar</text>
<polygon fill="#e7e2dd" stroke="transparent" points="140.35,-1202.24 140.35,-1262.24 466.35,-1262.24 466.35,-1202.24 140.35,-1202.24"/>
<polygon fill="none" stroke="#29235c" points="140.35,-1202.24 140.35,-1262.24 466.35,-1262.24 466.35,-1202.24 140.35,-1202.24"/>
<text text-anchor="start" x="179.79" y="-1223.44" font-family="Helvetica,sans-Serif" font-size="32.00" fill="#29235c">name </text>
<text text-anchor="start" x="268.7" y="-1223.44" font-family="Helvetica,sans-Serif" font-style="italic" font-size="32.00" fill="#29235c">NOT NULL</text>
<polygon fill="#e7e2dd" stroke="transparent" points="140.35,-1142.24 140.35,-1202.24 466.35,-1202.24 466.35,-1142.24 140.35,-1142.24"/>
<polygon fill="none" stroke="#29235c" points="140.35,-1142.24 140.35,-1202.24 466.35,-1202.24 466.35,-1142.24 140.35,-1142.24"/>
<text text-anchor="start" x="188.68" y="-1163.44" font-family="Helvetica,sans-Serif" font-size="32.00" fill="#29235c">birth </text>
<text text-anchor="start" x="259.8" y="-1163.44" font-family="Helvetica,sans-Serif" font-style="italic" font-size="32.00" fill="#29235c">NOT NULL</text>
<polygon fill="#e7e2dd" stroke="transparent" points="140.35,-1082.24 140.35,-1142.24 466.35,-1142.24 466.35,-1082.24 140.35,-1082.24"/>
<polygon fill="none" stroke="#29235c" points="140.35,-1082.24 140.35,-1142.24 466.35,-1142.24 466.35,-1082.24 140.35,-1082.24"/>
<text text-anchor="start" x="279.35" y="-1102.44" font-family="Helvetica,sans-Serif" font-size="32.00" fill="#29235c">city</text>
<polygon fill="#e7e2dd" stroke="transparent" points="140.35,-1022.24 140.35,-1082.24 466.35,-1082.24 466.35,-1022.24 140.35,-1022.24"/>
<polygon fill="none" stroke="#29235c" points="140.35,-1022.24 140.35,-1082.24 466.35,-1082.24 466.35,-1022.24 140.35,-1022.24"/>
<text text-anchor="start" x="268.67" y="-1042.44" font-family="Helvetica,sans-Serif" font-size="32.00" fill="#29235c">state</text>
<polygon fill="#e7e2dd" stroke="transparent" points="140.35,-962.24 140.35,-1022.24 466.35,-1022.24 466.35,-962.24 140.35,-962.24"/>
<polygon fill="none" stroke="#29235c" points="140.35,-962.24 140.35,-1022.24 466.35,-1022.24 466.35,-962.24 140.35,-962.24"/>
<text text-anchor="start" x="250.89" y="-982.44" font-family="Helvetica,sans-Serif" font-size="32.00" fill="#29235c">country</text>
<polygon fill="#e7e2dd" stroke="transparent" points="140.35,-902.24 140.35,-962.24 466.35,-962.24 466.35,-902.24 140.35,-902.24"/>
<polygon fill="none" stroke="#29235c" points="140.35,-902.24 140.35,-962.24 466.35,-962.24 466.35,-902.24 140.35,-902.24"/>
<text text-anchor="start" x="255.36" y="-922.44" font-family="Helvetica,sans-Serif" font-size="32.00" fill="#29235c">skillset</text>
<polygon fill="#e7e2dd" stroke="transparent" points="140.35,-842.24 140.35,-902.24 466.35,-902.24 466.35,-842.24 140.35,-842.24"/>
<polygon fill="none" stroke="#29235c" points="140.35,-842.24 140.35,-902.24 466.35,-902.24 466.35,-842.24 140.35,-842.24"/>
<text text-anchor="start" x="185.99" y="-862.44" font-family="Helvetica,sans-Serif" font-size="32.00" fill="#29235c">career_objective</text>
<polygon fill="none" stroke="#29235c" stroke-width="2" points="139.35,-841.24 139.35,-1503.24 467.35,-1503.24 467.35,-841.24 139.35,-841.24"/>
</g>
<!-- basic_profile&#45;&gt;profile -->
<!-- basic_profile&#45;&gt;profile -->
<g id="edge4" class="edge">
<title>basic_profile:e&#45;&gt;profile:w</title>
<path fill="none" stroke="#29235c" stroke-width="3" d="M467.35,-1352.24C613.56,-1352.24 551.84,-1514.71 606.7,-1650.24 680.17,-1831.75 557.91,-2065.85 742.58,-2074.02"/>
<polygon fill="#29235c" stroke="#29235c" stroke-width="3" points="742.72,-2077.52 752.79,-2074.24 742.87,-2070.52 742.72,-2077.52"/>
<text text-anchor="middle" x="743.9" y="-2045.44" font-family="Helvetica,sans-Serif" font-size="32.00" fill="#29235c">1</text>
<text text-anchor="middle" x="458.45" y="-1323.44" font-family="Helvetica,sans-Serif" font-size="32.00" fill="#29235c">1</text>
</g>
<!-- education_profile -->
<g id="education_profile" class="node">
<title>education_profile</title>
<ellipse fill="none" stroke="black" stroke-width="0" cx="303.35" cy="-342.24" rx="278.7" ry="342.48"/>
<polygon fill="#1d71b8" stroke="transparent" points="108.35,-522.24 108.35,-582.24 498.35,-582.24 498.35,-522.24 108.35,-522.24"/>
<polygon fill="none" stroke="#29235c" points="108.35,-522.24 108.35,-582.24 498.35,-582.24 498.35,-522.24 108.35,-522.24"/>
<text text-anchor="start" x="119.28" y="-543.44" font-family="Helvetica,sans-Serif" font-weight="bold" font-size="32.00" fill="#ffffff"> &#160;&#160;&#160;&#160;&#160;&#160;education_profile &#160;&#160;&#160;&#160;&#160;&#160;</text>
<polygon fill="#e7e2dd" stroke="transparent" points="108.35,-462.24 108.35,-522.24 498.35,-522.24 498.35,-462.24 108.35,-462.24"/>
<polygon fill="none" stroke="#29235c" points="108.35,-462.24 108.35,-522.24 498.35,-522.24 498.35,-462.24 108.35,-462.24"/>
<text text-anchor="start" x="290.9" y="-482.44" font-family="Helvetica,sans-Serif" font-size="32.00" fill="#29235c">id</text>
<polygon fill="#e7e2dd" stroke="transparent" points="108.35,-402.24 108.35,-462.24 498.35,-462.24 498.35,-402.24 108.35,-402.24"/>
<polygon fill="none" stroke="#29235c" points="108.35,-402.24 108.35,-462.24 498.35,-462.24 498.35,-402.24 108.35,-402.24"/>
<text text-anchor="start" x="154.9" y="-423.44" font-family="Helvetica,sans-Serif" font-size="32.00" fill="#29235c">profile_id </text>
<text text-anchor="start" x="293.58" y="-423.44" font-family="Helvetica,sans-Serif" font-style="italic" font-size="32.00" fill="#29235c">NOT NULL</text>
<polygon fill="#e7e2dd" stroke="transparent" points="108.35,-342.24 108.35,-402.24 498.35,-402.24 498.35,-342.24 108.35,-342.24"/>
<polygon fill="none" stroke="#29235c" points="108.35,-342.24 108.35,-402.24 498.35,-402.24 498.35,-342.24 108.35,-342.24"/>
<text text-anchor="start" x="203.77" y="-362.44" font-family="Helvetica,sans-Serif" font-size="32.00" fill="#29235c">college_name</text>
<polygon fill="#e7e2dd" stroke="transparent" points="108.35,-282.24 108.35,-342.24 498.35,-342.24 498.35,-282.24 108.35,-282.24"/>
<polygon fill="none" stroke="#29235c" points="108.35,-282.24 108.35,-342.24 498.35,-342.24 498.35,-282.24 108.35,-282.24"/>
<text text-anchor="start" x="248.22" y="-302.44" font-family="Helvetica,sans-Serif" font-size="32.00" fill="#29235c">location</text>
<polygon fill="#e7e2dd" stroke="transparent" points="108.35,-222.24 108.35,-282.24 498.35,-282.24 498.35,-222.24 108.35,-222.24"/>
<polygon fill="none" stroke="#29235c" points="108.35,-222.24 108.35,-282.24 498.35,-282.24 498.35,-222.24 108.35,-222.24"/>
<text text-anchor="start" x="253.55" y="-242.44" font-family="Helvetica,sans-Serif" font-size="32.00" fill="#29235c">degree</text>
<polygon fill="#e7e2dd" stroke="transparent" points="108.35,-162.24 108.35,-222.24 498.35,-222.24 498.35,-162.24 108.35,-162.24"/>
<polygon fill="none" stroke="#29235c" points="108.35,-162.24 108.35,-222.24 498.35,-222.24 498.35,-162.24 108.35,-162.24"/>
<text text-anchor="start" x="263.36" y="-182.44" font-family="Helvetica,sans-Serif" font-size="32.00" fill="#29235c">major</text>
<polygon fill="#e7e2dd" stroke="transparent" points="108.35,-102.24 108.35,-162.24 498.35,-162.24 498.35,-102.24 108.35,-102.24"/>
<polygon fill="none" stroke="#29235c" points="108.35,-102.24 108.35,-162.24 498.35,-162.24 498.35,-102.24 108.35,-102.24"/>
<text text-anchor="start" x="185.98" y="-122.44" font-family="Helvetica,sans-Serif" font-size="32.00" fill="#29235c">year_of_passing</text>
<polygon fill="none" stroke="#29235c" stroke-width="2" points="107.35,-101.24 107.35,-583.24 499.35,-583.24 499.35,-101.24 107.35,-101.24"/>
</g>
<!-- education_profile&#45;&gt;profile -->
<!-- education_profile&#45;&gt;profile -->
<g id="edge6" class="edge">
<title>education_profile:e&#45;&gt;profile:w</title>
<path fill="none" stroke="#29235c" stroke-width="3" d="M499.35,-432.24C624.78,-432.24 575.93,-571.64 606.7,-693.24 643.69,-839.47 600.52,-2019.47 742.69,-2072.4"/>
<polygon fill="#29235c" stroke="#29235c" stroke-width="3" points="742.33,-2075.89 752.79,-2074.24 743.58,-2069.01 742.33,-2075.89"/>
<text text-anchor="middle" x="743.9" y="-2083.84" font-family="Helvetica,sans-Serif" font-size="32.00" fill="#29235c">1</text>
<text text-anchor="middle" x="493.13" y="-403.44" font-family="Helvetica,sans-Serif" font-size="32.00" fill="#29235c">*</text>
</g>
<!-- experience_profile -->
<g id="experience_profile" class="node">
<title>experience_profile</title>
<ellipse fill="none" stroke="black" stroke-width="0" cx="303.35" cy="-2044.24" rx="290.74" ry="384.83"/>
<polygon fill="#1d71b8" stroke="transparent" points="100.35,-2254.24 100.35,-2314.24 507.35,-2314.24 507.35,-2254.24 100.35,-2254.24"/>
<polygon fill="none" stroke="#29235c" points="100.35,-2254.24 100.35,-2314.24 507.35,-2314.24 507.35,-2254.24 100.35,-2254.24"/>
<text text-anchor="start" x="110.9" y="-2275.44" font-family="Helvetica,sans-Serif" font-weight="bold" font-size="32.00" fill="#ffffff"> &#160;&#160;&#160;&#160;&#160;&#160;experience_profile &#160;&#160;&#160;&#160;&#160;&#160;</text>
<polygon fill="#e7e2dd" stroke="transparent" points="100.35,-2194.24 100.35,-2254.24 507.35,-2254.24 507.35,-2194.24 100.35,-2194.24"/>
<polygon fill="none" stroke="#29235c" points="100.35,-2194.24 100.35,-2254.24 507.35,-2254.24 507.35,-2194.24 100.35,-2194.24"/>
<text text-anchor="start" x="291.4" y="-2214.44" font-family="Helvetica,sans-Serif" font-size="32.00" fill="#29235c">id</text>
<polygon fill="#e7e2dd" stroke="transparent" points="100.35,-2134.24 100.35,-2194.24 507.35,-2194.24 507.35,-2134.24 100.35,-2134.24"/>
<polygon fill="none" stroke="#29235c" points="100.35,-2134.24 100.35,-2194.24 507.35,-2194.24 507.35,-2134.24 100.35,-2134.24"/>
<text text-anchor="start" x="155.4" y="-2155.44" font-family="Helvetica,sans-Serif" font-size="32.00" fill="#29235c">profile_id </text>
<text text-anchor="start" x="294.08" y="-2155.44" font-family="Helvetica,sans-Serif" font-style="italic" font-size="32.00" fill="#29235c">NOT NULL</text>
<polygon fill="#e7e2dd" stroke="transparent" points="100.35,-2074.24 100.35,-2134.24 507.35,-2134.24 507.35,-2074.24 100.35,-2074.24"/>
<polygon fill="none" stroke="#29235c" points="100.35,-2074.24 100.35,-2134.24 507.35,-2134.24 507.35,-2074.24 100.35,-2074.24"/>
<text text-anchor="start" x="190.04" y="-2094.44" font-family="Helvetica,sans-Serif" font-size="32.00" fill="#29235c">company_name</text>
<polygon fill="#e7e2dd" stroke="transparent" points="100.35,-2014.24 100.35,-2074.24 507.35,-2074.24 507.35,-2014.24 100.35,-2014.24"/>
<polygon fill="none" stroke="#29235c" points="100.35,-2014.24 100.35,-2074.24 507.35,-2074.24 507.35,-2014.24 100.35,-2014.24"/>
<text text-anchor="start" x="278.96" y="-2034.44" font-family="Helvetica,sans-Serif" font-size="32.00" fill="#29235c">title</text>
<polygon fill="#e7e2dd" stroke="transparent" points="100.35,-1954.24 100.35,-2014.24 507.35,-2014.24 507.35,-1954.24 100.35,-1954.24"/>
<polygon fill="none" stroke="#29235c" points="100.35,-1954.24 100.35,-2014.24 507.35,-2014.24 507.35,-1954.24 100.35,-1954.24"/>
<text text-anchor="start" x="248.72" y="-1974.44" font-family="Helvetica,sans-Serif" font-size="32.00" fill="#29235c">location</text>
<polygon fill="#e7e2dd" stroke="transparent" points="100.35,-1894.24 100.35,-1954.24 507.35,-1954.24 507.35,-1894.24 100.35,-1894.24"/>
<polygon fill="none" stroke="#29235c" points="100.35,-1894.24 100.35,-1954.24 507.35,-1954.24 507.35,-1894.24 100.35,-1894.24"/>
<text text-anchor="start" x="232.71" y="-1914.44" font-family="Helvetica,sans-Serif" font-size="32.00" fill="#29235c">start_date</text>
<polygon fill="#e7e2dd" stroke="transparent" points="100.35,-1834.24 100.35,-1894.24 507.35,-1894.24 507.35,-1834.24 100.35,-1834.24"/>
<polygon fill="none" stroke="#29235c" points="100.35,-1834.24 100.35,-1894.24 507.35,-1894.24 507.35,-1834.24 100.35,-1834.24"/>
<text text-anchor="start" x="237.14" y="-1854.44" font-family="Helvetica,sans-Serif" font-size="32.00" fill="#29235c">end_date</text>
<polygon fill="#e7e2dd" stroke="transparent" points="100.35,-1774.24 100.35,-1834.24 507.35,-1834.24 507.35,-1774.24 100.35,-1774.24"/>
<polygon fill="none" stroke="#29235c" points="100.35,-1774.24 100.35,-1834.24 507.35,-1834.24 507.35,-1774.24 100.35,-1774.24"/>
<text text-anchor="start" x="183.84" y="-1794.44" font-family="Helvetica,sans-Serif" font-size="32.00" fill="#29235c">work_description</text>
<polygon fill="none" stroke="#29235c" stroke-width="2" points="98.85,-1773.24 98.85,-2315.24 507.85,-2315.24 507.85,-1773.24 98.85,-1773.24"/>
</g>
<!-- experience_profile&#45;&gt;profile -->
<!-- experience_profile&#45;&gt;profile -->
<g id="edge8" class="edge">
<title>experience_profile:e&#45;&gt;profile:w</title>
<path fill="none" stroke="#29235c" stroke-width="3" d="M508.35,-2164.24C620.61,-2164.24 636.15,-2079.61 742.55,-2074.48"/>
<polygon fill="#29235c" stroke="#29235c" stroke-width="3" points="742.88,-2077.98 752.79,-2074.24 742.71,-2070.98 742.88,-2077.98"/>
<text text-anchor="middle" x="761.69" y="-2045.44" font-family="Helvetica,sans-Serif" font-size="32.00" fill="#29235c">1</text>
<text text-anchor="middle" x="502.13" y="-2135.44" font-family="Helvetica,sans-Serif" font-size="32.00" fill="#29235c">*</text>
</g>
<!-- company -->
<g id="company" class="node">
<title>company</title>
<ellipse fill="none" stroke="black" stroke-width="0" cx="1452.98" cy="-2662.24" rx="258.19" ry="384.83"/>
<polygon fill="#1d71b8" stroke="transparent" points="1272.98,-2872.24 1272.98,-2932.24 1633.98,-2932.24 1633.98,-2872.24 1272.98,-2872.24"/>
<polygon fill="none" stroke="#29235c" points="1272.98,-2872.24 1272.98,-2932.24 1633.98,-2932.24 1633.98,-2872.24 1272.98,-2872.24"/>
<text text-anchor="start" x="1326.33" y="-2893.44" font-family="Helvetica,sans-Serif" font-weight="bold" font-size="32.00" fill="#ffffff"> &#160;&#160;&#160;&#160;&#160;&#160;company &#160;&#160;&#160;&#160;&#160;&#160;</text>
<polygon fill="#e7e2dd" stroke="transparent" points="1272.98,-2812.24 1272.98,-2872.24 1633.98,-2872.24 1633.98,-2812.24 1272.98,-2812.24"/>
<polygon fill="none" stroke="#29235c" points="1272.98,-2812.24 1272.98,-2872.24 1633.98,-2872.24 1633.98,-2812.24 1272.98,-2812.24"/>
<text text-anchor="start" x="1441.03" y="-2832.44" font-family="Helvetica,sans-Serif" font-size="32.00" fill="#29235c">id</text>
<polygon fill="#e7e2dd" stroke="transparent" points="1272.98,-2752.24 1272.98,-2812.24 1633.98,-2812.24 1633.98,-2752.24 1272.98,-2752.24"/>
<polygon fill="none" stroke="#29235c" points="1272.98,-2752.24 1272.98,-2812.24 1633.98,-2812.24 1633.98,-2752.24 1272.98,-2752.24"/>
<text text-anchor="start" x="1283.68" y="-2773.44" font-family="Helvetica,sans-Serif" font-size="32.00" fill="#29235c">company_id </text>
<text text-anchor="start" x="1465.06" y="-2773.44" font-family="Helvetica,sans-Serif" font-style="italic" font-size="32.00" fill="#29235c">NOT NULL</text>
<polygon fill="#e7e2dd" stroke="transparent" points="1272.98,-2692.24 1272.98,-2752.24 1633.98,-2752.24 1633.98,-2692.24 1272.98,-2692.24"/>
<polygon fill="none" stroke="#29235c" points="1272.98,-2692.24 1272.98,-2752.24 1633.98,-2752.24 1633.98,-2692.24 1272.98,-2692.24"/>
<text text-anchor="start" x="1409.02" y="-2712.44" font-family="Helvetica,sans-Serif" font-size="32.00" fill="#29235c">avatar</text>
<polygon fill="#e7e2dd" stroke="transparent" points="1272.98,-2632.24 1272.98,-2692.24 1633.98,-2692.24 1633.98,-2632.24 1272.98,-2632.24"/>
<polygon fill="none" stroke="#29235c" points="1272.98,-2632.24 1272.98,-2692.24 1633.98,-2692.24 1633.98,-2632.24 1272.98,-2632.24"/>
<text text-anchor="start" x="1413.47" y="-2652.44" font-family="Helvetica,sans-Serif" font-size="32.00" fill="#29235c">name</text>
<polygon fill="#e7e2dd" stroke="transparent" points="1272.98,-2572.24 1272.98,-2632.24 1633.98,-2632.24 1633.98,-2572.24 1272.98,-2572.24"/>
<polygon fill="none" stroke="#29235c" points="1272.98,-2572.24 1272.98,-2632.24 1633.98,-2632.24 1633.98,-2572.24 1272.98,-2572.24"/>
<text text-anchor="start" x="1398.35" y="-2592.44" font-family="Helvetica,sans-Serif" font-size="32.00" fill="#29235c">location</text>
<polygon fill="#e7e2dd" stroke="transparent" points="1272.98,-2512.24 1272.98,-2572.24 1633.98,-2572.24 1633.98,-2512.24 1272.98,-2512.24"/>
<polygon fill="none" stroke="#29235c" points="1272.98,-2512.24 1272.98,-2572.24 1633.98,-2572.24 1633.98,-2512.24 1272.98,-2512.24"/>
<text text-anchor="start" x="1376.13" y="-2532.44" font-family="Helvetica,sans-Serif" font-size="32.00" fill="#29235c">description</text>
<polygon fill="#e7e2dd" stroke="transparent" points="1272.98,-2452.24 1272.98,-2512.24 1633.98,-2512.24 1633.98,-2452.24 1272.98,-2452.24"/>
<polygon fill="none" stroke="#29235c" points="1272.98,-2452.24 1272.98,-2512.24 1633.98,-2512.24 1633.98,-2452.24 1272.98,-2452.24"/>
<text text-anchor="start" x="1349.47" y="-2472.44" font-family="Helvetica,sans-Serif" font-size="32.00" fill="#29235c">contract_email</text>
<polygon fill="#e7e2dd" stroke="transparent" points="1272.98,-2392.24 1272.98,-2452.24 1633.98,-2452.24 1633.98,-2392.24 1272.98,-2392.24"/>
<polygon fill="none" stroke="#29235c" points="1272.98,-2392.24 1272.98,-2452.24 1633.98,-2452.24 1633.98,-2392.24 1272.98,-2392.24"/>
<text text-anchor="start" x="1343.21" y="-2412.44" font-family="Helvetica,sans-Serif" font-size="32.00" fill="#29235c">contract_phone</text>
<polygon fill="none" stroke="#29235c" stroke-width="2" points="1271.48,-2391.24 1271.48,-2933.24 1634.48,-2933.24 1634.48,-2391.24 1271.48,-2391.24"/>
</g>
<!-- company&#45;&gt;user -->
<!-- company&#45;&gt;user -->
<g id="edge10" class="edge">
<title>company:e&#45;&gt;user:w</title>
<path fill="none" stroke="#29235c" stroke-width="3" d="M1634.98,-2782.24C1783.81,-2782.24 1671.11,-2505.67 1807.68,-2492.71"/>
<polygon fill="#29235c" stroke="#29235c" stroke-width="3" points="1808.12,-2496.19 1817.95,-2492.24 1807.8,-2489.2 1808.12,-2496.19"/>
<text text-anchor="middle" x="1826.85" y="-2501.84" font-family="Helvetica,sans-Serif" font-size="32.00" fill="#29235c">1</text>
<text text-anchor="middle" x="1643.87" y="-2753.44" font-family="Helvetica,sans-Serif" font-size="32.00" fill="#29235c">1</text>
</g>
<!-- job -->
<g id="job" class="node">
<title>job</title>
<ellipse fill="none" stroke="black" stroke-width="0" cx="900.79" cy="-2662.24" rx="258.19" ry="427.19"/>
<polygon fill="#1d71b8" stroke="transparent" points="720.79,-2902.24 720.79,-2962.24 1081.79,-2962.24 1081.79,-2902.24 720.79,-2902.24"/>
<polygon fill="none" stroke="#29235c" points="720.79,-2902.24 720.79,-2962.24 1081.79,-2962.24 1081.79,-2902.24 720.79,-2902.24"/>
<text text-anchor="start" x="817.7" y="-2923.44" font-family="Helvetica,sans-Serif" font-weight="bold" font-size="32.00" fill="#ffffff"> &#160;&#160;&#160;&#160;&#160;&#160;job &#160;&#160;&#160;&#160;&#160;&#160;</text>
<polygon fill="#e7e2dd" stroke="transparent" points="720.79,-2842.24 720.79,-2902.24 1081.79,-2902.24 1081.79,-2842.24 720.79,-2842.24"/>
<polygon fill="none" stroke="#29235c" points="720.79,-2842.24 720.79,-2902.24 1081.79,-2902.24 1081.79,-2842.24 720.79,-2842.24"/>
<text text-anchor="start" x="888.85" y="-2862.44" font-family="Helvetica,sans-Serif" font-size="32.00" fill="#29235c">id</text>
<polygon fill="#e7e2dd" stroke="transparent" points="720.79,-2782.24 720.79,-2842.24 1081.79,-2842.24 1081.79,-2782.24 720.79,-2782.24"/>
<polygon fill="none" stroke="#29235c" points="720.79,-2782.24 720.79,-2842.24 1081.79,-2842.24 1081.79,-2782.24 720.79,-2782.24"/>
<text text-anchor="start" x="731.49" y="-2803.44" font-family="Helvetica,sans-Serif" font-size="32.00" fill="#29235c">company_id </text>
<text text-anchor="start" x="912.87" y="-2803.44" font-family="Helvetica,sans-Serif" font-style="italic" font-size="32.00" fill="#29235c">NOT NULL</text>
<polygon fill="#e7e2dd" stroke="transparent" points="720.79,-2722.24 720.79,-2782.24 1081.79,-2782.24 1081.79,-2722.24 720.79,-2722.24"/>
<polygon fill="none" stroke="#29235c" points="720.79,-2722.24 720.79,-2782.24 1081.79,-2782.24 1081.79,-2722.24 720.79,-2722.24"/>
<text text-anchor="start" x="876.4" y="-2742.44" font-family="Helvetica,sans-Serif" font-size="32.00" fill="#29235c">title</text>
<polygon fill="#e7e2dd" stroke="transparent" points="720.79,-2662.24 720.79,-2722.24 1081.79,-2722.24 1081.79,-2662.24 720.79,-2662.24"/>
<polygon fill="none" stroke="#29235c" points="720.79,-2662.24 720.79,-2722.24 1081.79,-2722.24 1081.79,-2662.24 720.79,-2662.24"/>
<text text-anchor="start" x="825.71" y="-2682.44" font-family="Helvetica,sans-Serif" font-size="32.00" fill="#29235c">created_at</text>
<polygon fill="#e7e2dd" stroke="transparent" points="720.79,-2602.24 720.79,-2662.24 1081.79,-2662.24 1081.79,-2602.24 720.79,-2602.24"/>
<polygon fill="none" stroke="#29235c" points="720.79,-2602.24 720.79,-2662.24 1081.79,-2662.24 1081.79,-2602.24 720.79,-2602.24"/>
<text text-anchor="start" x="755.47" y="-2622.44" font-family="Helvetica,sans-Serif" font-size="32.00" fill="#29235c">application_deadline</text>
<polygon fill="#e7e2dd" stroke="transparent" points="720.79,-2542.24 720.79,-2602.24 1081.79,-2602.24 1081.79,-2542.24 720.79,-2542.24"/>
<polygon fill="none" stroke="#29235c" points="720.79,-2542.24 720.79,-2602.24 1081.79,-2602.24 1081.79,-2542.24 720.79,-2542.24"/>
<text text-anchor="start" x="846.17" y="-2562.44" font-family="Helvetica,sans-Serif" font-size="32.00" fill="#29235c">location</text>
<polygon fill="#e7e2dd" stroke="transparent" points="720.79,-2482.24 720.79,-2542.24 1081.79,-2542.24 1081.79,-2482.24 720.79,-2482.24"/>
<polygon fill="none" stroke="#29235c" points="720.79,-2482.24 720.79,-2542.24 1081.79,-2542.24 1081.79,-2482.24 720.79,-2482.24"/>
<text text-anchor="start" x="858.63" y="-2502.44" font-family="Helvetica,sans-Serif" font-size="32.00" fill="#29235c">salary</text>
<polygon fill="#e7e2dd" stroke="transparent" points="720.79,-2422.24 720.79,-2482.24 1081.79,-2482.24 1081.79,-2422.24 720.79,-2422.24"/>
<polygon fill="none" stroke="#29235c" points="720.79,-2422.24 720.79,-2482.24 1081.79,-2482.24 1081.79,-2422.24 720.79,-2422.24"/>
<text text-anchor="start" x="867.5" y="-2442.44" font-family="Helvetica,sans-Serif" font-size="32.00" fill="#29235c">desc</text>
<polygon fill="#e7e2dd" stroke="transparent" points="720.79,-2362.24 720.79,-2422.24 1081.79,-2422.24 1081.79,-2362.24 720.79,-2362.24"/>
<polygon fill="none" stroke="#29235c" points="720.79,-2362.24 720.79,-2422.24 1081.79,-2422.24 1081.79,-2362.24 720.79,-2362.24"/>
<text text-anchor="start" x="839.94" y="-2382.44" font-family="Helvetica,sans-Serif" font-size="32.00" fill="#29235c">category</text>
<polygon fill="none" stroke="#29235c" stroke-width="2" points="719.29,-2361.24 719.29,-2963.24 1082.29,-2963.24 1082.29,-2361.24 719.29,-2361.24"/>
</g>
<!-- job&#45;&gt;company -->
<!-- job&#45;&gt;company -->
<g id="edge12" class="edge">
<title>job:e&#45;&gt;company:w</title>
<path fill="none" stroke="#29235c" stroke-width="3" d="M1082.79,-2812.24C1164.43,-2812.24 1185.18,-2839.83 1261.83,-2842.09"/>
<polygon fill="#29235c" stroke="#29235c" stroke-width="3" points="1261.93,-2845.59 1271.98,-2842.24 1262.03,-2838.59 1261.93,-2845.59"/>
<text text-anchor="middle" x="1280.87" y="-2813.44" font-family="Helvetica,sans-Serif" font-size="32.00" fill="#29235c">1</text>
<text text-anchor="middle" x="1076.57" y="-2783.44" font-family="Helvetica,sans-Serif" font-size="32.00" fill="#29235c">*</text>
</g>
<!-- job_application -->
<g id="job_application" class="node">
<title>job_application</title>
<ellipse fill="none" stroke="black" stroke-width="0" cx="303.35" cy="-2789.24" rx="256.86" ry="342.48"/>
<polygon fill="#1d71b8" stroke="transparent" points="124.35,-2969.24 124.35,-3029.24 483.35,-3029.24 483.35,-2969.24 124.35,-2969.24"/>
<polygon fill="none" stroke="#29235c" points="124.35,-2969.24 124.35,-3029.24 483.35,-3029.24 483.35,-2969.24 124.35,-2969.24"/>
<text text-anchor="start" x="134.9" y="-2990.44" font-family="Helvetica,sans-Serif" font-weight="bold" font-size="32.00" fill="#ffffff"> &#160;&#160;&#160;&#160;&#160;&#160;job_application &#160;&#160;&#160;&#160;&#160;&#160;</text>
<polygon fill="#e7e2dd" stroke="transparent" points="124.35,-2909.24 124.35,-2969.24 483.35,-2969.24 483.35,-2909.24 124.35,-2909.24"/>
<polygon fill="none" stroke="#29235c" points="124.35,-2909.24 124.35,-2969.24 483.35,-2969.24 483.35,-2909.24 124.35,-2909.24"/>
<text text-anchor="start" x="291.4" y="-2929.44" font-family="Helvetica,sans-Serif" font-size="32.00" fill="#29235c">id</text>
<polygon fill="#e7e2dd" stroke="transparent" points="124.35,-2849.24 124.35,-2909.24 483.35,-2909.24 483.35,-2849.24 124.35,-2849.24"/>
<polygon fill="none" stroke="#29235c" points="124.35,-2849.24 124.35,-2909.24 483.35,-2909.24 483.35,-2849.24 124.35,-2849.24"/>
<text text-anchor="start" x="177.62" y="-2870.44" font-family="Helvetica,sans-Serif" font-size="32.00" fill="#29235c">job_id </text>
<text text-anchor="start" x="271.87" y="-2870.44" font-family="Helvetica,sans-Serif" font-style="italic" font-size="32.00" fill="#29235c">NOT NULL</text>
<polygon fill="#e7e2dd" stroke="transparent" points="124.35,-2789.24 124.35,-2849.24 483.35,-2849.24 483.35,-2789.24 124.35,-2789.24"/>
<polygon fill="none" stroke="#29235c" points="124.35,-2789.24 124.35,-2849.24 483.35,-2849.24 483.35,-2789.24 124.35,-2789.24"/>
<text text-anchor="start" x="134.94" y="-2810.44" font-family="Helvetica,sans-Serif" font-size="32.00" fill="#29235c">applicant_id </text>
<text text-anchor="start" x="314.55" y="-2810.44" font-family="Helvetica,sans-Serif" font-style="italic" font-size="32.00" fill="#29235c">NOT NULL</text>
<polygon fill="#e7e2dd" stroke="transparent" points="124.35,-2729.24 124.35,-2789.24 483.35,-2789.24 483.35,-2729.24 124.35,-2729.24"/>
<polygon fill="none" stroke="#29235c" points="124.35,-2729.24 124.35,-2789.24 483.35,-2789.24 483.35,-2729.24 124.35,-2729.24"/>
<text text-anchor="start" x="250.51" y="-2749.44" font-family="Helvetica,sans-Serif" font-size="32.00" fill="#29235c">resume</text>
<polygon fill="#e7e2dd" stroke="transparent" points="124.35,-2669.24 124.35,-2729.24 483.35,-2729.24 483.35,-2669.24 124.35,-2669.24"/>
<polygon fill="none" stroke="#29235c" points="124.35,-2669.24 124.35,-2729.24 483.35,-2729.24 483.35,-2669.24 124.35,-2669.24"/>
<text text-anchor="start" x="261.17" y="-2689.44" font-family="Helvetica,sans-Serif" font-size="32.00" fill="#29235c">status</text>
<polygon fill="#e7e2dd" stroke="transparent" points="124.35,-2609.24 124.35,-2669.24 483.35,-2669.24 483.35,-2609.24 124.35,-2609.24"/>
<polygon fill="none" stroke="#29235c" points="124.35,-2609.24 124.35,-2669.24 483.35,-2669.24 483.35,-2609.24 124.35,-2609.24"/>
<text text-anchor="start" x="228.26" y="-2629.44" font-family="Helvetica,sans-Serif" font-size="32.00" fill="#29235c">created_at</text>
<polygon fill="#e7e2dd" stroke="transparent" points="124.35,-2549.24 124.35,-2609.24 483.35,-2609.24 483.35,-2549.24 124.35,-2549.24"/>
<polygon fill="none" stroke="#29235c" points="124.35,-2549.24 124.35,-2609.24 483.35,-2609.24 483.35,-2549.24 124.35,-2549.24"/>
<text text-anchor="start" x="223.8" y="-2569.44" font-family="Helvetica,sans-Serif" font-size="32.00" fill="#29235c">updated_at</text>
<polygon fill="none" stroke="#29235c" stroke-width="2" points="122.85,-2548.24 122.85,-3030.24 483.85,-3030.24 483.85,-2548.24 122.85,-2548.24"/>
</g>
<!-- job_application&#45;&gt;profile -->
<!-- job_application&#45;&gt;profile -->
<g id="edge16" class="edge">
<title>job_application:e&#45;&gt;profile:w</title>
<path fill="none" stroke="#29235c" stroke-width="3" d="M484.35,-2819.24C757.14,-2819.24 537.09,-2477.76 642.7,-2226.24 673.6,-2152.63 669.79,-2080.7 742.52,-2074.65"/>
<polygon fill="#29235c" stroke="#29235c" stroke-width="3" points="742.94,-2078.14 752.79,-2074.24 742.66,-2071.14 742.94,-2078.14"/>
<text text-anchor="middle" x="761.69" y="-2083.84" font-family="Helvetica,sans-Serif" font-size="32.00" fill="#29235c">1</text>
<text text-anchor="middle" x="478.13" y="-2790.44" font-family="Helvetica,sans-Serif" font-size="32.00" fill="#29235c">*</text>
</g>
<!-- job_application&#45;&gt;job -->
<!-- job_application&#45;&gt;job -->
<g id="edge14" class="edge">
<title>job_application:e&#45;&gt;job:w</title>
<path fill="none" stroke="#29235c" stroke-width="3" d="M484.35,-2879.24C585.56,-2879.24 613.29,-2872.7 709.62,-2872.26"/>
<polygon fill="#29235c" stroke="#29235c" stroke-width="3" points="709.8,-2875.76 719.79,-2872.24 709.78,-2868.76 709.8,-2875.76"/>
<text text-anchor="middle" x="710.9" y="-2843.44" font-family="Helvetica,sans-Serif" font-size="32.00" fill="#29235c">1</text>
<text text-anchor="middle" x="478.13" y="-2850.44" font-family="Helvetica,sans-Serif" font-size="32.00" fill="#29235c">*</text>
</g>
<!-- event -->
<g id="event" class="node">
<title>event</title>
<ellipse fill="none" stroke="black" stroke-width="0" cx="900.79" cy="-3534.24" rx="258.19" ry="427.19"/>
<polygon fill="#1d71b8" stroke="transparent" points="720.79,-3774.24 720.79,-3834.24 1081.79,-3834.24 1081.79,-3774.24 720.79,-3774.24"/>
<polygon fill="none" stroke="#29235c" points="720.79,-3774.24 720.79,-3834.24 1081.79,-3834.24 1081.79,-3774.24 720.79,-3774.24"/>
<text text-anchor="start" x="799.91" y="-3795.44" font-family="Helvetica,sans-Serif" font-weight="bold" font-size="32.00" fill="#ffffff"> &#160;&#160;&#160;&#160;&#160;&#160;event &#160;&#160;&#160;&#160;&#160;&#160;</text>
<polygon fill="#e7e2dd" stroke="transparent" points="720.79,-3714.24 720.79,-3774.24 1081.79,-3774.24 1081.79,-3714.24 720.79,-3714.24"/>
<polygon fill="none" stroke="#29235c" points="720.79,-3714.24 720.79,-3774.24 1081.79,-3774.24 1081.79,-3714.24 720.79,-3714.24"/>
<text text-anchor="start" x="888.85" y="-3734.44" font-family="Helvetica,sans-Serif" font-size="32.00" fill="#29235c">id</text>
<polygon fill="#e7e2dd" stroke="transparent" points="720.79,-3654.24 720.79,-3714.24 1081.79,-3714.24 1081.79,-3654.24 720.79,-3654.24"/>
<polygon fill="none" stroke="#29235c" points="720.79,-3654.24 720.79,-3714.24 1081.79,-3714.24 1081.79,-3654.24 720.79,-3654.24"/>
<text text-anchor="start" x="731.49" y="-3675.44" font-family="Helvetica,sans-Serif" font-size="32.00" fill="#29235c">company_id </text>
<text text-anchor="start" x="912.87" y="-3675.44" font-family="Helvetica,sans-Serif" font-style="italic" font-size="32.00" fill="#29235c">NOT NULL</text>
<polygon fill="#e7e2dd" stroke="transparent" points="720.79,-3594.24 720.79,-3654.24 1081.79,-3654.24 1081.79,-3594.24 720.79,-3594.24"/>
<polygon fill="none" stroke="#29235c" points="720.79,-3594.24 720.79,-3654.24 1081.79,-3654.24 1081.79,-3594.24 720.79,-3594.24"/>
<text text-anchor="start" x="861.28" y="-3614.44" font-family="Helvetica,sans-Serif" font-size="32.00" fill="#29235c">name</text>
<polygon fill="#e7e2dd" stroke="transparent" points="720.79,-3534.24 720.79,-3594.24 1081.79,-3594.24 1081.79,-3534.24 720.79,-3534.24"/>
<polygon fill="none" stroke="#29235c" points="720.79,-3534.24 720.79,-3594.24 1081.79,-3594.24 1081.79,-3534.24 720.79,-3534.24"/>
<text text-anchor="start" x="823.95" y="-3554.44" font-family="Helvetica,sans-Serif" font-size="32.00" fill="#29235c">description</text>
<polygon fill="#e7e2dd" stroke="transparent" points="720.79,-3474.24 720.79,-3534.24 1081.79,-3534.24 1081.79,-3474.24 720.79,-3474.24"/>
<polygon fill="none" stroke="#29235c" points="720.79,-3474.24 720.79,-3534.24 1081.79,-3534.24 1081.79,-3474.24 720.79,-3474.24"/>
<text text-anchor="start" x="871.07" y="-3494.44" font-family="Helvetica,sans-Serif" font-size="32.00" fill="#29235c">time</text>
<polygon fill="#e7e2dd" stroke="transparent" points="720.79,-3414.24 720.79,-3474.24 1081.79,-3474.24 1081.79,-3414.24 720.79,-3414.24"/>
<polygon fill="none" stroke="#29235c" points="720.79,-3414.24 720.79,-3474.24 1081.79,-3474.24 1081.79,-3414.24 720.79,-3414.24"/>
<text text-anchor="start" x="846.17" y="-3434.44" font-family="Helvetica,sans-Serif" font-size="32.00" fill="#29235c">location</text>
<polygon fill="#e7e2dd" stroke="transparent" points="720.79,-3354.24 720.79,-3414.24 1081.79,-3414.24 1081.79,-3354.24 720.79,-3354.24"/>
<polygon fill="none" stroke="#29235c" points="720.79,-3354.24 720.79,-3414.24 1081.79,-3414.24 1081.79,-3354.24 720.79,-3354.24"/>
<text text-anchor="start" x="840.86" y="-3374.44" font-family="Helvetica,sans-Serif" font-size="32.00" fill="#29235c">eligibility</text>
<polygon fill="#e7e2dd" stroke="transparent" points="720.79,-3294.24 720.79,-3354.24 1081.79,-3354.24 1081.79,-3294.24 720.79,-3294.24"/>
<polygon fill="none" stroke="#29235c" points="720.79,-3294.24 720.79,-3354.24 1081.79,-3354.24 1081.79,-3294.24 720.79,-3294.24"/>
<text text-anchor="start" x="825.71" y="-3314.44" font-family="Helvetica,sans-Serif" font-size="32.00" fill="#29235c">created_at</text>
<polygon fill="#e7e2dd" stroke="transparent" points="720.79,-3234.24 720.79,-3294.24 1081.79,-3294.24 1081.79,-3234.24 720.79,-3234.24"/>
<polygon fill="none" stroke="#29235c" points="720.79,-3234.24 720.79,-3294.24 1081.79,-3294.24 1081.79,-3234.24 720.79,-3234.24"/>
<text text-anchor="start" x="821.24" y="-3254.44" font-family="Helvetica,sans-Serif" font-size="32.00" fill="#29235c">updated_at</text>
<polygon fill="none" stroke="#29235c" stroke-width="2" points="719.29,-3233.24 719.29,-3835.24 1082.29,-3835.24 1082.29,-3233.24 719.29,-3233.24"/>
</g>
<!-- event&#45;&gt;company -->
<!-- event&#45;&gt;company -->
<g id="edge18" class="edge">
<title>event:e&#45;&gt;company:w</title>
<path fill="none" stroke="#29235c" stroke-width="3" d="M1082.79,-3684.24C1271.1,-3684.24 1087.1,-2872.39 1261.96,-2843.05"/>
<polygon fill="#29235c" stroke="#29235c" stroke-width="3" points="1262.3,-2846.54 1271.98,-2842.24 1261.73,-2839.56 1262.3,-2846.54"/>
<text text-anchor="middle" x="1280.87" y="-2851.84" font-family="Helvetica,sans-Serif" font-size="32.00" fill="#29235c">1</text>
<text text-anchor="middle" x="1076.57" y="-3693.84" font-family="Helvetica,sans-Serif" font-size="32.00" fill="#29235c">*</text>
</g>
<!-- event_regisiteration -->
<g id="event_regisiteration" class="node">
<title>event_regisiteration</title>
<ellipse fill="none" stroke="black" stroke-width="0" cx="303.35" cy="-3449.24" rx="303.2" ry="214.92"/>
<polygon fill="#1d71b8" stroke="transparent" points="91.35,-3539.24 91.35,-3599.24 516.35,-3599.24 516.35,-3539.24 91.35,-3539.24"/>
<polygon fill="none" stroke="#29235c" points="91.35,-3539.24 91.35,-3599.24 516.35,-3599.24 516.35,-3539.24 91.35,-3539.24"/>
<text text-anchor="start" x="102.01" y="-3560.44" font-family="Helvetica,sans-Serif" font-weight="bold" font-size="32.00" fill="#ffffff"> &#160;&#160;&#160;&#160;&#160;&#160;event_regisiteration &#160;&#160;&#160;&#160;&#160;&#160;</text>
<polygon fill="#e7e2dd" stroke="transparent" points="91.35,-3479.24 91.35,-3539.24 516.35,-3539.24 516.35,-3479.24 91.35,-3479.24"/>
<polygon fill="none" stroke="#29235c" points="91.35,-3479.24 91.35,-3539.24 516.35,-3539.24 516.35,-3479.24 91.35,-3479.24"/>
<text text-anchor="start" x="291.4" y="-3499.44" font-family="Helvetica,sans-Serif" font-size="32.00" fill="#29235c">id</text>
<polygon fill="#e7e2dd" stroke="transparent" points="91.35,-3419.24 91.35,-3479.24 516.35,-3479.24 516.35,-3419.24 91.35,-3419.24"/>
<polygon fill="none" stroke="#29235c" points="91.35,-3419.24 91.35,-3479.24 516.35,-3479.24 516.35,-3419.24 91.35,-3419.24"/>
<text text-anchor="start" x="159.83" y="-3440.44" font-family="Helvetica,sans-Serif" font-size="32.00" fill="#29235c">event_id </text>
<text text-anchor="start" x="289.66" y="-3440.44" font-family="Helvetica,sans-Serif" font-style="italic" font-size="32.00" fill="#29235c">NOT NULL</text>
<polygon fill="#e7e2dd" stroke="transparent" points="91.35,-3359.24 91.35,-3419.24 516.35,-3419.24 516.35,-3359.24 91.35,-3359.24"/>
<polygon fill="none" stroke="#29235c" points="91.35,-3359.24 91.35,-3419.24 516.35,-3419.24 516.35,-3359.24 91.35,-3359.24"/>
<text text-anchor="start" x="134.94" y="-3380.44" font-family="Helvetica,sans-Serif" font-size="32.00" fill="#29235c">applicant_id </text>
<text text-anchor="start" x="314.55" y="-3380.44" font-family="Helvetica,sans-Serif" font-style="italic" font-size="32.00" fill="#29235c">NOT NULL</text>
<polygon fill="#e7e2dd" stroke="transparent" points="91.35,-3299.24 91.35,-3359.24 516.35,-3359.24 516.35,-3299.24 91.35,-3299.24"/>
<polygon fill="none" stroke="#29235c" points="91.35,-3299.24 91.35,-3359.24 516.35,-3359.24 516.35,-3299.24 91.35,-3299.24"/>
<text text-anchor="start" x="206.94" y="-3319.44" font-family="Helvetica,sans-Serif" font-size="32.00" fill="#29235c">regisitered_at</text>
<polygon fill="none" stroke="#29235c" stroke-width="2" points="89.85,-3298.24 89.85,-3600.24 516.85,-3600.24 516.85,-3298.24 89.85,-3298.24"/>
</g>
<!-- event_regisiteration&#45;&gt;profile -->
<!-- event_regisiteration&#45;&gt;profile -->
<g id="edge22" class="edge">
<title>event_regisiteration:e&#45;&gt;profile:w</title>
<path fill="none" stroke="#29235c" stroke-width="3" d="M517.35,-3389.24C634.92,-3389.24 584.27,-3255.66 606.7,-3140.24 651.64,-2908.97 517.71,-2098.47 742.53,-2074.77"/>
<polygon fill="#29235c" stroke="#29235c" stroke-width="3" points="742.99,-2078.25 752.79,-2074.24 742.62,-2071.26 742.99,-2078.25"/>
<text text-anchor="middle" x="743.9" y="-2045.44" font-family="Helvetica,sans-Serif" font-size="32.00" fill="#29235c">1</text>
<text text-anchor="middle" x="511.13" y="-3398.84" font-family="Helvetica,sans-Serif" font-size="32.00" fill="#29235c">*</text>
</g>
<!-- event_regisiteration&#45;&gt;event -->
<!-- event_regisiteration&#45;&gt;event -->
<g id="edge20" class="edge">
<title>event_regisiteration:e&#45;&gt;event:w</title>
<path fill="none" stroke="#29235c" stroke-width="3" d="M517.35,-3449.24C672.79,-3449.24 565.83,-3731.14 709.49,-3743.8"/>
<polygon fill="#29235c" stroke="#29235c" stroke-width="3" points="709.65,-3747.31 719.79,-3744.24 709.95,-3740.32 709.65,-3747.31"/>
<text text-anchor="middle" x="710.9" y="-3753.84" font-family="Helvetica,sans-Serif" font-size="32.00" fill="#29235c">1</text>
<text text-anchor="middle" x="511.13" y="-3458.84" font-family="Helvetica,sans-Serif" font-size="32.00" fill="#29235c">*</text>
</g>
</g>
</svg>
