<?xml version="1.0" encoding="UTF-8" standalone="no"?>
<!DOCTYPE svg PUBLIC "-//W3C//DTD SVG 1.1//EN"
 "http://www.w3.org/Graphics/SVG/1.1/DTD/svg11.dtd">
<!-- Generated by graphviz version 2.44.1 (20200629.0846)
 -->
<!-- Title: dbml Pages: 1 -->
<svg width="2206pt" height="3851pt"
 viewBox="0.00 0.00 2206.21 3850.95" xmlns="http://www.w3.org/2000/svg" xmlns:xlink="http://www.w3.org/1999/xlink">
<g id="graph0" class="graph" transform="scale(1 1) rotate(0) translate(4 3846.95)">
<title>dbml</title>
<!-- user -->
<g id="user" class="node">
<title>user</title>
<ellipse fill="none" stroke="black" stroke-width="0" cx="1964.16" cy="-1426.26" rx="234.1" ry="339.32"/>
<polygon fill="#1d71b8" stroke="transparent" points="1799.16,-1606.26 1799.16,-1666.26 2130.16,-1666.26 2130.16,-1606.26 1799.16,-1606.26"/>
<polygon fill="none" stroke="black" points="1799.16,-1606.26 1799.16,-1666.26 2130.16,-1666.26 2130.16,-1606.26 1799.16,-1606.26"/>
<text text-anchor="start" x="1871.29" y="-1627.46" font-family="Helvetica,sans-Serif" font-weight="bold" font-size="32.00" fill="#ffffff"> &#160;&#160;&#160;&#160;&#160;&#160;user &#160;&#160;&#160;&#160;&#160;&#160;</text>
<polygon fill="#e7e2dd" stroke="transparent" points="1799.16,-1546.26 1799.16,-1606.26 2130.16,-1606.26 2130.16,-1546.26 1799.16,-1546.26"/>
<polygon fill="none" stroke="black" points="1799.16,-1546.26 1799.16,-1606.26 2130.16,-1606.26 2130.16,-1546.26 1799.16,-1546.26"/>
<text text-anchor="start" x="1952.21" y="-1566.46" font-family="Helvetica,sans-Serif" font-size="32.00" fill="#29235c">id</text>
<polygon fill="#e7e2dd" stroke="transparent" points="1799.16,-1486.26 1799.16,-1546.26 2130.16,-1546.26 2130.16,-1486.26 1799.16,-1486.26"/>
<polygon fill="none" stroke="black" points="1799.16,-1486.26 1799.16,-1546.26 2130.16,-1546.26 2130.16,-1486.26 1799.16,-1486.26"/>
<text text-anchor="start" x="1809.98" y="-1507.46" font-family="Helvetica,sans-Serif" font-size="32.00" fill="#29235c">username </text>
<text text-anchor="start" x="1961.12" y="-1507.46" font-family="Helvetica,sans-Serif" font-style="italic" font-size="32.00" fill="#29235c">NOT NULL</text>
<polygon fill="#e7e2dd" stroke="transparent" points="1799.16,-1426.26 1799.16,-1486.26 2130.16,-1486.26 2130.16,-1426.26 1799.16,-1426.26"/>
<polygon fill="none" stroke="black" points="1799.16,-1426.26 1799.16,-1486.26 2130.16,-1486.26 2130.16,-1426.26 1799.16,-1426.26"/>
<text text-anchor="start" x="1842.89" y="-1447.46" font-family="Helvetica,sans-Serif" font-size="32.00" fill="#29235c">email </text>
<text text-anchor="start" x="1928.21" y="-1447.46" font-family="Helvetica,sans-Serif" font-style="italic" font-size="32.00" fill="#29235c">NOT NULL</text>
<polygon fill="#e7e2dd" stroke="transparent" points="1799.16,-1366.26 1799.16,-1426.26 2130.16,-1426.26 2130.16,-1366.26 1799.16,-1366.26"/>
<polygon fill="none" stroke="black" points="1799.16,-1366.26 1799.16,-1426.26 2130.16,-1426.26 2130.16,-1366.26 1799.16,-1366.26"/>
<text text-anchor="start" x="1844.63" y="-1386.46" font-family="Helvetica,sans-Serif" font-size="32.00" fill="#29235c">password_digest</text>
<polygon fill="#e7e2dd" stroke="transparent" points="1799.16,-1306.26 1799.16,-1366.26 2130.16,-1366.26 2130.16,-1306.26 1799.16,-1306.26"/>
<polygon fill="none" stroke="black" points="1799.16,-1306.26 1799.16,-1366.26 2130.16,-1366.26 2130.16,-1306.26 1799.16,-1306.26"/>
<text text-anchor="start" x="1854.44" y="-1327.46" font-family="Helvetica,sans-Serif" font-size="32.00" fill="#29235c">role </text>
<text text-anchor="start" x="1916.66" y="-1327.46" font-family="Helvetica,sans-Serif" font-style="italic" font-size="32.00" fill="#29235c">NOT NULL</text>
<polygon fill="#e7e2dd" stroke="transparent" points="1799.16,-1246.26 1799.16,-1306.26 2130.16,-1306.26 2130.16,-1246.26 1799.16,-1246.26"/>
<polygon fill="none" stroke="black" points="1799.16,-1246.26 1799.16,-1306.26 2130.16,-1306.26 2130.16,-1246.26 1799.16,-1246.26"/>
<text text-anchor="start" x="1889.07" y="-1266.46" font-family="Helvetica,sans-Serif" font-size="32.00" fill="#29235c">created_at</text>
<polygon fill="#e7e2dd" stroke="transparent" points="1799.16,-1186.26 1799.16,-1246.26 2130.16,-1246.26 2130.16,-1186.26 1799.16,-1186.26"/>
<polygon fill="none" stroke="black" points="1799.16,-1186.26 1799.16,-1246.26 2130.16,-1246.26 2130.16,-1186.26 1799.16,-1186.26"/>
<text text-anchor="start" x="1884.61" y="-1206.46" font-family="Helvetica,sans-Serif" font-size="32.00" fill="#29235c">updated_at</text>
</g>
<!-- profile -->
<g id="profile" class="node">
<title>profile</title>
<ellipse fill="none" stroke="black" stroke-width="0" cx="892.31" cy="-1903.26" rx="207.78" ry="169.91"/>
<polygon fill="#1d71b8" stroke="transparent" points="745.31,-1963.26 745.31,-2023.26 1039.31,-2023.26 1039.31,-1963.26 745.31,-1963.26"/>
<polygon fill="none" stroke="black" points="745.31,-1963.26 745.31,-2023.26 1039.31,-2023.26 1039.31,-1963.26 745.31,-1963.26"/>
<text text-anchor="start" x="786.5" y="-1984.46" font-family="Helvetica,sans-Serif" font-weight="bold" font-size="32.00" fill="#ffffff"> &#160;&#160;&#160;&#160;&#160;&#160;profile &#160;&#160;&#160;&#160;&#160;&#160;</text>
<polygon fill="#e7e2dd" stroke="transparent" points="745.31,-1903.26 745.31,-1963.26 1039.31,-1963.26 1039.31,-1903.26 745.31,-1903.26"/>
<polygon fill="none" stroke="black" points="745.31,-1903.26 745.31,-1963.26 1039.31,-1963.26 1039.31,-1903.26 745.31,-1903.26"/>
<text text-anchor="start" x="879.86" y="-1923.46" font-family="Helvetica,sans-Serif" font-size="32.00" fill="#29235c">id</text>
<polygon fill="#e7e2dd" stroke="transparent" points="745.31,-1843.26 745.31,-1903.26 1039.31,-1903.26 1039.31,-1843.26 745.31,-1843.26"/>
<polygon fill="none" stroke="black" points="745.31,-1843.26 745.31,-1903.26 1039.31,-1903.26 1039.31,-1843.26 745.31,-1843.26"/>
<text text-anchor="start" x="756.3" y="-1864.46" font-family="Helvetica,sans-Serif" font-size="32.00" fill="#29235c">user_id </text>
<text text-anchor="start" x="870.1" y="-1864.46" font-family="Helvetica,sans-Serif" font-style="italic" font-size="32.00" fill="#29235c">NOT NULL</text>
<polygon fill="#e7e2dd" stroke="transparent" points="745.31,-1783.26 745.31,-1843.26 1039.31,-1843.26 1039.31,-1783.26 745.31,-1783.26"/>
<polygon fill="none" stroke="black" points="745.31,-1783.26 745.31,-1843.26 1039.31,-1843.26 1039.31,-1783.26 745.31,-1783.26"/>
<text text-anchor="start" x="816.72" y="-1803.46" font-family="Helvetica,sans-Serif" font-size="32.00" fill="#29235c">created_at</text>
</g>
<!-- profile&#45;&gt;user -->
<g id="edge1" class="edge">
<title>profile:e&#45;&gt;user:w</title>
<path fill="none" stroke="#29235c" d="M1040.31,-1873.26C1347.03,-1873.26 1421.81,-1793.47 1694.1,-1652.26 1741.76,-1627.55 1741.18,-1582.38 1788.11,-1576.83"/>
<polygon fill="#29235c" stroke="#29235c" points="1788.37,-1580.32 1798.16,-1576.26 1787.97,-1573.33 1788.37,-1580.32"/>
<text text-anchor="middle" x="1789.26" y="-1585.86" font-family="Helvetica,sans-Serif" font-size="32.00" fill="#29235c">1</text>
<text text-anchor="middle" x="1049.2" y="-1882.86" font-family="Helvetica,sans-Serif" font-size="32.00" fill="#29235c">1</text>
</g>
<!-- basic_profile -->
<g id="basic_profile" class="node">
<title>basic_profile</title>
<ellipse fill="none" stroke="black" stroke-width="0" cx="300.52" cy="-3376.26" rx="230.53" ry="466.88"/>
<polygon fill="#1d71b8" stroke="transparent" points="137.52,-3646.26 137.52,-3706.26 463.52,-3706.26 463.52,-3646.26 137.52,-3646.26"/>
<polygon fill="none" stroke="black" points="137.52,-3646.26 137.52,-3706.26 463.52,-3706.26 463.52,-3646.26 137.52,-3646.26"/>
<text text-anchor="start" x="148.48" y="-3667.46" font-family="Helvetica,sans-Serif" font-weight="bold" font-size="32.00" fill="#ffffff"> &#160;&#160;&#160;&#160;&#160;&#160;basic_profile &#160;&#160;&#160;&#160;&#160;&#160;</text>
<polygon fill="#e7e2dd" stroke="transparent" points="137.52,-3586.26 137.52,-3646.26 463.52,-3646.26 463.52,-3586.26 137.52,-3586.26"/>
<polygon fill="none" stroke="black" points="137.52,-3586.26 137.52,-3646.26 463.52,-3646.26 463.52,-3586.26 137.52,-3586.26"/>
<text text-anchor="start" x="288.08" y="-3606.46" font-family="Helvetica,sans-Serif" font-size="32.00" fill="#29235c">id</text>
<polygon fill="#e7e2dd" stroke="transparent" points="137.52,-3526.26 137.52,-3586.26 463.52,-3586.26 463.52,-3526.26 137.52,-3526.26"/>
<polygon fill="none" stroke="black" points="137.52,-3526.26 137.52,-3586.26 463.52,-3586.26 463.52,-3526.26 137.52,-3526.26"/>
<text text-anchor="start" x="152.07" y="-3547.46" font-family="Helvetica,sans-Serif" font-size="32.00" fill="#29235c">profile_id </text>
<text text-anchor="start" x="290.76" y="-3547.46" font-family="Helvetica,sans-Serif" font-style="italic" font-size="32.00" fill="#29235c">NOT NULL</text>
<polygon fill="#e7e2dd" stroke="transparent" points="137.52,-3466.26 137.52,-3526.26 463.52,-3526.26 463.52,-3466.26 137.52,-3466.26"/>
<polygon fill="none" stroke="black" points="137.52,-3466.26 137.52,-3526.26 463.52,-3526.26 463.52,-3466.26 137.52,-3466.26"/>
<text text-anchor="start" x="256.06" y="-3486.46" font-family="Helvetica,sans-Serif" font-size="32.00" fill="#29235c">avatar</text>
<polygon fill="#e7e2dd" stroke="transparent" points="137.52,-3406.26 137.52,-3466.26 463.52,-3466.26 463.52,-3406.26 137.52,-3406.26"/>
<polygon fill="none" stroke="black" points="137.52,-3406.26 137.52,-3466.26 463.52,-3466.26 463.52,-3406.26 137.52,-3406.26"/>
<text text-anchor="start" x="176.96" y="-3427.46" font-family="Helvetica,sans-Serif" font-size="32.00" fill="#29235c">name </text>
<text text-anchor="start" x="265.87" y="-3427.46" font-family="Helvetica,sans-Serif" font-style="italic" font-size="32.00" fill="#29235c">NOT NULL</text>
<polygon fill="#e7e2dd" stroke="transparent" points="137.52,-3346.26 137.52,-3406.26 463.52,-3406.26 463.52,-3346.26 137.52,-3346.26"/>
<polygon fill="none" stroke="black" points="137.52,-3346.26 137.52,-3406.26 463.52,-3406.26 463.52,-3346.26 137.52,-3346.26"/>
<text text-anchor="start" x="185.85" y="-3367.46" font-family="Helvetica,sans-Serif" font-size="32.00" fill="#29235c">birth </text>
<text text-anchor="start" x="256.97" y="-3367.46" font-family="Helvetica,sans-Serif" font-style="italic" font-size="32.00" fill="#29235c">NOT NULL</text>
<polygon fill="#e7e2dd" stroke="transparent" points="137.52,-3286.26 137.52,-3346.26 463.52,-3346.26 463.52,-3286.26 137.52,-3286.26"/>
<polygon fill="none" stroke="black" points="137.52,-3286.26 137.52,-3346.26 463.52,-3346.26 463.52,-3286.26 137.52,-3286.26"/>
<text text-anchor="start" x="276.52" y="-3306.46" font-family="Helvetica,sans-Serif" font-size="32.00" fill="#29235c">city</text>
<polygon fill="#e7e2dd" stroke="transparent" points="137.52,-3226.26 137.52,-3286.26 463.52,-3286.26 463.52,-3226.26 137.52,-3226.26"/>
<polygon fill="none" stroke="black" points="137.52,-3226.26 137.52,-3286.26 463.52,-3286.26 463.52,-3226.26 137.52,-3226.26"/>
<text text-anchor="start" x="265.84" y="-3246.46" font-family="Helvetica,sans-Serif" font-size="32.00" fill="#29235c">state</text>
<polygon fill="#e7e2dd" stroke="transparent" points="137.52,-3166.26 137.52,-3226.26 463.52,-3226.26 463.52,-3166.26 137.52,-3166.26"/>
<polygon fill="none" stroke="black" points="137.52,-3166.26 137.52,-3226.26 463.52,-3226.26 463.52,-3166.26 137.52,-3166.26"/>
<text text-anchor="start" x="248.06" y="-3186.46" font-family="Helvetica,sans-Serif" font-size="32.00" fill="#29235c">country</text>
<polygon fill="#e7e2dd" stroke="transparent" points="137.52,-3106.26 137.52,-3166.26 463.52,-3166.26 463.52,-3106.26 137.52,-3106.26"/>
<polygon fill="none" stroke="black" points="137.52,-3106.26 137.52,-3166.26 463.52,-3166.26 463.52,-3106.26 137.52,-3106.26"/>
<text text-anchor="start" x="252.53" y="-3126.46" font-family="Helvetica,sans-Serif" font-size="32.00" fill="#29235c">skillset</text>
<polygon fill="#e7e2dd" stroke="transparent" points="137.52,-3046.26 137.52,-3106.26 463.52,-3106.26 463.52,-3046.26 137.52,-3046.26"/>
<polygon fill="none" stroke="black" points="137.52,-3046.26 137.52,-3106.26 463.52,-3106.26 463.52,-3046.26 137.52,-3046.26"/>
<text text-anchor="start" x="183.17" y="-3066.46" font-family="Helvetica,sans-Serif" font-size="32.00" fill="#29235c">career_objective</text>
</g>
<!-- basic_profile&#45;&gt;profile -->
<g id="edge2" class="edge">
<title>basic_profile:e&#45;&gt;profile:w</title>
<path fill="none" stroke="#29235c" d="M464.52,-3556.26C762.32,-3556.26 548.86,-3193.46 601.04,-2900.26 638.49,-2689.84 530.64,-1957.39 734.06,-1933.85"/>
<polygon fill="#29235c" stroke="#29235c" points="734.52,-1937.32 744.31,-1933.26 734.12,-1930.34 734.52,-1937.32"/>
<text text-anchor="middle" x="753.2" y="-1942.86" font-family="Helvetica,sans-Serif" font-size="32.00" fill="#29235c">1</text>
<text text-anchor="middle" x="455.63" y="-3565.86" font-family="Helvetica,sans-Serif" font-size="32.00" fill="#29235c">1</text>
</g>
<!-- education_profile -->
<g id="education_profile" class="node">
<title>education_profile</title>
<ellipse fill="none" stroke="black" stroke-width="0" cx="300.52" cy="-2552.26" rx="275.54" ry="339.32"/>
<polygon fill="#1d71b8" stroke="transparent" points="105.52,-2732.26 105.52,-2792.26 495.52,-2792.26 495.52,-2732.26 105.52,-2732.26"/>
<polygon fill="none" stroke="black" points="105.52,-2732.26 105.52,-2792.26 495.52,-2792.26 495.52,-2732.26 105.52,-2732.26"/>
<text text-anchor="start" x="116.46" y="-2753.46" font-family="Helvetica,sans-Serif" font-weight="bold" font-size="32.00" fill="#ffffff"> &#160;&#160;&#160;&#160;&#160;&#160;education_profile &#160;&#160;&#160;&#160;&#160;&#160;</text>
<polygon fill="#e7e2dd" stroke="transparent" points="105.52,-2672.26 105.52,-2732.26 495.52,-2732.26 495.52,-2672.26 105.52,-2672.26"/>
<polygon fill="none" stroke="black" points="105.52,-2672.26 105.52,-2732.26 495.52,-2732.26 495.52,-2672.26 105.52,-2672.26"/>
<text text-anchor="start" x="288.08" y="-2692.46" font-family="Helvetica,sans-Serif" font-size="32.00" fill="#29235c">id</text>
<polygon fill="#e7e2dd" stroke="transparent" points="105.52,-2612.26 105.52,-2672.26 495.52,-2672.26 495.52,-2612.26 105.52,-2612.26"/>
<polygon fill="none" stroke="black" points="105.52,-2612.26 105.52,-2672.26 495.52,-2672.26 495.52,-2612.26 105.52,-2612.26"/>
<text text-anchor="start" x="152.07" y="-2633.46" font-family="Helvetica,sans-Serif" font-size="32.00" fill="#29235c">profile_id </text>
<text text-anchor="start" x="290.76" y="-2633.46" font-family="Helvetica,sans-Serif" font-style="italic" font-size="32.00" fill="#29235c">NOT NULL</text>
<polygon fill="#e7e2dd" stroke="transparent" points="105.52,-2552.26 105.52,-2612.26 495.52,-2612.26 495.52,-2552.26 105.52,-2552.26"/>
<polygon fill="none" stroke="black" points="105.52,-2552.26 105.52,-2612.26 495.52,-2612.26 495.52,-2552.26 105.52,-2552.26"/>
<text text-anchor="start" x="200.94" y="-2572.46" font-family="Helvetica,sans-Serif" font-size="32.00" fill="#29235c">college_name</text>
<polygon fill="#e7e2dd" stroke="transparent" points="105.52,-2492.26 105.52,-2552.26 495.52,-2552.26 495.52,-2492.26 105.52,-2492.26"/>
<polygon fill="none" stroke="black" points="105.52,-2492.26 105.52,-2552.26 495.52,-2552.26 495.52,-2492.26 105.52,-2492.26"/>
<text text-anchor="start" x="245.4" y="-2512.46" font-family="Helvetica,sans-Serif" font-size="32.00" fill="#29235c">location</text>
<polygon fill="#e7e2dd" stroke="transparent" points="105.52,-2432.26 105.52,-2492.26 495.52,-2492.26 495.52,-2432.26 105.52,-2432.26"/>
<polygon fill="none" stroke="black" points="105.52,-2432.26 105.52,-2492.26 495.52,-2492.26 495.52,-2432.26 105.52,-2432.26"/>
<text text-anchor="start" x="250.72" y="-2452.46" font-family="Helvetica,sans-Serif" font-size="32.00" fill="#29235c">degree</text>
<polygon fill="#e7e2dd" stroke="transparent" points="105.52,-2372.26 105.52,-2432.26 495.52,-2432.26 495.52,-2372.26 105.52,-2372.26"/>
<polygon fill="none" stroke="black" points="105.52,-2372.26 105.52,-2432.26 495.52,-2432.26 495.52,-2372.26 105.52,-2372.26"/>
<text text-anchor="start" x="260.53" y="-2392.46" font-family="Helvetica,sans-Serif" font-size="32.00" fill="#29235c">major</text>
<polygon fill="#e7e2dd" stroke="transparent" points="105.52,-2312.26 105.52,-2372.26 495.52,-2372.26 495.52,-2312.26 105.52,-2312.26"/>
<polygon fill="none" stroke="black" points="105.52,-2312.26 105.52,-2372.26 495.52,-2372.26 495.52,-2312.26 105.52,-2312.26"/>
<text text-anchor="start" x="183.15" y="-2332.46" font-family="Helvetica,sans-Serif" font-size="32.00" fill="#29235c">year_of_passing</text>
</g>
<!-- education_profile&#45;&gt;profile -->
<g id="edge3" class="edge">
<title>education_profile:e&#45;&gt;profile:w</title>
<path fill="none" stroke="#29235c" d="M496.52,-2642.26C826.9,-2642.26 419.04,-1947.73 734.27,-1933.49"/>
<polygon fill="#29235c" stroke="#29235c" points="734.39,-1936.98 744.31,-1933.26 734.23,-1929.99 734.39,-1936.98"/>
<text text-anchor="middle" x="753.2" y="-1904.46" font-family="Helvetica,sans-Serif" font-size="32.00" fill="#29235c">1</text>
<text text-anchor="middle" x="502.74" y="-2651.86" font-family="Helvetica,sans-Serif" font-size="32.00" fill="#29235c">*</text>
</g>
<!-- experience_profile -->
<g id="experience_profile" class="node">
<title>experience_profile</title>
<ellipse fill="none" stroke="black" stroke-width="0" cx="300.52" cy="-1813.26" rx="287.59" ry="381.68"/>
<polygon fill="#1d71b8" stroke="transparent" points="97.52,-2023.26 97.52,-2083.26 504.52,-2083.26 504.52,-2023.26 97.52,-2023.26"/>
<polygon fill="none" stroke="black" points="97.52,-2023.26 97.52,-2083.26 504.52,-2083.26 504.52,-2023.26 97.52,-2023.26"/>
<text text-anchor="start" x="108.08" y="-2044.46" font-family="Helvetica,sans-Serif" font-weight="bold" font-size="32.00" fill="#ffffff"> &#160;&#160;&#160;&#160;&#160;&#160;experience_profile &#160;&#160;&#160;&#160;&#160;&#160;</text>
<polygon fill="#e7e2dd" stroke="transparent" points="97.52,-1963.26 97.52,-2023.26 504.52,-2023.26 504.52,-1963.26 97.52,-1963.26"/>
<polygon fill="none" stroke="black" points="97.52,-1963.26 97.52,-2023.26 504.52,-2023.26 504.52,-1963.26 97.52,-1963.26"/>
<text text-anchor="start" x="288.58" y="-1983.46" font-family="Helvetica,sans-Serif" font-size="32.00" fill="#29235c">id</text>
<polygon fill="#e7e2dd" stroke="transparent" points="97.52,-1903.26 97.52,-1963.26 504.52,-1963.26 504.52,-1903.26 97.52,-1903.26"/>
<polygon fill="none" stroke="black" points="97.52,-1903.26 97.52,-1963.26 504.52,-1963.26 504.52,-1903.26 97.52,-1903.26"/>
<text text-anchor="start" x="152.57" y="-1924.46" font-family="Helvetica,sans-Serif" font-size="32.00" fill="#29235c">profile_id </text>
<text text-anchor="start" x="291.26" y="-1924.46" font-family="Helvetica,sans-Serif" font-style="italic" font-size="32.00" fill="#29235c">NOT NULL</text>
<polygon fill="#e7e2dd" stroke="transparent" points="97.52,-1843.26 97.52,-1903.26 504.52,-1903.26 504.52,-1843.26 97.52,-1843.26"/>
<polygon fill="none" stroke="black" points="97.52,-1843.26 97.52,-1903.26 504.52,-1903.26 504.52,-1843.26 97.52,-1843.26"/>
<text text-anchor="start" x="187.21" y="-1863.46" font-family="Helvetica,sans-Serif" font-size="32.00" fill="#29235c">company_name</text>
<polygon fill="#e7e2dd" stroke="transparent" points="97.52,-1783.26 97.52,-1843.26 504.52,-1843.26 504.52,-1783.26 97.52,-1783.26"/>
<polygon fill="none" stroke="black" points="97.52,-1783.26 97.52,-1843.26 504.52,-1843.26 504.52,-1783.26 97.52,-1783.26"/>
<text text-anchor="start" x="276.13" y="-1803.46" font-family="Helvetica,sans-Serif" font-size="32.00" fill="#29235c">title</text>
<polygon fill="#e7e2dd" stroke="transparent" points="97.52,-1723.26 97.52,-1783.26 504.52,-1783.26 504.52,-1723.26 97.52,-1723.26"/>
<polygon fill="none" stroke="black" points="97.52,-1723.26 97.52,-1783.26 504.52,-1783.26 504.52,-1723.26 97.52,-1723.26"/>
<text text-anchor="start" x="245.9" y="-1743.46" font-family="Helvetica,sans-Serif" font-size="32.00" fill="#29235c">location</text>
<polygon fill="#e7e2dd" stroke="transparent" points="97.52,-1663.26 97.52,-1723.26 504.52,-1723.26 504.52,-1663.26 97.52,-1663.26"/>
<polygon fill="none" stroke="black" points="97.52,-1663.26 97.52,-1723.26 504.52,-1723.26 504.52,-1663.26 97.52,-1663.26"/>
<text text-anchor="start" x="229.88" y="-1683.46" font-family="Helvetica,sans-Serif" font-size="32.00" fill="#29235c">start_date</text>
<polygon fill="#e7e2dd" stroke="transparent" points="97.52,-1603.26 97.52,-1663.26 504.52,-1663.26 504.52,-1603.26 97.52,-1603.26"/>
<polygon fill="none" stroke="black" points="97.52,-1603.26 97.52,-1663.26 504.52,-1663.26 504.52,-1603.26 97.52,-1603.26"/>
<text text-anchor="start" x="234.31" y="-1623.46" font-family="Helvetica,sans-Serif" font-size="32.00" fill="#29235c">end_date</text>
<polygon fill="#e7e2dd" stroke="transparent" points="97.52,-1543.26 97.52,-1603.26 504.52,-1603.26 504.52,-1543.26 97.52,-1543.26"/>
<polygon fill="none" stroke="black" points="97.52,-1543.26 97.52,-1603.26 504.52,-1603.26 504.52,-1543.26 97.52,-1543.26"/>
<text text-anchor="start" x="181.01" y="-1563.46" font-family="Helvetica,sans-Serif" font-size="32.00" fill="#29235c">work_description</text>
</g>
<!-- experience_profile&#45;&gt;profile -->
<g id="edge4" class="edge">
<title>experience_profile:e&#45;&gt;profile:w</title>
<path fill="none" stroke="#29235c" d="M505.52,-1933.26C608.23,-1933.26 636.39,-1933.26 734.29,-1933.26"/>
<polygon fill="#29235c" stroke="#29235c" points="734.31,-1936.76 744.31,-1933.26 734.31,-1929.76 734.31,-1936.76"/>
<text text-anchor="middle" x="735.41" y="-1942.86" font-family="Helvetica,sans-Serif" font-size="32.00" fill="#29235c">1</text>
<text text-anchor="middle" x="511.74" y="-1942.86" font-family="Helvetica,sans-Serif" font-size="32.00" fill="#29235c">*</text>
</g>
<!-- company -->
<g id="company" class="node">
<title>company</title>
<ellipse fill="none" stroke="black" stroke-width="0" cx="1438.84" cy="-1261.26" rx="255.03" ry="381.68"/>
<polygon fill="#1d71b8" stroke="transparent" points="1258.84,-1471.26 1258.84,-1531.26 1619.84,-1531.26 1619.84,-1471.26 1258.84,-1471.26"/>
<polygon fill="none" stroke="black" points="1258.84,-1471.26 1258.84,-1531.26 1619.84,-1531.26 1619.84,-1471.26 1258.84,-1471.26"/>
<text text-anchor="start" x="1312.18" y="-1492.46" font-family="Helvetica,sans-Serif" font-weight="bold" font-size="32.00" fill="#ffffff"> &#160;&#160;&#160;&#160;&#160;&#160;company &#160;&#160;&#160;&#160;&#160;&#160;</text>
<polygon fill="#e7e2dd" stroke="transparent" points="1258.84,-1411.26 1258.84,-1471.26 1619.84,-1471.26 1619.84,-1411.26 1258.84,-1411.26"/>
<polygon fill="none" stroke="black" points="1258.84,-1411.26 1258.84,-1471.26 1619.84,-1471.26 1619.84,-1411.26 1258.84,-1411.26"/>
<text text-anchor="start" x="1426.89" y="-1431.46" font-family="Helvetica,sans-Serif" font-size="32.00" fill="#29235c">id</text>
<polygon fill="#e7e2dd" stroke="transparent" points="1258.84,-1351.26 1258.84,-1411.26 1619.84,-1411.26 1619.84,-1351.26 1258.84,-1351.26"/>
<polygon fill="none" stroke="black" points="1258.84,-1351.26 1258.84,-1411.26 1619.84,-1411.26 1619.84,-1351.26 1258.84,-1351.26"/>
<text text-anchor="start" x="1269.54" y="-1372.46" font-family="Helvetica,sans-Serif" font-size="32.00" fill="#29235c">company_id </text>
<text text-anchor="start" x="1450.92" y="-1372.46" font-family="Helvetica,sans-Serif" font-style="italic" font-size="32.00" fill="#29235c">NOT NULL</text>
<polygon fill="#e7e2dd" stroke="transparent" points="1258.84,-1291.26 1258.84,-1351.26 1619.84,-1351.26 1619.84,-1291.26 1258.84,-1291.26"/>
<polygon fill="none" stroke="black" points="1258.84,-1291.26 1258.84,-1351.26 1619.84,-1351.26 1619.84,-1291.26 1258.84,-1291.26"/>
<text text-anchor="start" x="1394.88" y="-1311.46" font-family="Helvetica,sans-Serif" font-size="32.00" fill="#29235c">avatar</text>
<polygon fill="#e7e2dd" stroke="transparent" points="1258.84,-1231.26 1258.84,-1291.26 1619.84,-1291.26 1619.84,-1231.26 1258.84,-1231.26"/>
<polygon fill="none" stroke="black" points="1258.84,-1231.26 1258.84,-1291.26 1619.84,-1291.26 1619.84,-1231.26 1258.84,-1231.26"/>
<text text-anchor="start" x="1399.33" y="-1251.46" font-family="Helvetica,sans-Serif" font-size="32.00" fill="#29235c">name</text>
<polygon fill="#e7e2dd" stroke="transparent" points="1258.84,-1171.26 1258.84,-1231.26 1619.84,-1231.26 1619.84,-1171.26 1258.84,-1171.26"/>
<polygon fill="none" stroke="black" points="1258.84,-1171.26 1258.84,-1231.26 1619.84,-1231.26 1619.84,-1171.26 1258.84,-1171.26"/>
<text text-anchor="start" x="1384.21" y="-1191.46" font-family="Helvetica,sans-Serif" font-size="32.00" fill="#29235c">location</text>
<polygon fill="#e7e2dd" stroke="transparent" points="1258.84,-1111.26 1258.84,-1171.26 1619.84,-1171.26 1619.84,-1111.26 1258.84,-1111.26"/>
<polygon fill="none" stroke="black" points="1258.84,-1111.26 1258.84,-1171.26 1619.84,-1171.26 1619.84,-1111.26 1258.84,-1111.26"/>
<text text-anchor="start" x="1361.99" y="-1131.46" font-family="Helvetica,sans-Serif" font-size="32.00" fill="#29235c">description</text>
<polygon fill="#e7e2dd" stroke="transparent" points="1258.84,-1051.26 1258.84,-1111.26 1619.84,-1111.26 1619.84,-1051.26 1258.84,-1051.26"/>
<polygon fill="none" stroke="black" points="1258.84,-1051.26 1258.84,-1111.26 1619.84,-1111.26 1619.84,-1051.26 1258.84,-1051.26"/>
<text text-anchor="start" x="1335.32" y="-1071.46" font-family="Helvetica,sans-Serif" font-size="32.00" fill="#29235c">contract_email</text>
<polygon fill="#e7e2dd" stroke="transparent" points="1258.84,-991.26 1258.84,-1051.26 1619.84,-1051.26 1619.84,-991.26 1258.84,-991.26"/>
<polygon fill="none" stroke="black" points="1258.84,-991.26 1258.84,-1051.26 1619.84,-1051.26 1619.84,-991.26 1258.84,-991.26"/>
<text text-anchor="start" x="1329.07" y="-1011.46" font-family="Helvetica,sans-Serif" font-size="32.00" fill="#29235c">contract_phone</text>
</g>
<!-- company&#45;&gt;user -->
<g id="edge5" class="edge">
<title>company:e&#45;&gt;user:w</title>
<path fill="none" stroke="#29235c" d="M1620.84,-1381.26C1734.43,-1381.26 1684.3,-1564.64 1787.99,-1575.74"/>
<polygon fill="#29235c" stroke="#29235c" points="1787.99,-1579.24 1798.16,-1576.26 1788.35,-1572.25 1787.99,-1579.24"/>
<text text-anchor="middle" x="1789.26" y="-1547.46" font-family="Helvetica,sans-Serif" font-size="32.00" fill="#29235c">1</text>
<text text-anchor="middle" x="1611.94" y="-1390.86" font-family="Helvetica,sans-Serif" font-size="32.00" fill="#29235c">1</text>
</g>
<!-- job -->
<g id="job" class="node">
<title>job</title>
<ellipse fill="none" stroke="black" stroke-width="0" cx="892.31" cy="-424.26" rx="255.03" ry="424.03"/>
<polygon fill="#1d71b8" stroke="transparent" points="712.31,-664.26 712.31,-724.26 1073.31,-724.26 1073.31,-664.26 712.31,-664.26"/>
<polygon fill="none" stroke="black" points="712.31,-664.26 712.31,-724.26 1073.31,-724.26 1073.31,-664.26 712.31,-664.26"/>
<text text-anchor="start" x="809.22" y="-685.46" font-family="Helvetica,sans-Serif" font-weight="bold" font-size="32.00" fill="#ffffff"> &#160;&#160;&#160;&#160;&#160;&#160;job &#160;&#160;&#160;&#160;&#160;&#160;</text>
<polygon fill="#e7e2dd" stroke="transparent" points="712.31,-604.26 712.31,-664.26 1073.31,-664.26 1073.31,-604.26 712.31,-604.26"/>
<polygon fill="none" stroke="black" points="712.31,-604.26 712.31,-664.26 1073.31,-664.26 1073.31,-604.26 712.31,-604.26"/>
<text text-anchor="start" x="880.36" y="-624.46" font-family="Helvetica,sans-Serif" font-size="32.00" fill="#29235c">id</text>
<polygon fill="#e7e2dd" stroke="transparent" points="712.31,-544.26 712.31,-604.26 1073.31,-604.26 1073.31,-544.26 712.31,-544.26"/>
<polygon fill="none" stroke="black" points="712.31,-544.26 712.31,-604.26 1073.31,-604.26 1073.31,-544.26 712.31,-544.26"/>
<text text-anchor="start" x="723.01" y="-565.46" font-family="Helvetica,sans-Serif" font-size="32.00" fill="#29235c">company_id </text>
<text text-anchor="start" x="904.39" y="-565.46" font-family="Helvetica,sans-Serif" font-style="italic" font-size="32.00" fill="#29235c">NOT NULL</text>
<polygon fill="#e7e2dd" stroke="transparent" points="712.31,-484.26 712.31,-544.26 1073.31,-544.26 1073.31,-484.26 712.31,-484.26"/>
<polygon fill="none" stroke="black" points="712.31,-484.26 712.31,-544.26 1073.31,-544.26 1073.31,-484.26 712.31,-484.26"/>
<text text-anchor="start" x="867.92" y="-504.46" font-family="Helvetica,sans-Serif" font-size="32.00" fill="#29235c">title</text>
<polygon fill="#e7e2dd" stroke="transparent" points="712.31,-424.26 712.31,-484.26 1073.31,-484.26 1073.31,-424.26 712.31,-424.26"/>
<polygon fill="none" stroke="black" points="712.31,-424.26 712.31,-484.26 1073.31,-484.26 1073.31,-424.26 712.31,-424.26"/>
<text text-anchor="start" x="817.22" y="-444.46" font-family="Helvetica,sans-Serif" font-size="32.00" fill="#29235c">created_at</text>
<polygon fill="#e7e2dd" stroke="transparent" points="712.31,-364.26 712.31,-424.26 1073.31,-424.26 1073.31,-364.26 712.31,-364.26"/>
<polygon fill="none" stroke="black" points="712.31,-364.26 712.31,-424.26 1073.31,-424.26 1073.31,-364.26 712.31,-364.26"/>
<text text-anchor="start" x="746.98" y="-384.46" font-family="Helvetica,sans-Serif" font-size="32.00" fill="#29235c">application_deadline</text>
<polygon fill="#e7e2dd" stroke="transparent" points="712.31,-304.26 712.31,-364.26 1073.31,-364.26 1073.31,-304.26 712.31,-304.26"/>
<polygon fill="none" stroke="black" points="712.31,-304.26 712.31,-364.26 1073.31,-364.26 1073.31,-304.26 712.31,-304.26"/>
<text text-anchor="start" x="837.68" y="-324.46" font-family="Helvetica,sans-Serif" font-size="32.00" fill="#29235c">location</text>
<polygon fill="#e7e2dd" stroke="transparent" points="712.31,-244.26 712.31,-304.26 1073.31,-304.26 1073.31,-244.26 712.31,-244.26"/>
<polygon fill="none" stroke="black" points="712.31,-244.26 712.31,-304.26 1073.31,-304.26 1073.31,-244.26 712.31,-244.26"/>
<text text-anchor="start" x="850.14" y="-264.46" font-family="Helvetica,sans-Serif" font-size="32.00" fill="#29235c">salary</text>
<polygon fill="#e7e2dd" stroke="transparent" points="712.31,-184.26 712.31,-244.26 1073.31,-244.26 1073.31,-184.26 712.31,-184.26"/>
<polygon fill="none" stroke="black" points="712.31,-184.26 712.31,-244.26 1073.31,-244.26 1073.31,-184.26 712.31,-184.26"/>
<text text-anchor="start" x="859.02" y="-204.46" font-family="Helvetica,sans-Serif" font-size="32.00" fill="#29235c">desc</text>
<polygon fill="#e7e2dd" stroke="transparent" points="712.31,-124.26 712.31,-184.26 1073.31,-184.26 1073.31,-124.26 712.31,-124.26"/>
<polygon fill="none" stroke="black" points="712.31,-124.26 712.31,-184.26 1073.31,-184.26 1073.31,-124.26 712.31,-124.26"/>
<text text-anchor="start" x="831.46" y="-144.46" font-family="Helvetica,sans-Serif" font-size="32.00" fill="#29235c">category</text>
</g>
<!-- job&#45;&gt;company -->
<g id="edge6" class="edge">
<title>job:e&#45;&gt;company:w</title>
<path fill="none" stroke="#29235c" d="M1074.31,-574.26C1267.78,-574.26 1068.17,-1411.05 1247.83,-1440.47"/>
<polygon fill="#29235c" stroke="#29235c" points="1247.59,-1443.96 1257.84,-1441.26 1248.15,-1436.98 1247.59,-1443.96"/>
<text text-anchor="middle" x="1248.94" y="-1450.86" font-family="Helvetica,sans-Serif" font-size="32.00" fill="#29235c">1</text>
<text text-anchor="middle" x="1080.53" y="-545.46" font-family="Helvetica,sans-Serif" font-size="32.00" fill="#29235c">*</text>
</g>
<!-- job_application -->
<g id="job_application" class="node">
<title>job_application</title>
<ellipse fill="none" stroke="black" stroke-width="0" cx="300.52" cy="-588.26" rx="253.7" ry="339.32"/>
<polygon fill="#1d71b8" stroke="transparent" points="121.52,-768.26 121.52,-828.26 480.52,-828.26 480.52,-768.26 121.52,-768.26"/>
<polygon fill="none" stroke="black" points="121.52,-768.26 121.52,-828.26 480.52,-828.26 480.52,-768.26 121.52,-768.26"/>
<text text-anchor="start" x="132.07" y="-789.46" font-family="Helvetica,sans-Serif" font-weight="bold" font-size="32.00" fill="#ffffff"> &#160;&#160;&#160;&#160;&#160;&#160;job_application &#160;&#160;&#160;&#160;&#160;&#160;</text>
<polygon fill="#e7e2dd" stroke="transparent" points="121.52,-708.26 121.52,-768.26 480.52,-768.26 480.52,-708.26 121.52,-708.26"/>
<polygon fill="none" stroke="black" points="121.52,-708.26 121.52,-768.26 480.52,-768.26 480.52,-708.26 121.52,-708.26"/>
<text text-anchor="start" x="288.58" y="-728.46" font-family="Helvetica,sans-Serif" font-size="32.00" fill="#29235c">id</text>
<polygon fill="#e7e2dd" stroke="transparent" points="121.52,-648.26 121.52,-708.26 480.52,-708.26 480.52,-648.26 121.52,-648.26"/>
<polygon fill="none" stroke="black" points="121.52,-648.26 121.52,-708.26 480.52,-708.26 480.52,-648.26 121.52,-648.26"/>
<text text-anchor="start" x="174.79" y="-669.46" font-family="Helvetica,sans-Serif" font-size="32.00" fill="#29235c">job_id </text>
<text text-anchor="start" x="269.04" y="-669.46" font-family="Helvetica,sans-Serif" font-style="italic" font-size="32.00" fill="#29235c">NOT NULL</text>
<polygon fill="#e7e2dd" stroke="transparent" points="121.52,-588.26 121.52,-648.26 480.52,-648.26 480.52,-588.26 121.52,-588.26"/>
<polygon fill="none" stroke="black" points="121.52,-588.26 121.52,-648.26 480.52,-648.26 480.52,-588.26 121.52,-588.26"/>
<text text-anchor="start" x="132.11" y="-609.46" font-family="Helvetica,sans-Serif" font-size="32.00" fill="#29235c">applicant_id </text>
<text text-anchor="start" x="311.72" y="-609.46" font-family="Helvetica,sans-Serif" font-style="italic" font-size="32.00" fill="#29235c">NOT NULL</text>
<polygon fill="#e7e2dd" stroke="transparent" points="121.52,-528.26 121.52,-588.26 480.52,-588.26 480.52,-528.26 121.52,-528.26"/>
<polygon fill="none" stroke="black" points="121.52,-528.26 121.52,-588.26 480.52,-588.26 480.52,-528.26 121.52,-528.26"/>
<text text-anchor="start" x="247.68" y="-548.46" font-family="Helvetica,sans-Serif" font-size="32.00" fill="#29235c">resume</text>
<polygon fill="#e7e2dd" stroke="transparent" points="121.52,-468.26 121.52,-528.26 480.52,-528.26 480.52,-468.26 121.52,-468.26"/>
<polygon fill="none" stroke="black" points="121.52,-468.26 121.52,-528.26 480.52,-528.26 480.52,-468.26 121.52,-468.26"/>
<text text-anchor="start" x="258.34" y="-488.46" font-family="Helvetica,sans-Serif" font-size="32.00" fill="#29235c">status</text>
<polygon fill="#e7e2dd" stroke="transparent" points="121.52,-408.26 121.52,-468.26 480.52,-468.26 480.52,-408.26 121.52,-408.26"/>
<polygon fill="none" stroke="black" points="121.52,-408.26 121.52,-468.26 480.52,-468.26 480.52,-408.26 121.52,-408.26"/>
<text text-anchor="start" x="225.43" y="-428.46" font-family="Helvetica,sans-Serif" font-size="32.00" fill="#29235c">created_at</text>
<polygon fill="#e7e2dd" stroke="transparent" points="121.52,-348.26 121.52,-408.26 480.52,-408.26 480.52,-348.26 121.52,-348.26"/>
<polygon fill="none" stroke="black" points="121.52,-348.26 121.52,-408.26 480.52,-408.26 480.52,-348.26 121.52,-348.26"/>
<text text-anchor="start" x="220.97" y="-368.46" font-family="Helvetica,sans-Serif" font-size="32.00" fill="#29235c">updated_at</text>
</g>
<!-- job_application&#45;&gt;profile -->
<g id="edge8" class="edge">
<title>job_application:e&#45;&gt;profile:w</title>
<path fill="none" stroke="#29235c" d="M481.52,-618.26C776.03,-618.26 454.03,-1902.62 734.09,-1932.73"/>
<polygon fill="#29235c" stroke="#29235c" points="734.14,-1936.23 744.31,-1933.26 734.5,-1929.24 734.14,-1936.23"/>
<text text-anchor="middle" x="735.41" y="-1904.46" font-family="Helvetica,sans-Serif" font-size="32.00" fill="#29235c">1</text>
<text text-anchor="middle" x="487.74" y="-589.46" font-family="Helvetica,sans-Serif" font-size="32.00" fill="#29235c">*</text>
</g>
<!-- job_application&#45;&gt;job -->
<g id="edge7" class="edge">
<title>job_application:e&#45;&gt;job:w</title>
<path fill="none" stroke="#29235c" d="M481.52,-678.26C582.05,-678.26 605.78,-637.14 701.21,-634.41"/>
<polygon fill="#29235c" stroke="#29235c" points="701.36,-637.9 711.31,-634.26 701.26,-630.91 701.36,-637.9"/>
<text text-anchor="middle" x="720.2" y="-605.46" font-family="Helvetica,sans-Serif" font-size="32.00" fill="#29235c">1</text>
<text text-anchor="middle" x="487.74" y="-649.46" font-family="Helvetica,sans-Serif" font-size="32.00" fill="#29235c">*</text>
</g>
<!-- event -->
<g id="event" class="node">
<title>event</title>
<ellipse fill="none" stroke="black" stroke-width="0" cx="892.31" cy="-1291.26" rx="255.03" ry="424.03"/>
<polygon fill="#1d71b8" stroke="transparent" points="712.31,-1531.26 712.31,-1591.26 1073.31,-1591.26 1073.31,-1531.26 712.31,-1531.26"/>
<polygon fill="none" stroke="black" points="712.31,-1531.26 712.31,-1591.26 1073.31,-1591.26 1073.31,-1531.26 712.31,-1531.26"/>
<text text-anchor="start" x="791.43" y="-1552.46" font-family="Helvetica,sans-Serif" font-weight="bold" font-size="32.00" fill="#ffffff"> &#160;&#160;&#160;&#160;&#160;&#160;event &#160;&#160;&#160;&#160;&#160;&#160;</text>
<polygon fill="#e7e2dd" stroke="transparent" points="712.31,-1471.26 712.31,-1531.26 1073.31,-1531.26 1073.31,-1471.26 712.31,-1471.26"/>
<polygon fill="none" stroke="black" points="712.31,-1471.26 712.31,-1531.26 1073.31,-1531.26 1073.31,-1471.26 712.31,-1471.26"/>
<text text-anchor="start" x="880.36" y="-1491.46" font-family="Helvetica,sans-Serif" font-size="32.00" fill="#29235c">id</text>
<polygon fill="#e7e2dd" stroke="transparent" points="712.31,-1411.26 712.31,-1471.26 1073.31,-1471.26 1073.31,-1411.26 712.31,-1411.26"/>
<polygon fill="none" stroke="black" points="712.31,-1411.26 712.31,-1471.26 1073.31,-1471.26 1073.31,-1411.26 712.31,-1411.26"/>
<text text-anchor="start" x="723.01" y="-1432.46" font-family="Helvetica,sans-Serif" font-size="32.00" fill="#29235c">company_id </text>
<text text-anchor="start" x="904.39" y="-1432.46" font-family="Helvetica,sans-Serif" font-style="italic" font-size="32.00" fill="#29235c">NOT NULL</text>
<polygon fill="#e7e2dd" stroke="transparent" points="712.31,-1351.26 712.31,-1411.26 1073.31,-1411.26 1073.31,-1351.26 712.31,-1351.26"/>
<polygon fill="none" stroke="black" points="712.31,-1351.26 712.31,-1411.26 1073.31,-1411.26 1073.31,-1351.26 712.31,-1351.26"/>
<text text-anchor="start" x="852.8" y="-1371.46" font-family="Helvetica,sans-Serif" font-size="32.00" fill="#29235c">name</text>
<polygon fill="#e7e2dd" stroke="transparent" points="712.31,-1291.26 712.31,-1351.26 1073.31,-1351.26 1073.31,-1291.26 712.31,-1291.26"/>
<polygon fill="none" stroke="black" points="712.31,-1291.26 712.31,-1351.26 1073.31,-1351.26 1073.31,-1291.26 712.31,-1291.26"/>
<text text-anchor="start" x="815.46" y="-1311.46" font-family="Helvetica,sans-Serif" font-size="32.00" fill="#29235c">description</text>
<polygon fill="#e7e2dd" stroke="transparent" points="712.31,-1231.26 712.31,-1291.26 1073.31,-1291.26 1073.31,-1231.26 712.31,-1231.26"/>
<polygon fill="none" stroke="black" points="712.31,-1231.26 712.31,-1291.26 1073.31,-1291.26 1073.31,-1231.26 712.31,-1231.26"/>
<text text-anchor="start" x="862.59" y="-1251.46" font-family="Helvetica,sans-Serif" font-size="32.00" fill="#29235c">time</text>
<polygon fill="#e7e2dd" stroke="transparent" points="712.31,-1171.26 712.31,-1231.26 1073.31,-1231.26 1073.31,-1171.26 712.31,-1171.26"/>
<polygon fill="none" stroke="black" points="712.31,-1171.26 712.31,-1231.26 1073.31,-1231.26 1073.31,-1171.26 712.31,-1171.26"/>
<text text-anchor="start" x="837.68" y="-1191.46" font-family="Helvetica,sans-Serif" font-size="32.00" fill="#29235c">location</text>
<polygon fill="#e7e2dd" stroke="transparent" points="712.31,-1111.26 712.31,-1171.26 1073.31,-1171.26 1073.31,-1111.26 712.31,-1111.26"/>
<polygon fill="none" stroke="black" points="712.31,-1111.26 712.31,-1171.26 1073.31,-1171.26 1073.31,-1111.26 712.31,-1111.26"/>
<text text-anchor="start" x="832.37" y="-1131.46" font-family="Helvetica,sans-Serif" font-size="32.00" fill="#29235c">eligibility</text>
<polygon fill="#e7e2dd" stroke="transparent" points="712.31,-1051.26 712.31,-1111.26 1073.31,-1111.26 1073.31,-1051.26 712.31,-1051.26"/>
<polygon fill="none" stroke="black" points="712.31,-1051.26 712.31,-1111.26 1073.31,-1111.26 1073.31,-1051.26 712.31,-1051.26"/>
<text text-anchor="start" x="817.22" y="-1071.46" font-family="Helvetica,sans-Serif" font-size="32.00" fill="#29235c">created_at</text>
<polygon fill="#e7e2dd" stroke="transparent" points="712.31,-991.26 712.31,-1051.26 1073.31,-1051.26 1073.31,-991.26 712.31,-991.26"/>
<polygon fill="none" stroke="black" points="712.31,-991.26 712.31,-1051.26 1073.31,-1051.26 1073.31,-991.26 712.31,-991.26"/>
<text text-anchor="start" x="812.76" y="-1011.46" font-family="Helvetica,sans-Serif" font-size="32.00" fill="#29235c">updated_at</text>
</g>
<!-- event&#45;&gt;company -->
<g id="edge9" class="edge">
<title>event:e&#45;&gt;company:w</title>
<path fill="none" stroke="#29235c" d="M1074.31,-1441.26C1152.37,-1441.26 1174.4,-1441.26 1247.65,-1441.26"/>
<polygon fill="#29235c" stroke="#29235c" points="1247.84,-1444.76 1257.84,-1441.26 1247.84,-1437.76 1247.84,-1444.76"/>
<text text-anchor="middle" x="1266.73" y="-1450.86" font-family="Helvetica,sans-Serif" font-size="32.00" fill="#29235c">1</text>
<text text-anchor="middle" x="1080.53" y="-1450.86" font-family="Helvetica,sans-Serif" font-size="32.00" fill="#29235c">*</text>
</g>
<!-- event_regisiteration -->
<g id="event_regisiteration" class="node">
<title>event_regisiteration</title>
<ellipse fill="none" stroke="black" stroke-width="0" cx="300.52" cy="-1201.26" rx="300.54" ry="212.26"/>
<polygon fill="#1d71b8" stroke="transparent" points="88.52,-1291.26 88.52,-1351.26 513.52,-1351.26 513.52,-1291.26 88.52,-1291.26"/>
<polygon fill="none" stroke="black" points="88.52,-1291.26 88.52,-1351.26 513.52,-1351.26 513.52,-1291.26 88.52,-1291.26"/>
<text text-anchor="start" x="99.18" y="-1312.46" font-family="Helvetica,sans-Serif" font-weight="bold" font-size="32.00" fill="#ffffff"> &#160;&#160;&#160;&#160;&#160;&#160;event_regisiteration &#160;&#160;&#160;&#160;&#160;&#160;</text>
<polygon fill="#e7e2dd" stroke="transparent" points="88.52,-1231.26 88.52,-1291.26 513.52,-1291.26 513.52,-1231.26 88.52,-1231.26"/>
<polygon fill="none" stroke="black" points="88.52,-1231.26 88.52,-1291.26 513.52,-1291.26 513.52,-1231.26 88.52,-1231.26"/>
<text text-anchor="start" x="288.58" y="-1251.46" font-family="Helvetica,sans-Serif" font-size="32.00" fill="#29235c">id</text>
<polygon fill="#e7e2dd" stroke="transparent" points="88.52,-1171.26 88.52,-1231.26 513.52,-1231.26 513.52,-1171.26 88.52,-1171.26"/>
<polygon fill="none" stroke="black" points="88.52,-1171.26 88.52,-1231.26 513.52,-1231.26 513.52,-1171.26 88.52,-1171.26"/>
<text text-anchor="start" x="157" y="-1192.46" font-family="Helvetica,sans-Serif" font-size="32.00" fill="#29235c">event_id </text>
<text text-anchor="start" x="286.83" y="-1192.46" font-family="Helvetica,sans-Serif" font-style="italic" font-size="32.00" fill="#29235c">NOT NULL</text>
<polygon fill="#e7e2dd" stroke="transparent" points="88.52,-1111.26 88.52,-1171.26 513.52,-1171.26 513.52,-1111.26 88.52,-1111.26"/>
<polygon fill="none" stroke="black" points="88.52,-1111.26 88.52,-1171.26 513.52,-1171.26 513.52,-1111.26 88.52,-1111.26"/>
<text text-anchor="start" x="132.11" y="-1132.46" font-family="Helvetica,sans-Serif" font-size="32.00" fill="#29235c">applicant_id </text>
<text text-anchor="start" x="311.72" y="-1132.46" font-family="Helvetica,sans-Serif" font-style="italic" font-size="32.00" fill="#29235c">NOT NULL</text>
<polygon fill="#e7e2dd" stroke="transparent" points="88.52,-1051.26 88.52,-1111.26 513.52,-1111.26 513.52,-1051.26 88.52,-1051.26"/>
<polygon fill="none" stroke="black" points="88.52,-1051.26 88.52,-1111.26 513.52,-1111.26 513.52,-1051.26 88.52,-1051.26"/>
<text text-anchor="start" x="204.11" y="-1071.46" font-family="Helvetica,sans-Serif" font-size="32.00" fill="#29235c">regisitered_at</text>
</g>
<!-- event_regisiteration&#45;&gt;profile -->
<g id="edge11" class="edge">
<title>event_regisiteration:e&#45;&gt;profile:w</title>
<path fill="none" stroke="#29235c" d="M514.52,-1141.26C646.91,-1141.26 598.37,-1597.65 637.04,-1724.26 666.5,-1820.71 641.72,-1925.81 734.06,-1932.89"/>
<polygon fill="#29235c" stroke="#29235c" points="734.18,-1936.39 744.31,-1933.26 734.44,-1929.4 734.18,-1936.39"/>
<text text-anchor="middle" x="753.2" y="-1942.86" font-family="Helvetica,sans-Serif" font-size="32.00" fill="#29235c">1</text>
<text text-anchor="middle" x="520.74" y="-1112.46" font-family="Helvetica,sans-Serif" font-size="32.00" fill="#29235c">*</text>
</g>
<!-- event_regisiteration&#45;&gt;event -->
<g id="edge10" class="edge">
<title>event_regisiteration:e&#45;&gt;event:w</title>
<path fill="none" stroke="#29235c" d="M514.52,-1201.26C670.4,-1201.26 557.19,-1487.94 700.98,-1500.82"/>
<polygon fill="#29235c" stroke="#29235c" points="701.16,-1504.33 711.31,-1501.26 701.47,-1497.33 701.16,-1504.33"/>
<text text-anchor="middle" x="720.2" y="-1510.86" font-family="Helvetica,sans-Serif" font-size="32.00" fill="#29235c">1</text>
<text text-anchor="middle" x="520.74" y="-1210.86" font-family="Helvetica,sans-Serif" font-size="32.00" fill="#29235c">*</text>
</g>
</g>
</svg>
