<?xml version="1.0" encoding="UTF-8" standalone="no"?>
<!DOCTYPE svg PUBLIC "-//W3C//DTD SVG 1.1//EN"
 "http://www.w3.org/Graphics/SVG/1.1/DTD/svg11.dtd">
<!-- Generated by graphviz version 2.47.0 (20210316.0004)
 -->
<!-- Title: dbml Pages: 1 -->
<svg width="1322pt" height="268pt"
 viewBox="0.00 0.00 1322.45 268.22" xmlns="http://www.w3.org/2000/svg" xmlns:xlink="http://www.w3.org/1999/xlink">
<g id="graph0" class="graph" transform="scale(1 1) rotate(0) translate(4 264.22)">
<title>dbml</title>
<!-- [dbo].[Order] -->
<g id="[dbo].[Order]" class="node">
<title>[dbo].[Order]</title>
<ellipse fill="none" stroke="black" stroke-width="0" cx="952.41" cy="-130.11" rx="362.08" ry="130.22"/>
<polygon fill="#1d71b8" stroke="transparent" points="698.41,-160.11 698.41,-220.11 1206.41,-220.11 1206.41,-160.11 698.41,-160.11"/>
<polygon fill="none" stroke="#29235c" points="698.41,-160.11 698.41,-220.11 1206.41,-220.11 1206.41,-160.11 698.41,-160.11"/>
<text text-anchor="start" x="800.36" y="-181.31" font-family="Helvetica,sans-Serif" font-weight="bold" font-size="32.00" fill="#ffffff"> &#160;&#160;&#160;&#160;&#160;&#160;[dbo].[Order] &#160;&#160;&#160;&#160;&#160;&#160;</text>
<polygon fill="#e7e2dd" stroke="transparent" points="698.41,-100.11 698.41,-160.11 1206.41,-160.11 1206.41,-100.11 698.41,-100.11"/>
<polygon fill="none" stroke="#29235c" points="698.41,-100.11 698.41,-160.11 1206.41,-160.11 1206.41,-100.11 698.41,-100.11"/>
<text text-anchor="start" x="709.41" y="-121.31" font-family="Helvetica,sans-Serif" font-weight="bold" font-size="32.00" fill="#29235c">id</text>
<text text-anchor="start" x="734.3" y="-121.31" font-family="Helvetica,sans-Serif" font-size="32.00" fill="#29235c"> &#160;&#160;&#160;</text>
<text text-anchor="start" x="939.38" y="-121.31" font-family="Helvetica,sans-Serif" font-style="italic" font-size="32.00" fill="#29235c">uniqueidentifier</text>
<text text-anchor="start" x="1156.32" y="-121.31" font-family="Helvetica,sans-Serif" font-size="32.00" fill="#29235c"> </text>
<text text-anchor="start" x="1165.21" y="-121.31" font-family="Helvetica,sans-Serif" font-weight="bold" font-size="32.00" fill="#29235c">(!)</text>
<polygon fill="#e7e2dd" stroke="transparent" points="698.41,-40.11 698.41,-100.11 1206.41,-100.11 1206.41,-40.11 698.41,-40.11"/>
<polygon fill="none" stroke="#29235c" points="698.41,-40.11 698.41,-100.11 1206.41,-100.11 1206.41,-40.11 698.41,-40.11"/>
<text text-anchor="start" x="708.94" y="-60.31" font-family="Helvetica,sans-Serif" font-size="32.00" fill="#29235c">client_fullname &#160;&#160;&#160;</text>
<text text-anchor="start" x="957.3" y="-61.31" font-family="Helvetica,sans-Serif" font-style="italic" font-size="32.00" fill="#29235c">nvarchar(261)</text>
<text text-anchor="start" x="1156.43" y="-61.31" font-family="Helvetica,sans-Serif" font-size="32.00" fill="#29235c"> </text>
<text text-anchor="start" x="1165.32" y="-61.31" font-family="Helvetica,sans-Serif" font-weight="bold" font-size="32.00" fill="#29235c">(!)</text>
<polygon fill="none" stroke="#29235c" stroke-width="2" points="697.41,-39.11 697.41,-221.11 1207.41,-221.11 1207.41,-39.11 697.41,-39.11"/>
</g>
<!-- [dbo].[OrderItem] -->
<g id="[dbo].[OrderItem]" class="node">
<title>[dbo].[OrderItem]</title>
<ellipse fill="none" stroke="black" stroke-width="0" cx="277.19" cy="-130.11" rx="277.37" ry="130.22"/>
<polygon fill="#1d71b8" stroke="transparent" points="83.19,-160.11 83.19,-220.11 471.19,-220.11 471.19,-160.11 83.19,-160.11"/>
<polygon fill="none" stroke="#29235c" points="83.19,-160.11 83.19,-220.11 471.19,-220.11 471.19,-160.11 83.19,-160.11"/>
<text text-anchor="start" x="94.02" y="-181.31" font-family="Helvetica,sans-Serif" font-weight="bold" font-size="32.00" fill="#ffffff"> &#160;&#160;&#160;&#160;&#160;&#160;[dbo].[OrderItem] &#160;&#160;&#160;&#160;&#160;&#160;</text>
<polygon fill="#e7e2dd" stroke="transparent" points="83.19,-100.11 83.19,-160.11 471.19,-160.11 471.19,-100.11 83.19,-100.11"/>
<polygon fill="none" stroke="#29235c" points="83.19,-100.11 83.19,-160.11 471.19,-160.11 471.19,-100.11 83.19,-100.11"/>
<text text-anchor="start" x="94.19" y="-121.31" font-family="Helvetica,sans-Serif" font-weight="bold" font-size="32.00" fill="#29235c">id</text>
<text text-anchor="start" x="119.08" y="-121.31" font-family="Helvetica,sans-Serif" font-size="32.00" fill="#29235c"> &#160;&#160;&#160;</text>
<text text-anchor="start" x="204.15" y="-121.31" font-family="Helvetica,sans-Serif" font-style="italic" font-size="32.00" fill="#29235c">uniqueidentifier</text>
<text text-anchor="start" x="421.09" y="-121.31" font-family="Helvetica,sans-Serif" font-size="32.00" fill="#29235c"> </text>
<text text-anchor="start" x="429.99" y="-121.31" font-family="Helvetica,sans-Serif" font-weight="bold" font-size="32.00" fill="#29235c">(!)</text>
<polygon fill="#e7e2dd" stroke="transparent" points="83.19,-40.11 83.19,-100.11 471.19,-100.11 471.19,-40.11 83.19,-40.11"/>
<polygon fill="none" stroke="#29235c" points="83.19,-40.11 83.19,-100.11 471.19,-100.11 471.19,-40.11 83.19,-40.11"/>
<text text-anchor="start" x="94.19" y="-61.31" font-family="Helvetica,sans-Serif" font-weight="bold" font-size="32.00" fill="#29235c">order_id</text>
<text text-anchor="start" x="211.54" y="-61.31" font-family="Helvetica,sans-Serif" font-size="32.00" fill="#29235c"> &#160;&#160;&#160;</text>
<text text-anchor="start" x="387.31" y="-61.31" font-family="Helvetica,sans-Serif" font-style="italic" font-size="32.00" fill="#29235c">int</text>
<text text-anchor="start" x="421.09" y="-61.31" font-family="Helvetica,sans-Serif" font-size="32.00" fill="#29235c"> </text>
<text text-anchor="start" x="429.99" y="-61.31" font-family="Helvetica,sans-Serif" font-weight="bold" font-size="32.00" fill="#29235c">(!)</text>
<polygon fill="none" stroke="#29235c" stroke-width="2" points="82.19,-39.11 82.19,-221.11 472.19,-221.11 472.19,-39.11 82.19,-39.11"/>
</g>
<!-- [dbo].[OrderItem]&#45;&gt;[dbo].[Order] -->
<!-- [dbo].[OrderItem]&#45;&gt;[dbo].[Order] -->
<g id="edge2" class="edge">
<title>[dbo].[OrderItem]:e&#45;&gt;[dbo].[Order]:w</title>
<path fill="none" stroke="#29235c" stroke-width="3" d="M472.19,-70.11C572.34,-70.11 592.53,-126.19 687.37,-129.91"/>
<polygon fill="#29235c" stroke="#29235c" stroke-width="3" points="687.34,-133.41 697.41,-130.11 687.48,-126.42 687.34,-133.41"/>
<text text-anchor="middle" x="688.52" y="-101.31" font-family="Helvetica,sans-Serif" font-size="32.00" fill="#29235c">1</text>
<text text-anchor="middle" x="465.96" y="-41.31" font-family="Helvetica,sans-Serif" font-size="32.00" fill="#29235c">*</text>
</g>
</g>
</svg>
