<?xml version="1.0" encoding="UTF-8" standalone="no"?>
<!DOCTYPE svg PUBLIC "-//W3C//DTD SVG 1.1//EN"
 "http://www.w3.org/Graphics/SVG/1.1/DTD/svg11.dtd">
<!-- Generated by graphviz version 2.44.1 (20200629.0846)
 -->
<!-- Title: dbml Pages: 1 -->
<svg width="675pt" height="625pt"
 viewBox="0.00 0.00 674.74 624.69" xmlns="http://www.w3.org/2000/svg" xmlns:xlink="http://www.w3.org/1999/xlink">
<g id="graph0" class="graph" transform="scale(1 1) rotate(0) translate(4 620.69)">
<title>dbml</title>
<!-- users -->
<g id="users" class="node">
<title>users</title>
<ellipse fill="none" stroke="black" stroke-width="0" cx="508.35" cy="-212.13" rx="158.28" ry="212.26"/>
<polygon fill="#1d71b8" stroke="transparent" points="396.35,-302.13 396.35,-362.13 620.35,-362.13 620.35,-302.13 396.35,-302.13"/>
<polygon fill="none" stroke="black" points="396.35,-302.13 396.35,-362.13 620.35,-362.13 620.35,-302.13 396.35,-302.13"/>
<text text-anchor="start" x="406.98" y="-323.33" font-family="Helvetica,sans-Serif" font-weight="bold" font-size="32.00" fill="#ffffff"> &#160;&#160;&#160;&#160;&#160;&#160;users &#160;&#160;&#160;&#160;&#160;&#160;</text>
<polygon fill="#e7e2dd" stroke="transparent" points="396.35,-242.13 396.35,-302.13 620.35,-302.13 620.35,-242.13 396.35,-242.13"/>
<polygon fill="none" stroke="black" points="396.35,-242.13 396.35,-302.13 620.35,-302.13 620.35,-242.13 396.35,-242.13"/>
<text text-anchor="start" x="495.9" y="-262.33" font-family="Helvetica,sans-Serif" font-size="32.00" fill="#29235c">id</text>
<polygon fill="#e7e2dd" stroke="transparent" points="396.35,-182.13 396.35,-242.13 620.35,-242.13 620.35,-182.13 396.35,-182.13"/>
<polygon fill="none" stroke="black" points="396.35,-182.13 396.35,-242.13 620.35,-242.13 620.35,-182.13 396.35,-182.13"/>
<text text-anchor="start" x="437.22" y="-202.33" font-family="Helvetica,sans-Serif" font-size="32.00" fill="#29235c">username</text>
<polygon fill="#e7e2dd" stroke="transparent" points="396.35,-122.13 396.35,-182.13 620.35,-182.13 620.35,-122.13 396.35,-122.13"/>
<polygon fill="none" stroke="black" points="396.35,-122.13 396.35,-182.13 620.35,-182.13 620.35,-122.13 396.35,-122.13"/>
<text text-anchor="start" x="481.68" y="-142.33" font-family="Helvetica,sans-Serif" font-size="32.00" fill="#29235c">role</text>
<polygon fill="#e7e2dd" stroke="transparent" points="396.35,-62.13 396.35,-122.13 620.35,-122.13 620.35,-62.13 396.35,-62.13"/>
<polygon fill="none" stroke="black" points="396.35,-62.13 396.35,-122.13 620.35,-122.13 620.35,-62.13 396.35,-62.13"/>
<text text-anchor="start" x="432.76" y="-82.33" font-family="Helvetica,sans-Serif" font-size="32.00" fill="#29235c">created_at</text>
</g>
<!-- posts -->
<g id="posts" class="node">
<title>posts</title>
<ellipse fill="none" stroke="black" stroke-width="0" cx="156.98" cy="-362.13" rx="156.96" ry="254.62"/>
<polygon fill="#1d71b8" stroke="transparent" points="45.98,-482.13 45.98,-542.13 267.98,-542.13 267.98,-482.13 45.98,-482.13"/>
<polygon fill="none" stroke="black" points="45.98,-482.13 45.98,-542.13 267.98,-542.13 267.98,-482.13 45.98,-482.13"/>
<text text-anchor="start" x="56.49" y="-503.33" font-family="Helvetica,sans-Serif" font-weight="bold" font-size="32.00" fill="#ffffff"> &#160;&#160;&#160;&#160;&#160;&#160;posts &#160;&#160;&#160;&#160;&#160;&#160;</text>
<polygon fill="#e7e2dd" stroke="transparent" points="45.98,-422.13 45.98,-482.13 267.98,-482.13 267.98,-422.13 45.98,-422.13"/>
<polygon fill="none" stroke="black" points="45.98,-422.13 45.98,-482.13 267.98,-482.13 267.98,-422.13 45.98,-422.13"/>
<text text-anchor="start" x="144.53" y="-442.33" font-family="Helvetica,sans-Serif" font-size="32.00" fill="#29235c">id</text>
<polygon fill="#e7e2dd" stroke="transparent" points="45.98,-362.13 45.98,-422.13 267.98,-422.13 267.98,-362.13 45.98,-362.13"/>
<polygon fill="none" stroke="black" points="45.98,-362.13 45.98,-422.13 267.98,-422.13 267.98,-362.13 45.98,-362.13"/>
<text text-anchor="start" x="132.09" y="-382.33" font-family="Helvetica,sans-Serif" font-size="32.00" fill="#29235c">title</text>
<polygon fill="#e7e2dd" stroke="transparent" points="45.98,-302.13 45.98,-362.13 267.98,-362.13 267.98,-302.13 45.98,-302.13"/>
<polygon fill="none" stroke="black" points="45.98,-302.13 45.98,-362.13 267.98,-362.13 267.98,-302.13 45.98,-302.13"/>
<text text-anchor="start" x="122.29" y="-322.33" font-family="Helvetica,sans-Serif" font-size="32.00" fill="#29235c">body</text>
<polygon fill="#e7e2dd" stroke="transparent" points="45.98,-242.13 45.98,-302.13 267.98,-302.13 267.98,-242.13 45.98,-242.13"/>
<polygon fill="none" stroke="black" points="45.98,-242.13 45.98,-302.13 267.98,-302.13 267.98,-242.13 45.98,-242.13"/>
<text text-anchor="start" x="104.52" y="-262.33" font-family="Helvetica,sans-Serif" font-size="32.00" fill="#29235c">user_id</text>
<polygon fill="#e7e2dd" stroke="transparent" points="45.98,-182.13 45.98,-242.13 267.98,-242.13 267.98,-182.13 45.98,-182.13"/>
<polygon fill="none" stroke="black" points="45.98,-182.13 45.98,-242.13 267.98,-242.13 267.98,-182.13 45.98,-182.13"/>
<text text-anchor="start" x="81.39" y="-202.33" font-family="Helvetica,sans-Serif" font-size="32.00" fill="#29235c">created_at</text>
</g>
<!-- posts&#45;&gt;users -->
<g id="edge1" class="edge">
<title>posts:e&#45;&gt;users:w</title>
<path fill="none" stroke="#29235c" d="M268.98,-272.13C321.63,-272.13 337.26,-272.13 385.29,-272.13"/>
<polygon fill="#29235c" stroke="#29235c" points="385.35,-275.63 395.35,-272.13 385.35,-268.63 385.35,-275.63"/>
<text text-anchor="middle" x="386.45" y="-281.73" font-family="Helvetica,sans-Serif" font-size="32.00" fill="#29235c">1</text>
<text text-anchor="middle" x="275.2" y="-281.73" font-family="Helvetica,sans-Serif" font-size="32.00" fill="#29235c">*</text>
</g>
</g>
</svg>
