<?xml version="1.0" encoding="UTF-8" standalone="no"?>
<!DOCTYPE svg PUBLIC "-//W3C//DTD SVG 1.1//EN"
 "http://www.w3.org/Graphics/SVG/1.1/DTD/svg11.dtd">
<!-- Generated by graphviz version 2.44.1 (20200629.0846)
 -->
<!-- Title: dbml Pages: 1 -->
<svg width="686pt" height="523pt"
 viewBox="0.00 0.00 686.05 522.77" xmlns="http://www.w3.org/2000/svg" xmlns:xlink="http://www.w3.org/1999/xlink">
<g id="graph0" class="graph" transform="scale(1 1) rotate(0) translate(4 518.77)">
<title>dbml</title>
<!-- users -->
<g id="users" class="node">
<title>users</title>
<ellipse fill="none" stroke="black" stroke-width="0" cx="516.83" cy="-287.39" rx="161.44" ry="214.92"/>
<polygon fill="#1d71b8" stroke="transparent" points="404.83,-377.39 404.83,-437.39 628.83,-437.39 628.83,-377.39 404.83,-377.39"/>
<polygon fill="none" stroke="#29235c" points="404.83,-377.39 404.83,-437.39 628.83,-437.39 628.83,-377.39 404.83,-377.39"/>
<text text-anchor="start" x="415.47" y="-398.59" font-family="Helvetica,sans-Serif" font-weight="bold" font-size="32.00" fill="#ffffff"> &#160;&#160;&#160;&#160;&#160;&#160;users &#160;&#160;&#160;&#160;&#160;&#160;</text>
<polygon fill="#e7e2dd" stroke="transparent" points="404.83,-317.39 404.83,-377.39 628.83,-377.39 628.83,-317.39 404.83,-317.39"/>
<polygon fill="none" stroke="#29235c" points="404.83,-317.39 404.83,-377.39 628.83,-377.39 628.83,-317.39 404.83,-317.39"/>
<text text-anchor="start" x="504.39" y="-337.59" font-family="Helvetica,sans-Serif" font-size="32.00" fill="#29235c">id</text>
<polygon fill="#e7e2dd" stroke="transparent" points="404.83,-257.39 404.83,-317.39 628.83,-317.39 628.83,-257.39 404.83,-257.39"/>
<polygon fill="none" stroke="#29235c" points="404.83,-257.39 404.83,-317.39 628.83,-317.39 628.83,-257.39 404.83,-257.39"/>
<text text-anchor="start" x="445.71" y="-277.59" font-family="Helvetica,sans-Serif" font-size="32.00" fill="#29235c">username</text>
<polygon fill="#e7e2dd" stroke="transparent" points="404.83,-197.39 404.83,-257.39 628.83,-257.39 628.83,-197.39 404.83,-197.39"/>
<polygon fill="none" stroke="#29235c" points="404.83,-197.39 404.83,-257.39 628.83,-257.39 628.83,-197.39 404.83,-197.39"/>
<text text-anchor="start" x="490.17" y="-217.59" font-family="Helvetica,sans-Serif" font-size="32.00" fill="#29235c">role</text>
<polygon fill="#e7e2dd" stroke="transparent" points="404.83,-137.39 404.83,-197.39 628.83,-197.39 628.83,-137.39 404.83,-137.39"/>
<polygon fill="none" stroke="#29235c" points="404.83,-137.39 404.83,-197.39 628.83,-197.39 628.83,-137.39 404.83,-137.39"/>
<text text-anchor="start" x="441.25" y="-157.59" font-family="Helvetica,sans-Serif" font-size="32.00" fill="#29235c">created_at</text>
<polygon fill="none" stroke="#29235c" stroke-width="2" points="403.83,-136.39 403.83,-438.39 629.83,-438.39 629.83,-136.39 403.83,-136.39"/>
</g>
<!-- posts -->
<g id="posts" class="node">
<title>posts</title>
<ellipse fill="none" stroke="black" stroke-width="0" cx="159.81" cy="-257.39" rx="159.61" ry="257.27"/>
<polygon fill="#1d71b8" stroke="transparent" points="48.81,-377.39 48.81,-437.39 270.81,-437.39 270.81,-377.39 48.81,-377.39"/>
<polygon fill="none" stroke="#29235c" points="48.81,-377.39 48.81,-437.39 270.81,-437.39 270.81,-377.39 48.81,-377.39"/>
<text text-anchor="start" x="59.32" y="-398.59" font-family="Helvetica,sans-Serif" font-weight="bold" font-size="32.00" fill="#ffffff"> &#160;&#160;&#160;&#160;&#160;&#160;posts &#160;&#160;&#160;&#160;&#160;&#160;</text>
<polygon fill="#e7e2dd" stroke="transparent" points="48.81,-317.39 48.81,-377.39 270.81,-377.39 270.81,-317.39 48.81,-317.39"/>
<polygon fill="none" stroke="#29235c" points="48.81,-317.39 48.81,-377.39 270.81,-377.39 270.81,-317.39 48.81,-317.39"/>
<text text-anchor="start" x="147.36" y="-337.59" font-family="Helvetica,sans-Serif" font-size="32.00" fill="#29235c">id</text>
<polygon fill="#e7e2dd" stroke="transparent" points="48.81,-257.39 48.81,-317.39 270.81,-317.39 270.81,-257.39 48.81,-257.39"/>
<polygon fill="none" stroke="#29235c" points="48.81,-257.39 48.81,-317.39 270.81,-317.39 270.81,-257.39 48.81,-257.39"/>
<text text-anchor="start" x="134.92" y="-277.59" font-family="Helvetica,sans-Serif" font-size="32.00" fill="#29235c">title</text>
<polygon fill="#e7e2dd" stroke="transparent" points="48.81,-197.39 48.81,-257.39 270.81,-257.39 270.81,-197.39 48.81,-197.39"/>
<polygon fill="none" stroke="#29235c" points="48.81,-197.39 48.81,-257.39 270.81,-257.39 270.81,-197.39 48.81,-197.39"/>
<text text-anchor="start" x="125.12" y="-217.59" font-family="Helvetica,sans-Serif" font-size="32.00" fill="#29235c">body</text>
<polygon fill="#e7e2dd" stroke="transparent" points="48.81,-137.39 48.81,-197.39 270.81,-197.39 270.81,-137.39 48.81,-137.39"/>
<polygon fill="none" stroke="#29235c" points="48.81,-137.39 48.81,-197.39 270.81,-197.39 270.81,-137.39 48.81,-137.39"/>
<text text-anchor="start" x="107.35" y="-157.59" font-family="Helvetica,sans-Serif" font-size="32.00" fill="#29235c">user_id</text>
<polygon fill="#e7e2dd" stroke="transparent" points="48.81,-77.39 48.81,-137.39 270.81,-137.39 270.81,-77.39 48.81,-77.39"/>
<polygon fill="none" stroke="#29235c" points="48.81,-77.39 48.81,-137.39 270.81,-137.39 270.81,-77.39 48.81,-77.39"/>
<text text-anchor="start" x="84.22" y="-97.59" font-family="Helvetica,sans-Serif" font-size="32.00" fill="#29235c">created_at</text>
<polygon fill="none" stroke="#29235c" stroke-width="2" points="47.81,-76.39 47.81,-438.39 271.81,-438.39 271.81,-76.39 47.81,-76.39"/>
</g>
<!-- posts&#45;&gt;users -->
<!-- posts&#45;&gt;users -->
<g id="edge2" class="edge">
<title>posts:e&#45;&gt;users:w</title>
<path fill="none" stroke="#29235c" stroke-width="3" d="M271.81,-167.39C367.43,-167.39 309.2,-334.61 393.71,-346.7"/>
<polygon fill="#29235c" stroke="#29235c" stroke-width="3" points="393.62,-350.2 403.83,-347.39 394.09,-343.22 393.62,-350.2"/>
<text text-anchor="middle" x="394.94" y="-356.99" font-family="Helvetica,sans-Serif" font-size="32.00" fill="#29235c">1</text>
<text text-anchor="middle" x="265.58" y="-138.59" font-family="Helvetica,sans-Serif" font-size="32.00" fill="#29235c">*</text>
</g>
</g>
</svg>
